<svg xmlns="http://www.w3.org/2000/svg" width="266" height="223.885" viewBox="0 0 266 223.885">
  <g id="Grupo_58812" data-name="Grupo 58812" transform="translate(-113.756 -472.532)">
    <ellipse id="Elipse_4094" data-name="Elipse 4094" cx="133" cy="19.632" rx="133" ry="19.632" transform="translate(113.756 657.153)" fill="#e5e0ec" style="mix-blend-mode: multiply;isolation: isolate"/>
    <g id="Grupo_58796" data-name="Grupo 58796" transform="translate(293.053 472.532)">
      <path id="Trazado_127418" data-name="Trazado 127418" d="M156.711,497.63c2.972-8.727-.867-11.73-.867-11.73s11.654-10.064,11.62-7.807-.765,8.723,3.926,14.134C172.7,493.734,155.647,500.757,156.711,497.63Z" transform="translate(-136.22 -457.956)" fill="#d18b5e"/>
      <path id="Trazado_127419" data-name="Trazado 127419" d="M159.146,475.106s-2.893.083-3.264,4.036c-.121,1.253.345,4.222-.034,4.835s-2.344,4.066-2.226,4.437,1.738,1.181,1.738,1.181l-.121,2.522.591.655-.14.9.954,2.775s-.023,1.586.477,2.045c2,1.833,8.86.848,10.726-.238s9.4-8.833,8.932-10.878S167.7,473.239,165.1,473.205,159.146,475.106,159.146,475.106Z" transform="translate(-142.426 -470.656)" fill="#e0a679"/>
      <path id="Trazado_127420" data-name="Trazado 127420" d="M154.61,502.048s2.772,45.235,3.593,46.571c1.9,3.1,2.563,43.008,2.306,44.436s7.891,5.971,8.05,2.745c.2-4.055,7.618-31.683,6.732-37.62a89.393,89.393,0,0,0-2.62-11.95c-.435-1.481,7.5-43.141,7.05-44.284S155.333,496.793,154.61,502.048Z" transform="translate(-139.658 -398.414)" fill="#d38359"/>
      <path id="Trazado_127421" data-name="Trazado 127421" d="M172.036,481.246c4.074-.8,6.762,1.537,9.379,10.605s-4.578,23.467-3.177,39.4c.6,6.9,7.516,13.581,8.883,22.907.644,4.415-3.249,15.471-15.085,15.164s-15.933-15.217-15.679-19.367c.144-2.385-.239-25.754-2.389-38.328-.481-2.8-.6-11.7,2.378-17.909C159.526,487.1,166.425,482.356,172.036,481.246Z" transform="translate(-142.174 -448.866)" fill="#e0a679"/>
      <path id="Trazado_127422" data-name="Trazado 127422" d="M154.775,505.117s20.245,48.691,21.6,49.6c2.62,1.742,18.814,37.2,18.969,39.2s10.143.7,8.913-1.075c-1.382-2-4.994-27.519-7.455-33.819s-7.917-11.6-8.224-12.222-5.842-35.894-6.456-38.813S155.245,492.717,154.775,505.117Z" transform="translate(-139.198 -397.609)" fill="#e0a679"/>
      <path id="Trazado_127423" data-name="Trazado 127423" d="M179.91,527.031s2.056,7.353.841,10.386c-.326.814-20.366.863-24.543.492-3.324-.3-5.547-.708-5.547-.708s.159-3.885,1.549-4,14.638-3.748,16.027-5.517,2.552-4.619,3.313-3.567A10.254,10.254,0,0,0,179.91,527.031Z" transform="translate(-150.661 -330.19)" fill="#8b8d92"/>
      <path id="Trazado_127424" data-name="Trazado 127424" d="M188.155,524.445s2.8,6.671,2.257,9.9c-.148.863-18.379,3.968-21.714,3.911-3.321-.053-8.175,0-8.175,0s.011-4.2,1.344-4.6,13.335-3.521,14.32-5.543,1.511-5.055,2.48-4.188S184.524,525.846,188.155,524.445Z" transform="translate(-123.183 -330.539)" fill="#8b8d92"/>
      <path id="Trazado_127425" data-name="Trazado 127425" d="M154.386,478.753s.655-3.661,5.869-5.57,4.517,1.022,6.622.678,2.9.136,7.186,2.59,5.263,6.656,4.843,10.605-7.345,10.177-7.345,10.177-8.341-12.639-7.959-14.115S154.386,478.753,154.386,478.753Z" transform="translate(-140.282 -472.532)" fill="#6a271f"/>
      <path id="Trazado_127426" data-name="Trazado 127426" d="M160.793,479.6c-.216,1.882-1.261,3.309-2.336,3.188s-1.776-1.749-1.56-3.635,1.265-3.309,2.34-3.184S161.009,477.715,160.793,479.6Z" transform="translate(-133.395 -462.985)" fill="#e0a679"/>
      <path id="Trazado_127427" data-name="Trazado 127427" d="M175.529,527.825c2.151-12.438,4.464-25.19,4.191-25.879-.458-1.14-24.387-5.153-25.111.1,0,0,.848,13.865,1.749,26.47Z" transform="translate(-139.658 -398.084)" fill="#22272c"/>
      <path id="Trazado_127428" data-name="Trazado 127428" d="M186.178,533.166c-1.087-6.728-2.147-13.286-2.692-16.463a13.368,13.368,0,0,0,1.693-7.433c-.663-4.528-2.635-8.436-4.559-12.044l-.015-.015a27.779,27.779,0,0,1-8.2,4.574c-4.3,1.333-17.966.049-17.966.049h0c.015,1.647.008,2.8-.019,3.233a19.923,19.923,0,0,0,1.393,6.955v.011l.049.117c.284.78.6,1.568.981,2.359,1.9,4.566,6.187,14.793,10.359,24.562Z" transform="translate(-140.232 -404.195)" fill="#475055"/>
      <path id="Trazado_127429" data-name="Trazado 127429" d="M162.581,502.182s-2.969,2.556-3.2,3.51-2.257,7.152-2.014,7.368,1.711-.348,2.347-1.719,1.019-1.075,1.219-.61a34.537,34.537,0,0,1,.095,5.252c-.352,2.912.47,4.756,1.655,5.066,1.151.3,3.881-2.613,4.271-3.87a36.734,36.734,0,0,0,1.143-9.481c-.242-3.268-.435-4.267-.435-4.267Z" transform="translate(-132.041 -390.369)" fill="#e0a679"/>
      <path id="Trazado_127430" data-name="Trazado 127430" d="M155,517.647c.027-.435-3.586-14.513,1.083-24.728,1.575-3.442,7.148-10.776,11.594-11.2,22.021-2.1,3.48,39.2,3.468,40.506s-1.019,17.879-.647,23.615l-14.07-.625C156.27,541.406,154.963,518.245,155,517.647Z" transform="translate(-142.223 -447.331)" fill="#d18b5e"/>
      <path id="Trazado_127431" data-name="Trazado 127431" d="M163.654,482.121c2.4.1,5.335,3.377,5.8,7.413s-.223,29.086.318,31.824a55.87,55.87,0,0,1,1.272,14.217c-.223,7.205-2.571,23.766-2.571,23.766l-5.077-1.249s-3.415-16.735-3.582-20.87c-.155-3.809.144-14.433.182-15.035s-2.942-22.937-2.946-25.043C157.04,488.668,158.017,481.886,163.654,482.121Z" transform="translate(-132.857 -446.039)" fill="#e0a679"/>
    </g>
    <g id="Grupo_58811" data-name="Grupo 58811" transform="translate(122.841 492.162)">
      <g id="Grupo_58797" data-name="Grupo 58797" transform="translate(70.793 27.251)">
        <rect id="Rectángulo_7209" data-name="Rectángulo 7209" width="14.564" height="15.422" transform="translate(34.609 54.851) rotate(180)" fill="#8b8d92"/>
        <path id="Trazado_127432" data-name="Trazado 127432" d="M144.023,495.327H129.458v4.164l10.508,11.331,4.056-.073Z" transform="translate(-109.413 -455.898)" fill="#c7ccd3" style="mix-blend-mode: multiply;isolation: isolate"/>
        <rect id="Rectángulo_7210" data-name="Rectángulo 7210" width="54.654" height="39.429" transform="translate(54.654 39.429) rotate(180)" fill="#8b8d92"/>
        <rect id="Rectángulo_7211" data-name="Rectángulo 7211" width="53.063" height="37.917" transform="translate(53.886 38.665) rotate(180)" fill="#c7ccd3"/>
        <rect id="Rectángulo_7212" data-name="Rectángulo 7212" width="48.199" height="31.906" transform="translate(51.427 35.386) rotate(180)" fill="#006590"/>
        <path id="Trazado_127433" data-name="Trazado 127433" d="M173.216,485.833,127.79,488.09l-2.773,29.649V485.833Z" transform="translate(-121.789 -482.353)" fill="#7cabd6" style="mix-blend-mode: multiply;isolation: isolate"/>
      </g>
      <path id="Trazado_127434" data-name="Trazado 127434" d="M121.538,583.229h84.329V500.506H121.538v15.4l67.7,20.555V575.25l-67.367.311Z" transform="translate(-60.689 -414.98)" fill="#22272c"/>
      <rect id="Rectángulo_7213" data-name="Rectángulo 7213" width="84.329" height="3.021" transform="translate(145.177 168.495) rotate(180)" fill="#22272c"/>
      <g id="Grupo_58800" data-name="Grupo 58800" transform="translate(0 69.985)">
        <g id="Grupo_58798" data-name="Grupo 58798" transform="translate(4.957 100.028)">
          <rect id="Rectángulo_7214" data-name="Rectángulo 7214" width="57.459" height="3.428" fill="#8b8d92"/>
          <path id="Trazado_127435" data-name="Trazado 127435" d="M117.372,528.922a5.225,5.225,0,1,1-5.221-5.225A5.228,5.228,0,0,1,117.372,528.922Z" transform="translate(-106.37 -520.376)" fill="#22272c"/>
          <path id="Trazado_127436" data-name="Trazado 127436" d="M129.431,528.922A5.225,5.225,0,1,1,124.2,523.7,5.23,5.23,0,0,1,129.431,528.922Z" transform="translate(-72.77 -520.376)" fill="#22272c"/>
          <path id="Trazado_127437" data-name="Trazado 127437" d="M126.562,527.7a3.572,3.572,0,1,1-3.574-3.571A3.569,3.569,0,0,1,126.562,527.7Z" transform="translate(-71.555 -519.159)" fill="#6d7479"/>
          <rect id="Rectángulo_7215" data-name="Rectángulo 7215" width="57.459" height="0.856" fill="#919799"/>
          <path id="Trazado_127438" data-name="Trazado 127438" d="M114.507,527.7a3.574,3.574,0,1,1-3.57-3.571A3.57,3.57,0,0,1,114.507,527.7Z" transform="translate(-105.155 -519.159)" fill="#6d7479"/>
        </g>
        <g id="Grupo_58799" data-name="Grupo 58799">
          <path id="Trazado_127439" data-name="Trazado 127439" d="M112.388,518.341a16.768,16.768,0,0,1-2.079-4.18,19.588,19.588,0,0,1-.629-4.138c0-3.393.348-5.57-2.359-5.767-1.121-.083-1.31,3.677-1.31,7.069a12.055,12.055,0,0,0,.965,5.206,17.1,17.1,0,0,0,1.431,2.8c1.961,3.116,4.9,5.676,6.062,5.119C117.189,523.15,114.974,521.578,112.388,518.341Z" transform="translate(-103.948 -474.52)" fill="#8b8d92"/>
          <rect id="Rectángulo_7216" data-name="Rectángulo 7216" width="7.624" height="43.916" transform="translate(29.685 56.112)" fill="#8b8d92"/>
          <path id="Trazado_127440" data-name="Trazado 127440" d="M120.931,555.524V511.082h-7.624V529.39Z" transform="translate(-83.622 -455.496)" fill="#c7ccd3" style="mix-blend-mode: multiply;isolation: isolate"/>
          <path id="Trazado_127441" data-name="Trazado 127441" d="M159.14,515.754a5.09,5.09,0,0,1-5.513,4.631L112.5,518.253a5.1,5.1,0,0,1-5.005-5.18h0a5.09,5.09,0,0,1,5.517-4.627l41.119,2.124a5.093,5.093,0,0,1,5.005,5.183Z" transform="translate(-99.824 -462.861)" fill="#006590"/>
          <path id="Trazado_127442" data-name="Trazado 127442" d="M113.009,527.913c-.151.962-1.973,1.439-4.036,1.071h0c-2.079-.367-3.631-1.374-3.5-2.249a90.4,90.4,0,0,0,0-27.962c-.133-.875,1.42-1.882,3.5-2.249h0c2.064-.367,3.885.11,4.036,1.072A98.311,98.311,0,0,1,113.009,527.913Z" transform="translate(-105.467 -496.401)" fill="#006590"/>
        </g>
      </g>
      <g id="Grupo_58806" data-name="Grupo 58806" transform="translate(102.772 75.896)">
        <g id="Grupo_58801" data-name="Grupo 58801" transform="translate(1.632 1.195)">
          <path id="Trazado_127443" data-name="Trazado 127443" d="M135.342,498.161l-2.148.237-.152,1.186,2.693-.3Z" transform="translate(-133.041 -498.161)" fill="#aba9a5"/>
          <path id="Trazado_127444" data-name="Trazado 127444" d="M135.017,498.208l-1.842.2-.134,1.042,2.321-.256Z" transform="translate(-133.041 -498.031)" fill="#807d79"/>
        </g>
        <g id="Grupo_58802" data-name="Grupo 58802" transform="translate(4.326 0.895)">
          <path id="Trazado_127445" data-name="Trazado 127445" d="M136.05,498.082l-2.145.24-.152,1.183,2.688-.3Z" transform="translate(-133.753 -498.082)" fill="#aba9a5"/>
          <path id="Trazado_127446" data-name="Trazado 127446" d="M135.729,498.129l-1.844.2-.132,1.04,2.318-.256Z" transform="translate(-133.753 -497.95)" fill="#807d79"/>
        </g>
        <g id="Grupo_58803" data-name="Grupo 58803" transform="translate(7.013 0.596)">
          <path id="Trazado_127447" data-name="Trazado 127447" d="M136.763,498l-2.148.24-.153,1.185,2.693-.3Z" transform="translate(-134.462 -498.003)" fill="#aba9a5"/>
          <path id="Trazado_127448" data-name="Trazado 127448" d="M136.437,498.05l-1.838.205-.136,1.041,2.322-.258Z" transform="translate(-134.462 -497.871)" fill="#807d79"/>
        </g>
        <g id="Grupo_58804" data-name="Grupo 58804" transform="translate(9.707 0.298)">
          <path id="Trazado_127449" data-name="Trazado 127449" d="M137.471,497.924l-2.148.24-.15,1.187,2.691-.3Z" transform="translate(-135.174 -497.924)" fill="#aba9a5"/>
          <path id="Trazado_127450" data-name="Trazado 127450" d="M137.146,497.971l-1.841.208-.131,1.04,2.318-.257Z" transform="translate(-135.174 -497.793)" fill="#807d79"/>
        </g>
        <g id="Grupo_58805" data-name="Grupo 58805" transform="translate(12.398)">
          <path id="Trazado_127451" data-name="Trazado 127451" d="M138.182,497.845l-2.148.238-.15,1.187,2.69-.3Z" transform="translate(-135.885 -497.845)" fill="#aba9a5"/>
          <path id="Trazado_127452" data-name="Trazado 127452" d="M137.856,497.892l-1.84.2-.131,1.043,2.318-.258Z" transform="translate(-135.885 -497.715)" fill="#807d79"/>
        </g>
        <rect id="Rectángulo_7217" data-name="Rectángulo 7217" width="16.65" height="3.506" transform="translate(0 2.357) rotate(-6.328)" fill="#8b8d92"/>
        <path id="Trazado_127453" data-name="Trazado 127453" d="M139.834,500.743l-1.931.027-2.142-1.4,3.918-.434Z" transform="translate(-123.829 -494.81)" fill="#8b8d92"/>
      </g>
      <g id="Grupo_58807" data-name="Grupo 58807" transform="translate(130.104 16.709)">
        <rect id="Rectángulo_7218" data-name="Rectángulo 7218" width="3.209" height="42.037" transform="translate(5.118 21.944)" fill="#c7ccd3"/>
        <rect id="Rectángulo_7219" data-name="Rectángulo 7219" width="10.996" height="1.482" transform="translate(1.268 63.978)" fill="#c7ccd3"/>
        <path id="Trazado_127454" data-name="Trazado 127454" d="M142.478,504.549h-1.763l1.15-16.624h.613Z" transform="translate(-137.36 -465.981)" fill="#8b8d92"/>
        <rect id="Rectángulo_7220" data-name="Rectángulo 7220" width="51.935" height="2.828" transform="translate(0 51.845) rotate(-86.63)" fill="#c7ccd3"/>
      </g>
      <g id="Grupo_58809" data-name="Grupo 58809" transform="translate(11.592)">
        <path id="Trazado_127455" data-name="Trazado 127455" d="M122.9,525.449s-1.367,7.872.31,11.12c.451.871,23.361.049,26.508-1.715s5.706-3.446,5.706-3.446-1.1-3.317-2.582-3.253-15.815-1.791-17.515-3.589-3.3-4.846-3.964-3.555A10.767,10.767,0,0,1,122.9,525.449Z" transform="translate(-69.945 -358.711)" fill="#006590"/>
        <path id="Trazado_127456" data-name="Trazado 127456" d="M126.092,525.062s-2.908,7.379-1.916,10.938c.269.951,22.82,5.328,26.243,4.316s6.266-2.079,6.266-2.079-.413-3.487-1.874-3.756-15.1-5.331-16.4-7.474-2.257-5.479-3.169-4.369A10.459,10.459,0,0,1,126.092,525.062Z" transform="translate(-65.506 -353.924)" fill="#1d7ea1"/>
        <path id="Trazado_127457" data-name="Trazado 127457" d="M124.158,514.833,121.625,566.9l14.586-.395,2.376-58.912Z" transform="translate(-72.038 -395.238)" fill="#006590"/>
        <path id="Trazado_127458" data-name="Trazado 127458" d="M121.591,482.688s-1.681,6.747-3.313,8.86l-4.07,5.263,16.86,6.357s-1.162-4.987,0-7.073S121.591,482.688,121.591,482.688Z" transform="translate(-92.704 -463.863)" fill="#d38359"/>
        <path id="Trazado_127459" data-name="Trazado 127459" d="M130.188,486.347a51.569,51.569,0,0,0-11.01,14.585c-5.165,10.59-11.359,42.482-10.583,57.207.208,3.957,4.964,13.721,10.064,14.725s42.925.579,45.219,3.794c1.961,2.745,1.234,52.254,1.234,52.254l21.646-.784s.473-59.418-3.711-65.438c-6.615-9.522-42.539-11.912-42.539-11.912V539.487s9.254-28.257,9.254-36.488c0-4.108-2.715-10.056-2.715-10.056Z" transform="translate(-108.528 -454.431)" fill="#7cabd6"/>
        <path id="Trazado_127460" data-name="Trazado 127460" d="M121.077,547.1c.1-2.037.579-16.3,1.908-21.714s-8.345-16.3-9.519-21.109,2.8-13.953,2.8-13.953l11.306-2.684,7.747,5.392a21.892,21.892,0,0,1,1.291,6.365c0,8.231-9.254,36.488-9.254,36.488v11.291s35.924,2.389,42.539,11.911c4.184,6.02,3.711,65.438,3.711,65.438l-5.146.185c-.39-6.3-3.96-62.538-6.535-64.026-2.726-1.575-31.9-8.156-36.572-9.254S120.975,549.133,121.077,547.1Z" transform="translate(-95.374 -450.828)" fill="#5e92d3"/>
        <path id="Trazado_127461" data-name="Trazado 127461" d="M127.534,493.223s11.885,24.115,14.172,32.073c.363,1.272.292,4.085-1.412,5.1s-6.618,2.639-12.233-6.38-13.661-27.113-13.8-29.01C113.664,486.843,123.282,485.214,127.534,493.223Z" transform="translate(-92.626 -449.315)" fill="#e0a679"/>
        <path id="Trazado_127462" data-name="Trazado 127462" d="M121.392,497.165c8.534-1.73,35.349,1.094,35.349,1.094v6.5s-29.7,3.635-33.6,2.427S117.86,497.88,121.392,497.165Z" transform="translate(-78.359 -425.399)" fill="#e0a679"/>
        <path id="Trazado_127463" data-name="Trazado 127463" d="M129.23,498.751s8.031-3.033,10.59-2.169c2.295.769,9.644,3.957,8.239,5.926-1.007,1.412-3.453-1.605-8.6-.235-1.545.409-4.1,2.6-5.657,2.984a24.455,24.455,0,0,1-4.574,0Z" transform="translate(-50.848 -425.885)" fill="#e0a679"/>
        <path id="Trazado_127464" data-name="Trazado 127464" d="M176.813,512.891c-1.545.409-4.1,2.6-5.657,2.984a24.453,24.453,0,0,1-4.574,0s-29.7,3.635-33.6,2.427l-.019-.008c-2.366.023-5.7-1.355-9.326-7.183a161.767,161.767,0,0,1-7.811-14.748l2.355-3.748S130.39,516.03,131.4,516s37.507-1.833,38.866-1.859,5.77-2.177,8.144-2.62,7,1.605,7,1.605C184.4,514.538,181.959,511.521,176.813,512.891Z" transform="translate(-88.201 -436.468)" fill="#d38359"/>
        <path id="Trazado_127465" data-name="Trazado 127465" d="M123.862,487.416c8.016,1.094,15.009,28.666,15.009,28.666l-13.657,6.959s-11.665-21.169-11.5-27.435C113.855,490.131,118.44,486.674,123.862,487.416Z" transform="translate(-94.093 -451.15)" fill="#b3d0de"/>
        <g id="Grupo_58808" data-name="Grupo 58808" transform="translate(25.703)">
          <path id="Trazado_127466" data-name="Trazado 127466" d="M137.972,482.4s3.025.9,2.31,5.168c-.227,1.352-1.549,4.35-1.321,5.1s1.329,4.941,1.1,5.3-2.162.757-2.162.757l-.579,2.688-.8.526-.106.988-1.787,2.654s-.416,1.681-1.075,2.026c-2.616,1.367-9.572-1.59-11.234-3.26s-7.429-11.938-6.365-13.964,13.536-12.351,16.277-11.658S137.972,482.4,137.972,482.4Z" transform="translate(-113.914 -474.977)" fill="#e0a679"/>
          <path id="Trazado_127467" data-name="Trazado 127467" d="M140.859,486.2s1.109-2.5-3.851-5.979-10.772-3.078-15.463-.424c-4.32,2.438-5.452,5.206-6.115,9.481s1.795,11.6,1.795,11.6A23.272,23.272,0,0,0,124,497.26c2.173-1.8,3.135-5.475,5.009-2.885.871,1.2,1.78-4.241,1.689-4.615C128.065,479.018,140.859,486.2,140.859,486.2Z" transform="translate(-115.317 -477.716)" fill="#6a271f"/>
          <path id="Trazado_127468" data-name="Trazado 127468" d="M117.85,484.778c-.3,2.045.405,3.839,1.571,4.01s2.359-1.344,2.658-3.389-.4-3.843-1.571-4.013S118.153,482.733,117.85,484.778Z" transform="translate(-108.452 -467.529)" fill="#e0a679"/>
        </g>
      </g>
      <g id="Grupo_58810" data-name="Grupo 58810" transform="translate(56.649 81.312)">
        <rect id="Rectángulo_7221" data-name="Rectángulo 7221" width="92.246" height="5.215" transform="translate(92.246 5.215) rotate(180)" fill="#22272c"/>
        <path id="Trazado_127469" data-name="Trazado 127469" d="M121.538,602.238h84.329V500.77H121.538v18.9l67.7,25.213v47.573l-67.367.382Z" transform="translate(-117.338 -495.555)" fill="#8b8d92"/>
        <path id="Trazado_127470" data-name="Trazado 127470" d="M121.538,500.77v4.313l84.329,29.155V500.77Z" transform="translate(-117.338 -495.555)" fill="#c7ccd3" style="mix-blend-mode: multiply;isolation: isolate"/>
        <rect id="Rectángulo_7222" data-name="Rectángulo 7222" width="84.329" height="3.021" transform="translate(88.528 106.683) rotate(180)" fill="#22272c"/>
      </g>
    </g>
  </g>
</svg>
