<svg xmlns="http://www.w3.org/2000/svg" width="162.066" height="130.699" viewBox="0 0 162.066 130.699">
  <g id="Grupo_59843" data-name="Grupo 59843" transform="translate(-1254 -3559.65)">
    <rect id="Rectángulo_7253" data-name="Rectángulo 7253" width="156" height="114" rx="6" transform="translate(1257.067 3574)" fill="#fff" opacity="0.65"/>
    <g id="Grupo_59842" data-name="Grupo 59842">
      <g id="Grupo_59840" data-name="Grupo 59840" transform="translate(1256.614 3562.265)" opacity="0.25">
        <path id="Trazado_128111" data-name="Trazado 128111" d="M166.3,64H22.535A6.533,6.533,0,0,0,16,70.531v9.153H172.838V70.535A6.533,6.533,0,0,0,166.307,64Z" transform="translate(-16 -64)" fill="#f17781"/>
        <path id="Trazado_128112" data-name="Trazado 128112" d="M201.349,184H149.07A13.07,13.07,0,0,0,136,197.07v36.6a13.07,13.07,0,0,0,13.07,13.07h52.279a13.07,13.07,0,0,0,13.07-13.07v-36.6A13.07,13.07,0,0,0,201.349,184Zm-44.438,49.666v-36.6l36.6,18.3Z" transform="translate(-96.79 -144.79)" fill="#f17781"/>
      </g>
      <g id="Grupo_59841" data-name="Grupo 59841" transform="translate(1254 3559.65)">
        <path id="Trazado_128113" data-name="Trazado 128113" d="M160.918,56H17.149A9.159,9.159,0,0,0,8,65.149v112.4a9.159,9.159,0,0,0,9.149,9.149H160.918a9.159,9.159,0,0,0,9.149-9.149V65.149A9.159,9.159,0,0,0,160.918,56Zm3.921,121.55a3.925,3.925,0,0,1-3.921,3.921H17.149a3.925,3.925,0,0,1-3.921-3.921V76.912H164.838Zm0-105.866H13.228V65.149a3.924,3.924,0,0,1,3.921-3.921H160.918a3.924,3.924,0,0,1,3.921,3.921Z" transform="translate(-8 -56)" fill="#f17781"/>
        <path id="Trazado_128114" data-name="Trazado 128114" d="M34.614,85.228h2.614a2.614,2.614,0,0,0,0-5.228H34.614a2.614,2.614,0,1,0,0,5.228Z" transform="translate(-24.158 -72.158)" fill="#f17781"/>
        <path id="Trazado_128115" data-name="Trazado 128115" d="M66.614,85.228h2.614a2.614,2.614,0,0,0,0-5.228H66.614a2.614,2.614,0,1,0,0,5.228Z" transform="translate(-45.702 -72.158)" fill="#f17781"/>
        <path id="Trazado_128116" data-name="Trazado 128116" d="M98.614,85.228h2.614a2.614,2.614,0,1,0,0-5.228H98.614a2.614,2.614,0,1,0,0,5.228Z" transform="translate(-67.246 -72.158)" fill="#f17781"/>
        <path id="Trazado_128117" data-name="Trazado 128117" d="M195.963,176H143.684A15.7,15.7,0,0,0,128,191.684v36.6a15.7,15.7,0,0,0,15.684,15.684h52.279a15.7,15.7,0,0,0,15.684-15.684v-36.6A15.7,15.7,0,0,0,195.963,176Zm10.456,52.28a10.468,10.468,0,0,1-10.456,10.456H143.684a10.468,10.468,0,0,1-10.456-10.456v-36.6a10.468,10.468,0,0,1,10.456-10.456h52.279a10.468,10.468,0,0,1,10.456,10.456Z" transform="translate(-88.79 -136.79)" fill="#f17781"/>
        <path id="Trazado_128118" data-name="Trazado 128118" d="M232.379,234.573l-36.6-18.3A2.614,2.614,0,0,0,192,218.613v36.6a2.614,2.614,0,0,0,3.783,2.338l36.6-18.3a2.614,2.614,0,0,0,0-4.676Zm-35.151,16.406V222.842l28.136,14.068Z" transform="translate(-131.879 -163.72)" fill="#f17781"/>
      </g>
    </g>
  </g>
</svg>
