<svg xmlns="http://www.w3.org/2000/svg" width="266" height="255.235" viewBox="0 0 266 255.235">
  <g id="Grupo_59035" data-name="Grupo 59035" transform="translate(-2529.16 764.891)">
    <path id="Trazado_127886" data-name="Trazado 127886" d="M2875.429,352.475s-9.918-12.777-16.007-4.851c0,0,16.5,17.352,20.414,23.558a25.493,25.493,0,0,0,7.033.963Z" transform="translate(-287.242 -965.354)" fill="#6398a0"/>
    <path id="Trazado_127887" data-name="Trazado 127887" d="M3345.531,392.381s-21.471-1.958-26.96-3.71a28.857,28.857,0,0,0-12.581-3.472s-13.292-9.258-20.973-2.271c0,0-2.66,2.439,1.05,7.271,0,0,.9,1.03,13.1,6.585a188.776,188.776,0,0,0,20.142,10.149Z" transform="translate(-656.909 -996.039)" fill="#9bc5d0"/>
    <path id="Trazado_127888" data-name="Trazado 127888" d="M3397.137-674.368l-33.939.052a1.588,1.588,0,0,0-1.585,1.591,1.587,1.587,0,0,0,1.59,1.584l33.938-.051a1.588,1.588,0,0,0,1.585-1.59,1.588,1.588,0,0,0-1.59-1.585" transform="translate(-724.106 -78.502)" fill="#599fd8"/>
    <path id="Trazado_127889" data-name="Trazado 127889" d="M3447.748-539.235l-18.8.029a1.588,1.588,0,0,0-1.585,1.591,1.587,1.587,0,0,0,1.59,1.584l18.8-.029a1.587,1.587,0,0,0,1.585-1.589,1.588,1.588,0,0,0-1.59-1.585" transform="translate(-781.157 -195.689)" fill="#599fd8"/>
    <path id="Trazado_127890" data-name="Trazado 127890" d="M3431.742-383.844l-24.388.036a1.589,1.589,0,0,0-1.585,1.591,1.587,1.587,0,0,0,1.59,1.584l24.388-.037a1.588,1.588,0,0,0,1.585-1.59,1.588,1.588,0,0,0-1.59-1.585" transform="translate(-762.424 -331.325)" fill="#599fd8"/>
    <path id="Trazado_127891" data-name="Trazado 127891" d="M3365.671-233.8l-47.082.071a1.589,1.589,0,0,0-1.585,1.59,1.588,1.588,0,0,0,1.59,1.584l47.082-.072a1.588,1.588,0,0,0,1.584-1.59,1.586,1.586,0,0,0-1.589-1.584" transform="translate(-685.427 -461.789)" fill="#599fd8"/>
    <path id="Trazado_127892" data-name="Trazado 127892" d="M3378.041-65.122l-45.194.07a1.587,1.587,0,0,0-1.585,1.589,1.588,1.588,0,0,0,1.59,1.585l45.194-.069a1.587,1.587,0,0,0,1.584-1.589,1.588,1.588,0,0,0-1.59-1.585" transform="translate(-697.812 -608.457)" fill="#599fd8"/>
    <path id="Trazado_127893" data-name="Trazado 127893" d="M3442.485,79.98l-20.756.03a1.588,1.588,0,0,0,0,3.175l20.756-.03a1.587,1.587,0,1,0,0-3.175" transform="translate(-774.893 -734.625)" fill="#599fd8"/>
    <path id="Trazado_127894" data-name="Trazado 127894" d="M3458.2,224.574l-16.086.026a1.587,1.587,0,0,0,0,3.175l16.086-.026a1.587,1.587,0,0,0,0-3.175" transform="translate(-792.581 -860.351)" fill="#599fd8"/>
    <path id="Trazado_127895" data-name="Trazado 127895" d="M3410.675,347.847l-33.929.05a1.587,1.587,0,1,0,0,3.174l33.929-.05a1.587,1.587,0,0,0,0-3.174" transform="translate(-735.89 -967.539)" fill="#599fd8"/>
    <path id="Trazado_127896" data-name="Trazado 127896" d="M3354.612-727.589v.078a37.65,37.65,0,0,1-6.444,21.889,67.193,67.193,0,0,1-10.522,11.705c-5.889,5.443-12.345,10.6-17.394,17.243a41.78,41.78,0,0,0-6.205,11.282,43.108,43.108,0,0,0-2.4,14.648v.08a40.881,40.881,0,0,0,7.038,23.692,70.112,70.112,0,0,0,11.052,12.255c6.031,5.526,12.344,10.577,17.09,16.8a38.533,38.533,0,0,1,5.776,10.434,39.965,39.965,0,0,1,2.245,13.611,1.587,1.587,0,0,0,1.589,1.584,1.587,1.587,0,0,0,1.585-1.589,40.889,40.889,0,0,0-7.039-23.694,70.166,70.166,0,0,0-11.053-12.257c-6.031-5.526-12.345-10.577-17.089-16.8a38.547,38.547,0,0,1-5.775-10.433,39.964,39.964,0,0,1-2.244-13.609v-.075a37.65,37.65,0,0,1,6.444-21.89,67.207,67.207,0,0,1,10.522-11.705c5.889-5.444,12.345-10.6,17.393-17.243a41.747,41.747,0,0,0,6.206-11.282,43.092,43.092,0,0,0,2.4-14.648v-.078a1.587,1.587,0,0,0-1.587-1.587,1.586,1.586,0,0,0-1.587,1.587Z" transform="translate(-680.726 -30.972)" fill="#3473b5"/>
    <path id="Trazado_127897" data-name="Trazado 127897" d="M3357.809-727.173a40.882,40.882,0,0,0,7.038,23.692,70.133,70.133,0,0,0,11.052,12.257c6.031,5.526,12.344,10.577,17.089,16.8a38.514,38.514,0,0,1,5.775,10.433,39.967,39.967,0,0,1,2.244,13.609v.074a37.647,37.647,0,0,1-6.444,21.889,67.187,67.187,0,0,1-10.521,11.705c-5.89,5.444-12.345,10.6-17.394,17.244a41.726,41.726,0,0,0-6.2,11.283,43.09,43.09,0,0,0-2.4,14.648v.1a1.587,1.587,0,0,0,1.606,1.568,1.587,1.587,0,0,0,1.568-1.607v-.058a37.648,37.648,0,0,1,6.444-21.891,67.181,67.181,0,0,1,10.521-11.706c5.889-5.444,12.345-10.6,17.394-17.243a41.74,41.74,0,0,0,6.2-11.282,43.07,43.07,0,0,0,2.4-14.647v-.079a40.884,40.884,0,0,0-7.037-23.693,70.189,70.189,0,0,0-11.052-12.256c-6.032-5.526-12.345-10.577-17.09-16.8a38.552,38.552,0,0,1-5.774-10.433,39.949,39.949,0,0,1-2.244-13.609,1.586,1.586,0,0,0-1.59-1.584,1.587,1.587,0,0,0-1.584,1.59Z" transform="translate(-720.887 -31.331)" fill="#3473b5"/>
    <path id="Trazado_127898" data-name="Trazado 127898" d="M3345.672-679.709a4.861,4.861,0,0,0,4.866,4.855,4.861,4.861,0,0,0,4.854-4.87,4.859,4.859,0,0,0-4.868-4.852A4.858,4.858,0,0,0,3345.672-679.709Z" transform="translate(-710.013 -69.65)" fill="#df346f"/>
    <path id="Trazado_127899" data-name="Trazado 127899" d="M3354.376-673.411a4.737,4.737,0,0,1,.057.694,4.86,4.86,0,0,1-4.854,4.866,4.849,4.849,0,0,1-3.5-1.484,4.858,4.858,0,0,0,4.812,4.163,4.862,4.862,0,0,0,4.854-4.87A4.843,4.843,0,0,0,3354.376-673.411Z" transform="translate(-710.365 -79.332)" fill="#be1958"/>
    <path id="Trazado_127900" data-name="Trazado 127900" d="M3358.283-672.974a2,2,0,0,0,2.776.152,2,2,0,0,0,.884-2.638,2.006,2.006,0,0,0-2.777-.153A2.005,2.005,0,0,0,3358.283-672.974Z" transform="translate(-720.737 -77.014)" fill="#e983ae"/>
    <path id="Trazado_127901" data-name="Trazado 127901" d="M3402.726-555.251a4.861,4.861,0,0,0,4.869,4.854,4.862,4.862,0,0,0,4.851-4.869,4.86,4.86,0,0,0-4.868-4.853A4.861,4.861,0,0,0,3402.726-555.251Z" transform="translate(-759.625 -177.579)" fill="#df346f"/>
    <path id="Trazado_127902" data-name="Trazado 127902" d="M3411.443-548.938a4.787,4.787,0,0,1,.054.691,4.861,4.861,0,0,1-4.854,4.867,4.847,4.847,0,0,1-3.5-1.486,4.858,4.858,0,0,0,4.814,4.163,4.861,4.861,0,0,0,4.851-4.868A4.842,4.842,0,0,0,3411.443-548.938Z" transform="translate(-759.988 -187.274)" fill="#be1958"/>
    <path id="Trazado_127903" data-name="Trazado 127903" d="M3415.34-548.517a2,2,0,0,0,2.776.151A2,2,0,0,0,3419-551a2,2,0,0,0-2.777-.15A2,2,0,0,0,3415.34-548.517Z" transform="translate(-770.349 -184.944)" fill="#e983ae"/>
    <path id="Trazado_127904" data-name="Trazado 127904" d="M3382.7-399.79a4.858,4.858,0,0,0,4.866,4.852,4.861,4.861,0,0,0,4.855-4.867,4.86,4.86,0,0,0-4.869-4.852A4.857,4.857,0,0,0,3382.7-399.79Z" transform="translate(-742.207 -313.249)" fill="#df346f"/>
    <path id="Trazado_127905" data-name="Trazado 127905" d="M3391.416-393.5a4.723,4.723,0,0,1,.057.693,4.86,4.86,0,0,1-4.854,4.867,4.845,4.845,0,0,1-3.5-1.483,4.854,4.854,0,0,0,4.81,4.16,4.86,4.86,0,0,0,4.854-4.866A4.844,4.844,0,0,0,3391.416-393.5Z" transform="translate(-742.577 -322.949)" fill="#be1958"/>
    <path id="Trazado_127906" data-name="Trazado 127906" d="M3395.3-393.058a2,2,0,0,0,2.778.151,2,2,0,0,0,.884-2.635,2,2,0,0,0-2.777-.153A2,2,0,0,0,3395.3-393.058Z" transform="translate(-752.925 -320.611)" fill="#e983ae"/>
    <path id="Trazado_127907" data-name="Trazado 127907" d="M3301.043-249.5a4.859,4.859,0,0,0,4.867,4.852,4.862,4.862,0,0,0,4.854-4.868,4.862,4.862,0,0,0-4.869-4.854A4.861,4.861,0,0,0,3301.043-249.5Z" transform="translate(-671.205 -443.933)" fill="#df346f"/>
    <path id="Trazado_127908" data-name="Trazado 127908" d="M3309.764-243.2a4.846,4.846,0,0,1,.056.691,4.86,4.86,0,0,1-4.853,4.868,4.838,4.838,0,0,1-3.5-1.484,4.858,4.858,0,0,0,4.811,4.163,4.862,4.862,0,0,0,4.854-4.868A4.839,4.839,0,0,0,3309.764-243.2Z" transform="translate(-671.575 -453.644)" fill="#be1958"/>
    <path id="Trazado_127909" data-name="Trazado 127909" d="M3313.647-242.766a2,2,0,0,0,2.778.153,2,2,0,0,0,.883-2.638,2,2,0,0,0-2.776-.153A2.006,2.006,0,0,0,3313.647-242.766Z" transform="translate(-681.926 -451.292)" fill="#e983ae"/>
    <path id="Trazado_127910" data-name="Trazado 127910" d="M3301.5-80.832a4.86,4.86,0,0,0,4.868,4.854,4.861,4.861,0,0,0,4.852-4.868,4.86,4.86,0,0,0-4.867-4.854A4.862,4.862,0,0,0,3301.5-80.832Z" transform="translate(-671.599 -590.605)" fill="#df346f"/>
    <path id="Trazado_127911" data-name="Trazado 127911" d="M3310.219-74.524a4.893,4.893,0,0,1,.057.691,4.864,4.864,0,0,1-4.854,4.868,4.855,4.855,0,0,1-3.5-1.485,4.858,4.858,0,0,0,4.812,4.162,4.861,4.861,0,0,0,4.852-4.868A4.847,4.847,0,0,0,3310.219-74.524Z" transform="translate(-671.969 -600.314)" fill="#be1958"/>
    <path id="Trazado_127912" data-name="Trazado 127912" d="M3314.109-74.1a2,2,0,0,0,2.776.152,2,2,0,0,0,.884-2.638,2,2,0,0,0-2.776-.15A2,2,0,0,0,3314.109-74.1Z" transform="translate(-682.327 -597.95)" fill="#e983ae"/>
    <path id="Trazado_127913" data-name="Trazado 127913" d="M3397.082,63.995a4.86,4.86,0,1,0,4.854-4.867A4.862,4.862,0,0,0,3397.082,63.995Z" transform="translate(-754.717 -716.544)" fill="#df346f"/>
    <path id="Trazado_127914" data-name="Trazado 127914" d="M3405.793,70.292a4.854,4.854,0,0,1-8.3,4.075,4.858,4.858,0,1,0,8.3-4.075Z" transform="translate(-755.077 -726.24)" fill="#be1958"/>
    <path id="Trazado_127915" data-name="Trazado 127915" d="M3409.69,70.718a2.294,2.294,0,1,0,.884-2.637A2,2,0,0,0,3409.69,70.718Z" transform="translate(-765.437 -723.871)" fill="#e983ae"/>
    <path id="Trazado_127916" data-name="Trazado 127916" d="M3533.406,206.243a4.861,4.861,0,1,0,4.854-4.868A4.859,4.859,0,0,0,3533.406,206.243Z" transform="translate(-873.26 -840.237)" fill="#df346f"/>
    <path id="Trazado_127917" data-name="Trazado 127917" d="M3542.129,212.55a5.028,5.028,0,0,1,.057.691,4.857,4.857,0,0,1-8.354,3.382,4.857,4.857,0,1,0,8.3-4.074Z" transform="translate(-873.63 -849.941)" fill="#be1958"/>
    <path id="Trazado_127918" data-name="Trazado 127918" d="M3546.023,212.97a2.293,2.293,0,1,0,.884-2.637A2,2,0,0,0,3546.023,212.97Z" transform="translate(-883.981 -847.562)" fill="#e983ae"/>
    <path id="Trazado_127919" data-name="Trazado 127919" d="M3599.16,328.067a4.861,4.861,0,1,0,4.853-4.868A4.859,4.859,0,0,0,3599.16,328.067Z" transform="translate(-930.438 -946.172)" fill="#df346f"/>
    <path id="Trazado_127920" data-name="Trazado 127920" d="M3607.875,334.375a4.854,4.854,0,0,1-8.3,4.076,4.858,4.858,0,1,0,8.3-4.076Z" transform="translate(-930.801 -955.875)" fill="#be1958"/>
    <path id="Trazado_127921" data-name="Trazado 127921" d="M3611.768,334.81a2.294,2.294,0,1,0,.884-2.637A2.011,2.011,0,0,0,3611.768,334.81Z" transform="translate(-941.147 -953.504)" fill="#e983ae"/>
    <path id="Trazado_127922" data-name="Trazado 127922" d="M3609.105-680.107a4.861,4.861,0,0,1-4.853,4.869,4.86,4.86,0,0,1-4.869-4.854,4.859,4.859,0,0,1,4.854-4.867A4.859,4.859,0,0,1,3609.105-680.107Z" transform="translate(-930.632 -69.318)" fill="#df346f"/>
    <path id="Trazado_127923" data-name="Trazado 127923" d="M3600.742-673.7a4.715,4.715,0,0,0-.053.692,4.861,4.861,0,0,0,4.866,4.852,4.846,4.846,0,0,0,3.5-1.494,4.856,4.856,0,0,1-4.8,4.176,4.86,4.86,0,0,1-4.869-4.853A4.846,4.846,0,0,1,3600.742-673.7Z" transform="translate(-930.631 -79.077)" fill="#be1958"/>
    <path id="Trazado_127924" data-name="Trazado 127924" d="M3633.017-673.376a2,2,0,0,1-2.777.158,2,2,0,0,1-.892-2.632,2.005,2.005,0,0,1,2.777-.16A2,2,0,0,1,3633.017-673.376Z" transform="translate(-956.435 -76.671)" fill="#e983ae"/>
    <path id="Trazado_127925" data-name="Trazado 127925" d="M3552.424-555.466a4.862,4.862,0,0,1-4.853,4.87,4.861,4.861,0,0,1-4.868-4.854,4.86,4.86,0,0,1,4.854-4.866A4.857,4.857,0,0,1,3552.424-555.466Z" transform="translate(-881.344 -177.407)" fill="#df346f"/>
    <path id="Trazado_127926" data-name="Trazado 127926" d="M3544.062-549.075a4.968,4.968,0,0,0-.053.692,4.858,4.858,0,0,0,4.868,4.852,4.834,4.834,0,0,0,3.495-1.494,4.859,4.859,0,0,1-4.8,4.177,4.861,4.861,0,0,1-4.868-4.854A4.851,4.851,0,0,1,3544.062-549.075Z" transform="translate(-881.344 -187.156)" fill="#be1958"/>
    <path id="Trazado_127927" data-name="Trazado 127927" d="M3576.334-548.75a2,2,0,0,1-2.778.161,2,2,0,0,1-.89-2.634,2.005,2.005,0,0,1,2.778-.16A2,2,0,0,1,3576.334-548.75Z" transform="translate(-907.148 -184.747)" fill="#e983ae"/>
    <path id="Trazado_127928" data-name="Trazado 127928" d="M3572.939-400.091a4.858,4.858,0,0,1-4.853,4.866,4.857,4.857,0,0,1-4.867-4.851,4.861,4.861,0,0,1,4.853-4.87A4.863,4.863,0,0,1,3572.939-400.091Z" transform="translate(-899.184 -312.998)" fill="#df346f"/>
    <path id="Trazado_127929" data-name="Trazado 127929" d="M3564.575-393.684a5.017,5.017,0,0,0-.052.691,4.86,4.86,0,0,0,4.868,4.854,4.847,4.847,0,0,0,3.5-1.495,4.855,4.855,0,0,1-4.8,4.174,4.857,4.857,0,0,1-4.867-4.851A4.841,4.841,0,0,1,3564.575-393.684Z" transform="translate(-899.184 -322.786)" fill="#be1958"/>
    <path id="Trazado_127930" data-name="Trazado 127930" d="M3596.837-393.355a2,2,0,0,1-2.776.16,2,2,0,0,1-.891-2.635,2.007,2.007,0,0,1,2.777-.159A2,2,0,0,1,3596.837-393.355Z" transform="translate(-924.978 -320.358)" fill="#e983ae"/>
    <path id="Trazado_127931" data-name="Trazado 127931" d="M3655.042-250.035a4.862,4.862,0,0,1-4.853,4.869,4.861,4.861,0,0,1-4.868-4.853,4.86,4.86,0,0,1,4.854-4.868A4.86,4.86,0,0,1,3655.042-250.035Z" transform="translate(-970.577 -443.485)" fill="#df346f"/>
    <path id="Trazado_127932" data-name="Trazado 127932" d="M3646.677-243.625a5.162,5.162,0,0,0-.053.69,4.86,4.86,0,0,0,4.869,4.852,4.837,4.837,0,0,0,3.493-1.494,4.858,4.858,0,0,1-4.8,4.178,4.861,4.861,0,0,1-4.868-4.853A4.844,4.844,0,0,1,3646.677-243.625Z" transform="translate(-970.577 -453.271)" fill="#be1958"/>
    <path id="Trazado_127933" data-name="Trazado 127933" d="M3678.947-243.308a2,2,0,0,1-2.776.159,2,2,0,0,1-.892-2.633,2,2,0,0,1,2.776-.159A2,2,0,0,1,3678.947-243.308Z" transform="translate(-996.372 -450.828)" fill="#e983ae"/>
    <path id="Trazado_127934" data-name="Trazado 127934" d="M3655.088-81.373a4.857,4.857,0,0,1-4.853,4.867,4.859,4.859,0,0,1-4.868-4.852,4.862,4.862,0,0,1,4.854-4.87A4.861,4.861,0,0,1,3655.088-81.373Z" transform="translate(-970.618 -590.147)" fill="#df346f"/>
    <path id="Trazado_127935" data-name="Trazado 127935" d="M3646.726-74.961a5.07,5.07,0,0,0-.054.69,4.861,4.861,0,0,0,4.868,4.854,4.841,4.841,0,0,0,3.494-1.494,4.855,4.855,0,0,1-4.8,4.175,4.859,4.859,0,0,1-4.868-4.852A4.83,4.83,0,0,1,3646.726-74.961Z" transform="translate(-970.618 -599.934)" fill="#be1958"/>
    <path id="Trazado_127936" data-name="Trazado 127936" d="M3679-74.635a2,2,0,0,1-2.777.16,2,2,0,0,1-.892-2.634,2,2,0,0,1,2.778-.16A2.006,2.006,0,0,1,3679-74.635Z" transform="translate(-996.415 -597.49)" fill="#e983ae"/>
    <path id="Trazado_127937" data-name="Trazado 127937" d="M3559.94,63.737a4.861,4.861,0,1,1-4.867-4.855A4.857,4.857,0,0,1,3559.94,63.737Z" transform="translate(-887.88 -716.33)" fill="#df346f"/>
    <path id="Trazado_127938" data-name="Trazado 127938" d="M3551.578,70.144a4.929,4.929,0,0,0-.054.691,4.857,4.857,0,0,0,8.362,3.358,4.858,4.858,0,1,1-8.308-4.049Z" transform="translate(-887.879 -726.111)" fill="#be1958"/>
    <path id="Trazado_127939" data-name="Trazado 127939" d="M3583.851,70.466a2.3,2.3,0,1,1-.892-2.633A2,2,0,0,1,3583.851,70.466Z" transform="translate(-913.684 -723.659)" fill="#e983ae"/>
    <path id="Trazado_127940" data-name="Trazado 127940" d="M3424.038,206.4a4.861,4.861,0,1,1-4.867-4.852A4.862,4.862,0,0,1,3424.038,206.4Z" transform="translate(-769.703 -840.39)" fill="#df346f"/>
    <path id="Trazado_127941" data-name="Trazado 127941" d="M3415.675,212.808a4.853,4.853,0,0,0,8.309,4.048,4.858,4.858,0,1,1-8.309-4.048Z" transform="translate(-769.703 -850.166)" fill="#be1958"/>
    <path id="Trazado_127942" data-name="Trazado 127942" d="M3447.95,213.133a2.295,2.295,0,1,1-.891-2.632A2,2,0,0,1,3447.95,213.133Z" transform="translate(-795.516 -847.712)" fill="#e983ae"/>
    <path id="Trazado_127943" data-name="Trazado 127943" d="M3358.667,328.441a4.861,4.861,0,1,1-4.868-4.852A4.862,4.862,0,0,1,3358.667,328.441Z" transform="translate(-712.859 -946.511)" fill="#df346f"/>
    <path id="Trazado_127944" data-name="Trazado 127944" d="M3350.3,334.828a5.012,5.012,0,0,0-.054.692,4.858,4.858,0,0,0,8.363,3.359,4.857,4.857,0,1,1-8.309-4.051Z" transform="translate(-712.858 -956.269)" fill="#be1958"/>
    <path id="Trazado_127945" data-name="Trazado 127945" d="M3382.57,335.17a2.294,2.294,0,1,1-.891-2.635A2,2,0,0,1,3382.57,335.17Z" transform="translate(-738.668 -953.824)" fill="#e983ae"/>
    <path id="Trazado_127946" data-name="Trazado 127946" d="M2872.824,250.764s-6.841-3.9-8.339-3.549c0,0-8.389-25.119-21.012-15.716,0,0,8.563,11.407,11.9,20.334a12.735,12.735,0,0,0,3.737,5.1s11.8,12.476,13.82,16.415c0,0,2.622,2.966,13.97,1.77S2872.824,250.764,2872.824,250.764Z" transform="translate(-273.438 -865)" fill="#7fafbb"/>
    <path id="Trazado_127947" data-name="Trazado 127947" d="M2980.679,199.665s-5.238-9.457-7.767-10.972c0,0-2.367-25.321-13.429-25.31,0,0-1.266-.17-3.123,1.683,0,0,4.58,16.045,5.421,23.309a10.835,10.835,0,0,0,1,3.548s9.119,17.231,9.458,19.412c0,0,0,4.882,2.536,6.735,0,0,31.83,13.445,36.622,16.632s-11.146-20.428-11.146-20.428Z" transform="translate(-371.697 -807.922)" fill="#9bc5d0"/>
    <path id="Trazado_127948" data-name="Trazado 127948" d="M3026.373,155.421s10.207-7.849,13.35,18.592c0,0,4.574,4.475,9.433,16.162,0,0,5.015,2.237,16.247,7.118a240.274,240.274,0,0,0,25.969-1.048s35.214-8.04,52.255,9.372a621.583,621.583,0,0,1,72.35,26.319l-13.618,49.692L3134.8,238.964s-13.626-3.5-56.635-11.214a30.052,30.052,0,0,1-15.883-7.011s-12.376-9.359-20.99-15.6c0,0-5.36-2.849-6.138-8.5,0,0-4.644-12.539-7.011-20.3Z" transform="translate(-435.836 -801.615)" fill="#cae8f0"/>
    <path id="Trazado_127949" data-name="Trazado 127949" d="M3142.743,255.8l12.653-34.831c-1.478-.469-2.84-.9-4.071-1.278-2.519,4.647-12.406,22.355-15.919,22.07-3.965-.322-54.452-4.931-55.416-5.681s3.966-4.716,1.393-4.073-11.041,1.608-13.4,0-1.394-3.966-1.5-4.931-1.607,2.036-3.43,1.394-9.969-8.468-12.327-9.969-3.644-1.393-3.752-1.822a34.663,34.663,0,0,1,.965-5.467c.429-1.822-2.036,3.323-2.9,4.5s1.723-5.038,1.937-6.646-3.43,4.931-4.566,5.253-3.366-2.251-3.58-2.894,2.144-2.466,3.376-3.186-3.484,1.041-4.555,1.148,3.323-2.251,4.394-3.431-3.537,1.179-4.609.751-6.632-15.757-6.632-15.757.844-2.251,4.432-4.073c0,0-4.152.643-5.2.321s-.243-13.282-1.208-16.819a35.485,35.485,0,0,0-1.3-3.836,5.589,5.589,0,0,0-1.16.635l1.773,20.908c2.367,7.761,7.011,20.3,7.011,20.3.778,5.655,6.138,8.5,6.138,8.5,8.614,6.246,20.99,15.605,20.99,15.605a30.051,30.051,0,0,0,15.883,7.011c43.008,7.718,56.635,11.214,56.635,11.214Z" transform="translate(-433.351 -810.986)" fill="#acd1db"/>
    <path id="Trazado_127950" data-name="Trazado 127950" d="M3862.121,549.062s-17.959,45.143-19.25,51.049l23.987,10.755,18.76-53.455Z" transform="translate(-1142.812 -1143.925)" fill="#4a70a7"/>
    <path id="Trazado_127951" data-name="Trazado 127951" d="M3946.024,586.39l9.545,3.392-18.76,53.455-13.274-5.952C3927.926,626.376,3940.558,598.424,3946.024,586.39Z" transform="translate(-1212.813 -1176.295)" fill="#3a5b86"/>
    <path id="Trazado_127952" data-name="Trazado 127952" d="M2833.226-713.674v.993h27.824l13.587-26.106-13.587-26.1h-28.427l-13.588,26.105,13.588,26.105h.6v-.993l.881-.459-12.831-24.653,12.553-24.117h26.015l12.553,24.117-12.553,24.118h-26.618v.994l.881-.459Z" transform="translate(-251.38)" fill="#e75f6e"/>
    <path id="Trazado_127953" data-name="Trazado 127953" d="M3030.372-637.362a14.073,14.073,0,0,1-3.844-5.589s2.278,3.169,4.557,4.361Z" transform="translate(-432.472 -105.747)" fill="#1e1815"/>
    <path id="Trazado_127954" data-name="Trazado 127954" d="M2978.193-643.325a14.07,14.07,0,0,1-3.845-5.59s2.277,3.171,4.556,4.362Z" transform="translate(-387.101 -100.574)" fill="#1e1815"/>
    <path id="Trazado_127955" data-name="Trazado 127955" d="M2997.536-640.659a14.089,14.089,0,0,1-3.845-5.591s2.277,3.17,4.554,4.364Z" transform="translate(-403.92 -102.885)" fill="#1e1815"/>
    <path id="Trazado_127956" data-name="Trazado 127956" d="M3014.685-637.362a14.075,14.075,0,0,1-3.845-5.589s2.277,3.169,4.555,4.361Z" transform="translate(-418.831 -105.747)" fill="#1e1815"/>
    <path id="Trazado_127957" data-name="Trazado 127957" d="M3083.718-617.766a14.094,14.094,0,0,1-3.166-6s1.893,3.414,4.016,4.863Z" transform="translate(-479.444 -122.384)" fill="#1e1815"/>
    <path id="Trazado_127958" data-name="Trazado 127958" d="M3047.524-635.777a14.07,14.07,0,0,1-3.844-5.587s2.279,3.169,4.556,4.36Z" transform="translate(-447.386 -107.123)" fill="#1e1815"/>
    <path id="Trazado_127959" data-name="Trazado 127959" d="M3066.142-626.057a14.061,14.061,0,0,1-3.845-5.589s2.278,3.171,4.555,4.364Z" transform="translate(-463.574 -115.551)" fill="#1e1815"/>
    <path id="Trazado_127960" data-name="Trazado 127960" d="M2890.3-605.8s7.724,8.075,17.251,8.075S2924.8-605.8,2924.8-605.8s-7.724-8.077-17.253-8.077S2890.3-605.8,2890.3-605.8Z" transform="translate(-314.123 -130.961)" fill="#fff"/>
    <path id="Trazado_127961" data-name="Trazado 127961" d="M2906.836-607.764c2.953,2.389,8.588,6.109,15.055,6.109s12.1-3.719,15.055-6.109c-2.953-2.393-8.588-6.111-15.055-6.111S2909.79-610.157,2906.836-607.764Z" transform="translate(-328.491 -130.961)" fill="#aec2e3"/>
    <path id="Trazado_127962" data-name="Trazado 127962" d="M3123.531-575.579s1.333,3.734.365,5.769c0,0,3.844-2.554,2.8-3.135Z" transform="translate(-516.813 -164.171)" fill="#e87395"/>
    <path id="Trazado_127963" data-name="Trazado 127963" d="M2955.506-612.464a8.785,8.785,0,0,0-1.7,5.209,8.817,8.817,0,0,0,8.818,8.817,8.817,8.817,0,0,0,8.818-8.817,8.778,8.778,0,0,0-1.7-5.209,19.743,19.743,0,0,0-7.114-1.411A19.745,19.745,0,0,0,2955.506-612.464Z" transform="translate(-369.286 -130.961)" fill="#0f4d9b"/>
    <path id="Trazado_127964" data-name="Trazado 127964" d="M2999.118-585.748a3.812,3.812,0,0,1-3.813,3.811,3.812,3.812,0,0,1-3.813-3.811,3.815,3.815,0,0,1,3.813-3.815A3.815,3.815,0,0,1,2999.118-585.748Z" transform="translate(-402.02 -152.045)" fill="#0a0e13"/>
    <path id="Trazado_127965" data-name="Trazado 127965" d="M3034.968-594.818a2.519,2.519,0,0,1-2.52,2.52,2.522,2.522,0,0,1-2.521-2.52,2.522,2.522,0,0,1,2.521-2.522A2.52,2.52,0,0,1,3034.968-594.818Z" transform="translate(-435.43 -145.3)" fill="#c2d1ed"/>
    <path id="Trazado_127966" data-name="Trazado 127966" d="M2976.51-543.475a1.538,1.538,0,0,1-1.537,1.538,1.538,1.538,0,0,1-1.538-1.538,1.536,1.536,0,0,1,1.538-1.537A1.536,1.536,0,0,1,2976.51-543.475Z" transform="translate(-386.3 -190.679)" fill="#c2d1ed"/>
    <path id="Trazado_127967" data-name="Trazado 127967" d="M2889.892-554.7s.424.435,1.231,1.13a31.451,31.451,0,0,0,3.531,2.616,27.043,27.043,0,0,0,5.527,2.725,21.906,21.906,0,0,0,6.873,1.3h.9l.873-.05c.589-.055,1.174-.131,1.75-.238a21.328,21.328,0,0,0,3.328-.912,28.039,28.039,0,0,0,5.519-2.746,36.218,36.218,0,0,0,3.564-2.579c.823-.678,1.263-1.1,1.263-1.1l.137,0,0,.129s-.394.478-1.166,1.23a29.236,29.236,0,0,1-3.431,2.867,26.5,26.5,0,0,1-5.563,3.066,20.138,20.138,0,0,1-3.468,1.026c-.607.118-1.226.2-1.85.267l-.955.061-.932.007a21.426,21.426,0,0,1-7.173-1.457,25.671,25.671,0,0,1-5.575-3.048,26.1,26.1,0,0,1-3.4-2.906,14.894,14.894,0,0,1-1.133-1.263l.016-.136Z" transform="translate(-313.644 -182.271)" fill="#1e1815"/>
    <path id="Trazado_127968" data-name="Trazado 127968" d="M2922.114-610.917s-.442-.415-1.278-1.072a34.006,34.006,0,0,0-3.6-2.5c-.774-.467-1.634-.933-2.555-1.394a26.471,26.471,0,0,0-2.975-1.249c-.523-.194-1.075-.324-1.62-.493-.551-.149-1.121-.241-1.686-.368-.571-.091-1.151-.14-1.729-.215l-1.744-.055-1.777.137c-.56.106-1.11.185-1.662.3-.554.157-1.11.274-1.646.447-.532.192-1.068.344-1.573.561a26.273,26.273,0,0,0-2.866,1.364c-.882.495-1.705.986-2.445,1.475-.751.471-1.421.935-2.02,1.342l-1.537,1.082-1.325.956-.8-.766.281-.371c.187-.231.463-.565.842-.962a21.826,21.826,0,0,1,3.464-2.934,26.924,26.924,0,0,1,5.747-2.924c.552-.216,1.142-.368,1.722-.557.588-.17,1.2-.283,1.811-.422.625-.107,1.278-.174,1.917-.258l1.869-.062c.636.047,1.273.085,1.9.143.622.116,1.244.21,1.85.346.6.17,1.2.308,1.773.5.566.213,1.139.388,1.675.625a27.093,27.093,0,0,1,5.527,3.118,32.678,32.678,0,0,1,3.424,2.854c.768.749,1.17,1.217,1.17,1.217Z" transform="translate(-311.498 -125.774)" fill="#1e1815"/>
    <path id="Trazado_127969" data-name="Trazado 127969" d="M2868.095-586.148a14.07,14.07,0,0,1-3.845-5.586s2.279,3.171,4.557,4.361Z" transform="translate(-290.59 -150.161)" fill="#1e1815"/>
    <path id="Trazado_127970" data-name="Trazado 127970" d="M2875.4-593.7a14.088,14.088,0,0,1-3.844-5.592s2.277,3.171,4.555,4.362Z" transform="translate(-296.928 -143.609)" fill="#1e1815"/>
    <path id="Trazado_127971" data-name="Trazado 127971" d="M2882.7-601.233a14.06,14.06,0,0,1-3.846-5.588s2.278,3.171,4.556,4.361Z" transform="translate(-303.252 -137.078)" fill="#1e1815"/>
    <path id="Trazado_127972" data-name="Trazado 127972" d="M2890-608.781a14.1,14.1,0,0,1-3.845-5.591s2.277,3.169,4.555,4.362Z" transform="translate(-309.587 -130.53)" fill="#1e1815"/>
    <path id="Trazado_127973" data-name="Trazado 127973" d="M2897.3-616.329a14.068,14.068,0,0,1-3.845-5.589s2.278,3.171,4.556,4.362Z" transform="translate(-315.915 -123.986)" fill="#1e1815"/>
    <path id="Trazado_127974" data-name="Trazado 127974" d="M2907.147-622.279a14.067,14.067,0,0,1-3.846-5.589s2.278,3.171,4.556,4.364Z" transform="translate(-325.324 -118.826)" fill="#1e1815"/>
    <path id="Trazado_127975" data-name="Trazado 127975" d="M2919.189-626.057a14.067,14.067,0,0,1-3.845-5.589s2.278,3.171,4.557,4.364Z" transform="translate(-335.796 -115.551)" fill="#1e1815"/>
    <path id="Trazado_127976" data-name="Trazado 127976" d="M2927.708-632.623a14.09,14.09,0,0,1-3.844-5.592s2.278,3.17,4.555,4.363Z" transform="translate(-343.203 -109.853)" fill="#1e1815"/>
    <path id="Trazado_127977" data-name="Trazado 127977" d="M2938.9-637.362a14.073,14.073,0,0,1-3.845-5.589s2.278,3.169,4.556,4.361Z" transform="translate(-352.934 -105.747)" fill="#1e1815"/>
    <path id="Trazado_127978" data-name="Trazado 127978" d="M2949.117-640.659a14.086,14.086,0,0,1-3.844-5.591s2.278,3.17,4.556,4.364Z" transform="translate(-361.819 -102.885)" fill="#1e1815"/>
    <path id="Trazado_127979" data-name="Trazado 127979" d="M2960.793-643.325a14.069,14.069,0,0,1-3.845-5.59s2.277,3.171,4.556,4.362Z" transform="translate(-371.972 -100.574)" fill="#1e1815"/>
    <path id="Trazado_127980" data-name="Trazado 127980" d="M2616.037-167.791s-1.454-3.713-3.392-3.666c-3.013.076-5.573,4.214-6.421,6.4s-6.9,17.838-1.817,20.465c3.679,1.9,11.251-2.051,12.583-6.366S2617.6-164.768,2616.037-167.791Z" transform="translate(-63.508 -516.14)" fill="#ea737b"/>
    <path id="Trazado_127981" data-name="Trazado 127981" d="M2605.982-120.846c-4.537-2.341-.213-15.038,1.378-19.311a14.359,14.359,0,0,0-1.137,2.24c-.848,2.185-6.9,17.838-1.817,20.465,3.679,1.9,11.251-2.051,12.583-6.366.1-.332.192-.7.271-1.084C2614.581-121.641,2608.984-119.3,2605.982-120.846Z" transform="translate(-63.508 -543.336)" fill="#d95f6b"/>
    <path id="Trazado_127982" data-name="Trazado 127982" d="M2698.243-122.2s-.027-.034-.073-.1a3.4,3.4,0,0,1-.513-1.4,4.312,4.312,0,0,1-.034-.555c0-.278.02-.529.02-.757a1.116,1.116,0,0,0-.221-.781,5.572,5.572,0,0,0-.711-.607c-.12-.092-.227-.177-.3-.246l-.083-.088-.016-.024v0l-.022.005h.022v-.006l-.022.005h-.027l.044.023.006-.023h-.05l.044.023-.037-.123-.123.036-.016.063c.01.109.076.161.157.243.249.228.753.56,1,.842a.942.942,0,0,1,.175.659c0,.217-.02.471-.02.757a4.4,4.4,0,0,0,.034.578,3.474,3.474,0,0,0,.624,1.595l.128.015Z" transform="translate(-144.795 -554.785)" fill="#f7b199"/>
    <path id="Trazado_127983" data-name="Trazado 127983" d="M2702.729-69.022a4,4,0,0,0-.651,1.764c0,.54.159.967.157,1.34a1.028,1.028,0,0,1-.117.5,1.312,1.312,0,0,1-.4.464.53.53,0,0,0-.243.464l0,.061a3.743,3.743,0,0,0,.272,1.059l.12.048.047-.119s-.057-.133-.118-.325a2.949,2.949,0,0,1-.14-.675v-.049c.005-.184.055-.219.176-.323a1.507,1.507,0,0,0,.451-.521,1.215,1.215,0,0,0,.137-.58c0-.422-.158-.837-.157-1.34a2.786,2.786,0,0,1,.309-1.1c.078-.164.156-.306.215-.405s.1-.157.1-.157l-.025-.126-.126.026Z" transform="translate(-149.429 -605.06)" fill="#f7b199"/>
    <path id="Trazado_127984" data-name="Trazado 127984" d="M2707.309-45.077l.014.008a.871.871,0,0,1,.419.62,4.155,4.155,0,0,0,.187.837l.117.054.054-.117s-.029-.078-.066-.218a4.434,4.434,0,0,1-.111-.579,1.052,1.052,0,0,0-.531-.767l-.122.039Z" transform="translate(-154.456 -625.736)" fill="#f7b199"/>
    <path id="Trazado_127985" data-name="Trazado 127985" d="M2754.2-167.791s1.454-3.713,3.391-3.666c3.012.076,5.573,4.214,6.421,6.4s6.9,17.838,1.817,20.465c-3.678,1.9-11.251-2.051-12.583-6.366S2752.637-164.768,2754.2-167.791Z" transform="translate(-193.726 -516.14)" fill="#ea737b"/>
    <path id="Trazado_127986" data-name="Trazado 127986" d="M2767.052-120.846c4.536-2.341.212-15.038-1.378-19.311a14.46,14.46,0,0,1,1.136,2.24c.848,2.185,6.9,17.838,1.817,20.465-3.678,1.9-11.251-2.051-12.583-6.366-.1-.332-.192-.7-.27-1.084C2758.453-121.641,2764.048-119.3,2767.052-120.846Z" transform="translate(-196.519 -543.336)" fill="#d95f6b"/>
    <path id="Trazado_127987" data-name="Trazado 127987" d="M2706.758-185.309c-.532-.461-.731-1.392-.4-1.658s.749-.5.132-.794c0,0-2.786-1.193-2.983-2.187s-.4-12.728-.265-13.391h-2.651c.132.663-.068,12.4-.266,13.391s-2.983,2.187-2.983,2.187c-.617.289-.2.53.133.794s.132,1.2-.4,1.658a.592.592,0,0,0,0,.929,40.125,40.125,0,0,0,4.839-2.388,40.046,40.046,0,0,0,4.84,2.388A.593.593,0,0,0,2706.758-185.309Z" transform="translate(-145.415 -488.36)" fill="#f7b199"/>
    <path id="Trazado_127988" data-name="Trazado 127988" d="M2762.66-104.01a2.876,2.876,0,0,0,1.068-1.033c.454-.728.839-1.244,1.395-1.352a1.018,1.018,0,0,1,.192-.023l.092.016.058.076a.244.244,0,0,0,.213.1l.141-.014a.548.548,0,0,0,.35-.216l.066-.085.021-.013a.5.5,0,0,1,.219.12,1.579,1.579,0,0,1,.414.461.5.5,0,0,0,.39.279l.105,0a8.082,8.082,0,0,0,1.071-.125l.073-.105-.106-.073s-.169.03-.385.061a5.333,5.333,0,0,1-.654.061l-.09,0c-.129-.015-.162-.065-.254-.2a1.78,1.78,0,0,0-.457-.507.61.61,0,0,0-.327-.156.212.212,0,0,0-.152.067c-.1.1-.111.2-.32.25l-.106.012-.056-.011-.064-.088a.3.3,0,0,0-.243-.091,1.146,1.146,0,0,0-.228.027c-.655.133-1.058.707-1.513,1.434a2.923,2.923,0,0,1-.665.747,2.166,2.166,0,0,1-.238.167l-.089.05-.043.121.121.044Z" transform="translate(-202.386 -572.268)" fill="#f7b199"/>
    <path id="Trazado_127989" data-name="Trazado 127989" d="M2791.749-119.5l.008.037.01.106a.41.41,0,0,1-.3.41,5.489,5.489,0,0,0-.927.472,1.659,1.659,0,0,0-.673.633l.057.116.116-.056a1.568,1.568,0,0,1,.6-.539,5.432,5.432,0,0,1,.894-.457.6.6,0,0,0,.414-.579.745.745,0,0,0-.026-.2l-.114-.059Z" transform="translate(-226.088 -561.068)" fill="#f7b199"/>
    <path id="Trazado_127990" data-name="Trazado 127990" d="M2773.271-99.328l.037-.006.11-.008a.715.715,0,0,1,.584.286,4.038,4.038,0,0,1,.349.624.88.88,0,0,0,.546.474c.255.074.607.193.9.31.148.058.282.114.382.163l.12.065.033.023.007.006.005-.005-.006,0h0l.005-.005-.006,0,.126.025.026-.125a.615.615,0,0,0-.231-.156,10.08,10.08,0,0,0-1.313-.484.7.7,0,0,1-.437-.386,4.073,4.073,0,0,0-.365-.648.9.9,0,0,0-.728-.357.8.8,0,0,0-.191.02l-.066.11.111.065Z" transform="translate(-211.597 -578.538)" fill="#f7b199"/>
    <path id="Trazado_127991" data-name="Trazado 127991" d="M2781.472-128.827a2,2,0,0,0,.447-1.034l0-.051c-.021-.29-.12-.59-.118-.831a.459.459,0,0,1,.175-.4,3.1,3.1,0,0,0,.608-.775c.173-.283.295-.528.3-.529l-.041-.122-.122.041s-.12.239-.288.516a2.972,2.972,0,0,1-.563.726.644.644,0,0,0-.246.546c0,.284.1.586.119.842v.039a1.342,1.342,0,0,1-.2.614c-.052.09-.1.167-.141.221l-.063.084.013.128Z" transform="translate(-218.683 -549.813)" fill="#f7b199"/>
    <path id="Trazado_127992" data-name="Trazado 127992" d="M2758.205-122.1a3.479,3.479,0,0,0,.624-1.595,4.488,4.488,0,0,0,.034-.58c0-.285-.02-.539-.02-.756a.94.94,0,0,1,.175-.658,5.5,5.5,0,0,1,.687-.585c.121-.093.231-.179.315-.257s.148-.134.157-.243l-.013-.059-.121-.044-.043.121.04-.019H2760l0,.019.04-.019h-.023l-.021-.006v.006h.022l-.021-.006a.517.517,0,0,1-.122.135,11.9,11.9,0,0,0-.992.836,1.107,1.107,0,0,0-.22.779c0,.227.02.479.02.756a4.179,4.179,0,0,1-.034.557,3.419,3.419,0,0,1-.339,1.1,3.025,3.025,0,0,1-.174.3c-.045.069-.073.1-.073.1l.014.128Z" transform="translate(-198.504 -554.768)" fill="#f7b199"/>
    <path id="Trazado_127993" data-name="Trazado 127993" d="M2764.423-139.391a.99.99,0,0,0-.489.816.966.966,0,0,0,.019.189,8.739,8.739,0,0,1,.218,1.364.371.371,0,0,1-.032.2v.129h.129a.475.475,0,0,0,.085-.325,8.84,8.84,0,0,0-.221-1.4l-.016-.153a.724.724,0,0,1,.2-.492l.139-.126.045-.031.015-.008.035-.124Z" transform="translate(-203.596 -543.877)" fill="#f7b199"/>
    <path id="Trazado_127994" data-name="Trazado 127994" d="M2762.814-113.382a.619.619,0,0,0,.236.041,1.071,1.071,0,0,0,.807-.431,2.94,2.94,0,0,1,.587-.537,1.446,1.446,0,0,1,.168-.1l.042-.019.011,0,.057-.115-.115-.057a2.33,2.33,0,0,0-.889.711.888.888,0,0,1-.669.367l-.125-.014-.032-.009-.007,0-.119.048Z" transform="translate(-202.583 -565.422)" fill="#f7b199"/>
    <path id="Trazado_127995" data-name="Trazado 127995" d="M2770.775-64.268h.019a1.373,1.373,0,0,1,.993.771c.24.4.326.673.443.88a.783.783,0,0,0,.618.405c.316.06.609.128.832.193a2.356,2.356,0,0,1,.273.1.365.365,0,0,1,.111.066l.127.02.019-.127a.452.452,0,0,0-.184-.125,6.029,6.029,0,0,0-1.145-.3.6.6,0,0,1-.494-.316c-.1-.18-.2-.468-.445-.882a1.5,1.5,0,0,0-1.168-.862l-.091.091.091.091Z" transform="translate(-209.449 -609.037)" fill="#f7b199"/>
    <path id="Trazado_127996" data-name="Trazado 127996" d="M2779.463-51.29l-.04-.052a1.163,1.163,0,0,1-.225-.637l.013-.142c.089-.481.29-1.267.29-1.267l-.065-.112-.111.065s-.2.788-.292,1.279a.942.942,0,0,0-.017.176,1.373,1.373,0,0,0,.309.808l.128.01.01-.128Z" transform="translate(-216.675 -618.557)" fill="#f7b199"/>
    <path id="Trazado_127997" data-name="Trazado 127997" d="M2778.753-62.958l-.047.03a1.5,1.5,0,0,1-.605.2h-.048c-.249,0-.655-.128-.955-.13a.564.564,0,0,0-.213.035.278.278,0,0,0-.155.149l.049.119.119-.048.057-.052a.39.39,0,0,1,.143-.021c.253,0,.66.128.955.13l.061,0a1.666,1.666,0,0,0,.743-.259l.023-.126Z" transform="translate(-214.692 -610.321)" fill="#f7b199"/>
    <path id="Trazado_127998" data-name="Trazado 127998" d="M2758.031-68.921s.038.058.1.158a3.475,3.475,0,0,1,.525,1.506c0,.5-.157.919-.159,1.342a1.2,1.2,0,0,0,.138.578,1.49,1.49,0,0,0,.452.521c.12.1.171.139.176.322v.05a2.964,2.964,0,0,1-.139.674c-.061.192-.118.325-.118.325l.048.12.119-.047a3.747,3.747,0,0,0,.272-1.061l0-.061a.532.532,0,0,0-.244-.464,1.324,1.324,0,0,1-.405-.464,1.023,1.023,0,0,1-.116-.494c0-.375.157-.8.158-1.342a4,4,0,0,0-.652-1.764l-.126-.025-.026.126Z" transform="translate(-198.477 -605.06)" fill="#f7b199"/>
    <path id="Trazado_127999" data-name="Trazado 127999" d="M2764.169-51.544l0-.05a.716.716,0,0,0-.477-.676,2.59,2.59,0,0,1-.615-.379,3.523,3.523,0,0,1-.278-.246h-.129v.129a3.371,3.371,0,0,0,.955.665.533.533,0,0,1,.363.507v.029l.081.1Z" transform="translate(-202.502 -619.077)" fill="#f7b199"/>
    <path id="Trazado_128000" data-name="Trazado 128000" d="M2757.3-45.239a1.052,1.052,0,0,0-.531.767,4.553,4.553,0,0,1-.111.58c-.037.14-.065.217-.065.218l.054.117.117-.054a4.318,4.318,0,0,0,.186-.837.809.809,0,0,1,.238-.477l.138-.116.043-.027.014-.008.04-.122-.122-.039Z" transform="translate(-197.231 -625.736)" fill="#f7b199"/>
    <path id="Trazado_128001" data-name="Trazado 128001" d="M2762.565-58.369s.2.062.421.131c.108.035.22.072.311.1a1.613,1.613,0,0,1,.174.066l.124-.034-.034-.124a1.588,1.588,0,0,0-.2-.08c-.277-.1-.738-.235-.739-.235l-.113.061.061.114Z" transform="translate(-202.356 -614.161)" fill="#f7b199"/>
    <path id="Trazado_128002" data-name="Trazado 128002" d="M2720.875-109.541a.337.337,0,0,0,.336.335h3.077a.337.337,0,0,0,.337-.335.338.338,0,0,0-.337-.338h-3.077A.339.339,0,0,0,2720.875-109.541Z" transform="translate(-166.255 -569.526)" fill="#fce3dc"/>
    <path id="Trazado_128003" data-name="Trazado 128003" d="M2720.875-131.623a.336.336,0,0,0,.336.335h3.077a.336.336,0,0,0,.337-.335.336.336,0,0,0-.337-.335h-3.077A.336.336,0,0,0,2720.875-131.623Z" transform="translate(-166.255 -550.328)" fill="#fce3dc"/>
    <path id="Trazado_128004" data-name="Trazado 128004" d="M2720.875-153.714a.337.337,0,0,0,.336.335h3.077a.337.337,0,0,0,.337-.335.337.337,0,0,0-.337-.337h-3.077A.337.337,0,0,0,2720.875-153.714Z" transform="translate(-166.255 -531.119)" fill="#fce3dc"/>
    <path id="Trazado_128005" data-name="Trazado 128005" d="M2720.875-173.642a.336.336,0,0,0,.336.336h3.077a.336.336,0,0,0,.337-.336.336.336,0,0,0-.337-.335h-3.077A.336.336,0,0,0,2720.875-173.642Z" transform="translate(-166.255 -513.793)" fill="#fce3dc"/>
    <path id="Trazado_128006" data-name="Trazado 128006" d="M2720.875-193.4a.336.336,0,0,0,.336.336h3.077a.336.336,0,0,0,.337-.336.336.336,0,0,0-.337-.334h-3.077A.336.336,0,0,0,2720.875-193.4Z" transform="translate(-166.255 -496.614)" fill="#fce3dc"/>
    <path id="Trazado_128007" data-name="Trazado 128007" d="M2741.155-96.314a.331.331,0,0,0,.207.425.333.333,0,0,0,.427-.2l1.1-3.177a.335.335,0,0,0-.207-.426.335.335,0,0,0-.427.207Z" transform="translate(-183.825 -578.383)" fill="#fce3dc"/>
    <path id="Trazado_128008" data-name="Trazado 128008" d="M2712.649-94.924a.333.333,0,0,1-.206.424.334.334,0,0,1-.428-.2l-1.1-3.178a.339.339,0,0,1,.208-.427.335.335,0,0,1,.427.208Z" transform="translate(-157.602 -579.59)" fill="#fce3dc"/>
    <path id="Trazado_128009" data-name="Trazado 128009" d="M2543.353-203.136v.994h27.824l13.588-26.105-13.588-26.1h-28.427l-13.589,26.105,13.589,26.1h.6v-.994l.881-.459L2531.4-228.247l12.555-24.118h26.015l12.553,24.117-12.553,24.117h-26.618v.994l.881-.459Z" transform="translate(0 -444.198)" fill="#e75f6e"/>
    <path id="Trazado_128010" data-name="Trazado 128010" d="M4098.69-167.791s-1.454-3.713-3.393-3.666c-3.013.076-5.572,4.214-6.42,6.4s-6.905,17.838-1.817,20.465c3.679,1.9,11.252-2.051,12.584-6.366S4100.256-164.768,4098.69-167.791Z" transform="translate(-1353.028 -516.14)" fill="#ea737b"/>
    <path id="Trazado_128011" data-name="Trazado 128011" d="M4088.635-120.846c-4.538-2.341-.214-15.038,1.378-19.311a14.37,14.37,0,0,0-1.136,2.24c-.848,2.185-6.905,17.838-1.817,20.465,3.679,1.9,11.252-2.051,12.584-6.366.1-.332.191-.7.271-1.084C4097.233-121.641,4091.636-119.3,4088.635-120.846Z" transform="translate(-1353.022 -543.336)" fill="#d95f6b"/>
    <path id="Trazado_128012" data-name="Trazado 128012" d="M4151.094-104.174l-.089-.05a2.834,2.834,0,0,1-.9-.914c-.457-.727-.859-1.3-1.513-1.434a1.15,1.15,0,0,0-.228-.027.291.291,0,0,0-.277.136l-.031.043-.056.011-.107-.012a.366.366,0,0,1-.242-.149l-.079-.1a.208.208,0,0,0-.151-.067.612.612,0,0,0-.327.156,1.756,1.756,0,0,0-.456.507c-.092.133-.125.183-.256.2l-.089,0a8.407,8.407,0,0,1-1.036-.122l-.105.073.073.105a8.049,8.049,0,0,0,1.068.125l.105,0a.5.5,0,0,0,.391-.279,1.588,1.588,0,0,1,.414-.462.5.5,0,0,1,.217-.119l.021.013a.655.655,0,0,0,.415.3l.143.014a.267.267,0,0,0,.165-.048.512.512,0,0,0,.091-.113c.013-.012.021-.026.107-.029a1,1,0,0,1,.191.023c.557.107.942.623,1.4,1.352a2.871,2.871,0,0,0,1.066,1.033l.121-.044Z" transform="translate(-1405.16 -572.268)" fill="#f7b199"/>
    <path id="Trazado_128013" data-name="Trazado 128013" d="M4147.272-119.555a.809.809,0,0,0-.027.2.594.594,0,0,0,.414.579,5.445,5.445,0,0,1,.9.457,1.577,1.577,0,0,1,.6.539l.116.056.057-.116a1.669,1.669,0,0,0-.674-.633,5.5,5.5,0,0,0-.927-.472.409.409,0,0,1-.3-.41l.009-.106.009-.037-.059-.114Z" transform="translate(-1406.926 -561.068)" fill="#f7b199"/>
    <path id="Trazado_128014" data-name="Trazado 128014" d="M4157.784-99.5a.8.8,0,0,0-.19-.02.9.9,0,0,0-.728.357,4.073,4.073,0,0,0-.363.648.7.7,0,0,1-.438.386c-.262.076-.616.2-.918.314-.15.06-.288.117-.4.17a.626.626,0,0,0-.232.156l.026.126.126-.025-.006,0,0,.005h0l-.006,0,0,.005a.9.9,0,0,1,.189-.108,10.3,10.3,0,0,1,1.256-.459.877.877,0,0,0,.546-.474,4.225,4.225,0,0,1,.349-.624.714.714,0,0,1,.584-.286l.109.008.036.006.11-.065Z" transform="translate(-1413.267 -578.538)" fill="#f7b199"/>
    <path id="Trazado_128015" data-name="Trazado 128015" d="M4161.354-128.942l-.062-.084a1.671,1.671,0,0,1-.343-.835l0-.038c.015-.258.116-.559.117-.843a.647.647,0,0,0-.247-.547,2.975,2.975,0,0,1-.561-.725c-.168-.277-.288-.516-.288-.516l-.122-.042-.04.122s.122.245.293.529a3.119,3.119,0,0,0,.607.775.465.465,0,0,1,.177.4c0,.241-.1.54-.118.829v.051a2.009,2.009,0,0,0,.446,1.034l.127.013Z" transform="translate(-1418.751 -549.813)" fill="#f7b199"/>
    <path id="Trazado_128016" data-name="Trazado 128016" d="M4180.891-122.2s-.026-.034-.072-.1a3.4,3.4,0,0,1-.513-1.4,4.344,4.344,0,0,1-.032-.555c0-.278.02-.529.02-.757a1.115,1.115,0,0,0-.222-.781,5.586,5.586,0,0,0-.71-.607c-.12-.092-.228-.177-.3-.246l-.083-.088-.016-.024v0l-.023.005h.023v-.006l-.023.005h-.027l.044.023.006-.023h-.05l.044.023-.037-.123-.123.036-.016.063c.01.109.077.161.158.243.249.228.752.56,1,.842a.943.943,0,0,1,.174.659c0,.217-.02.471-.02.757a4.4,4.4,0,0,0,.035.578,3.481,3.481,0,0,0,.624,1.595l.128.015Z" transform="translate(-1435.201 -554.785)" fill="#f7b199"/>
    <path id="Trazado_128017" data-name="Trazado 128017" d="M4184.259-139.232l.014.008a.8.8,0,0,1,.38.648l-.016.155a8.863,8.863,0,0,0-.219,1.4.462.462,0,0,0,.086.326h.128v-.128a.365.365,0,0,1-.033-.2,8.955,8.955,0,0,1,.217-1.363,1.013,1.013,0,0,0,.019-.19.982.982,0,0,0-.487-.816l-.124.036Z" transform="translate(-1439.924 -543.877)" fill="#f7b199"/>
    <path id="Trazado_128018" data-name="Trazado 128018" d="M4177.107-113.548l-.007,0a.527.527,0,0,1-.157.022.891.891,0,0,1-.67-.367,2.325,2.325,0,0,0-.888-.711l-.115.057.058.115.011,0a2.292,2.292,0,0,1,.8.653,1.072,1.072,0,0,0,.808.431.621.621,0,0,0,.236-.041l.048-.119Z" transform="translate(-1432.159 -565.422)" fill="#f7b199"/>
    <path id="Trazado_128019" data-name="Trazado 128019" d="M4158.969-64.45a1.506,1.506,0,0,0-1.169.862c-.245.415-.341.7-.442.882a.6.6,0,0,1-.495.316c-.32.061-.618.129-.849.2a2.445,2.445,0,0,0-.3.105.468.468,0,0,0-.184.124l.019.128.128-.019a.344.344,0,0,1,.111-.067,5.926,5.926,0,0,1,1.1-.29.778.778,0,0,0,.617-.405c.117-.207.2-.478.442-.879a1.653,1.653,0,0,1,.688-.68,1.016,1.016,0,0,1,.241-.082l.065-.01h.018l.091-.091-.091-.09Z" transform="translate(-1414.154 -609.037)" fill="#f7b199"/>
    <path id="Trazado_128020" data-name="Trazado 128020" d="M4170.271-51.171a1.366,1.366,0,0,0,.31-.809l-.017-.175c-.093-.491-.293-1.279-.294-1.28l-.11-.065-.066.11s.2.787.292,1.268l.013.142a1.061,1.061,0,0,1-.133.488,1.46,1.46,0,0,1-.093.151l-.039.052.008.129.128-.01Z" transform="translate(-1427.67 -618.557)" fill="#f7b199"/>
    <path id="Trazado_128021" data-name="Trazado 128021" d="M4159.878-62.809a1.671,1.671,0,0,0,.741.259l.063,0c.294,0,.7-.132.956-.13a.391.391,0,0,1,.143.021l.057.052.12.048.047-.119a.275.275,0,0,0-.154-.149.568.568,0,0,0-.213-.035c-.3,0-.708.132-.956.13h-.048a1.442,1.442,0,0,1-.465-.126l-.139-.072-.047-.03-.128.023Z" transform="translate(-1418.791 -610.321)" fill="#f7b199"/>
    <path id="Trazado_128022" data-name="Trazado 128022" d="M4185.381-69.022a4,4,0,0,0-.65,1.764c0,.54.16.967.158,1.34a1.026,1.026,0,0,1-.117.5,1.318,1.318,0,0,1-.4.464.531.531,0,0,0-.244.465l0,.06a3.753,3.753,0,0,0,.271,1.059l.12.048.047-.119s-.058-.133-.118-.325a3.029,3.029,0,0,1-.14-.675l0-.048c0-.184.056-.22.177-.324a1.515,1.515,0,0,0,.451-.521,1.215,1.215,0,0,0,.137-.58c0-.422-.158-.837-.157-1.34a2.786,2.786,0,0,1,.309-1.1c.078-.164.156-.305.214-.405s.1-.157.1-.157l-.026-.126-.126.026Z" transform="translate(-1439.838 -605.06)" fill="#f7b199"/>
    <path id="Trazado_128023" data-name="Trazado 128023" d="M4178.979-51.564v-.028a.532.532,0,0,1,.362-.509,3.376,3.376,0,0,0,.956-.665V-52.9h-.129a3.658,3.658,0,0,1-.277.246,2.6,2.6,0,0,1-.616.379.717.717,0,0,0-.477.677v.048l.1.08Z" transform="translate(-1435.218 -619.077)" fill="#f7b199"/>
    <path id="Trazado_128024" data-name="Trazado 128024" d="M4189.962-45.077l.014.008a.871.871,0,0,1,.418.62,4.31,4.31,0,0,0,.188.837l.116.054.053-.117s-.027-.078-.065-.218a4.548,4.548,0,0,1-.112-.579,1.048,1.048,0,0,0-.531-.767l-.123.039Z" transform="translate(-1444.865 -625.736)" fill="#f7b199"/>
    <path id="Trazado_128025" data-name="Trazado 128025" d="M4183.025-58.543s-.205.062-.424.132c-.109.035-.222.072-.315.1a1.591,1.591,0,0,0-.2.08l-.036.124.125.034a1.508,1.508,0,0,1,.173-.066c.272-.094.731-.232.732-.233l.062-.113-.114-.06Z" transform="translate(-1438.036 -614.161)" fill="#f7b199"/>
    <path id="Trazado_128026" data-name="Trazado 128026" d="M4236.855-167.791s1.454-3.713,3.393-3.666c3.012.076,5.572,4.214,6.42,6.4s6.906,17.838,1.817,20.465c-3.678,1.9-11.25-2.051-12.583-6.366S4235.288-164.768,4236.855-167.791Z" transform="translate(-1484.134 -516.14)" fill="#ea737b"/>
    <path id="Trazado_128027" data-name="Trazado 128027" d="M4249.7-120.846c4.536-2.341.213-15.038-1.377-19.311a14.529,14.529,0,0,1,1.135,2.24c.849,2.185,6.906,17.838,1.817,20.465-3.678,1.9-11.251-2.051-12.583-6.366-.1-.332-.192-.7-.271-1.084C4241.1-121.641,4246.7-119.3,4249.7-120.846Z" transform="translate(-1486.924 -543.336)" fill="#d95f6b"/>
    <path id="Trazado_128028" data-name="Trazado 128028" d="M4189.41-185.309c-.532-.461-.73-1.392-.4-1.658s.749-.5.131-.794c0,0-2.785-1.193-2.983-2.187s-.4-12.728-.264-13.391h-2.651c.131.663-.068,12.4-.266,13.391s-2.984,2.187-2.984,2.187c-.617.289-.2.53.134.794s.132,1.2-.4,1.658a.592.592,0,0,0,0,.929,40.046,40.046,0,0,0,4.839-2.388,40.165,40.165,0,0,0,4.84,2.388A.592.592,0,0,0,4189.41-185.309Z" transform="translate(-1435.823 -488.36)" fill="#f7b199"/>
    <path id="Trazado_128029" data-name="Trazado 128029" d="M4245.312-104.01a2.876,2.876,0,0,0,1.068-1.033c.453-.728.838-1.244,1.4-1.352a1.008,1.008,0,0,1,.191-.023l.091.016.058.076a.246.246,0,0,0,.214.1l.142-.014a.554.554,0,0,0,.35-.216l.066-.085.021-.013a.5.5,0,0,1,.219.12,1.585,1.585,0,0,1,.414.461.5.5,0,0,0,.39.279l.105,0a8.047,8.047,0,0,0,1.07-.125l.073-.105-.106-.073s-.169.03-.384.061a5.312,5.312,0,0,1-.653.061l-.09,0c-.13-.015-.162-.065-.254-.2a1.789,1.789,0,0,0-.457-.507.612.612,0,0,0-.327-.156.213.213,0,0,0-.151.067c-.1.1-.111.2-.321.25l-.106.012-.056-.011-.064-.088a.3.3,0,0,0-.243-.091,1.13,1.13,0,0,0-.227.027c-.655.133-1.057.707-1.514,1.434a2.932,2.932,0,0,1-.665.747,2.145,2.145,0,0,1-.237.167l-.089.05-.043.121.121.044Z" transform="translate(-1492.795 -572.268)" fill="#f7b199"/>
    <path id="Trazado_128030" data-name="Trazado 128030" d="M4274.4-119.5l.008.037.01.106a.411.411,0,0,1-.3.411,5.457,5.457,0,0,0-.928.472,1.657,1.657,0,0,0-.673.633l.056.116.116-.056a1.569,1.569,0,0,1,.6-.539,5.465,5.465,0,0,1,.9-.457.592.592,0,0,0,.413-.58.7.7,0,0,0-.026-.2l-.114-.059Z" transform="translate(-1516.497 -561.068)" fill="#f7b199"/>
    <path id="Trazado_128031" data-name="Trazado 128031" d="M4255.922-99.328l.037-.006.11-.008a.717.717,0,0,1,.584.286,4.215,4.215,0,0,1,.35.624.876.876,0,0,0,.544.474c.255.074.607.193.9.31.147.058.282.114.381.163l.121.065.032.023.008.006,0,0,0,0h0l0,0,0,0,.125.025.026-.125a.622.622,0,0,0-.232-.156,10.137,10.137,0,0,0-1.312-.484.7.7,0,0,1-.438-.386,4,4,0,0,0-.364-.648.9.9,0,0,0-.728-.357.818.818,0,0,0-.192.02l-.065.11Z" transform="translate(-1502.005 -578.538)" fill="#f7b199"/>
    <path id="Trazado_128032" data-name="Trazado 128032" d="M4264.118-128.827a2.022,2.022,0,0,0,.447-1.034l0-.051c-.021-.29-.12-.59-.119-.831a.462.462,0,0,1,.176-.4,3.131,3.131,0,0,0,.607-.775c.173-.283.294-.528.3-.529l-.041-.122-.122.041s-.12.239-.288.516a2.96,2.96,0,0,1-.563.726.646.646,0,0,0-.246.546c0,.284.1.586.119.842v.039a1.334,1.334,0,0,1-.2.614,2.391,2.391,0,0,1-.14.221l-.064.084.013.128.128-.013Z" transform="translate(-1509.086 -549.813)" fill="#f7b199"/>
    <path id="Trazado_128033" data-name="Trazado 128033" d="M4240.857-122.1a3.466,3.466,0,0,0,.625-1.595,4.449,4.449,0,0,0,.035-.58c0-.285-.02-.539-.02-.756a.943.943,0,0,1,.174-.658,5.459,5.459,0,0,1,.687-.585c.121-.093.23-.179.313-.257s.149-.134.158-.243l-.013-.059-.122-.044-.043.121.04-.019h-.044l0,.019.04-.019h-.022l-.022-.006v.006h.022l-.022-.006a.512.512,0,0,1-.122.135,11.856,11.856,0,0,0-.992.836,1.11,1.11,0,0,0-.22.778c0,.228.02.479.02.756a4.215,4.215,0,0,1-.033.557,3.424,3.424,0,0,1-.339,1.1,3.3,3.3,0,0,1-.174.3c-.046.069-.073.1-.073.1l.014.128Z" transform="translate(-1488.913 -554.768)" fill="#f7b199"/>
    <path id="Trazado_128034" data-name="Trazado 128034" d="M4247.075-139.391a.992.992,0,0,0-.489.816.966.966,0,0,0,.019.189,8.706,8.706,0,0,1,.218,1.365.375.375,0,0,1-.032.2v.129h.129a.472.472,0,0,0,.085-.324,8.772,8.772,0,0,0-.223-1.4l-.015-.153a.728.728,0,0,1,.2-.492l.139-.126.044-.031.014-.008.036-.124Z" transform="translate(-1494.004 -543.877)" fill="#f7b199"/>
    <path id="Trazado_128035" data-name="Trazado 128035" d="M4245.461-113.382a.625.625,0,0,0,.236.041,1.071,1.071,0,0,0,.807-.431,2.975,2.975,0,0,1,.586-.537,1.441,1.441,0,0,1,.168-.1l.042-.019.011,0,.057-.115-.115-.057a2.339,2.339,0,0,0-.889.711.888.888,0,0,1-.668.367l-.125-.014-.031-.009-.007,0-.12.048Z" transform="translate(-1492.988 -565.422)" fill="#f7b199"/>
    <path id="Trazado_128036" data-name="Trazado 128036" d="M4253.427-64.268h.018a1.375,1.375,0,0,1,.994.771c.239.4.326.673.442.88a.783.783,0,0,0,.619.405c.315.06.609.128.832.193a2.233,2.233,0,0,1,.272.1.34.34,0,0,1,.111.066l.128.02.019-.127a.453.453,0,0,0-.182-.125,6.065,6.065,0,0,0-1.146-.3.594.594,0,0,1-.494-.316c-.1-.18-.2-.468-.445-.882a1.5,1.5,0,0,0-1.167-.862l-.091.091.091.091Z" transform="translate(-1499.858 -609.037)" fill="#f7b199"/>
    <path id="Trazado_128037" data-name="Trazado 128037" d="M4262.114-51.29l-.04-.052a1.177,1.177,0,0,1-.224-.637l.013-.142c.087-.481.291-1.267.291-1.268l-.066-.11-.111.065s-.2.788-.293,1.279a1.007,1.007,0,0,0-.017.176,1.374,1.374,0,0,0,.309.808l.128.01.01-.128Z" transform="translate(-1507.083 -618.557)" fill="#f7b199"/>
    <path id="Trazado_128038" data-name="Trazado 128038" d="M4261.4-62.958l-.047.03a1.5,1.5,0,0,1-.605.2h-.048c-.248,0-.655-.128-.955-.13a.563.563,0,0,0-.213.035.279.279,0,0,0-.155.149l.048.119.12-.048.057-.052a.391.391,0,0,1,.143-.021c.253,0,.659.128.955.13l.062,0a1.661,1.661,0,0,0,.743-.259l.023-.126-.127-.023Z" transform="translate(-1505.098 -610.321)" fill="#f7b199"/>
    <path id="Trazado_128039" data-name="Trazado 128039" d="M4240.68-68.921s.039.058.1.158a3.457,3.457,0,0,1,.524,1.506c0,.5-.155.919-.157,1.342a1.2,1.2,0,0,0,.138.578,1.509,1.509,0,0,0,.451.521c.121.1.172.139.176.322v.05a2.951,2.951,0,0,1-.139.674c-.061.192-.118.325-.118.325l.047.12.12-.048a3.73,3.73,0,0,0,.271-1.06l0-.061a.534.534,0,0,0-.243-.464,1.31,1.31,0,0,1-.405-.464,1.035,1.035,0,0,1-.117-.494c0-.375.157-.8.158-1.342a4.012,4.012,0,0,0-.651-1.764l-.126-.025-.025.126Z" transform="translate(-1488.883 -605.06)" fill="#f7b199"/>
    <path id="Trazado_128040" data-name="Trazado 128040" d="M4246.822-51.544l0-.05a.717.717,0,0,0-.478-.676,2.58,2.58,0,0,1-.615-.379,3.5,3.5,0,0,1-.278-.246h-.129v.129a3.356,3.356,0,0,0,.955.665.533.533,0,0,1,.363.507v.029l.08.1Z" transform="translate(-1492.911 -619.077)" fill="#f7b199"/>
    <path id="Trazado_128041" data-name="Trazado 128041" d="M4239.95-45.239a1.054,1.054,0,0,0-.531.767,4.814,4.814,0,0,1-.11.58c-.038.14-.066.217-.066.217l.055.117.116-.054a4.213,4.213,0,0,0,.186-.837.812.812,0,0,1,.238-.477l.138-.115.044-.028.013-.008.04-.122-.121-.039Z" transform="translate(-1487.636 -625.736)" fill="#f7b199"/>
    <path id="Trazado_128042" data-name="Trazado 128042" d="M4245.213-58.369s.2.062.42.131c.109.035.22.072.31.1a1.478,1.478,0,0,1,.174.066l.125-.034-.034-.124a1.572,1.572,0,0,0-.205-.08c-.278-.1-.738-.235-.738-.235l-.114.061.062.114Z" transform="translate(-1492.76 -614.161)" fill="#f7b199"/>
    <path id="Trazado_128043" data-name="Trazado 128043" d="M4203.523-109.541a.337.337,0,0,0,.337.335h3.077a.337.337,0,0,0,.336-.335.338.338,0,0,0-.336-.338h-3.077A.339.339,0,0,0,4203.523-109.541Z" transform="translate(-1456.66 -569.526)" fill="#fce3dc"/>
    <path id="Trazado_128044" data-name="Trazado 128044" d="M4203.523-131.623a.336.336,0,0,0,.337.335h3.077a.335.335,0,0,0,.336-.335.335.335,0,0,0-.336-.335h-3.077A.336.336,0,0,0,4203.523-131.623Z" transform="translate(-1456.66 -550.328)" fill="#fce3dc"/>
    <path id="Trazado_128045" data-name="Trazado 128045" d="M4203.523-153.714a.337.337,0,0,0,.337.335h3.077a.336.336,0,0,0,.336-.335.336.336,0,0,0-.336-.337h-3.077A.337.337,0,0,0,4203.523-153.714Z" transform="translate(-1456.66 -531.119)" fill="#fce3dc"/>
    <path id="Trazado_128046" data-name="Trazado 128046" d="M4203.523-173.642a.336.336,0,0,0,.337.336h3.077a.335.335,0,0,0,.336-.336.335.335,0,0,0-.336-.335h-3.077A.336.336,0,0,0,4203.523-173.642Z" transform="translate(-1456.66 -513.793)" fill="#fce3dc"/>
    <path id="Trazado_128047" data-name="Trazado 128047" d="M4203.523-193.4a.336.336,0,0,0,.337.336h3.077a.335.335,0,0,0,.336-.336.335.335,0,0,0-.336-.334h-3.077A.336.336,0,0,0,4203.523-193.4Z" transform="translate(-1456.66 -496.614)" fill="#fce3dc"/>
    <path id="Trazado_128048" data-name="Trazado 128048" d="M4223.806-96.314a.332.332,0,0,0,.207.425.333.333,0,0,0,.427-.2l1.1-3.177a.333.333,0,0,0-.207-.426.336.336,0,0,0-.427.207Z" transform="translate(-1474.233 -578.383)" fill="#fce3dc"/>
    <path id="Trazado_128049" data-name="Trazado 128049" d="M4195.3-94.924a.335.335,0,0,1-.207.424.335.335,0,0,1-.428-.2l-1.1-3.178a.339.339,0,0,1,.208-.427.335.335,0,0,1,.426.208Z" transform="translate(-1448.009 -579.59)" fill="#fce3dc"/>
    <path id="Trazado_128050" data-name="Trazado 128050" d="M4026.006-203.136v.994h27.823l13.588-26.105-13.588-26.1H4025.4l-13.589,26.105,13.589,26.1h.6v-.994l.881-.459-12.833-24.653,12.554-24.117h26.016l12.553,24.117-12.553,24.117h-26.618v.994l.881-.459Z" transform="translate(-1290.409 -444.198)" fill="#e75f6e"/>
    <path id="Trazado_128051" data-name="Trazado 128051" d="M3774.414-713.674v.993h27.826l13.587-26.105-13.587-26.105h-28.429l-13.589,26.105,13.589,26.105h.6v-.993l.882-.459-12.833-24.653,12.554-24.117h26.015l12.553,24.117-12.553,24.118h-26.619v.994l.882-.459Z" transform="translate(-1071.114)" fill="#e75f6e"/>
    <path id="Trazado_128052" data-name="Trazado 128052" d="M3851.412-673.907s-4.732,1.972-6.9-1.971c0,0-4.533.788-4.731-3.352,0,0-4.692-1.183-3.312-7.294,0,0-5.006-4.337-.234-8.674,0,0-2.062-5.419,3.745-6.7,0,0-1.775-5.325,4.928-5.52,0,0,1.38-4.141,6.506-2.564Z" transform="translate(-1134.888 -47.306)" fill="#e97081"/>
    <path id="Trazado_128053" data-name="Trazado 128053" d="M3915.6-696.7c.006,0,.416.346.933.694a6.884,6.884,0,0,0,.828.485,2.043,2.043,0,0,0,.839.241l.167-.016h0a10.629,10.629,0,0,0,1.364-.275,1.926,1.926,0,0,0,.707-.381,1.025,1.025,0,0,0,.346-.775,1.565,1.565,0,0,0-.134-.6,2.178,2.178,0,0,0-.72-.953,1.576,1.576,0,0,0-.921-.291,1.961,1.961,0,0,0-1.244.469.3.3,0,0,0-.035.416.3.3,0,0,0,.418.034,1.381,1.381,0,0,1,.861-.327.987.987,0,0,1,.579.182,1.574,1.574,0,0,1,.516.7.969.969,0,0,1,.088.369.426.426,0,0,1-.154.339,1.88,1.88,0,0,1-.822.344c-.345.078-.7.117-.966.169l.058.29-.055-.291-.057.005a1.553,1.553,0,0,1-.583-.182,7.717,7.717,0,0,1-1.1-.685c-.158-.116-.294-.221-.39-.3s-.148-.12-.148-.12a.3.3,0,0,0-.417.038A.3.3,0,0,0,3915.6-696.7Z" transform="translate(-1205.457 -57.509)" fill="#b54659"/>
    <path id="Trazado_128054" data-name="Trazado 128054" d="M3910.335-676.379c0,.005.407.512.909,1.026a7.339,7.339,0,0,0,.8.72,1.533,1.533,0,0,0,.842.373l.161-.021.011,0-.006,0a.583.583,0,0,0,.274-.174,1.263,1.263,0,0,0,.247-.465,7.059,7.059,0,0,0,.225-1.974c0-.364-.017-.709-.045-.987-.015-.14-.032-.263-.055-.368a.9.9,0,0,0-.1-.291.3.3,0,0,0-.408-.095.3.3,0,0,0-.095.408l.045-.029-.049.022,0,.007.045-.029-.049.022a.794.794,0,0,1,.038.152,7.465,7.465,0,0,1,.078,1.189,8.134,8.134,0,0,1-.113,1.453,2.056,2.056,0,0,1-.139.482l-.064.1-.011.01.026.039-.012-.045-.013.006.026.039-.012-.045.08.285-.075-.286-.011,0a1.123,1.123,0,0,1-.487-.254,8.471,8.471,0,0,1-1.066-1.021c-.156-.173-.29-.329-.384-.441s-.148-.18-.148-.18a.3.3,0,0,0-.415-.047.3.3,0,0,0-.048.416Z" transform="translate(-1200.894 -74.761)" fill="#b54659"/>
    <path id="Trazado_128055" data-name="Trazado 128055" d="M3904.258-655.995l0,.028a3.936,3.936,0,0,1,.021.4,2.357,2.357,0,0,1-.146.892.7.7,0,0,1-.2.281.509.509,0,0,1-.325.1l-.1-.006a2.077,2.077,0,0,1-1.25-.561,1.812,1.812,0,0,1-.265-.317l-.058-.1-.011-.022,0,0-.1.045.1-.043v0l-.1.045.1-.043-.389-.87-.172.938s-.01.052-.031.15a10.592,10.592,0,0,1-.619,1.97,3.688,3.688,0,0,1-.594.968.914.914,0,0,1-.66.356h-.043l0,.3.015-.3a2.259,2.259,0,0,1-1.516-.715,3.063,3.063,0,0,1-.377-.47c-.041-.063-.071-.116-.091-.151l-.021-.039,0-.009a.3.3,0,0,0-.395-.139.3.3,0,0,0-.139.395,3.424,3.424,0,0,0,.6.827,2.849,2.849,0,0,0,1.91.893h.06a1.59,1.59,0,0,0,1.214-.686,6.4,6.4,0,0,0,.968-2.043,11.539,11.539,0,0,0,.3-1.2l-.291-.053-.27.12a2.156,2.156,0,0,0,.464.623,2.67,2.67,0,0,0,1.6.723l.162.009a1.106,1.106,0,0,0,.685-.221,1.455,1.455,0,0,0,.484-.807,3.383,3.383,0,0,0,.094-.835,4.431,4.431,0,0,0-.029-.511.3.3,0,0,0-.333-.254A.3.3,0,0,0,3904.258-655.995Z" transform="translate(-1189.283 -94.144)" fill="#b54659"/>
    <path id="Trazado_128056" data-name="Trazado 128056" d="M3877.338-666.808a7.4,7.4,0,0,0,2.227.49,1.854,1.854,0,0,0,.73-.127.943.943,0,0,0,.53-.533,2.409,2.409,0,0,0,.161-.875,2.794,2.794,0,0,0-1.319-2.351.3.3,0,0,0-.405.1.3.3,0,0,0,.1.406,2.209,2.209,0,0,1,1.031,1.844,1.848,1.848,0,0,1-.12.662.355.355,0,0,1-.212.2,1.309,1.309,0,0,1-.5.079,5.216,5.216,0,0,1-1.324-.224c-.2-.057-.374-.114-.5-.156l-.143-.051-.049-.018a.3.3,0,0,0-.383.167.3.3,0,0,0,.168.383Z" transform="translate(-1172.098 -82.077)" fill="#b54659"/>
    <path id="Trazado_128057" data-name="Trazado 128057" d="M3850.294-618.632a10.594,10.594,0,0,0,1.048.506,5.8,5.8,0,0,0,2.069.513,1.723,1.723,0,0,0,.963-.252,2.73,2.73,0,0,0,.927-1.26,4.371,4.371,0,0,0,.324-1.6,2.311,2.311,0,0,0-.149-.875,1.029,1.029,0,0,0-.568-.6,5.277,5.277,0,0,0-1.773-.25,9.773,9.773,0,0,0-.99.049.3.3,0,0,0-.261.327.3.3,0,0,0,.327.261s.1-.011.264-.023.4-.023.661-.023a4.763,4.763,0,0,1,1.562.211.447.447,0,0,1,.233.27,1.774,1.774,0,0,1,.1.65,3.8,3.8,0,0,1-.28,1.376,2.166,2.166,0,0,1-.707.99,1.143,1.143,0,0,1-.635.154,5.276,5.276,0,0,1-1.841-.467c-.284-.119-.533-.238-.708-.328-.088-.045-.158-.081-.206-.107l-.07-.038a.3.3,0,0,0-.4.11A.3.3,0,0,0,3850.294-618.632Z" transform="translate(-1148.635 -123.528)" fill="#b54659"/>
    <path id="Trazado_128058" data-name="Trazado 128058" d="M3911.831-628.083l.027-.009a4.083,4.083,0,0,1,1.228-.251,1.1,1.1,0,0,1,.435.073.378.378,0,0,1,.21.207,5.493,5.493,0,0,1,.406,1.9,1.863,1.863,0,0,1-.187.888.949.949,0,0,1-.638.476,9.591,9.591,0,0,1-2.227.242,7.47,7.47,0,0,1-1.678-.164,2.276,2.276,0,0,1-.554-.2.524.524,0,0,1-.227-.2,3.55,3.55,0,0,1-.309-1.468l0-.119v-.036a.3.3,0,0,0-.27-.318.3.3,0,0,0-.319.27c0,.007-.007.08-.007.2a4.127,4.127,0,0,0,.367,1.722,1.086,1.086,0,0,0,.474.463,5.764,5.764,0,0,0,2.519.437,10.168,10.168,0,0,0,2.374-.261,1.549,1.549,0,0,0,1.008-.764,2.432,2.432,0,0,0,.262-1.174,6.083,6.083,0,0,0-.451-2.121.975.975,0,0,0-.518-.523,1.672,1.672,0,0,0-.675-.124,4.661,4.661,0,0,0-1.469.3.3.3,0,0,0-.169.383A.3.3,0,0,0,3911.831-628.083Z" transform="translate(-1198.723 -117.902)" fill="#b54659"/>
    <path id="Trazado_128059" data-name="Trazado 128059" d="M3884.389-600.06s.171.008.431.008a10.171,10.171,0,0,0,1.8-.146,3.571,3.571,0,0,0,.914-.285,1.19,1.19,0,0,0,.623-.619.3.3,0,0,0-.175-.381.3.3,0,0,0-.38.175.624.624,0,0,1-.332.3,3.923,3.923,0,0,1-1.212.3,11.081,11.081,0,0,1-1.235.066c-.249,0-.4-.008-.4-.008a.3.3,0,0,0-.309.282A.3.3,0,0,0,3884.389-600.06Z" transform="translate(-1178.15 -141.692)" fill="#b54659"/>
    <path id="Trazado_128060" data-name="Trazado 128060" d="M3853.952-591.6s.071.13.181.345c.165.321.413.826.617,1.331a4.2,4.2,0,0,1,.355,1.294.317.317,0,0,1-.025.153,1.7,1.7,0,0,1-.482.39,8.109,8.109,0,0,1-1.438.673,4.5,4.5,0,0,1-1.286.3.568.568,0,0,1-.133-.012.76.76,0,0,1-.325-.291,4.474,4.474,0,0,1-.5-.967c-.063-.159-.112-.3-.146-.4s-.05-.159-.05-.159a.3.3,0,0,0-.367-.2.3.3,0,0,0-.2.367,8.2,8.2,0,0,0,.366.976,4.263,4.263,0,0,0,.419.738,1.281,1.281,0,0,0,.639.507,1.076,1.076,0,0,0,.3.036,3.681,3.681,0,0,0,.943-.163,9.431,9.431,0,0,0,1.621-.638,5.6,5.6,0,0,0,.677-.4,1.751,1.751,0,0,0,.462-.437.861.861,0,0,0,.12-.474,3.312,3.312,0,0,0-.2-.982,16.333,16.333,0,0,0-1.026-2.274.3.3,0,0,0-.4-.116A.3.3,0,0,0,3853.952-591.6Z" transform="translate(-1148.636 -149.897)" fill="#b54659"/>
    <path id="Trazado_128061" data-name="Trazado 128061" d="M3852.585-555.6a11.183,11.183,0,0,0,1.461-.14,4.919,4.919,0,0,0,1.1-.3,1.837,1.837,0,0,0,.458-.27.953.953,0,0,0,.308-.428,5.779,5.779,0,0,0,.222-1.277c.035-.44.042-.857.042-1.121,0-.176,0-.283,0-.286a.3.3,0,0,0-.3-.287.3.3,0,0,0-.287.3s0,.1,0,.269c0,.254-.007.656-.041,1.073a5.22,5.22,0,0,1-.193,1.138.371.371,0,0,1-.125.161,1.874,1.874,0,0,1-.646.3,7.386,7.386,0,0,1-1.326.231c-.2.019-.372.03-.493.036s-.191.007-.191.007a.3.3,0,0,0-.29.3.3.3,0,0,0,.3.291Z" transform="translate(-1150.478 -177.934)" fill="#b54659"/>
    <path id="Trazado_128062" data-name="Trazado 128062" d="M3881.353-571.511a4.084,4.084,0,0,0,2.089.705,2.25,2.25,0,0,0,.9-.181,4.869,4.869,0,0,0,1.8-1.646,6.85,6.85,0,0,0,.567-.942,3.457,3.457,0,0,0,.167-.395,1.128,1.128,0,0,0,.068-.344.77.77,0,0,0-.078-.313,3.3,3.3,0,0,0-1.03-1.181,3.469,3.469,0,0,0-2.06-.708,3.608,3.608,0,0,0-1.671.429.3.3,0,0,0-.126.4.3.3,0,0,0,.4.127,3.015,3.015,0,0,1,1.4-.363,2.938,2.938,0,0,1,1.891.737,3.02,3.02,0,0,1,.53.579,1.4,1.4,0,0,1,.128.221l.024.066,0,.013.04-.006h-.04v.006l.04-.006h-.04a.7.7,0,0,1-.038.157,5.6,5.6,0,0,1-.822,1.409,4.012,4.012,0,0,1-1.385,1.219,1.654,1.654,0,0,1-.667.132,2.99,2.99,0,0,1-1.21-.3,4.129,4.129,0,0,1-.4-.208l-.108-.067-.026-.018-.007,0a.3.3,0,0,0-.412.071A.3.3,0,0,0,3881.353-571.511Z" transform="translate(-1175.666 -163.359)" fill="#b54659"/>
    <path id="Trazado_128063" data-name="Trazado 128063" d="M3923.958-595.964a16.859,16.859,0,0,0-.134,1.911,3.959,3.959,0,0,0,.149,1.248,8.816,8.816,0,0,0,.387,1.29,1.556,1.556,0,0,0,.575.646,1.969,1.969,0,0,0,1.055.26,4.887,4.887,0,0,0,1.221-.181,3,3,0,0,0,1.469-.765,1.489,1.489,0,0,0,.417-1.04,2.347,2.347,0,0,0-.471-1.307.3.3,0,0,0-.416-.05.3.3,0,0,0-.051.415h0a1.794,1.794,0,0,1,.345.941.891.891,0,0,1-.257.635,2.449,2.449,0,0,1-1.188.6,4.38,4.38,0,0,1-1.071.161,1.389,1.389,0,0,1-.744-.172,1.162,1.162,0,0,1-.469-.688c-.1-.3-.141-.641-.249-.945a3.575,3.575,0,0,1-.114-1.048c0-.433.032-.893.064-1.244s.064-.587.064-.587a.3.3,0,0,0-.253-.334A.3.3,0,0,0,3923.958-595.964Z" transform="translate(-1212.7 -146.271)" fill="#b54659"/>
    <path id="Trazado_128064" data-name="Trazado 128064" d="M3905.62-586.441s.494.049,1.043.128c.275.039.562.087.8.137a2.336,2.336,0,0,1,.5.145.3.3,0,0,0,.4-.12.3.3,0,0,0-.12-.4,2.67,2.67,0,0,0-.654-.2c-.781-.164-1.9-.274-1.909-.275a.3.3,0,0,0-.324.265A.3.3,0,0,0,3905.62-586.441Z" transform="translate(-1196.612 -154.24)" fill="#b54659"/>
    <path id="Trazado_128065" data-name="Trazado 128065" d="M3920.8-546.5s-.109,0-.283,0a10.732,10.732,0,0,0-1.778.143,4.544,4.544,0,0,0-1,.284,1.662,1.662,0,0,0-.755.587,1.621,1.621,0,0,0-.243.882,3.039,3.039,0,0,0,.507,1.558,2.845,2.845,0,0,0,1.066,1.042,1.157,1.157,0,0,1,.56,1.045,1.727,1.727,0,0,1-.9,1.446,2.406,2.406,0,0,1-1.306.421,1.608,1.608,0,0,1-1.516-.92.3.3,0,0,0-.382-.171.3.3,0,0,0-.17.382,2.189,2.189,0,0,0,2.068,1.3,2.991,2.991,0,0,0,1.626-.516,2.318,2.318,0,0,0,1.173-1.943,1.735,1.735,0,0,0-.9-1.579,2.292,2.292,0,0,1-.821-.824,2.446,2.446,0,0,1-.415-1.242,1.029,1.029,0,0,1,.149-.564,1.1,1.1,0,0,1,.493-.364,7.39,7.39,0,0,1,2.537-.376c.164,0,.259,0,.259,0a.3.3,0,0,0,.308-.283A.3.3,0,0,0,3920.8-546.5Z" transform="translate(-1204.682 -189.389)" fill="#b54659"/>
    <path id="Trazado_128066" data-name="Trazado 128066" d="M3872.955-535.066a14.461,14.461,0,0,0-1.513.372,8.21,8.21,0,0,0-1.205.465,2.6,2.6,0,0,0-.94.706,1.928,1.928,0,0,0-.35,1.178c0,.6.169,1.175.164,1.552a.744.744,0,0,1-.045.289,5.637,5.637,0,0,1-.587,1.093,1.84,1.84,0,0,1-.418.427.772.772,0,0,1-.444.153.8.8,0,0,1-.292-.059,1.836,1.836,0,0,1-.688-.64,9.59,9.59,0,0,1-.943-1.744c-.12-.279-.217-.526-.283-.7s-.1-.28-.1-.28a.3.3,0,0,0-.375-.185.3.3,0,0,0-.185.376,15.891,15.891,0,0,0,.684,1.643,8.468,8.468,0,0,0,.727,1.243,2.357,2.357,0,0,0,.952.842,1.389,1.389,0,0,0,.506.1,1.36,1.36,0,0,0,.779-.257,4.207,4.207,0,0,0,1.214-1.776,1.345,1.345,0,0,0,.092-.521c0-.511-.168-1.06-.165-1.552a1.334,1.334,0,0,1,.235-.826,2.064,2.064,0,0,1,.726-.528,9.1,9.1,0,0,1,1.665-.584c.257-.066.481-.117.642-.151s.252-.05.252-.05a.3.3,0,0,0,.24-.343.3.3,0,0,0-.343-.24Z" transform="translate(-1161.357 -199.3)" fill="#b54659"/>
    <path id="Trazado_128067" data-name="Trazado 128067" d="M3872.463-536.5l.008,0a2.168,2.168,0,0,1,.7.365,1.639,1.639,0,0,1,.647,1.212.3.3,0,0,0,.317.273.3.3,0,0,0,.273-.317,2.25,2.25,0,0,0-.951-1.694,2.673,2.673,0,0,0-.849-.415.3.3,0,0,0-.358.215A.3.3,0,0,0,3872.463-536.5Z" transform="translate(-1167.808 -197.558)" fill="#b54659"/>
    <path id="Trazado_128068" data-name="Trazado 128068" d="M3877.757-488.784v-.009a2.331,2.331,0,0,1,.206-.639,1.034,1.034,0,0,1,.253-.333.519.519,0,0,1,.343-.123.923.923,0,0,1,.362.085,1.26,1.26,0,0,1,.578.468,11.116,11.116,0,0,1,.506,1.037,1.47,1.47,0,0,0,.431.506,1.431,1.431,0,0,0,.749.25l.138,0a3.177,3.177,0,0,0,1.875-.731,2.225,2.225,0,0,0,.957-1.6,1.161,1.161,0,0,0-.268-.743.3.3,0,0,0-.416-.042.3.3,0,0,0-.041.416.565.565,0,0,1,.132.369,1.68,1.68,0,0,1-.732,1.137,2.613,2.613,0,0,1-1.509.6l-.1,0a.761.761,0,0,1-.541-.222,3.558,3.558,0,0,1-.474-.918,2,2,0,0,0-1.059-1.074,1.525,1.525,0,0,0-.593-.131,1.118,1.118,0,0,0-.751.285,1.937,1.937,0,0,0-.519.845,3.031,3.031,0,0,0-.119.485.3.3,0,0,0,.255.332A.3.3,0,0,0,3877.757-488.784Z" transform="translate(-1172.151 -237.761)" fill="#b54659"/>
    <path id="Trazado_128069" data-name="Trazado 128069" d="M3912.611-463.649l0-.007a2.1,2.1,0,0,1,.3-.6.991.991,0,0,1,.811-.461,1.178,1.178,0,0,1,.3.04,3.613,3.613,0,0,1,1.314.7,2.3,2.3,0,0,0,1.441.546l.1,0a.3.3,0,0,0,.286-.306.3.3,0,0,0-.306-.286l-.076,0a1.711,1.711,0,0,1-1.094-.434,4.177,4.177,0,0,0-1.512-.79,1.733,1.733,0,0,0-.445-.06,1.471,1.471,0,0,0-.824.25,2.1,2.1,0,0,0-.669.787,2.673,2.673,0,0,0-.188.464.3.3,0,0,0,.208.363A.3.3,0,0,0,3912.611-463.649Z" transform="translate(-1202.442 -259.801)" fill="#b54659"/>
    <path id="Trazado_128070" data-name="Trazado 128070" d="M3928.907-484.233a9.8,9.8,0,0,0-2.891-.521,3.452,3.452,0,0,0-2.07.562.3.3,0,0,0-.06.414.3.3,0,0,0,.414.061,2.889,2.889,0,0,1,1.716-.446,8.211,8.211,0,0,1,1.847.244c.254.062.467.122.615.168l.171.055.057.02a.3.3,0,0,0,.378-.178A.3.3,0,0,0,3928.907-484.233Z" transform="translate(-1212.703 -242.935)" fill="#b54659"/>
    <path id="Trazado_128071" data-name="Trazado 128071" d="M3945.168-527.629l.031-.081a8.259,8.259,0,0,1,.527-1.079,3.253,3.253,0,0,1,.4-.549.662.662,0,0,1,.322-.217.3.3,0,0,0,.249-.336.3.3,0,0,0-.336-.249,1.288,1.288,0,0,0-.739.476,5.486,5.486,0,0,0-.722,1.163c-.177.369-.285.657-.288.664a.3.3,0,0,0,.173.381A.3.3,0,0,0,3945.168-527.629Z" transform="translate(-1230.722 -203.574)" fill="#b54659"/>
    <path id="Trazado_128072" data-name="Trazado 128072" d="M3981.133-673.857s4.731,1.973,6.9-1.97c0,0,4.533.789,4.731-3.352,0,0,4.692-1.183,3.313-7.293,0,0,5.005-4.337.236-8.675,0,0,2.061-5.419-3.746-6.7,0,0,1.774-5.322-4.927-5.519,0,0-1.38-4.142-6.506-2.564Z" transform="translate(-1262.691 -47.35)" fill="#e97081"/>
    <path id="Trazado_128073" data-name="Trazado 128073" d="M3994.567-697.106l-.067.055a12.018,12.018,0,0,1-1,.724,5.309,5.309,0,0,1-.659.363,1.341,1.341,0,0,1-.492.14l-.058-.005-.055.291.058-.29a10.527,10.527,0,0,1-1.3-.257,1.356,1.356,0,0,1-.491-.256.424.424,0,0,1-.154-.339.948.948,0,0,1,.088-.368,1.574,1.574,0,0,1,.515-.7.988.988,0,0,1,.58-.183,1.391,1.391,0,0,1,.861.327.3.3,0,0,0,.417-.033.3.3,0,0,0-.035-.417,1.97,1.97,0,0,0-1.244-.468,1.577,1.577,0,0,0-.921.292,2.155,2.155,0,0,0-.719.954,1.53,1.53,0,0,0-.134.6,1.022,1.022,0,0,0,.346.775,2.4,2.4,0,0,0,1.094.486c.383.085.76.127.979.171h0l.167.016a2.05,2.05,0,0,0,.839-.241,10.29,10.29,0,0,0,1.76-1.178.3.3,0,0,0,.038-.417.3.3,0,0,0-.416-.037Z" transform="translate(-1270.031 -57.553)" fill="#b54659"/>
    <path id="Trazado_128074" data-name="Trazado 128074" d="M4011.3-676.693l-.067.082a14.222,14.222,0,0,1-.985,1.08,5.117,5.117,0,0,1-.632.54.923.923,0,0,1-.4.193l-.011,0-.075.287.079-.285-.012.044.025-.038-.013-.006-.012.044.025-.038-.034-.04a2.183,2.183,0,0,1-.218-.787,9.117,9.117,0,0,1-.075-1.219c0-.347.016-.674.042-.927.014-.125.029-.233.046-.309l.021-.088.006-.018-.05-.021.046.029,0-.008-.05-.021.046.029a.3.3,0,0,0-.093-.408.3.3,0,0,0-.408.093.942.942,0,0,0-.1.291,7.608,7.608,0,0,0-.1,1.358,8.891,8.891,0,0,0,.123,1.562,2.638,2.638,0,0,0,.188.626.977.977,0,0,0,.162.248.589.589,0,0,0,.274.174h0l.161.021a1.525,1.525,0,0,0,.842-.374,12.127,12.127,0,0,0,1.707-1.744.3.3,0,0,0-.047-.416A.3.3,0,0,0,4011.3-676.693Z" transform="translate(-1286.136 -74.809)" fill="#b54659"/>
    <path id="Trazado_128075" data-name="Trazado 128075" d="M3987.908-656.026a4.3,4.3,0,0,0-.029.509,2.924,2.924,0,0,0,.2,1.128,1.283,1.283,0,0,0,.384.516,1.1,1.1,0,0,0,.686.221l.161-.009a2.669,2.669,0,0,0,1.6-.722,2.178,2.178,0,0,0,.466-.623l-.27-.121-.291.053a11.558,11.558,0,0,0,.542,1.9,5.221,5.221,0,0,0,.728,1.345,1.6,1.6,0,0,0,1.216.687h.058a2.846,2.846,0,0,0,1.91-.893,3.443,3.443,0,0,0,.6-.827.3.3,0,0,0-.139-.395.3.3,0,0,0-.4.139l0,.01a2.971,2.971,0,0,1-.554.725,2.229,2.229,0,0,1-1.451.651l.015.3,0-.3h-.042a1.014,1.014,0,0,1-.754-.465,5.91,5.91,0,0,1-.865-1.845c-.1-.316-.169-.6-.216-.806-.024-.1-.041-.185-.053-.242l-.017-.085-.172-.938-.39.87.1.045-.1-.046v0l.1.045-.1-.046a1.655,1.655,0,0,1-.36.462,2.083,2.083,0,0,1-1.228.538l-.1.005a.5.5,0,0,1-.324-.1.876.876,0,0,1-.273-.488,2.8,2.8,0,0,1-.076-.686c0-.126.007-.236.013-.313l.008-.089,0-.028a.3.3,0,0,0-.253-.333A.3.3,0,0,0,3987.908-656.026Z" transform="translate(-1268.433 -94.186)" fill="#b54659"/>
    <path id="Trazado_128076" data-name="Trazado 128076" d="M4042.516-667.312l-.048.019a6.733,6.733,0,0,1-1.963.43,1.315,1.315,0,0,1-.5-.079.348.348,0,0,1-.211-.2,1.841,1.841,0,0,1-.121-.663,2.213,2.213,0,0,1,1.032-1.845.3.3,0,0,0,.1-.406.3.3,0,0,0-.405-.1,2.794,2.794,0,0,0-1.319,2.353,2.418,2.418,0,0,0,.161.875.944.944,0,0,0,.53.533,1.868,1.868,0,0,0,.731.126,7.415,7.415,0,0,0,2.227-.49.294.294,0,0,0,.167-.383.294.294,0,0,0-.382-.167Z" transform="translate(-1312.901 -82.116)" fill="#b54659"/>
    <path id="Trazado_128077" data-name="Trazado 128077" d="M4058.739-619.091l-.072.039a10.44,10.44,0,0,1-1.134.523,4.871,4.871,0,0,1-1.62.379,1.145,1.145,0,0,1-.636-.154,2.166,2.166,0,0,1-.707-.989,3.808,3.808,0,0,1-.28-1.377,1.722,1.722,0,0,1,.1-.649.432.432,0,0,1,.233-.27,4.741,4.741,0,0,1,1.561-.211c.261,0,.494.011.661.023s.264.022.264.022a.3.3,0,0,0,.327-.26.3.3,0,0,0-.261-.327,9.448,9.448,0,0,0-.991-.049,5.282,5.282,0,0,0-1.773.249,1.028,1.028,0,0,0-.568.6,2.336,2.336,0,0,0-.149.875,4.4,4.4,0,0,0,.323,1.6,2.73,2.73,0,0,0,.926,1.259,1.726,1.726,0,0,0,.965.253,5.791,5.791,0,0,0,2.068-.512,10.325,10.325,0,0,0,1.049-.506.3.3,0,0,0,.112-.4A.3.3,0,0,0,4058.739-619.091Z" transform="translate(-1325.632 -123.576)" fill="#b54659"/>
    <path id="Trazado_128078" data-name="Trazado 128078" d="M3987.767-628.59a4.719,4.719,0,0,0-1.471-.3,1.665,1.665,0,0,0-.676.125.97.97,0,0,0-.517.525,6.049,6.049,0,0,0-.451,2.119,2.437,2.437,0,0,0,.26,1.175,1.557,1.557,0,0,0,1.011.764,10.172,10.172,0,0,0,2.373.26,8.107,8.107,0,0,0,1.816-.181,2.867,2.867,0,0,0,.7-.256,1.084,1.084,0,0,0,.475-.463,4.127,4.127,0,0,0,.367-1.723c0-.123-.006-.2-.007-.2a.3.3,0,0,0-.318-.271.3.3,0,0,0-.272.318l0,.036v.119a3.546,3.546,0,0,1-.309,1.468.515.515,0,0,1-.227.2,5.306,5.306,0,0,1-2.232.363,9.5,9.5,0,0,1-2.225-.242.951.951,0,0,1-.64-.476,1.86,1.86,0,0,1-.187-.889,5.477,5.477,0,0,1,.406-1.894.379.379,0,0,1,.21-.209,1.115,1.115,0,0,1,.436-.074,3.469,3.469,0,0,1,.846.131c.122.032.227.066.3.091l.083.03.026.01a.3.3,0,0,0,.384-.169.3.3,0,0,0-.167-.383Z" transform="translate(-1265.614 -117.939)" fill="#b54659"/>
    <path id="Trazado_128079" data-name="Trazado 128079" d="M4034.152-600.6s-.155.008-.4.008a9.671,9.671,0,0,1-1.689-.135,3.013,3.013,0,0,1-.758-.233.628.628,0,0,1-.333-.3.3.3,0,0,0-.379-.174.3.3,0,0,0-.175.38,1.186,1.186,0,0,0,.622.62,4.4,4.4,0,0,0,1.408.359,11.373,11.373,0,0,0,1.3.072c.261,0,.428-.008.432-.008a.3.3,0,0,0,.282-.31A.3.3,0,0,0,4034.152-600.6Z" transform="translate(-1305.35 -141.733)" fill="#b54659"/>
    <path id="Trazado_128080" data-name="Trazado 128080" d="M4054.384-591.836s-.3.549-.605,1.219a11.249,11.249,0,0,0-.42,1.054,3.338,3.338,0,0,0-.2.981.875.875,0,0,0,.12.474,2.172,2.172,0,0,0,.667.573,8.674,8.674,0,0,0,1.552.727,4.94,4.94,0,0,0,1.487.338,1.079,1.079,0,0,0,.291-.035h0a1.289,1.289,0,0,0,.638-.508,4.978,4.978,0,0,0,.571-1.1c.135-.343.211-.607.213-.612a.3.3,0,0,0-.2-.367.3.3,0,0,0-.367.2l-.023.072a7.271,7.271,0,0,1-.4,1,2.942,2.942,0,0,1-.322.523.667.667,0,0,1-.277.229l0,0a.546.546,0,0,1-.133.014,3.178,3.178,0,0,1-.783-.142,8.809,8.809,0,0,1-1.515-.6,5.066,5.066,0,0,1-.605-.355,1.265,1.265,0,0,1-.307-.276.346.346,0,0,1-.023-.152,2.8,2.8,0,0,1,.171-.8,12.6,12.6,0,0,1,.613-1.455c.1-.211.2-.392.262-.519s.107-.2.107-.2a.3.3,0,0,0-.116-.4A.3.3,0,0,0,4054.384-591.836Z" transform="translate(-1325.161 -149.942)" fill="#b54659"/>
    <path id="Trazado_128081" data-name="Trazado 128081" d="M4067.1-556.15l-.113,0a9.877,9.877,0,0,1-1.523-.177,3.472,3.472,0,0,1-.8-.255c-.215-.1-.324-.224-.345-.3a5.213,5.213,0,0,1-.193-1.135c-.034-.415-.04-.818-.04-1.073,0-.171,0-.271,0-.271a.3.3,0,0,0-.287-.3.3.3,0,0,0-.3.287s0,.112,0,.289c0,.266.007.682.042,1.121a5.789,5.789,0,0,0,.222,1.274.953.953,0,0,0,.308.43,2.422,2.422,0,0,0,.855.411,9.715,9.715,0,0,0,2.168.3.3.3,0,0,0,.3-.291A.3.3,0,0,0,4067.1-556.15Z" transform="translate(-1334.13 -177.968)" fill="#b54659"/>
    <path id="Trazado_128082" data-name="Trazado 128082" d="M4026.091-571.943l-.007,0a3.524,3.524,0,0,1-1.741.591,1.653,1.653,0,0,1-.667-.132,4.35,4.35,0,0,1-1.553-1.445,6.291,6.291,0,0,1-.517-.859,2.689,2.689,0,0,1-.136-.324.614.614,0,0,1-.039-.156h-.039l.039.006v-.006h-.039l.039.006a1.081,1.081,0,0,1,.19-.349,3.256,3.256,0,0,1,.917-.836,2.8,2.8,0,0,1,1.47-.431,3.013,3.013,0,0,1,1.4.363.3.3,0,0,0,.4-.127.294.294,0,0,0-.126-.4,3.6,3.6,0,0,0-1.669-.429,3.522,3.522,0,0,0-2.275.878,3.643,3.643,0,0,0-.636.7,1.939,1.939,0,0,0-.18.316.761.761,0,0,0-.078.313,1.137,1.137,0,0,0,.067.345,6.121,6.121,0,0,0,.916,1.583,4.538,4.538,0,0,0,1.615,1.4,2.253,2.253,0,0,0,.9.181,4.076,4.076,0,0,0,2.088-.7.3.3,0,0,0,.071-.412A.3.3,0,0,0,4026.091-571.943Z" transform="translate(-1297.064 -163.403)" fill="#b54659"/>
    <path id="Trazado_128083" data-name="Trazado 128083" d="M3986.125-595.841s.032.237.065.588.064.811.064,1.244a3.554,3.554,0,0,1-.114,1.048,10.212,10.212,0,0,1-.36,1.224.956.956,0,0,1-.356.408,1.388,1.388,0,0,1-.743.172,4.339,4.339,0,0,1-1.074-.162,2.436,2.436,0,0,1-1.187-.6.9.9,0,0,1-.259-.635,1.536,1.536,0,0,1,.175-.656,2.065,2.065,0,0,1,.123-.215l.038-.057.01-.013h0a.3.3,0,0,0-.051-.415.3.3,0,0,0-.414.05,2.342,2.342,0,0,0-.473,1.306,1.492,1.492,0,0,0,.419,1.039,3,3,0,0,0,1.469.764,4.9,4.9,0,0,0,1.223.182,1.961,1.961,0,0,0,1.053-.261,1.748,1.748,0,0,0,.722-1.011c.113-.363.163-.714.241-.923a4,4,0,0,0,.149-1.249,16.726,16.726,0,0,0-.134-1.911.3.3,0,0,0-.332-.254A.3.3,0,0,0,3986.125-595.841Z" transform="translate(-1262.911 -146.309)" fill="#b54659"/>
    <path id="Trazado_128084" data-name="Trazado 128084" d="M4019.558-586.97s-.507.049-1.07.13c-.283.04-.58.089-.842.144a2.636,2.636,0,0,0-.655.2.3.3,0,0,0-.118.4.3.3,0,0,0,.4.118,2.265,2.265,0,0,1,.494-.145c.362-.076.827-.144,1.2-.19s.646-.074.647-.074a.3.3,0,0,0,.267-.324A.3.3,0,0,0,4019.558-586.97Z" transform="translate(-1293.547 -154.292)" fill="#b54659"/>
    <path id="Trazado_128085" data-name="Trazado 128085" d="M3981.887-545.859s.093,0,.255,0a9.988,9.988,0,0,1,1.672.132,3.957,3.957,0,0,1,.866.244,1.08,1.08,0,0,1,.494.364,1.02,1.02,0,0,1,.15.563,2.454,2.454,0,0,1-.415,1.243,2.3,2.3,0,0,1-.821.824,1.735,1.735,0,0,0-.9,1.578,2.317,2.317,0,0,0,1.172,1.942,3,3,0,0,0,1.627.517,2.192,2.192,0,0,0,2.068-1.3.3.3,0,0,0-.17-.382.3.3,0,0,0-.381.171,1.609,1.609,0,0,1-1.516.92,2.4,2.4,0,0,1-1.306-.422,1.73,1.73,0,0,1-.9-1.446,1.156,1.156,0,0,1,.56-1.044,2.856,2.856,0,0,0,1.067-1.042,3.038,3.038,0,0,0,.506-1.559,1.624,1.624,0,0,0-.243-.882,1.664,1.664,0,0,0-.756-.588,7.862,7.862,0,0,0-2.775-.425c-.172,0-.276,0-.279,0a.3.3,0,0,0-.283.308A.3.3,0,0,0,3981.887-545.859Z" transform="translate(-1262.936 -189.429)" fill="#b54659"/>
    <path id="Trazado_128086" data-name="Trazado 128086" d="M4016.1-534.449l.116.022a13.486,13.486,0,0,1,1.614.427,6.429,6.429,0,0,1,.952.4,1.854,1.854,0,0,1,.6.465,1.339,1.339,0,0,1,.234.825c0,.492-.161,1.041-.165,1.553a1.312,1.312,0,0,0,.093.521,6.173,6.173,0,0,0,.654,1.212,2.431,2.431,0,0,0,.558.563,1.365,1.365,0,0,0,.779.256,1.4,1.4,0,0,0,.506-.1,2.364,2.364,0,0,0,.954-.842,12.957,12.957,0,0,0,1.411-2.885.3.3,0,0,0-.184-.376.3.3,0,0,0-.375.185l-.045.128a14.939,14.939,0,0,1-.766,1.749,6.356,6.356,0,0,1-.609.969,1.62,1.62,0,0,1-.6.52.8.8,0,0,1-.292.059.767.767,0,0,1-.443-.152,3.736,3.736,0,0,1-1-1.522.734.734,0,0,1-.046-.287c-.005-.376.162-.95.165-1.553a1.919,1.919,0,0,0-.351-1.176,2.6,2.6,0,0,0-.939-.708,12,12,0,0,0-2.717-.838.3.3,0,0,0-.343.24.3.3,0,0,0,.239.343Z" transform="translate(-1292.764 -199.33)" fill="#b54659"/>
    <path id="Trazado_128087" data-name="Trazado 128087" d="M4058.356-537.024a2.667,2.667,0,0,0-.849.416,2.248,2.248,0,0,0-.95,1.693.3.3,0,0,0,.272.317.3.3,0,0,0,.318-.273,1.652,1.652,0,0,1,.707-1.259,2.243,2.243,0,0,1,.456-.253c.061-.026.111-.043.145-.053l.037-.011.008,0a.3.3,0,0,0,.216-.358.3.3,0,0,0-.358-.215Z" transform="translate(-1328.073 -197.598)" fill="#b54659"/>
    <path id="Trazado_128088" data-name="Trazado 128088" d="M4022.307-488.809a2.924,2.924,0,0,0-.231-.766,1.72,1.72,0,0,0-.407-.564,1.121,1.121,0,0,0-.751-.285,1.525,1.525,0,0,0-.595.131,1.864,1.864,0,0,0-.833.677,10.013,10.013,0,0,0-.538,1.086.9.9,0,0,1-.255.311.853.853,0,0,1-.449.141l-.1,0a2.611,2.611,0,0,1-1.507-.6,1.678,1.678,0,0,1-.732-1.137.56.56,0,0,1,.133-.367.3.3,0,0,0-.04-.416.3.3,0,0,0-.417.04,1.154,1.154,0,0,0-.269.743,2.226,2.226,0,0,0,.956,1.6,3.184,3.184,0,0,0,1.876.73l.139,0a1.367,1.367,0,0,0,.927-.4,3.812,3.812,0,0,0,.581-1.075,1.4,1.4,0,0,1,.754-.782.924.924,0,0,1,.364-.085.52.52,0,0,1,.361.139,1.386,1.386,0,0,1,.348.588,2.452,2.452,0,0,1,.075.272l.016.08,0,.023a.3.3,0,0,0,.332.254A.3.3,0,0,0,4022.307-488.809Z" transform="translate(-1292.281 -237.808)" fill="#b54659"/>
    <path id="Trazado_128089" data-name="Trazado 128089" d="M3999.606-463.754a2.685,2.685,0,0,0-.347-.73,1.923,1.923,0,0,0-.511-.52,1.482,1.482,0,0,0-.826-.25,1.745,1.745,0,0,0-.444.059,4.171,4.171,0,0,0-1.512.789,1.705,1.705,0,0,1-1.093.435h-.076a.3.3,0,0,0-.306.286.3.3,0,0,0,.286.306h.1a2.293,2.293,0,0,0,1.44-.547,3.6,3.6,0,0,1,1.313-.7,1.164,1.164,0,0,1,.3-.039.87.87,0,0,1,.5.15,1.516,1.516,0,0,1,.473.565,2.014,2.014,0,0,1,.112.254l.025.073.005.018v0a.3.3,0,0,0,.364.208A.3.3,0,0,0,3999.606-463.754Z" transform="translate(-1274.145 -259.845)" fill="#b54659"/>
    <path id="Trazado_128090" data-name="Trazado 128090" d="M3981.972-483.63l.057-.019a9.165,9.165,0,0,1,2.633-.467,2.892,2.892,0,0,1,1.717.445.3.3,0,0,0,.413-.061.3.3,0,0,0-.061-.414,3.459,3.459,0,0,0-2.069-.562,9.806,9.806,0,0,0-2.89.521.3.3,0,0,0-.178.378A.3.3,0,0,0,3981.972-483.63Z" transform="translate(-1262.917 -242.975)" fill="#b54659"/>
    <path id="Trazado_128091" data-name="Trazado 128091" d="M3986.741-527.79a9.041,9.041,0,0,0-.49-1.053,4.493,4.493,0,0,0-.521-.773,1.293,1.293,0,0,0-.739-.476.3.3,0,0,0-.336.249.3.3,0,0,0,.249.336.766.766,0,0,1,.38.28,4.93,4.93,0,0,1,.635,1.03c.083.174.152.328.2.439s.07.175.07.175a.3.3,0,0,0,.382.173A.3.3,0,0,0,3986.741-527.79Z" transform="translate(-1265.551 -203.615)" fill="#b54659"/>
    <path id="Trazado_128092" data-name="Trazado 128092" d="M2939.248-67.428l18.034-.59,11.462,29.928h16.243v-1.988h-14.875l-11.48-29.973-19.449.637.065,1.986Z" transform="translate(-356.699 -604.374)" fill="#e75f6e"/>
    <path id="Trazado_128093" data-name="Trazado 128093" d="M3733.582-69.415l-19.449-.637-11.481,29.973h-14.875v1.988h16.243l11.463-29.928,18.034.59.065-1.986Z" transform="translate(-1007.937 -604.374)" fill="#e75f6e"/>
    <path id="Trazado_128094" data-name="Trazado 128094" d="M3125.023-382.652l8.479,10.62h9.442v-1.988h-8.485l-7.882-9.872Z" transform="translate(-518.189 -331.315)" fill="#e75f6e"/>
    <path id="Trazado_128095" data-name="Trazado 128095" d="M3745.918-383.891l-7.882,9.872h-8.486v1.988h9.441l8.48-10.62Z" transform="translate(-1043.914 -331.315)" fill="#e75f6e"/>
    <circle id="Elipse_4095" data-name="Elipse 4095" cx="3.443" cy="3.443" r="3.443" transform="translate(2620.882 -708.35)" fill="#e75f6e"/>
    <path id="Trazado_128096" data-name="Trazado 128096" d="M3258.168,140.65a3.443,3.443,0,1,0,3.443-3.443A3.443,3.443,0,0,0,3258.168,140.65Z" transform="translate(-633.904 -784.415)" fill="#e75f6e"/>
    <path id="Trazado_128097" data-name="Trazado 128097" d="M3669.125,140.65a3.443,3.443,0,1,0,3.442-3.443A3.442,3.442,0,0,0,3669.125,140.65Z" transform="translate(-991.248 -784.415)" fill="#e75f6e"/>
    <path id="Trazado_128098" data-name="Trazado 128098" d="M3703.629-324.554a3.443,3.443,0,0,0,3.443,3.443,3.443,3.443,0,0,0,3.443-3.443,3.443,3.443,0,0,0-3.443-3.443A3.443,3.443,0,0,0,3703.629-324.554Z" transform="translate(-1021.25 -379.899)" fill="#e75f6e"/>
    <path id="Trazado_128099" data-name="Trazado 128099" d="M4050.738,607.148l-59.9-21.523s-18.366,54.829-19.191,60.475l40.7,19.876C4024.082,655.054,4037.583,636.99,4050.738,607.148Z" transform="translate(-1255.578 -1175.632)" fill="#cae8f0"/>
    <g id="Grupo_59034" data-name="Grupo 59034" transform="translate(2716.07 -551.12)">
      <path id="Trazado_128100" data-name="Trazado 128100" d="M4025.1,955.279c-22.031-9-44.209-18.038-49.422-19.764-2.19,7-3.793,12.43-4.025,14.01l40.7,19.876A116.989,116.989,0,0,0,4025.1,955.279Z" transform="translate(-3971.648 -927.936)" fill="#9ebdc4"/>
      <g id="Grupo_59033" data-name="Grupo 59033" transform="translate(12.25)">
        <path id="Trazado_128101" data-name="Trazado 128101" d="M4073.624,989.253a4.959,4.959,0,1,1-3.411-6.129A4.96,4.96,0,0,1,4073.624,989.253Z" transform="translate(-4063.893 -969.057)" fill="#67898f"/>
        <path id="Trazado_128102" data-name="Trazado 128102" d="M4075.139,983.935a4.96,4.96,0,1,1-3.411-6.13A4.962,4.962,0,0,1,4075.139,983.935Z" transform="translate(-4065.206 -964.445)" fill="#e8f4f5"/>
        <path id="Trazado_128103" data-name="Trazado 128103" d="M4085.989,996.127a3.012,3.012,0,1,1-2.072-3.721A3.011,3.011,0,0,1,4085.989,996.127Z" transform="translate(-4077.93 -977.171)" fill="#9eb4b9"/>
        <path id="Trazado_128104" data-name="Trazado 128104" d="M4084,993.064a3.013,3.013,0,0,0-3.608,1.748,3.414,3.414,0,0,1,.074-.336,3.012,3.012,0,1,1,5.68,1.975A3.012,3.012,0,0,0,4084,993.064Z" transform="translate(-4078.2 -977.171)" fill="#6d8287"/>
        <path id="Trazado_128105" data-name="Trazado 128105" d="M4094.806,1010.727a.425.425,0,0,1-.525.292l-2.667-.759a.425.425,0,1,1,.233-.817l2.666.758A.426.426,0,0,1,4094.806,1010.727Z" transform="translate(-4087.666 -992.032)" fill="#e8f4f5"/>
        <path id="Trazado_128106" data-name="Trazado 128106" d="M4101.881,890.087a4.959,4.959,0,1,1-3.411-6.129A4.959,4.959,0,0,1,4101.881,890.087Z" transform="translate(-4088.398 -883.06)" fill="#67898f"/>
        <path id="Trazado_128107" data-name="Trazado 128107" d="M4103.394,884.768a4.96,4.96,0,1,1-3.41-6.13A4.96,4.96,0,0,1,4103.394,884.768Z" transform="translate(-4089.709 -878.447)" fill="#e8f4f5"/>
        <path id="Trazado_128108" data-name="Trazado 128108" d="M4114.246,896.96a3.012,3.012,0,1,1-2.072-3.721A3.012,3.012,0,0,1,4114.246,896.96Z" transform="translate(-4102.434 -891.174)" fill="#9eb4b9"/>
        <path id="Trazado_128109" data-name="Trazado 128109" d="M4112.256,893.9a3.012,3.012,0,0,0-3.608,1.748,3.288,3.288,0,0,1,.075-.336,3.012,3.012,0,0,1,5.793,1.651,2.973,2.973,0,0,1-.114.324A3.012,3.012,0,0,0,4112.256,893.9Z" transform="translate(-4102.704 -891.174)" fill="#6d8287"/>
        <path id="Trazado_128110" data-name="Trazado 128110" d="M4123.064,911.554a.426.426,0,0,1-.525.293l-2.665-.76a.425.425,0,1,1,.232-.817l2.666.759A.426.426,0,0,1,4123.064,911.554Z" transform="translate(-4112.171 -906.029)" fill="#e8f4f5"/>
      </g>
    </g>
  </g>
</svg>
