<svg xmlns="http://www.w3.org/2000/svg" width="452.766" height="267.821" viewBox="0 0 452.766 267.821">
  <g id="Grupo_56716" data-name="Grupo 56716" transform="translate(-1687.781 -994.009)">
    <g id="Grupo_56029" data-name="Grupo 56029">
      <path id="Trazado_101095" data-name="Trazado 101095" d="M1769.271,1010.708c22.5-17.829,53.222-21.089,79.463-11.179,34.862,13.17,60.521,46.521,94.381,62.537a105.837,105.837,0,0,0,76.022,5.6c12.134-3.724,23.933-9.7,36.527-10.1,11.154-.353,22.172,3.787,31.653,10.244,27.9,19,41.908,59.518,32.5,94.042-5.034,18.485-15.843,34.539-28.435,48-26.012,27.817-60.521,45.9-96.588,50.607-20.131,2.627-40.552,1.2-60.609-2.028-43.709-7.035-86.771-22.973-122.762-51.08-43.085-33.65-85.788-92.346-69.655-153.532C1746.285,1036.7,1756.085,1021.158,1769.271,1010.708Z" fill="#dcbfff"/>
      <path id="Trazado_101096" data-name="Trazado 101096" d="M2107.029,1060.133c-1.417-3.623-2.594-8.222-.206-11.169a6.61,6.61,0,0,1,3.48-2.117c6.308-1.7,12.493,3.148,16.892,8.392a74.628,74.628,0,0,1,10.344,16.257,28.578,28.578,0,0,1,2.945,9.551c.3,3.365-.46,6.972-2.6,9.408C2123.485,1106.839,2110.96,1070.17,2107.029,1060.133Z" fill="#dcbfff"/>
    </g>
    <g id="Grupo_56763" data-name="Grupo 56763">
      <path id="Trazado_106106" data-name="Trazado 106106" d="M2043.534,1187.056a.3.3,0,0,1,.193-.386l1.8-.6,1.37-.456a.172.172,0,0,1,.218.109l1.725,5.182a.171.171,0,0,1-.108.217l-.707.235h0a28.02,28.02,0,0,0,5.4,1.56c.217-1.7.385-3.258.415-4.529,0-.026-.007-.05-.012-.076-.016-.1-.031-.2-.047-.3-.017-.118-.035-.236-.052-.353-.01-.074-.02-.148-.029-.222-.02-.149-.039-.3-.056-.444l-.009-.082a22.1,22.1,0,0,1-.144-2.977c.079-3.37,1.053-5.282,1.821-6.079l.038-.04a2.643,2.643,0,0,1,1.317-.423,9.072,9.072,0,0,1,1.954-.281h0s.188-.021.289-.028l.224-.021c.25-.132.317-1.18.314-2.286,0-.166,0-.333,0-.5s-.007-.329-.012-.489c-.006-.185-.013-.363-.02-.532-.544.046-.9.04-.9.04-1.016-.079-1.65-2.8-1.879-5h0s-1.223-2.945.152-4.61a2.692,2.692,0,0,1,.713-.64c.063-.063.126-.121.189-.177.946-1.049,4.785-4.979,7.3-2.705.065-.227.89-2.79,4.887-1.939,0,0-2-.252-2.55.519,0,0,1.586-.727,2.579-.119s1.157,2.654,1.009,3.276-1.246,2.476-1.972,2.476a2.166,2.166,0,0,1-.829-.2,9.39,9.39,0,0,1,.295,1.079c.772,3.631-1.642,6.39-2.89,5.708-.8-.437-1.407.963-1.407.963l0-.006a12.539,12.539,0,0,0,.537,3.253,11.956,11.956,0,0,1,5.649-.341c6.044.815,6.655,2.852,7.2,6.519s1.426,20.439.951,21.594c-.131.318-.654.6-1.417.824.587,2.053,1.246,4.231,1.863,5.763a4.086,4.086,0,0,0,1.039,1.485c.563.356,1.363,1.216,1.215,1.9s-.3,1.749-1.008,1.749-2.372-3.143-2.579-3.736-.386-.711-.386-.711h0s-1.77-2.938-3.455-6.006a17.379,17.379,0,0,1-1.787-.051,25.761,25.761,0,0,1,.71,3.937,2.655,2.655,0,0,1-.069.891,1.114,1.114,0,0,1-.516.645c.078.8.13,1.644.159,2.511.293,8.874-1.793,20.445-2.1,22.118v0a.578.578,0,0,0,.073.374c2.219,4.392,2.54,9.417,2.123,13.875a29.013,29.013,0,0,1-2.268,8.856l.012-.014a1.235,1.235,0,0,1,.287.39,1.315,1.315,0,0,1,.114.813,5.269,5.269,0,0,0,.38,1.966c.124.364.228.622.228.622s.059.3-1.014.434h-1.248c-.418-.066-.727-.187-1.156-.243a1.159,1.159,0,0,0-1.01.243l-.012.012h-5.3a.379.379,0,0,1-.054-.207c-.09-.018-.182-.035-.282-.048a1.157,1.157,0,0,0-1.01.243l-.012.012h-5.3c-.133-.19,0-.631.12-.956a.756.756,0,0,1,.5-.453,5.721,5.721,0,0,0,2.685-1.227c.571-.516,2.757-1.9,2.757-1.9l.012,0h.01a59.67,59.67,0,0,0,.469-7.973,44.9,44.9,0,0,0-2.274-14.259,85.124,85.124,0,0,1-4.939-25.353,3.133,3.133,0,0,1-1.644-2.315c-.392-2.85.1-6.941.626-10.828a33.669,33.669,0,0,1-6.243-3.844s-.345-.163-.8-.424l-.363.12a.3.3,0,0,1-.386-.193l-.167-.5a5.156,5.156,0,0,1-1.065-.937,3.117,3.117,0,0,1-.17-2.773Zm22.454,62.4a60.305,60.305,0,0,1-2.6,7.9,1.232,1.232,0,0,1,.284.387,1.311,1.311,0,0,1,.114.813,2.736,2.736,0,0,0,.084.939,4.25,4.25,0,0,0,.744-.541c.571-.516,2.757-1.9,2.757-1.9l.011,0c-.288-1.916-.643-4.456-.942-7.162-.057-.52-.117-1.042-.179-1.563Q2066.129,1248.9,2065.988,1249.458Z" fill="#bb83ff" opacity="0.5"/>
      <path id="Trazado_106107" data-name="Trazado 106107" d="M2075.593,1261.24l3.7-54.836H1978.643a1.576,1.576,0,0,0-1.571,1.572v53.263Z" fill="#bdd8ff"/>
      <g id="Grupo_56719" data-name="Grupo 56719">
        <path id="Trazado_106108" data-name="Trazado 106108" d="M1757.009,1189.957l.463,19.872h-7.305v-19.872Z" fill="#659bdb"/>
        <path id="Trazado_106109" data-name="Trazado 106109" d="M1744.765,1189.957h10.976l-.661,19.872h-11.271Z" fill="#7ca8e8"/>
        <g id="Grupo_56716-2" data-name="Grupo 56716" opacity="0.4">
          <path id="Trazado_106110" data-name="Trazado 106110" d="M1749.885,1194.406a3.006,3.006,0,0,0,2.776-1.708,5.1,5.1,0,0,0,.538-1.785.105.105,0,0,0-.21-.017,4.98,4.98,0,0,1-.518,1.709,2.775,2.775,0,0,1-2.742,1.588,2.366,2.366,0,0,1-1.866-.822,3.4,3.4,0,0,1-.457-2.445.105.105,0,0,0-.082-.124.1.1,0,0,0-.124.082,3.545,3.545,0,0,0,.5,2.616,2.565,2.565,0,0,0,2.024.9Q1749.8,1194.406,1749.885,1194.406Z" fill="#dfe5f4"/>
        </g>
        <path id="Trazado_106111" data-name="Trazado 106111" d="M1751.014,1195.906l.667,13.906h-10.512v-13.906Z" fill="#8cb3ed"/>
        <path id="Trazado_106112" data-name="Trazado 106112" d="M1733.395,1195.906h15.794l-.951,13.922h-16.219Z" fill="#9fc1f4"/>
        <g id="Grupo_56717" data-name="Grupo 56717">
          <path id="Trazado_106113" data-name="Trazado 106113" d="M1740.768,1200.161a3.006,3.006,0,0,0,2.776-1.708,5.1,5.1,0,0,0,.538-1.785.105.105,0,0,0-.21-.017,4.978,4.978,0,0,1-.518,1.709,2.776,2.776,0,0,1-2.742,1.588,2.367,2.367,0,0,1-1.866-.822,3.4,3.4,0,0,1-.457-2.445.106.106,0,0,0-.207-.043,3.555,3.555,0,0,0,.5,2.617,2.565,2.565,0,0,0,2.024.9Q1740.687,1200.161,1740.768,1200.161Z" fill="#7ca8e8"/>
        </g>
        <path id="Trazado_106114" data-name="Trazado 106114" d="M1749.189,1195.906l.737.013v13.893h-1.688Z" fill="#7ca8e8"/>
        <g id="Grupo_56718" data-name="Grupo 56718">
          <path id="Trazado_106115" data-name="Trazado 106115" d="M1740.22,1203.792a.383.383,0,1,1,.385.4A.384.384,0,0,1,1740.22,1203.792Zm.529,0c0-.108-.05-.2-.144-.2s-.149.092-.149.2.05.2.144.2S1740.749,1203.9,1740.749,1203.792Z" fill="#7ca8e8"/>
          <path id="Trazado_106116" data-name="Trazado 106116" d="M1739.677,1203.407l1.151,1.577h-.268l-1.151-1.577Z" fill="#7ca8e8"/>
          <path id="Trazado_106117" data-name="Trazado 106117" d="M1739.632,1204.195a.4.4,0,1,1-.381.4A.383.383,0,0,1,1739.632,1204.195Zm0,.6c.09,0,.149-.093.149-.2s-.05-.2-.145-.2-.148.092-.148.2S1739.537,1204.8,1739.632,1204.8Z" fill="#7ca8e8"/>
          <path id="Trazado_106118" data-name="Trazado 106118" d="M1736.874,1206.15a.4.4,0,1,1-.381.4A.384.384,0,0,1,1736.874,1206.15Zm0,.6c.09,0,.148-.093.148-.2s-.049-.2-.144-.2-.148.093-.148.2S1736.779,1206.752,1736.874,1206.752Z" fill="#7ca8e8"/>
          <path id="Trazado_106119" data-name="Trazado 106119" d="M1736.919,1205.362l1.151,1.577h-.268l-1.151-1.577Z" fill="#7ca8e8"/>
          <path id="Trazado_106120" data-name="Trazado 106120" d="M1737.462,1205.747a.383.383,0,1,1,.385.4A.384.384,0,0,1,1737.462,1205.747Zm.529,0c0-.108-.05-.2-.144-.2s-.149.092-.149.2.05.2.144.2S1737.991,1205.853,1737.991,1205.747Z" fill="#7ca8e8"/>
          <path id="Trazado_106121" data-name="Trazado 106121" d="M1737.8,1202.93l-1.151-1.577h.268l1.151,1.577Z" fill="#7ca8e8"/>
          <path id="Trazado_106122" data-name="Trazado 106122" d="M1737.847,1202.141a.384.384,0,0,1-.385-.4.383.383,0,1,1,.385.4Zm0-.6c-.09,0-.149.092-.149.2s.05.2.144.2.149-.093.149-.2S1737.941,1201.54,1737.847,1201.54Z" fill="#7ca8e8"/>
          <path id="Trazado_106123" data-name="Trazado 106123" d="M1737.259,1202.545a.38.38,0,0,1-.381.4.385.385,0,0,1-.385-.4.384.384,0,1,1,.766,0Zm-.529,0c0,.1.049.2.144.2s.148-.093.148-.2-.049-.2-.144-.2S1736.73,1202.439,1736.73,1202.545Z" fill="#7ca8e8"/>
          <path id="Trazado_106124" data-name="Trazado 106124" d="M1742.906,1201.738a.383.383,0,1,1,.385.4A.385.385,0,0,1,1742.906,1201.738Zm.529,0c0-.108-.049-.2-.144-.2s-.148.092-.148.2.049.2.144.2S1743.435,1201.844,1743.435,1201.738Z" fill="#7ca8e8"/>
          <path id="Trazado_106125" data-name="Trazado 106125" d="M1742.1,1201.353h.268l1.151,1.577h-.268Z" fill="#7ca8e8"/>
          <path id="Trazado_106126" data-name="Trazado 106126" d="M1742.7,1202.545a.381.381,0,0,1-.381.4.385.385,0,0,1-.385-.4.38.38,0,0,1,.38-.4A.385.385,0,0,1,1742.7,1202.545Zm-.53,0c0,.1.05.2.144.2s.149-.093.149-.2-.05-.2-.144-.2S1742.174,1202.439,1742.174,1202.545Z" fill="#7ca8e8"/>
          <path id="Trazado_106127" data-name="Trazado 106127" d="M1742.076,1205.362l1.151,1.577h-.268l-1.151-1.577Z" fill="#7ca8e8"/>
          <path id="Trazado_106128" data-name="Trazado 106128" d="M1742.619,1205.747a.383.383,0,1,1,.385.4A.384.384,0,0,1,1742.619,1205.747Zm.529,0c0-.108-.049-.2-.144-.2s-.149.092-.149.2.05.2.145.2S1743.148,1205.853,1743.148,1205.747Z" fill="#7ca8e8"/>
          <path id="Trazado_106129" data-name="Trazado 106129" d="M1742.031,1206.15a.4.4,0,1,1-.381.4A.384.384,0,0,1,1742.031,1206.15Zm0,.6c.09,0,.149-.093.149-.2s-.05-.2-.145-.2-.148.093-.148.2S1741.936,1206.752,1742.031,1206.752Z" fill="#7ca8e8"/>
        </g>
        <rect id="Rectángulo_5525" data-name="Rectángulo 5525" width="29.367" height="28.102" transform="translate(1719.854 1232.564)" fill="#9fc1f4"/>
        <rect id="Rectángulo_5526" data-name="Rectángulo 5526" width="29.368" height="28.1" transform="translate(1727.059 1232.565)" fill="#bdd8ff"/>
        <rect id="Rectángulo_5527" data-name="Rectángulo 5527" width="23.809" height="22.783" transform="translate(1735.802 1209.78)" fill="#9fc1f4"/>
        <rect id="Rectángulo_5528" data-name="Rectángulo 5528" width="23.809" height="22.783" transform="translate(1729.961 1209.78)" fill="#bdd8ff"/>
        <path id="Trazado_106130" data-name="Trazado 106130" d="M1729.961,1232.565l26.466,12.345v-12.345Z" fill="#afcdfb"/>
        <path id="Trazado_106131" data-name="Trazado 106131" d="M1726.765,1229.454l1.064-8.807h2.749a11.336,11.336,0,0,1,.6-2.185c.806-2.045,2.1-3.1,3.753-3.049a4.615,4.615,0,0,1,3.927,2.88,10.521,10.521,0,0,1,.854,2.354h3.8l-4.486,11.918h-9.5A2.777,2.777,0,0,1,1726.765,1229.454Zm12.26-8.807c-.313-1.236-1.392-4.487-4.116-4.57-2.477-.077-3.363,3.006-3.653,4.57Z" fill="#7ca8e8"/>
        <path id="Trazado_106132" data-name="Trazado 106132" d="M1731.729,1220.647a11.347,11.347,0,0,1,.6-2.185c.805-2.045,2.1-3.1,3.752-3.049a4.613,4.613,0,0,1,3.927,2.88,10.465,10.465,0,0,1,.854,2.354h2.644l2.6,8.235a2.83,2.83,0,0,1-2.7,3.683h-8.788a3.585,3.585,0,0,1-3.495-2.789l-2.079-9.129Zm8.447,0c-.312-1.236-1.392-4.487-4.116-4.57-2.476-.077-3.363,3.006-3.652,4.57Z" fill="#9fc1f4"/>
        <path id="Trazado_106133" data-name="Trazado 106133" d="M1743.505,1220.647s-.11,3.573-4.874,3.739-9.583-3.739-9.583-3.739Z" fill="#89b2ef"/>
      </g>
      <g id="Grupo_56724" data-name="Grupo 56724">
        <g id="Grupo_56723" data-name="Grupo 56723">
          <path id="Trazado_106134" data-name="Trazado 106134" d="M1791.416,1193.748a13.4,13.4,0,0,1,2.751-.964h0s3.866-7.856,6.313-11.918c.839-1.394,1.413-6.794,2-9.734h0a9.292,9.292,0,0,1,1.578-4.039c.82-.961,5.214-1.422,5.214-1.422v.008c.139-.03.277-.058.41-.085a.978.978,0,0,0,.875-.765l.007-.066a13.521,13.521,0,0,0,.059-1.542.068.068,0,0,0,0-.02c-.011-.768-.07-1.339-.07-1.339h.014l4.6-.74c.063,1.437.147,2.507.235,3.305a1.261,1.261,0,0,0,1.176,1.123l.278.018v0a19.159,19.159,0,0,1,4.1.231c1.278.391,4.115,3.482,4.115,3.482l-.016.013c3.4,3.343,7.039,8.093,6.837,9-.283,1.277-5.11,8.526-6.86,9.863h-1.751s3.882-8.854,3.932-9.572c.043-.617-3.325-2.9-6.117-4.892a.8.8,0,0,0,.058.509v0a4.551,4.551,0,0,1,.4,3.452c-1.279,4.182-1.2,4.749-1.2,4.749-.027.021-.057.04-.085.06-.065.554-.147,1.132-.254,1.745a13.561,13.561,0,0,0,2.394,2.8l-6.508,2.711-9.871.322s.471-1.316.959-2.662c.448-1.235.911-2.495,1.037-2.784a4.562,4.562,0,0,0,.05-1.229c-.1-.017-1.145-3.14-1.819-5.257a4.792,4.792,0,0,1-.2-.85v-.006a29.341,29.341,0,0,1-2.117,7.046c-1.541,2.74-8.347,9.761-8.347,9.761h0c-.282.6-1.576.875-2.484,1.874a3.469,3.469,0,0,1-2.648.8C1790.136,1196.711,1791.085,1194.086,1791.416,1193.748Z" fill="#bdd8ff"/>
          <path id="Trazado_106135" data-name="Trazado 106135" d="M1814.59,1244.852s-1.376-14.664.42-22.784c0,0,.644-2.072-.613-6.112-2.088-6.709-1.506-17.694-.721-19.232a6.566,6.566,0,0,1,2.289-1.96,66.729,66.729,0,0,1,8.869-4.206s3.817,6.145,3.8,9.977c-.018,3.673-6.352,20.818-6.594,23.456a66.4,66.4,0,0,1-4.628,20.861,10.026,10.026,0,0,0,.4,2.217,5.879,5.879,0,0,0,2.365,2.081c1.135.426,4.383.2,4.635,1.385H1813.36a8.1,8.1,0,0,1,.284-2.933C1814.086,1246.438,1814.59,1244.852,1814.59,1244.852Z" fill="#bdd8ff"/>
          <path id="Trazado_106136" data-name="Trazado 106136" d="M1810.565,1164.763c1.914-.258,4.607-3.642,4.607-3.642l-4.618.612s.006.045.014.128a11.68,11.68,0,0,1,.056,1.34.068.068,0,0,1,0,.02A13.521,13.521,0,0,1,1810.565,1164.763Z" fill="#afcdfb"/>
          <path id="Trazado_106137" data-name="Trazado 106137" d="M1809.179,1161.967s5.38,1.795,6.446-1.572,2.479-5.4-.91-6.692-4.468-.217-5.1.821S1807.807,1161.413,1809.179,1161.967Z" fill="#bdd8ff"/>
          <path id="Trazado_106138" data-name="Trazado 106138" d="M1814.4,1215.956c7.154-4.5,12.568-18.645,12.568-18.645l-11-2.547a6.566,6.566,0,0,0-2.289,1.96C1812.891,1198.262,1813.74,1208.96,1814.4,1215.956Z" fill="#afcdfb"/>
          <path id="Trazado_106139" data-name="Trazado 106139" d="M1796.681,1246.88a23.8,23.8,0,0,1,1.595-2.443c3.217-19.528,7.378-19.822,7.452-22.092a58.566,58.566,0,0,0-.828-6.145c-.974-6.086-2.4-14.646-1.894-16.912.23-1.026.6-2.282,1-3.534.928-2.869,2.035-5.716,2.035-5.716l12.664,3.943s-3.965,22.4-4.5,28.072c-.425,4.538-12.77,22.384-12.77,22.384.158,1.026-.662,2.821-.6,3.767a6.712,6.712,0,0,1-.5,2.331s-5.55.025-5.8,0S1796.366,1247.574,1796.681,1246.88Z" fill="#bdd8ff"/>
          <path id="Trazado_106140" data-name="Trazado 106140" d="M1804.9,1216.2c2.391-4.562,5.859-16.375,5.859-16.375a38.794,38.794,0,0,1-6.75-4.071c-.4,1.252-.773,2.508-1,3.534C1802.5,1201.554,1803.926,1210.114,1804.9,1216.2Z" fill="#afcdfb"/>
          <path id="Trazado_106141" data-name="Trazado 106141" d="M1803.006,1199.289a37.166,37.166,0,0,1,7.567,1.16c2.515.688,5.027,1.78,6.411,3.506,0,0,3.6-3.894,7.894-4.863h0a7.657,7.657,0,0,1,3.612,0s-.107-3.978-5.2-10.939q-.507-.693-1.081-1.425s-4.893,2.82-12.915,1.071c-.732-.16-1.492-.358-2.275-.6,0,0-1.84,4.436-2.431,6.218C1804.175,1194.658,1803.006,1199.289,1803.006,1199.289Z" fill="#9fc1f4"/>
          <path id="Trazado_106142" data-name="Trazado 106142" d="M1822.746,1187.327s-3.459,2.6-7.125,2.708-8.6-2.324-8.6-2.324Z" fill="#89b0e8"/>
          <path id="Trazado_106143" data-name="Trazado 106143" d="M1825.04,1188.153a14.71,14.71,0,0,1,1.752,2.615c0,.4-.354,2.081-.78,2.1s-.567-1.371-.9-1.631-1.513-.75-1.679-1.2a8.9,8.9,0,0,1-.145-1.885Z" fill="#bdd8ff"/>
          <path id="Trazado_106144" data-name="Trazado 106144" d="M1819.744,1165.606s5.405.28,12.164,4.838c0,0,1.735.818.917,2.337a6.253,6.253,0,0,1-2.684,2.334,4.407,4.407,0,0,1-3.89,3.159,3.13,3.13,0,0,1-2.454.175,22.4,22.4,0,0,1-1.724-2.162s-1.987,7.714-1.724,7.977,3.219,1.744,2.939,2.464-5.043,2.765-8.607,2.532-8.736-.877-8.034-2.25a15.363,15.363,0,0,0,1.358-3.491c-.088-.117-1.826-4.953-1.826-4.953s.906,5,.438,5.464-4.322.184-5.23-1.49a5.783,5.783,0,0,1-3.111-1.4s-2.5-.759-3.141-2.337c0,0,6.194-13.065,10.927-13.194s5.347,1.23,7.582,1.1S1817.613,1165.262,1819.744,1165.606Z" fill="#9fc1f4"/>
          <g id="Grupo_56720" data-name="Grupo 56720">
            <rect id="Rectángulo_5529" data-name="Rectángulo 5529" width="18.933" height="18.117" transform="translate(1830.985 1232.418)" fill="#9fc1f4"/>
            <rect id="Rectángulo_5530" data-name="Rectángulo 5530" width="18.933" height="18.116" transform="translate(1835.63 1232.419)" fill="#bdd8ff"/>
            <rect id="Rectángulo_5531" data-name="Rectángulo 5531" width="15.349" height="40.962" transform="translate(1841.266 1191.456)" fill="#9fc1f4"/>
            <rect id="Rectángulo_5532" data-name="Rectángulo 5532" width="15.349" height="40.962" transform="translate(1837.5 1191.456)" fill="#bdd8ff"/>
            <path id="Trazado_106145" data-name="Trazado 106145" d="M1837.5,1232.419l17.062,7.959v-7.959Z" fill="#afcdfb"/>
          </g>
          <g id="Grupo_56721" data-name="Grupo 56721">
            <path id="Trazado_106146" data-name="Trazado 106146" d="M1844.8,1182.352a8.035,8.035,0,0,1,.65-1.791,3.514,3.514,0,0,1,2.989-2.193c1.259-.038,2.243.765,2.856,2.321a8.61,8.61,0,0,1,.455,1.663h2.092l.81,6.7a2.112,2.112,0,0,1-2.1,2.367h-7.228l-3.415-9.07Zm6.434,0c-.22-1.191-.9-3.537-2.78-3.478-2.073.063-2.894,2.537-3.132,3.478Z" fill="#77a4e5"/>
            <path id="Trazado_106147" data-name="Trazado 106147" d="M1839.934,1188.62l1.981-6.268h2.013a7.93,7.93,0,0,1,.65-1.791,3.513,3.513,0,0,1,2.988-2.193c1.26-.038,2.243.765,2.857,2.321a8.681,8.681,0,0,1,.455,1.663h2.041l-1.583,6.948a2.727,2.727,0,0,1-2.66,2.122h-6.688A2.154,2.154,0,0,1,1839.934,1188.62Zm10.428-6.268c-.221-1.191-.9-3.537-2.78-3.478-2.073.063-2.9,2.537-3.133,3.478Z" fill="#9fc1f4"/>
          </g>
          <g id="Grupo_56722" data-name="Grupo 56722">
            <path id="Trazado_106148" data-name="Trazado 106148" d="M1838.426,1223.348a8.023,8.023,0,0,1,.65-1.791,3.513,3.513,0,0,1,2.989-2.193c1.259-.037,2.243.765,2.856,2.321a8.681,8.681,0,0,1,.455,1.663h2.092l.81,6.7a2.113,2.113,0,0,1-2.1,2.367h-7.228l-3.415-9.07Zm6.434,0c-.22-1.19-.9-3.537-2.78-3.478-2.073.063-2.895,2.537-3.133,3.478Z" fill="#77a4e5"/>
            <path id="Trazado_106149" data-name="Trazado 106149" d="M1833.556,1229.616l1.981-6.268h2.012a8.035,8.035,0,0,1,.65-1.791,3.514,3.514,0,0,1,2.989-2.193c1.26-.037,2.243.765,2.856,2.321a8.623,8.623,0,0,1,.456,1.663h2.041l-1.583,6.948a2.729,2.729,0,0,1-2.66,2.122h-6.688A2.154,2.154,0,0,1,1833.556,1229.616Zm10.428-6.268c-.221-1.19-.9-3.537-2.781-3.478-2.073.063-2.894,2.537-3.132,3.478Z" fill="#9fc1f4"/>
          </g>
        </g>
        <path id="Trazado_106150" data-name="Trazado 106150" d="M1880.551,1225.118s-5.381-3.013-2.87-7.1c0,0,2.009-2.511,4.162-3.157,0,0-1.148,6.1,0,6.242s.789-6.888.789-6.888,5.668-2.726,7.892-2.511c0,0-3.516,5.955-2.368,5.812s5.095-6.171,5.095-6.171,5.811-1.076,6.744,2.368-.574,5.166-1.435,5.381-6.386.144-6.242.861,3.874,1.866,5.955,1.22c0,0-2.3,5.668-5.309,5.381s-3.947-2.152-5.812-2.3-3.229.359-2.3.861,4.09.165,5.6,1.446,2.727,2.07-.071,2.644-7.821.215-8.826-1.937c-.043-.095-.085-.183-.125-.269a1.187,1.187,0,0,0,.125.269,9.014,9.014,0,0,0-1.829,2.843c-.077.187-.2.444-.375.793-.064.14-.117.258-.156.346-1.007,2.461-.48,6.766-.48,6.766l-.6.161a9.937,9.937,0,0,1,1-7.824A11.442,11.442,0,0,0,1880.551,1225.118Z" fill="#77a4e5"/>
      </g>
      <g id="Grupo_56726" data-name="Grupo 56726">
        <g id="Grupo_56725" data-name="Grupo 56725">
          <path id="Trazado_106151" data-name="Trazado 106151" d="M1994,1204.179a29.357,29.357,0,0,1,4.026-1.233c1.434-.242,2.279-7.648,2.432-8.585s1.85-2.475,1.85-2.475l-1.056,11.271L1998.89,1206H1994.6Z" fill="#7c1818"/>
          <path id="Trazado_106152" data-name="Trazado 106152" d="M1992.616,1206.4l.005.01h8.185c.657-1.065,1.591-5.728,2.295-6.655.046-.061.1-.132.151-.212l.071,6.867h.748a89.682,89.682,0,0,1,.524-9.37,4.786,4.786,0,0,0,.63-2.406c-.29-.862-2.913-2.746-2.913-2.746l0,.008c-.057.354-1.9,11.661-2.993,11.987a12.855,12.855,0,0,1-5.314.3S1992.078,1205.282,1992.616,1206.4Z" fill="#aa413e"/>
        </g>
      </g>
      <g id="Grupo_56727" data-name="Grupo 56727">
        <path id="Trazado_106153" data-name="Trazado 106153" d="M2044.52,1206.384s3.293.126,2.624-2.383c-.343-1.284-1.831-1.338-4.015-1.338h-33.876s-1.761.607-1.761,1.853a1.844,1.844,0,0,0,1.268,1.853C2023.736,1206.364,2044.52,1206.384,2044.52,1206.384Z" fill="#74acbe"/>
        <path id="Trazado_106154" data-name="Trazado 106154" d="M2044.52,1203.041s3.293.125,2.624-2.385c-.343-1.283-1.831-1.337-4.015-1.337h-33.876s-1.761.608-1.761,1.853a1.844,1.844,0,0,0,1.268,1.853C2009.323,1203.333,2044.52,1203.041,2044.52,1203.041Z" fill="#5e97a5"/>
        <path id="Trazado_106155" data-name="Trazado 106155" d="M2044.374,1199.335s3.439-.016,2.77-2.526c-.343-1.284-1.831-1.338-4.015-1.338h-33.876s-1.761.608-1.761,1.853,1.2,1.687,1.761,1.995S2044.374,1199.335,2044.374,1199.335Z" fill="#74acbe"/>
      </g>
      <g id="Grupo_56729" data-name="Grupo 56729">
        <rect id="Rectángulo_5533" data-name="Rectángulo 5533" width="33.149" height="10.284" rx="0.838" transform="translate(1817.895 1122.168)" fill="#bb83ff" opacity="0.5"/>
        <g id="Grupo_56728" data-name="Grupo 56728">
          <path id="Trazado_106156" data-name="Trazado 106156" d="M1826.6,1125.422h.887l2.047,2.69v-2.69h.949v4.369h-.818l-2.116-2.777v2.777h-.949Z" fill="#bb83ff"/>
          <path id="Trazado_106157" data-name="Trazado 106157" d="M1831.527,1125.422h3.3v.855h-2.341v.886h2.06v.856h-2.06v.917h2.373v.855h-3.328Z" fill="#bb83ff"/>
          <path id="Trazado_106158" data-name="Trazado 106158" d="M1835.372,1125.422h1.03l.905,2.958.981-2.971h.824l.98,2.971.9-2.958H1842l-1.492,4.4h-.837l-.986-2.858-.986,2.858h-.837Z" fill="#bb83ff"/>
        </g>
      </g>
      <g id="Grupo_56731" data-name="Grupo 56731">
        <rect id="Rectángulo_5534" data-name="Rectángulo 5534" width="51.311" height="10.284" rx="1.042" transform="translate(1808.814 1135.68)" fill="#bb83ff" opacity="0.5"/>
        <g id="Grupo_56730" data-name="Grupo 56730">
          <path id="Trazado_106159" data-name="Trazado 106159" d="M1813.653,1141.119a2.221,2.221,0,0,1,2.278-2.26,2.2,2.2,0,0,1,1.692.712l-.574.661a1.517,1.517,0,0,0-1.124-.487,1.378,1.378,0,0,0,0,2.747,1.58,1.58,0,0,0,1.149-.512l.612.656a2.328,2.328,0,0,1-4.033-1.517Z" fill="#bb83ff"/>
          <path id="Trazado_106160" data-name="Trazado 106160" d="M1818.135,1141.119a2.323,2.323,0,1,1,2.316,2.259A2.26,2.26,0,0,1,1818.135,1141.119Zm3.639,0a1.328,1.328,0,0,0-1.323-1.374,1.311,1.311,0,0,0-1.311,1.374,1.327,1.327,0,0,0,1.323,1.373A1.31,1.31,0,0,0,1821.774,1141.119Z" fill="#bb83ff"/>
          <path id="Trazado_106161" data-name="Trazado 106161" d="M1823.634,1138.934h.961v3.5h2.179v.874h-3.14Z" fill="#bb83ff"/>
          <path id="Trazado_106162" data-name="Trazado 106162" d="M1827.5,1138.934h.961v3.5h2.179v.874h-3.14Z" fill="#bb83ff"/>
          <path id="Trazado_106163" data-name="Trazado 106163" d="M1831.361,1138.934h3.3v.855h-2.341v.887h2.06v.855h-2.06v.917h2.372v.856h-3.327Z" fill="#bb83ff"/>
          <path id="Trazado_106164" data-name="Trazado 106164" d="M1835.35,1141.119a2.221,2.221,0,0,1,2.278-2.26,2.2,2.2,0,0,1,1.692.712l-.574.661a1.517,1.517,0,0,0-1.124-.487,1.378,1.378,0,0,0,0,2.747,1.58,1.58,0,0,0,1.149-.512l.611.656a2.327,2.327,0,0,1-4.032-1.517Z" fill="#bb83ff"/>
          <path id="Trazado_106165" data-name="Trazado 106165" d="M1841.168,1139.82h-1.33v-.886h3.62v.886h-1.329v3.484h-.961Z" fill="#bb83ff"/>
          <path id="Trazado_106166" data-name="Trazado 106166" d="M1844.238,1138.934h.962v4.37h-.962Z" fill="#bb83ff"/>
          <path id="Trazado_106167" data-name="Trazado 106167" d="M1846.1,1141.119a2.323,2.323,0,1,1,2.315,2.259A2.26,2.26,0,0,1,1846.1,1141.119Zm3.639,0a1.329,1.329,0,0,0-1.324-1.374,1.31,1.31,0,0,0-1.31,1.374,1.327,1.327,0,0,0,1.323,1.373A1.31,1.31,0,0,0,1849.738,1141.119Z" fill="#bb83ff"/>
          <path id="Trazado_106168" data-name="Trazado 106168" d="M1851.6,1138.934h.886l2.047,2.69v-2.69h.949v4.37h-.817l-2.117-2.778v2.778h-.948Z" fill="#bb83ff"/>
        </g>
      </g>
      <g id="Grupo_56733" data-name="Grupo 56733">
        <g id="Grupo_56732" data-name="Grupo 56732">
          <path id="Trazado_106169" data-name="Trazado 106169" d="M1986.778,1156.247l.677-.811a2.389,2.389,0,0,0,1.555.632c.468,0,.751-.186.751-.506,0-.289-.179-.438-1.049-.661-1.049-.268-1.725-.558-1.725-1.607a1.628,1.628,0,0,1,1.822-1.569,3.016,3.016,0,0,1,1.934.662l-.6.862a2.452,2.452,0,0,0-1.354-.513c-.439,0-.669.2-.669.469,0,.342.222.454,1.123.684,1.056.275,1.651.655,1.651,1.577,0,1.034-.789,1.614-1.912,1.614A3.313,3.313,0,0,1,1986.778,1156.247Z" fill="#9fc1f4"/>
          <path id="Trazado_106170" data-name="Trazado 106170" d="M1993.569,1151.762h1.056l2.231,5.244h-1.2l-.476-1.168h-2.2l-.476,1.168h-1.168Zm1.205,3.064-.692-1.688-.692,1.688Z" fill="#9fc1f4"/>
          <path id="Trazado_106171" data-name="Trazado 106171" d="M1997.659,1151.8h1.145v4.165h2.6v1.042h-3.741Z" fill="#9fc1f4"/>
          <path id="Trazado_106172" data-name="Trazado 106172" d="M2002.262,1151.8h3.927v1.019H2003.4v1.056h2.455v1.019H2003.4v1.093h2.827v1.02h-3.965Z" fill="#9fc1f4"/>
        </g>
      </g>
      <path id="Trazado_106173" data-name="Trazado 106173" d="M2057.977,1206.4a1.633,1.633,0,0,0-1.473,1.749v53.087h44.974c8.816-17.1,13.324-34.119,14.406-49.51q.189-2.688.235-5.326Z" fill="#9fc1f4"/>
      <rect id="Rectángulo_5535" data-name="Rectángulo 5535" width="132.964" height="1.688" rx="0.27" transform="translate(1977.072 1234.981)" fill="#9fc1f4"/>
      <g id="Grupo_56736" data-name="Grupo 56736">
        <path id="Trazado_106174" data-name="Trazado 106174" d="M2048.188,1218.95l1.432,11.847a3.736,3.736,0,0,1-3.709,4.184h-12.775l-6.036-16.031Z" fill="#99332b"/>
        <g id="Grupo_56734" data-name="Grupo 56734">
          <path id="Trazado_106175" data-name="Trazado 106175" d="M2043.751,1220.14c-.006-.075-.649-7.478-5.086-7.338-4.505.136-5.667,6.714-5.678,6.781l-.882-.149a13.957,13.957,0,0,1,1.25-3.651c1.271-2.469,3.1-3.809,5.283-3.875,2.226-.067,3.964,1.351,5.048,4.1a15.661,15.661,0,0,1,.956,4.059Z" fill="#99332b"/>
        </g>
        <path id="Trazado_106176" data-name="Trazado 106176" d="M2027.1,1218.95h19.449l-2.8,12.28a4.822,4.822,0,0,1-4.7,3.751h-11.822a3.807,3.807,0,0,1-3.63-4.953Z" fill="#c65447"/>
        <path id="Trazado_106177" data-name="Trazado 106177" d="M2027.1,1218.95s.149,4.806,6.557,5.029,12.892-5.029,12.892-5.029Z" fill="#c4453b"/>
        <g id="Grupo_56735" data-name="Grupo 56735">
          <path id="Trazado_106178" data-name="Trazado 106178" d="M2042.2,1220.14c-.006-.075-.649-7.478-5.086-7.338-4.5.136-5.666,6.714-5.677,6.781l-.882-.149a13.909,13.909,0,0,1,1.25-3.651c1.27-2.469,3.1-3.809,5.282-3.875,2.226-.067,3.965,1.351,5.049,4.1a15.757,15.757,0,0,1,.956,4.059Z" fill="#c4453b"/>
        </g>
      </g>
      <g id="Grupo_56737" data-name="Grupo 56737">
        <path id="Trazado_106179" data-name="Trazado 106179" d="M2037.227,1178.005l1.562,12.922a4.076,4.076,0,0,1-4.046,4.564h-13.934l-6.583-17.486Z" fill="#d86713"/>
        <path id="Trazado_106180" data-name="Trazado 106180" d="M2021.048,1174.552c1.386-2.693,3.379-4.155,5.762-4.227,2.428-.073,4.324,1.474,5.507,4.474a17.154,17.154,0,0,1,1.042,4.428l-.972.077c-.007-.082-.708-8.156-5.547-8-4.914.149-6.181,7.324-6.193,7.4l-.962-.162A15.2,15.2,0,0,1,2021.048,1174.552Z" fill="#99332b"/>
        <path id="Trazado_106181" data-name="Trazado 106181" d="M2010.407,1190.088l3.819-12.083h21.213l-3.051,13.394a5.259,5.259,0,0,1-5.128,4.092h-12.9A4.152,4.152,0,0,1,2010.407,1190.088Z" fill="#ee9849"/>
        <path id="Trazado_106182" data-name="Trazado 106182" d="M2035.439,1178.005s-7.071,5.73-14.061,5.486-7.152-5.486-7.152-5.486Z" fill="#c4453b"/>
        <path id="Trazado_106183" data-name="Trazado 106183" d="M2019.358,1174.552c1.386-2.693,3.379-4.155,5.762-4.227,2.428-.073,4.325,1.474,5.507,4.474a17.148,17.148,0,0,1,1.042,4.428l-.972.077c-.007-.082-.708-8.156-5.547-8-4.914.149-6.181,7.324-6.193,7.4l-.961-.162A15.143,15.143,0,0,1,2019.358,1174.552Z" fill="#c4453b"/>
      </g>
      <g id="Grupo_56740" data-name="Grupo 56740">
        <path id="Trazado_106184" data-name="Trazado 106184" d="M2010.545,1218.924l1.432,11.847a3.736,3.736,0,0,1-3.709,4.184h-12.776l-6.035-16.031Z" fill="#99332b"/>
        <g id="Grupo_56738" data-name="Grupo 56738">
          <path id="Trazado_106185" data-name="Trazado 106185" d="M2006.107,1220.114c-.006-.074-.649-7.477-5.086-7.338-4.5.136-5.666,6.715-5.677,6.781l-.882-.149a13.909,13.909,0,0,1,1.25-3.651c1.27-2.469,3.1-3.809,5.282-3.875,2.226-.067,3.965,1.352,5.049,4.1a15.776,15.776,0,0,1,.956,4.06Z" fill="#99332b"/>
        </g>
        <path id="Trazado_106186" data-name="Trazado 106186" d="M1989.457,1218.924h19.449l-2.8,12.28a4.824,4.824,0,0,1-4.7,3.751h-11.822a3.805,3.805,0,0,1-3.629-4.953Z" fill="#c65447"/>
        <g id="Grupo_56739" data-name="Grupo 56739">
          <path id="Trazado_106187" data-name="Trazado 106187" d="M2004.558,1220.114c-.006-.074-.649-7.477-5.086-7.338-4.505.136-5.666,6.715-5.678,6.781l-.881-.149a13.891,13.891,0,0,1,1.249-3.651c1.271-2.469,3.1-3.809,5.283-3.875,2.226-.067,3.965,1.352,5.049,4.1a15.7,15.7,0,0,1,.955,4.06Z" fill="#c65447"/>
        </g>
      </g>
      <g id="Grupo_56742" data-name="Grupo 56742">
        <path id="Trazado_106188" data-name="Trazado 106188" d="M2079.927,1205.019c-.423-.534-1.062-.7-2.186-.739l.322,0s2.339.07,1.864-1.335c-.243-.72-1.3-.75-2.852-.75h-2.069c1.865-.04,3.057-.07,3.057-.07s2.339.07,1.864-1.335c-.243-.719-1.3-.75-2.852-.75h-5.714c3.067-.015,5.234-.03,5.234-.03s2.339.071,1.864-1.335c-.243-.719-1.3-.749-2.852-.749h-2.779c3.068-.016,5.235-.03,5.235-.03s2.339.07,1.864-1.335c-.243-.719-1.3-.75-2.852-.75-.213,0-.828-.021-1.727-.054l2.715-.016s2.339.07,1.864-1.335c-.243-.719-1.3-.749-2.852-.749h-.126c.634-.046,1.867-.268,1.51-1.325-.211-.625-1.039-.729-2.271-.746,1.172-.044,1.875-.073,1.875-.073s2.339.07,1.864-1.335c-.243-.72-1.3-.75-2.852-.75h-24.067s-1.251.341-1.251,1.038.5.866.9,1.038a5.876,5.876,0,0,0,.628.079h-1.746s-1.251.34-1.251,1.038.5.866.9,1.038c.059.025.659.044,1.639.056-.346.124-1.072.448-1.072.98,0,.7.5.866.9,1.038a4.418,4.418,0,0,0,.628.037l-.278.041s-1.251.341-1.251,1.038.5.866.9,1.039a4.889,4.889,0,0,0,.654.038h-1.772s-1.251.341-1.251,1.038.5.866.9,1.038c.061.026.707.045,1.754.057-.253.08-1.187.416-1.187,1.019,0,.7.571.945.972,1.117a1.013,1.013,0,0,0,.192.027c-.28.091-1.164.424-1.164,1.011,0,.7.5.866.9,1.038a1.46,1.46,0,0,0,.269.025c-.275.088-1.17.422-1.17,1.013,0,.7.5.866.9,1.038s26.768,0,26.768,0S2080.427,1205.65,2079.927,1205.019Z" fill="#99332b"/>
        <g id="Grupo_56741" data-name="Grupo 56741">
          <path id="Trazado_106189" data-name="Trazado 106189" d="M2094.3,1206.4s1.017-.754.517-1.385-1.3-.75-2.852-.75H2067.9s-1.25.341-1.25,1.038.5.866.9,1.038S2094.3,1206.4,2094.3,1206.4Z" fill="#c4453b"/>
          <path id="Trazado_106190" data-name="Trazado 106190" d="M2092.783,1204.49s2.508-.142,2.033-1.547c-.244-.72-1.3-.75-2.852-.75H2067.9s-1.25.341-1.25,1.038.5.866.9,1.038S2092.783,1204.49,2092.783,1204.49Z" fill="#c4453b"/>
          <path id="Trazado_106191" data-name="Trazado 106191" d="M2092.919,1202.193s2.372,0,1.9-1.405c-.244-.719-1.3-.75-2.852-.75H2067.9s-1.25.341-1.25,1.038.519.916.919,1.088S2092.919,1202.193,2092.919,1202.193Z" fill="#e57970"/>
          <path id="Trazado_106192" data-name="Trazado 106192" d="M2091.455,1200.088s2.368-.009,1.893-1.415c-.243-.719-1.3-.749-2.852-.749h-24.067s-1.251.341-1.251,1.038.5.866.9,1.038S2091.455,1200.088,2091.455,1200.088Z" fill="#c4453b"/>
          <path id="Trazado_106193" data-name="Trazado 106193" d="M2092.939,1197.964s2.352,0,1.877-1.405c-.244-.719-1.3-.75-2.852-.75H2067.9s-1.25.341-1.25,1.038.53.9.93,1.077S2092.939,1197.964,2092.939,1197.964Z" fill="#c65447"/>
          <path id="Trazado_106194" data-name="Trazado 106194" d="M2092.946,1195.822s2.345-.013,1.87-1.418c-.244-.719-1.3-.749-2.852-.749H2067.9s-1.25.34-1.25,1.038.53.927.93,1.1S2092.946,1195.822,2092.946,1195.822Z" fill="#c4453b"/>
          <path id="Trazado_106195" data-name="Trazado 106195" d="M2091.484,1193.665s2.339.071,1.864-1.335c-.243-.719-1.3-.749-2.852-.749h-24.067s-1.251.34-1.251,1.038.5.866.9,1.038S2091.484,1193.665,2091.484,1193.665Z" fill="#c65447"/>
          <path id="Trazado_106196" data-name="Trazado 106196" d="M2092.932,1191.581s2.359,0,1.884-1.405c-.244-.72-1.3-.75-2.852-.75H2067.9s-1.25.341-1.25,1.038.647.97,1.048,1.142S2092.932,1191.581,2092.932,1191.581Z" fill="#e57970"/>
        </g>
      </g>
      <g id="Grupo_56743" data-name="Grupo 56743">
        <path id="Trazado_106197" data-name="Trazado 106197" d="M1963.322,1109.555h8.256a19.561,19.561,0,0,0-3.183-4.579C1968.053,1104.625,1964.165,1109.226,1963.322,1109.555Z" fill="#d2e4ff"/>
      </g>
      <path id="Rectángulo_5536" data-name="Rectángulo 5536" d="M1.714,0H95.667a1.714,1.714,0,0,1,1.714,1.714V8.979a1.714,1.714,0,0,1-1.714,1.714H1.715A1.715,1.715,0,0,1,0,8.979V1.714A1.714,1.714,0,0,1,1.714,0Z" transform="translate(1787.632 1250.546)" fill="#9fc1f4"/>
      <g id="Grupo_56745" data-name="Grupo 56745">
        <g id="Grupo_56744" data-name="Grupo 56744">
          <path id="Trazado_106198" data-name="Trazado 106198" d="M1869.711,1170.513h36.915v-52.055h-36.915Zm35.86-1.055h-34.805v-49.945h34.805Z" fill="#bb83ff" opacity="0.5"/>
        </g>
        <rect id="Rectángulo_5537" data-name="Rectángulo 5537" width="32.28" height="48.097" transform="translate(1872.196 1120.319)" fill="#bb83ff" opacity="0.5"/>
      </g>
      <g id="Grupo_56747" data-name="Grupo 56747">
        <g id="Grupo_56746" data-name="Grupo 56746">
          <path id="Trazado_106199" data-name="Trazado 106199" d="M1760.388,1170.513H1797.3v-52.055h-36.914Zm35.859-1.055h-34.8v-49.945h34.8Z" fill="#d2e4ff"/>
        </g>
        <rect id="Rectángulo_5538" data-name="Rectángulo 5538" width="32.28" height="48.097" transform="translate(1762.873 1120.319)" fill="#d2e4ff" opacity="0.6"/>
      </g>
      <path id="Trazado_106200" data-name="Trazado 106200" d="M1975.79,1259.23h127.575a.718.718,0,1,1,0,1.436H1975.79a.718.718,0,0,1,0-1.436Z" fill="#9fc1f4"/>
      <g id="Grupo_56748" data-name="Grupo 56748">
        <path id="Trazado_106201" data-name="Trazado 106201" d="M2080.858,1090.476H2099.6a9.673,9.673,0,0,0-9.028-9.9v-10.585q-.713-.34-1.421-.663v11.308A9.727,9.727,0,0,0,2080.858,1090.476Z" fill="#bb83ff" opacity="0.5"/>
        <path id="Trazado_106202" data-name="Trazado 106202" d="M2046.9,1085.476h18.74c0-5.855-4.013-10.625-9.03-10.834V1057.4c-.475,0-.949.007-1.42.017v17.3C2050.521,1075.327,2046.9,1079.911,2046.9,1085.476Z" fill="#bb83ff" opacity="0.5"/>
        <path id="Trazado_106203" data-name="Trazado 106203" d="M2013.411,1089.476h18.739a9.674,9.674,0,0,0-9.03-9.9v-13.368q-.719.146-1.42.283v13.145A9.726,9.726,0,0,0,2013.411,1089.476Z" fill="#bb83ff" opacity="0.5"/>
      </g>
      <g id="Grupo_56753" data-name="Grupo 56753">
        <g id="Grupo_56752" data-name="Grupo 56752">
          <g id="Grupo_56749" data-name="Grupo 56749">
            <rect id="Rectángulo_5539" data-name="Rectángulo 5539" width="116.12" height="2.283" transform="translate(1860.95 1179.6)" fill="#e8b491"/>
            <path id="Trazado_106204" data-name="Trazado 106204" d="M1979.11,1256.11h-2.369v-74.426a1.185,1.185,0,0,1,1.184-1.185h0a1.185,1.185,0,0,1,1.185,1.185Z" fill="#ce8d6a"/>
            <path id="Trazado_106205" data-name="Trazado 106205" d="M1862.134,1256.064h-2.369v-77.516a1.184,1.184,0,0,1,1.185-1.184h0a1.184,1.184,0,0,1,1.184,1.184Z" fill="#ce8d6a"/>
            <path id="Trazado_106206" data-name="Trazado 106206" d="M1986.435,1257.613h-17.02a1.185,1.185,0,0,1-1.184-1.185h0a1.185,1.185,0,0,1,1.184-1.185h17.02a1.186,1.186,0,0,1,1.185,1.185h0A1.186,1.186,0,0,1,1986.435,1257.613Z" fill="#ce8d6a"/>
            <path id="Trazado_106207" data-name="Trazado 106207" d="M1869.459,1257.613H1852.44a1.186,1.186,0,0,1-1.185-1.185h0a1.186,1.186,0,0,1,1.185-1.185h17.019a1.185,1.185,0,0,1,1.185,1.185h0A1.185,1.185,0,0,1,1869.459,1257.613Z" fill="#ce8d6a"/>
          </g>
          <g id="Grupo_56750" data-name="Grupo 56750">
            <path id="Trazado_106208" data-name="Trazado 106208" d="M1984.7,1257.613h-1.4a1.529,1.529,0,1,0,0,3.058h1.4a1.529,1.529,0,0,0,0-3.058Z" fill="#ce8d6a"/>
            <path id="Trazado_106209" data-name="Trazado 106209" d="M1986.05,1259.142a1.354,1.354,0,1,1-1.354-1.354A1.354,1.354,0,0,1,1986.05,1259.142Z" fill="#e8b491"/>
            <path id="Trazado_106210" data-name="Trazado 106210" d="M1972.556,1257.613h-1.4a1.529,1.529,0,1,0,0,3.058h1.4a1.529,1.529,0,0,0,0-3.058Z" fill="#ce8d6a"/>
            <path id="Trazado_106211" data-name="Trazado 106211" d="M1973.91,1259.142a1.354,1.354,0,1,1-1.354-1.354A1.354,1.354,0,0,1,1973.91,1259.142Z" fill="#e8b491"/>
          </g>
          <g id="Grupo_56751" data-name="Grupo 56751">
            <path id="Trazado_106212" data-name="Trazado 106212" d="M1867.72,1257.613h-1.4a1.529,1.529,0,0,0,0,3.058h1.4a1.529,1.529,0,1,0,0-3.058Z" fill="#ce8d6a"/>
            <path id="Trazado_106213" data-name="Trazado 106213" d="M1869.074,1259.142a1.354,1.354,0,1,1-1.354-1.354A1.354,1.354,0,0,1,1869.074,1259.142Z" fill="#e8b491"/>
            <path id="Trazado_106214" data-name="Trazado 106214" d="M1855.58,1257.613h-1.4a1.529,1.529,0,0,0,0,3.058h1.4a1.529,1.529,0,1,0,0-3.058Z" fill="#ce8d6a"/>
            <path id="Trazado_106215" data-name="Trazado 106215" d="M1856.934,1259.142a1.354,1.354,0,1,1-1.354-1.354A1.354,1.354,0,0,1,1856.934,1259.142Z" fill="#e8b491"/>
          </g>
          <path id="Trazado_106216" data-name="Trazado 106216" d="M1892.9,1192.364c-2.456-1.573-7.3-4.2-12.432-4.362v-4.392c0-.474-.231-1.384-1.1-1.437a1.236,1.236,0,0,1-.872-.447,1.412,1.412,0,0,1-.351-.982,1.547,1.547,0,0,1,1.618-1.513.867.867,0,0,1,.7.369h.784a1.606,1.606,0,0,0-1.484-1.043,2.2,2.2,0,0,0-2.289,2.125,2.078,2.078,0,0,0,.511,1.482,1.911,1.911,0,0,0,1.342.682c.459.028.47.735.47.764v4.384c-4.909.062-9.714,2.563-12.179,4.073a1.283,1.283,0,0,0,.673,2.375h24a1.128,1.128,0,0,0,.609-2.078Zm-.508.979a.094.094,0,0,1-.1.075h-24a.248.248,0,0,1-.251-.19.241.241,0,0,1,.112-.288c2.406-1.475,7.117-3.924,11.844-3.924h.19c4.976.07,9.758,2.667,12.165,4.209A.093.093,0,0,1,1892.4,1193.343Z" fill="#ce8d6a"/>
          <path id="Trazado_106217" data-name="Trazado 106217" d="M1953.043,1192.091c-2.457-1.573-7.3-4.2-12.433-4.362v-4.391c0-.474-.23-1.384-1.1-1.437a1.237,1.237,0,0,1-.871-.448,1.406,1.406,0,0,1-.352-.981,1.547,1.547,0,0,1,1.619-1.514.991.991,0,0,1,.87.642h.73a1.7,1.7,0,0,0-1.6-1.316,2.2,2.2,0,0,0-2.29,2.125,2.086,2.086,0,0,0,.511,1.483,1.914,1.914,0,0,0,1.343.681c.458.028.469.736.469.765v4.384c-4.908.062-9.714,2.562-12.179,4.072a1.283,1.283,0,0,0,.673,2.375h24a1.128,1.128,0,0,0,.609-2.078Zm-.508.979a.094.094,0,0,1-.1.076h-24a.248.248,0,0,1-.25-.191.24.24,0,0,1,.112-.288c2.406-1.474,7.116-3.924,11.843-3.924l.191,0c4.976.07,9.757,2.666,12.165,4.208A.094.094,0,0,1,1952.535,1193.07Z" fill="#ce8d6a"/>
          <path id="Trazado_106218" data-name="Trazado 106218" d="M1960.746,1192.091c-2.456-1.573-7.3-4.2-12.432-4.362v-4.391c0-.474-.231-1.384-1.1-1.437a1.242,1.242,0,0,1-.872-.448,1.41,1.41,0,0,1-.351-.981,1.547,1.547,0,0,1,1.618-1.514.991.991,0,0,1,.871.642h.729a1.7,1.7,0,0,0-1.6-1.316,2.2,2.2,0,0,0-2.289,2.125,2.082,2.082,0,0,0,.511,1.483,1.914,1.914,0,0,0,1.342.681c.459.028.47.736.47.765v4.384c-4.908.062-9.714,2.562-12.179,4.072a1.283,1.283,0,0,0,.673,2.375h24a1.128,1.128,0,0,0,.608-2.078Zm-.507.979a.1.1,0,0,1-.1.076h-24a.247.247,0,0,1-.25-.191.239.239,0,0,1,.112-.288c2.406-1.474,7.116-3.924,11.843-3.924l.191,0c4.975.07,9.757,2.666,12.164,4.208A.093.093,0,0,1,1960.239,1193.07Z" fill="#ce8d6a"/>
          <path id="Trazado_106219" data-name="Trazado 106219" d="M1932.038,1189.5a14.038,14.038,0,0,0,9.129,3.133c5.39-.2,7.95-2.9,7.95-2.9s4.245,2.156,5.121,3.369,1.28,13.61,1.28,13.61a12.364,12.364,0,0,1-4.245.741l-.876-2.628,2.655,44.074a11.824,11.824,0,0,1-5.26-1c-1.9-1.092-4.773.363-7.333.707s-4.031-1.605-6.546-.8a14.131,14.131,0,0,1-6.962.539l4.039-43.651-1.094,2.553s-3.754,0-4.966-1.281c0,0,1.437-13.183,2.245-13.992S1932.038,1189.5,1932.038,1189.5Z" fill="#80bdcc"/>
          <path id="Trazado_106220" data-name="Trazado 106220" d="M1939.741,1189.409a14.049,14.049,0,0,0,9.13,3.133c5.39-.2,7.95-2.9,7.95-2.9s4.245,2.156,5.121,3.369,1.28,13.609,1.28,13.609a12.352,12.352,0,0,1-4.245.742l-.876-2.628,2.8,50.3s-4.184,2.035-6.16.9c-1.905-1.092-4.252-2.641-6.812-2.3a30.586,30.586,0,0,0-6.311,1.551,14.132,14.132,0,0,1-6.962.539l4.039-51.122-1.095,2.554s-3.753,0-4.966-1.282c0,0,1.438-13.183,2.246-13.991S1939.741,1189.409,1939.741,1189.409Z" fill="#233862"/>
          <path id="Trazado_106221" data-name="Trazado 106221" d="M1871.9,1189.775a14.046,14.046,0,0,0,9.13,3.133c5.389-.2,7.95-2.9,7.95-2.9s4.244,2.156,5.12,3.369,1.28,13.609,1.28,13.609a12.329,12.329,0,0,1-4.244.741l.195-2.467,1.583,43.913a11.825,11.825,0,0,1-5.259-1c-1.9-1.092-4.774.362-7.334.707s-4.03-1.6-6.546-.8a14.132,14.132,0,0,1-6.962.539l4.039-43.651-1.094,2.553s-3.753,0-4.966-1.281c0,0,1.437-13.183,2.246-13.991S1871.9,1189.775,1871.9,1189.775Z" fill="#a8d29f"/>
          <path id="Trazado_106222" data-name="Trazado 106222" d="M1911.01,1192.364a32.747,32.747,0,0,0-4.486-2.406,27.088,27.088,0,0,0-2.674-1.008,19.607,19.607,0,0,0-5.272-.95h0v-4.39c0-.474-.23-1.384-1.1-1.437a1.235,1.235,0,0,1-.872-.447,1.418,1.418,0,0,1-.352-.982,1.548,1.548,0,0,1,1.619-1.513.866.866,0,0,1,.7.369h.784a1.607,1.607,0,0,0-1.484-1.043,2.2,2.2,0,0,0-2.289,2.125,2.078,2.078,0,0,0,.511,1.482,1.911,1.911,0,0,0,1.342.682c.459.028.469.735.47.764v4.384a19.388,19.388,0,0,0-5.87,1.083c-.85.286-1.663.608-2.423.945a33.738,33.738,0,0,0-3.886,2.045,1.282,1.282,0,0,0,.672,2.374H1910.4a1.127,1.127,0,0,0,.608-2.077Zm-.507.979a.1.1,0,0,1-.1.076H1886.4a.248.248,0,0,1-.25-.192.242.242,0,0,1,.113-.288,32.356,32.356,0,0,1,3.778-1.986c.754-.334,1.561-.654,2.4-.933a18.2,18.2,0,0,1,5.662-1c.064,0,.127,0,.19,0a18.4,18.4,0,0,1,5.225.9,26.628,26.628,0,0,1,2.922,1.123,32.1,32.1,0,0,1,4.018,2.186A.1.1,0,0,1,1910.5,1193.343Z" fill="#ce8d6a"/>
          <path id="Trazado_106223" data-name="Trazado 106223" d="M1924.5,1192.127a33.719,33.719,0,0,0-3.886-2.045c-.76-.337-1.573-.659-2.423-.945a19.418,19.418,0,0,0-5.87-1.083v-4.384c0-.028.012-.736.47-.764a1.912,1.912,0,0,0,1.342-.681,2.082,2.082,0,0,0,.511-1.483,2.2,2.2,0,0,0-2.289-2.125,1.589,1.589,0,0,0-1.454.983h.8a.846.846,0,0,1,.651-.309,1.547,1.547,0,0,1,1.619,1.513,1.409,1.409,0,0,1-.352.982,1.238,1.238,0,0,1-.872.448c-.872.053-1.1.963-1.1,1.436v4.391h0a19.529,19.529,0,0,0-5.273.95,26.632,26.632,0,0,0-2.673,1.008,32.6,32.6,0,0,0-4.486,2.4,1.127,1.127,0,0,0,.607,2.078h24.005a1.282,1.282,0,0,0,.672-2.375Zm-.422,1.161a.247.247,0,0,1-.25.191h-24.005a.1.1,0,0,1-.1-.076.094.094,0,0,1,.045-.117,32.118,32.118,0,0,1,4.018-2.185,26.387,26.387,0,0,1,2.923-1.124,18.421,18.421,0,0,1,5.224-.9h.19a18.164,18.164,0,0,1,5.662,1c.842.279,1.65.6,2.4.932a32.5,32.5,0,0,1,3.778,1.986A.243.243,0,0,1,1924.082,1193.288Z" fill="#ce8d6a"/>
          <path id="Trazado_106224" data-name="Trazado 106224" d="M1883.988,1239.851a3.93,3.93,0,0,0,4.019.915,7.842,7.842,0,0,1,5.479.315c2.871,1.789,6.011,1.973,7.321-.314.874-1.527,3.638,1.617,9.368.431,0,0-4.735-28.912-4.87-32.34s2.8-7.478.916-14.283c0,0-.008-.047-.02-.134-.025-.188-.071-.563-.1-1.022a8.645,8.645,0,0,1,.132-2.466,2.236,2.236,0,0,1,.427-.931c-.76-.337-1.572-.659-2.422-.945-.106.249-.243.571-.407.943-.413.931-1,2.176-1.678,3.4-.191.345-.391.688-.6,1.022-1.071,1.748-2.3,3.234-3.419,3.368,0,0-1.474-.2-3.336-3.368q-.275-.467-.559-1.022a30.1,30.1,0,0,1-1.488-3.5c-.11-.31-.222-.632-.333-.967a27.161,27.161,0,0,0-2.673,1.008,1.356,1.356,0,0,0-.1.17s.092.353.183.912a13.3,13.3,0,0,1,.181,2.379,9.592,9.592,0,0,1-.075,1.022c-.006.045-.013.089-.019.134a9.441,9.441,0,0,0-.611,4.8c.27,3.1,1.53,6.263,1.44,9.476C1890.625,1213.172,1884.122,1234.6,1883.988,1239.851Zm21.68-44.923.469-.3C1906.046,1194.691,1905.886,1194.794,1905.668,1194.928Z" fill="#fc7972"/>
          <path id="Trazado_106225" data-name="Trazado 106225" d="M1897.946,1235.242a3.931,3.931,0,0,0,4.02.915,7.84,7.84,0,0,1,5.478.315c2.872,1.789,6.012,1.974,7.322-.314.873-1.526,3.638,1.617,9.368.431,0,0-5.821-24.246-5.956-27.674s3.888-7.475,2-14.28c0,0-.008-.047-.02-.133-.026-.189-.072-.564-.1-1.023a8.613,8.613,0,0,1,.132-2.466,2.222,2.222,0,0,1,.427-.931c-.76-.337-1.573-.659-2.423-.945-.1.25-.242.572-.407.944-.412.931-1,2.176-1.677,3.4-.192.345-.391.689-.6,1.023-1.072,1.747-2.3,3.234-3.419,3.367,0,0-1.474-.2-3.336-3.367-.184-.312-.37-.651-.56-1.023a30.117,30.117,0,0,1-1.487-3.5q-.167-.465-.333-.966a26.632,26.632,0,0,0-2.673,1.008,1.266,1.266,0,0,0-.1.169s.091.353.183.913a13.385,13.385,0,0,1,.181,2.378,9.378,9.378,0,0,1-.076,1.023c-.005.044-.012.089-.019.133a9.45,9.45,0,0,0-.61,4.8c.27,3.1,1.529,6.262,1.439,9.475C1904.584,1213.232,1898.081,1229.987,1897.946,1235.242Zm21.68-40.254c.219-.137.379-.24.469-.3C1920.005,1194.751,1919.845,1194.855,1919.626,1194.988Z" fill="#4d8693"/>
        </g>
      </g>
      <path id="Trazado_106226" data-name="Trazado 106226" d="M2049.283,1250.778s-.326-.01-.889-.024a.256.256,0,0,0,.072-.014,1.029,1.029,0,0,0,.659-1.038c0-.7-.916-1.038-.916-1.038l-.262-.012a3.084,3.084,0,0,0,.519-.067,1.029,1.029,0,0,0,.659-1.038c0-.532-.532-.856-.785-.98a8.758,8.758,0,0,0,1.2-.056,1.028,1.028,0,0,0,.659-1.038c0-.7-.916-1.038-.916-1.038l-1-.039a1.1,1.1,0,0,0,.187-.039,1.032,1.032,0,0,0,.659-1.039c0-.7-.916-1.038-.916-1.038h-42.758c-1.136,0-1.91.031-2.088.75-.334,1.35,1.232,13.186,1.357,14.12a1.517,1.517,0,0,0-1.357.723c-.366.631.367,1.327.367,1.327h44.736a1.031,1.031,0,0,0,.659-1.038c0-.573-.617-.905-.837-1.005a.88.88,0,0,0,.178-.033,1.031,1.031,0,0,0,.659-1.038c0-.7-.916-1.038-.916-1.038l-.279-.007a3.3,3.3,0,0,0,.536-.072,1.031,1.031,0,0,0,.659-1.038c0-.558-.585-.887-.819-1a9.182,9.182,0,0,0,1.234-.08,1.028,1.028,0,0,0,.659-1.038C2050.2,1251.119,2049.283,1250.778,2049.283,1250.778Z" fill="#99332b"/>
      <g id="Grupo_56754" data-name="Grupo 56754">
        <path id="Trazado_106227" data-name="Trazado 106227" d="M2018.094,1259.23s-.85-.726-.484-1.357.952-.749,2.088-.749h17.614s.916.34.916,1.038a1.03,1.03,0,0,1-.66,1.038C2037.275,1259.372,2018.094,1259.23,2018.094,1259.23Z" fill="#c4453b"/>
        <path id="Trazado_106228" data-name="Trazado 106228" d="M2018.975,1257.132s-1.713.07-1.365-1.335c.178-.719.952-.749,2.088-.749h17.614s.916.34.916,1.038a1.03,1.03,0,0,1-.66,1.038C2037.275,1257.3,2018.975,1257.132,2018.975,1257.132Z" fill="#c4453b"/>
        <path id="Trazado_106229" data-name="Trazado 106229" d="M2019,1255.05s-1.737,0-1.389-1.408c.178-.719.952-.749,2.088-.749h17.614s.916.34.916,1.038a1.23,1.23,0,0,1-.725,1.143C2037.211,1255.246,2019,1255.05,2019,1255.05Z" fill="#e57970"/>
        <path id="Trazado_106230" data-name="Trazado 106230" d="M2019.979,1252.933s-1.642,0-1.3-1.405c.178-.719.953-.75,2.088-.75h17.614s.916.341.916,1.038a1.028,1.028,0,0,1-.659,1.038C2038.35,1253.027,2019.979,1252.933,2019.979,1252.933Z" fill="#c4453b"/>
        <path id="Trazado_106231" data-name="Trazado 106231" d="M2018.975,1250.748s-1.713.071-1.365-1.335c.178-.719.952-.749,2.088-.749h17.614s.916.34.916,1.038a1.028,1.028,0,0,1-.66,1.038C2037.275,1250.912,2018.975,1250.748,2018.975,1250.748Z" fill="#c65447"/>
        <path id="Trazado_106232" data-name="Trazado 106232" d="M2019.059,1248.673s-1.8-.009-1.449-1.415c.178-.719.952-.749,2.088-.749h17.614s.916.341.916,1.038a1.2,1.2,0,0,1-.742,1.117C2037.193,1248.836,2019.059,1248.673,2019.059,1248.673Z" fill="#c4453b"/>
        <path id="Trazado_106233" data-name="Trazado 106233" d="M2020.049,1246.52s-1.712.07-1.365-1.335c.178-.719.953-.75,2.088-.75h17.614s.916.341.916,1.038a1.028,1.028,0,0,1-.659,1.038C2038.35,1246.683,2020.049,1246.52,2020.049,1246.52Z" fill="#c65447"/>
        <path id="Trazado_106234" data-name="Trazado 106234" d="M2018.973,1244.435s-1.711,0-1.363-1.405c.178-.719.952-.75,2.088-.75h17.614s.916.341.916,1.038a1.238,1.238,0,0,1-.742,1.142C2037.193,1244.633,2018.973,1244.435,2018.973,1244.435Z" fill="#e57970"/>
      </g>
      <g id="Grupo_56756" data-name="Grupo 56756">
        <g id="Grupo_56755" data-name="Grupo 56755">
          <path id="Trazado_106235" data-name="Trazado 106235" d="M1992.832,1259.2s-.732-.7-.366-1.327.952-.749,2.088-.749h17.614s.916.34.916,1.038a1.03,1.03,0,0,1-.659,1.038C2012.132,1259.372,1992.832,1259.2,1992.832,1259.2Z" fill="#c4453b"/>
          <path id="Trazado_106236" data-name="Trazado 106236" d="M1993.831,1257.132s-1.713.07-1.365-1.335c.178-.719.952-.749,2.088-.749h17.614s.916.34.916,1.038a1.03,1.03,0,0,1-.659,1.038C2012.132,1257.3,1993.831,1257.132,1993.831,1257.132Z" fill="#c4453b"/>
          <path id="Trazado_106237" data-name="Trazado 106237" d="M1993.866,1255.059s-1.748-.011-1.4-1.417c.178-.719.952-.749,2.088-.749h17.614s.916.34.916,1.038a1.319,1.319,0,0,1-.843,1.147C2011.947,1255.251,1993.866,1255.059,1993.866,1255.059Z" fill="#e57970"/>
          <path id="Trazado_106238" data-name="Trazado 106238" d="M1994.751,1252.893s-1.558.04-1.21-1.365c.178-.719.952-.75,2.087-.75h17.614s.916.341.916,1.038a1.028,1.028,0,0,1-.659,1.038C2013.206,1253.027,1994.751,1252.893,1994.751,1252.893Z" fill="#c4453b"/>
          <path id="Trazado_106239" data-name="Trazado 106239" d="M1993.832,1250.819s-1.714,0-1.366-1.406c.178-.719.952-.749,2.088-.749h17.614s.916.34.916,1.038a1.028,1.028,0,0,1-.659,1.038C2012.132,1250.912,1993.832,1250.819,1993.832,1250.819Z" fill="#c65447"/>
          <path id="Trazado_106240" data-name="Trazado 106240" d="M1993.847,1248.676s-1.729-.012-1.381-1.418c.178-.719.952-.749,2.088-.749h17.614s.916.341.916,1.038a1.319,1.319,0,0,1-.842,1.148C2011.949,1248.867,1993.847,1248.676,1993.847,1248.676Z" fill="#c4453b"/>
          <path id="Trazado_106241" data-name="Trazado 106241" d="M1994.905,1246.52s-1.712.07-1.364-1.335c.178-.719.952-.75,2.087-.75h17.614s.916.341.916,1.038a1.028,1.028,0,0,1-.659,1.038C2013.206,1246.683,1994.905,1246.52,1994.905,1246.52Z" fill="#c65447"/>
          <path id="Trazado_106242" data-name="Trazado 106242" d="M1993.884,1244.435s-1.766,0-1.418-1.405c.178-.719.952-.75,2.088-.75h17.614s.916.341.916,1.038a1.181,1.181,0,0,1-.715,1.117C2012.076,1244.607,1993.884,1244.435,1993.884,1244.435Z" fill="#e57970"/>
        </g>
      </g>
      <g id="Grupo_56757" data-name="Grupo 56757">
        <path id="Trazado_106243" data-name="Trazado 106243" d="M1863.386,1082.375c-1.55-.15-3.013-.242-4.393-.286a2.968,2.968,0,0,1-2.684-1.93,29.629,29.629,0,0,1-1.6-7.229l-.541.17-9.114,2.832s.524,2.907.824,5.664c.037.338.07.677.1,1.011a.915.915,0,0,1-.656.955c-4.369,1.291-6.17,2.945-6.17,2.945a162.952,162.952,0,0,0,7.167,34.1c.572,1.753-8.16,12.244-8.16,12.244,2.127,6.813,31.129-2.926,31.129-2.926s-1.982-6.028.606-20.755C1872.911,1091.995,1863.386,1082.375,1863.386,1082.375Z" fill="#ffb27d"/>
        <path id="Trazado_106244" data-name="Trazado 106244" d="M1869.4,1177.095c-1.376,6.772-2.149,20.887-2.584,34.672-.564,17.892-.556,35.227-.556,35.227h-5.365s-2.321-8.615-4.472-18.793c-2.4-11.378-4.6-24.711-3.095-30.141,2.434-8.8-1.094-38.445-2.17-46.871-.184-1.432-.3-2.25-.3-2.25l20.281-2.8s.19,2.066.276,5.449A117.88,117.88,0,0,1,1869.4,1177.095Z" fill="#ffb27d"/>
        <path id="Trazado_106245" data-name="Trazado 106245" d="M1869.4,1177.095c-1.376,6.772-2.149,20.887-2.584,34.672-1.946,4.14-5.967,11.991-10.393,16.434-2.4-11.378-4.6-24.711-3.095-30.141,2.434-8.8-1.094-38.445-2.17-46.871,12.957.167,17.46-3.613,20.262.4A117.88,117.88,0,0,1,1869.4,1177.095Z" fill="#ed985f"/>
        <path id="Trazado_106246" data-name="Trazado 106246" d="M1863.386,1082.375s9.129,1.111,14.3,27.115c0,0,1.406,7.539-1.406,8.434S1858.923,1101.9,1863.386,1082.375Z" fill="#ffb27d"/>
        <path id="Trazado_106247" data-name="Trazado 106247" d="M1849.148,1067.133s5.86,2.089,2.648,8.645c0,0,4.79-.073,5.8-1.585a3.869,3.869,0,0,1-.272.934s4.493-1.2,5.9-3.145-6.716-24.324-18.274-18.012c0,0-10.695,2.406-6.025,14.2s.724,13.006.724,13.006a5.871,5.871,0,0,0,1.793.044s.685-.533.707-1.007a2.894,2.894,0,0,1-.081.994s4.384-.9,6.02-3.157S1850.518,1069.444,1849.148,1067.133Z" fill="#233862"/>
        <path id="Trazado_106248" data-name="Trazado 106248" d="M1845.055,1075.931s.637,4.071.937,6.829c5.514-1.765,6.026-6.743,6.875-9.5Z" fill="#ed985f"/>
        <path id="Trazado_106249" data-name="Trazado 106249" d="M1852.034,1072.982a27.514,27.514,0,0,0,2.535-8.36c.188-2.683,1.75-13.837-7.908-11.389,0,0-6.758,2.12-9.243,4.213-1.977,1.664-4.72,5.1-.379,13.247l1.2,2.782Z" fill="#233862"/>
        <path id="Trazado_106250" data-name="Trazado 106250" d="M1843.6,1079.973s11.912-3.426,9.664-10.811-2.225-12.8-9.925-10.925-8.313,5.141-8.162,7.788S1840.443,1080.674,1843.6,1079.973Z" fill="#ffb27d"/>
        <path id="Trazado_106251" data-name="Trazado 106251" d="M1837.885,1059.7s6.794,8.17,12.165,7.929,6.222-2.736,6.222-2.736a14.743,14.743,0,0,1-7.159-6.922S1839.073,1054.835,1837.885,1059.7Z" fill="#233862"/>
        <path id="Trazado_106252" data-name="Trazado 106252" d="M1838.9,1060.163s-1.832,2.674-1.849,4.735.9,6.011-.267,6.224c0,0-4.244-5.139-2.514-9.309C1836.108,1057.391,1838.9,1060.163,1838.9,1060.163Z" fill="#233862"/>
        <path id="Trazado_106253" data-name="Trazado 106253" d="M1838.543,1060.593s5.084,8.363,12.255,9.348c0,0-7.986-3.652-10.35-9.476S1838.543,1060.593,1838.543,1060.593Z" fill="#233862"/>
        <path id="Trazado_106254" data-name="Trazado 106254" d="M1873.531,1109.17s.032-9.482-1.721-10.619S1869.486,1109.4,1873.531,1109.17Z" fill="#f8a871"/>
        <path id="Trazado_106255" data-name="Trazado 106255" d="M1838.159,1132.851s-6.672,17.834-6.405,24.733,11.122,37.143,12.631,43.181c0,0-4.448,29.843-1.793,49.1h6.044s10.863-42.374,12.118-47.261-6.508-54.1-6.508-54.1Z" fill="#ffb27d"/>
        <path id="Trazado_106256" data-name="Trazado 106256" d="M1843.626,1084.124s7.739,10.767,14.831,10.192c0,0,2.751-7.888.321-12.234l4.608.293,6.722,11.5a13.908,13.908,0,0,1,1.779,8.847l-2.6,19.55s-7.028,4.6-22.97-1.661l-4.49-15.462Z" fill="#2b478b"/>
        <path id="Trazado_106257" data-name="Trazado 106257" d="M1857.566,1116.9c-.061.511-1.637,5.1-5.039,4.848s-17.947-21.317-18.221-27.721c-.176-4.088,4.846-7.521,4.846-7.521,5.123,2.7,10.087,11.159,13.57,18.473.721,1.515,1.376,2.981,1.957,4.336A65.675,65.675,0,0,1,1857.566,1116.9Z" fill="#ffb27d"/>
        <path id="Trazado_106258" data-name="Trazado 106258" d="M1872.516,1164.6a63.788,63.788,0,0,1-9.967-.109,40.168,40.168,0,0,1-6.971-1.212,20.121,20.121,0,0,1-4.719-1.91c-7.554-4.409-6.285-36.986-6.285-36.986s4.943,7.83,24.714,5.542C1869.288,1129.925,1876.031,1149.843,1872.516,1164.6Z" fill="#f99746"/>
        <path id="Trazado_106259" data-name="Trazado 106259" d="M1862.549,1164.491a40.168,40.168,0,0,1-6.971-1.212c-2.331-6.365-2.731-17.162,2.942-21.384C1858.52,1141.9,1864.309,1156.912,1862.549,1164.491Z" fill="#ed7d2b"/>
        <path id="Trazado_106260" data-name="Trazado 106260" d="M1860.891,1141.051c-3.636,4.984-3.325,22.234-3.325,22.234-4.091,2.122-10.322,2.72-15.744,2.761a92.115,92.115,0,0,1-11.029-.587s-1.024-4.09,0-16.612c.426-5.2,2.879-10.31,5.6-14.5a59.464,59.464,0,0,1,8.18-9.965c4.964,6.59,24.714,5.542,24.714,5.542S1864.527,1136.068,1860.891,1141.051Z" fill="#f99746"/>
        <path id="Trazado_106261" data-name="Trazado 106261" d="M1848.636,1249.87s.621,4.3,1.771,5.163,7.954,2.829,7.954,6.206h-18.4a7.31,7.31,0,0,1,0-5.684c1.341-2.726,2.631-5.685,2.631-5.685Z" fill="#ffb27d"/>
        <path id="Trazado_106262" data-name="Trazado 106262" d="M1842.165,1260.5s3.564-7.8,7.554-6.467c7.4,2.471,9.437,6.467,9.437,6.467Z" fill="#2b478b"/>
        <path id="Trazado_106263" data-name="Trazado 106263" d="M1860.891,1246.994s1.284,6.156,0,8.561a3.315,3.315,0,0,0,1.112,4.717c1.054.511,19.646,0,19.646,0s-4.169-3.8-7.475-4.717a11.886,11.886,0,0,1-7.918-8.561C1865.357,1242.574,1860.891,1246.994,1860.891,1246.994Z" fill="#ffb27d"/>
        <path id="Trazado_106264" data-name="Trazado 106264" d="M1854.679,1109.316c-3.266,4.552-9.413-4.289-9.624-4.617l1.581-1.342a24.287,24.287,0,0,1,6.086,1.623C1853.443,1106.495,1854.1,1107.961,1854.679,1109.316Z" fill="#f8a871"/>
        <path id="Trazado_106265" data-name="Trazado 106265" d="M1840.707,1076.242a6.993,6.993,0,0,1,4.128-1.459,2.188,2.188,0,0,1-1.65,1.8A2.322,2.322,0,0,1,1840.707,1076.242Z" fill="#ffe8dc"/>
        <path id="Trazado_106266" data-name="Trazado 106266" d="M1863.227,1071.981c-1.41,1.947-5.9,3.146-5.9,3.146a3.8,3.8,0,0,0,.271-.934c-2.1,2.212-8.051,1.585-8.051,1.585,4.47-1.62,2.109-8.066.506-8.144a145.014,145.014,0,0,0-5.409-13.579c.2-.06.313-.086.313-.086C1856.511,1047.658,1864.638,1070.035,1863.227,1071.981Z" fill="#233862"/>
        <path id="Trazado_106267" data-name="Trazado 106267" d="M1843.626,1084.124s-8.074,2.765-9.847,6.167,1.269,12.171,4.923,16.579c0,0,9.054-.095,13.3-6.676C1852,1100.194,1845.278,1085.591,1843.626,1084.124Z" fill="#2b478b"/>
        <path id="Trazado_106268" data-name="Trazado 106268" d="M1863.386,1082.375s5.408.345,8.929,8.012c0,0,.2,5.3-3.955,5.43S1863.386,1082.375,1863.386,1082.375Z" fill="#2b478b"/>
        <path id="Trazado_106269" data-name="Trazado 106269" d="M1876.282,1117.924c-8.623,3.167-19.1-8.945-33.586-15.654l2.29-3.026.069-.09s6.322,2.1,15.505,4.814c3.227.955,6.808,1.984,10.592,3.027C1878.165,1108.927,1876.282,1117.924,1876.282,1117.924Z" fill="#ffb27d"/>
        <path id="Trazado_106270" data-name="Trazado 106270" d="M1860.56,1103.968l-3.253,3.019s-12.737-6.541-12.321-7.743a.2.2,0,0,1,.069-.09S1851.377,1101.252,1860.56,1103.968Z" fill="#f8a871"/>
        <path id="Trazado_106271" data-name="Trazado 106271" d="M1870.057,1097.413c.073.393-8.988,22.907-17.141,24.285-.131.023-.259.039-.389.05,0,0-4.708-6.346.222-10.668a104.272,104.272,0,0,0,13.821-15.434Z" fill="#ffb27d"/>
        <path id="Trazado_106272" data-name="Trazado 106272" d="M1845.055,1099.154s-2.227-2.112-2.359-3.118c-.12-.909-2.468-1.381-4.054-1.854a.26.26,0,0,0-.31.359,2.847,2.847,0,0,0,1.453,1.2c1.123.371-1.134,1.1-2.9.14-1.089-.6-2.986-2.582-3.576-1.85s.082,4.53,1.587,6.134c1,1.068,5.977,1.087,7.8,2.109Z" fill="#ffb27d"/>
        <path id="Trazado_106273" data-name="Trazado 106273" d="M1866.571,1095.646s1.076-2.874.754-3.836,2.158-2.349,3.307-3.5a1.856,1.856,0,0,1-.611,1.713c-.847.825.31,1.006,1.087.037s-.852-2.948,0-2.55,3.554,2.686,3.268,4.121-3.133,4.066-4.318,5.781Z" fill="#ffb27d"/>
        <path id="Trazado_106274" data-name="Trazado 106274" d="M1842.334,1126.7s9.684,9.375,27.6,5.316l-.95-3.47s-15.4,4.217-23.758-5.182Z" fill="#ed7d2b"/>
        <path id="Trazado_106275" data-name="Trazado 106275" d="M1841.822,1166.046a92.115,92.115,0,0,1-11.029-.587s-1.024-4.09,0-16.612c.426-5.2,2.879-10.31,5.6-14.5C1836.394,1134.348,1832.934,1162.281,1841.822,1166.046Z" fill="#ed7d2b"/>
        <path id="Trazado_106276" data-name="Trazado 106276" d="M1870.057,1097.413c.073.393-8.988,22.907-17.141,24.285C1849.709,1120.209,1870.057,1097.413,1870.057,1097.413Z" fill="#f8a871"/>
        <path id="Trazado_106277" data-name="Trazado 106277" d="M1882.154,1261.239h-21.4a.484.484,0,0,1-.483-.483h0a.485.485,0,0,1,.483-.484h21.4a.486.486,0,0,1,.484.484h0A.485.485,0,0,1,1882.154,1261.239Z" fill="#2b478b"/>
        <path id="Trazado_106278" data-name="Trazado 106278" d="M1858.932,1261.239h-21.4a.484.484,0,0,1-.483-.483h0a.485.485,0,0,1,.483-.484h21.4a.485.485,0,0,1,.483.484h0A.484.484,0,0,1,1858.932,1261.239Z" fill="#2b478b"/>
      </g>
      <g id="Grupo_56761" data-name="Grupo 56761">
        <path id="Trazado_106279" data-name="Trazado 106279" d="M1792.257,1071.4H1727.1l14.6,189.84h65.158Z" fill="#c69d7f"/>
        <path id="Trazado_106280" data-name="Trazado 106280" d="M1795.9,1071.4h-65.158l14.6,189.84H1810.5Z" fill="#efcbab"/>
        <path id="Trazado_106281" data-name="Trazado 106281" d="M1792.54,1076.137h-57.714l14.26,177.034h57.333Z" fill="#fcecdb"/>
        <g id="Grupo_56758" data-name="Grupo 56758">
          <path id="Trazado_106282" data-name="Trazado 106282" d="M1731.438,1108.8l-2.767,15.314-24.623,136.271a1.036,1.036,0,0,1-1.022.859.851.851,0,0,1-.838-.989l24.342-147.5,3.094-18.746Z" fill="#e0b594"/>
        </g>
        <path id="Trazado_106283" data-name="Trazado 106283" d="M1728.671,1124.109c.672-9.3-2.141-11.358-2.141-11.358l3.094-18.746,1.814,14.79Z" fill="#c69d7f"/>
        <g id="Grupo_56760" data-name="Grupo 56760">
          <g id="Grupo_56759" data-name="Grupo 56759" opacity="0.4">
            <path id="Trazado_106284" data-name="Trazado 106284" d="M1751.508,1131.945s2.158,11.119,6.261,14.122-.285-14.811-.285-14.811Z" fill="#ffb27d"/>
            <path id="Trazado_106285" data-name="Trazado 106285" d="M1759.76,1149.791l-.125,5.235a21.84,21.84,0,0,0,9.249,1.252c5.041-.463,9.73-5,9.73-5l-3.216-4.014Z" fill="#ffb27d"/>
            <path id="Trazado_106286" data-name="Trazado 106286" d="M1791.9,1178.429a21.773,21.773,0,0,1-.191,3.822c-1.008,8.855-5.193,26.866-5.714,30.975,0,0,.91,3.348,2.038,8.35,1.9,8.409,4.417,21.864,4.271,31.595h-4.609s-2.869-7.235-5.873-15.161c-3.7-9.755-8.011-21.125-8.835-23.3-1.2-3.17-.541-29.459-.236-39.613.073-2.468.127-3.982.127-3.982l11.414-12.619S1791.429,1172.869,1791.9,1178.429Z" fill="#ffb27d"/>
            <path id="Trazado_106287" data-name="Trazado 106287" d="M1785.991,1213.226s.91,3.348,2.038,8.35l-6.211,16.434c-3.7-9.755-8.011-21.125-8.835-23.3-1.2-3.17-.541-29.459-.236-39.613a12.637,12.637,0,0,1,2.369-.21c8.675,0,13.781,2.969,16.589,7.362C1790.7,1191.106,1786.512,1209.117,1785.991,1213.226Z" fill="#f8a871"/>
            <path id="Trazado_106288" data-name="Trazado 106288" d="M1772.364,1122.927l-9.835-4.8c.034-.121.067-.244.1-.366.554-2.084.98-4.356.98-4.356l7.735,1.358.461.081a22.27,22.27,0,0,0-.833,5.764A2.746,2.746,0,0,0,1772.364,1122.927Z" fill="#ffb27d"/>
            <path id="Trazado_106289" data-name="Trazado 106289" d="M1764.106,1194.152c1.779,5.457,3.8,16.831,5.512,27.94,2.225,14.418,3.727,31.079,3.727,31.079h4.552s5.224-37.712,3.476-42.088c-2.832-7.088,3.989-38.383,3.989-38.383l-25.725-3.5s.051,1.665.316,4.391A99.823,99.823,0,0,0,1764.106,1194.152Z" fill="#ffb27d"/>
            <path id="Trazado_106290" data-name="Trazado 106290" d="M1769.217,1108.631s3.866,3.67-.437,7.165c0,0,3.665,1.727,4.862,1.021a2.642,2.642,0,0,1-.472.567s3.757.811,5.383-.057,1.79-19.889-8.793-19.668c0,0-8.819-2.253-8.612,7.92s-3.139,9.57-3.139,9.57a5.525,5.525,0,0,0,1.352.7s.672-.126.823-.458a2,2,0,0,1-.343.681s3.59.986,5.475-.021S1769.6,1110.791,1769.217,1108.631Z" fill="#233862"/>
            <path id="Trazado_106291" data-name="Trazado 106291" d="M1763.608,1113.4s-.669,3.148-1.224,5.232c4.7.785,6.5-2.584,7.924-4.238Z" fill="#ed985f"/>
            <path id="Trazado_106292" data-name="Trazado 106292" d="M1769.755,1113.885a18.494,18.494,0,0,0,4.3-5.037c.9-1.849,5.255-9.245-2.786-11.082,0,0-5.743-.994-8.227-.42-1.975.456-5.035,1.891-4.045,9.332l.123,2.435Z" fill="#233862"/>
            <path id="Trazado_106293" data-name="Trazado 106293" d="M1761.355,1115.752s10.033,1.974,10.417-4.142,1.939-9.981-4.451-11.5-7.782.589-8.418,2.538S1758.755,1115.081,1761.355,1115.752Z" fill="#ffb27d"/>
            <path id="Trazado_106294" data-name="Trazado 106294" d="M1762.756,1099.135s2.851,8.366,7.006,10.189,5.509.354,5.509.354a13.554,13.554,0,0,1-3.483-7.609S1765.041,1096.093,1762.756,1099.135Z" fill="#233862"/>
            <path id="Trazado_106295" data-name="Trazado 106295" d="M1763.4,1099.841a7.379,7.379,0,0,0-2.75,2.7c-.6,1.467-1.02,4.634-1.969,4.352,0,0-1.77-5.252.728-7.591C1762.061,1096.82,1763.4,1099.841,1763.4,1099.841Z" fill="#233862"/>
            <path id="Trazado_106296" data-name="Trazado 106296" d="M1763.005,1100.014s1.495,7.869,6.672,11.237c0,0-5.04-5.578-5.186-10.621S1763.005,1100.014,1763.005,1100.014Z" fill="#233862"/>
            <path id="Trazado_106297" data-name="Trazado 106297" d="M1760.355,1184.083s11.085,5.145,22.743,1.11c6.416-2.22-4.206-33.519-4.206-33.519s-3.208,6.31-19.367,4.465C1759.525,1156.139,1756.062,1172.191,1760.355,1184.083Z" fill="#f99746"/>
            <path id="Trazado_106298" data-name="Trazado 106298" d="M1794.062,1184.774s-1.381.178-3.506.316c-1.483.1-3.33.174-5.324.157-.7-.006-1.411-.022-2.134-.052-3.819-.166-7.878-.734-10.826-2.172,0,0-1.457-13.9-4.88-17.917s-7.868-8.967-7.868-8.967,16.02.845,19.368-4.465a57.527,57.527,0,0,1,7.578,8.03c2.608,3.375,5.09,7.49,5.948,11.684C1794.482,1181.478,1794.062,1184.774,1794.062,1184.774Z" fill="#f99746"/>
            <path id="Trazado_106299" data-name="Trazado 106299" d="M1760.213,1112.009a5.814,5.814,0,0,1,3.554.49s-.377.854-1.766.673A2.2,2.2,0,0,1,1760.213,1112.009Z" fill="#ffe8dc"/>
            <path id="Trazado_106300" data-name="Trazado 106300" d="M1762.592,1118.209s-6.905-1.406-9.333.222-3.029,8.956-1.751,13.514c0,0,6.762,3.658,12.068.846C1763.576,1132.791,1763.341,1119.906,1762.592,1118.209Z" fill="#2b478b"/>
            <path id="Trazado_106301" data-name="Trazado 106301" d="M1780.927,1153.538s-6.876,7.555-21.714,4.284l.422-2.8s12.824,3.4,18.633-4.176Z" fill="#ed7d2b"/>
            <path id="Trazado_106302" data-name="Trazado 106302" d="M1790.556,1185.09c-1.483.1-3.33.174-5.324.157-.7-.006-1.411-.022-2.134-.052v0s4.306-11.217,1.317-17.242C1784.675,1168.405,1790.781,1179.124,1790.556,1185.09Z" fill="#ed7d2b"/>
            <path id="Trazado_106303" data-name="Trazado 106303" d="M1771.061,1118.827l-11.485-1.005-4.279,9.264a10.672,10.672,0,0,0-.558,7.129l4.028,15.754s6.119,3.707,18.346-1.339l1.478-17.424a18.526,18.526,0,0,0,.423-6.437C1777.818,1118.751,1771.061,1118.827,1771.061,1118.827Z" fill="#2b478b"/>
            <path id="Trazado_106304" data-name="Trazado 106304" d="M1750.821,1127.806s2.3-3.5,1.777-4.376-2.164-.1-2.293,1.133S1749.974,1127.6,1750.821,1127.806Z" fill="#ffb27d"/>
          </g>
        </g>
        <path id="Trazado_106305" data-name="Trazado 106305" d="M1793.659,1090.419c-.048-.621-52.479,64.614-52.479,64.614l-6.355-78.9h57.715Z" fill="#fff7f0" opacity="0.8"/>
        <path id="Trazado_106306" data-name="Trazado 106306" d="M1798.82,1156.254l-52.257,65.607,1,12.4,52.564-61.347Z" fill="#fff7f0" opacity="0.6"/>
        <path id="Trazado_106307" data-name="Trazado 106307" d="M1801.655,1192.41l-53.428,50.106.859,10.656h57.333Z" fill="#fff7f0" opacity="0.3"/>
        <path id="Trazado_106308" data-name="Trazado 106308" d="M1741.824,1163.029l52.814-60.12,3.471,44.282-52.652,60.943Z" fill="#d3a688" opacity="0.3"/>
      </g>
      <path id="Trazado_106309" data-name="Trazado 106309" d="M1846.319,1255.917l-4.71-1.122a.957.957,0,0,1-.643-1.34h0a6.139,6.139,0,0,0-3.13,7.044h6.914Z" fill="#2b478b"/>
      <path id="Trazado_106310" data-name="Trazado 106310" d="M1875.506,1254.714c-4.511-2.255-8.325.018-10.887.55a4.014,4.014,0,0,1-2.791-.326,1.147,1.147,0,0,0-1.614.6,4.8,4.8,0,0,0,.677,4.959l.948.257,7.832.14.451-.2,12.032-.424C1881.7,1260.272,1882.874,1257.928,1875.506,1254.714Z" fill="#2b478b"/>
      <g id="Grupo_56762" data-name="Grupo 56762">
        <path id="Trazado_106311" data-name="Trazado 106311" d="M1935.718,1257.729s7.17-8.277,9.2-12.046l5.577-10.405,7.3,1.824-9.267,13.266-9.681,8.274Z" fill="#ffb27d"/>
        <path id="Trazado_106312" data-name="Trazado 106312" d="M1981.889,1054.428a9.369,9.369,0,0,1,5.114-.988,2.383,2.383,0,0,0-1.079-.517,7.876,7.876,0,0,1,2.83.746c12.177-4.74,14.091,13.371,13.834,17.579s4.092,5.581,10.428,8.9c12.088,6.325,13.15,14.795,13.15,14.795-.095.056-.193.12-.3.193-.6-1.027-1.834-2.954-2.875-3.245a44.159,44.159,0,0,1,1.675,4.121c-3.566,2.74-10.237,8.811-14.887,13.116a6.948,6.948,0,0,0-.317-2.667l-.574,3.494c-2.488,2.311-4.2,3.936-4.2,3.936.308-3.4-15.224-21.343-23.327-26.717-1.972-2.933-2.673-8.115-2.726-8.523a22.6,22.6,0,0,0,1.658,7.711C1973.43,1079.979,1977.424,1056.991,1981.889,1054.428Z" fill="#163560"/>
        <path id="Trazado_106313" data-name="Trazado 106313" d="M1981.839,1087.437c-.041.019,3.912,2.092,6.886,1.27,2.8-.77,4.624-4.433,4.586-4.441-1.185-.238-1.526-1.882-1.5-8.947l-.536.107-9,1.8s.2,2.862.211,5.558C1982.488,1085.049,1982.352,1087.195,1981.839,1087.437Z" fill="#9c5f33"/>
        <path id="Trazado_106314" data-name="Trazado 106314" d="M1992.02,1057.394a7.147,7.147,0,0,0-10.017-.244S1985.248,1056.583,1992.02,1057.394Z" fill="#a8d29f"/>
        <path id="Trazado_106315" data-name="Trazado 106315" d="M1992.2,1074.436a26.89,26.89,0,0,0,3.274-7.817c.453-2.573-.845-12.108-10.331-10.735a12.817,12.817,0,0,0-5.345,2.041c-2.059,1.4-5.032,4.439-1.708,12.759l.863,2.811Z" fill="#163560"/>
        <path id="Trazado_106316" data-name="Trazado 106316" d="M1946.386,1242.047l4.773.147,5.165.16a103.249,103.249,0,0,0,18.626-34.93q.234-.75.495-1.519c3.663-10.788,11.256-24.33,15.258-36.587.637-1.953,1.209-3.79,1.722-5.53.164-.557.324-1.1.476-1.643a131.176,131.176,0,0,0,4.59-24.406l-28.9.233A548.921,548.921,0,0,1,1946.386,1242.047Z" fill="#31d9e7"/>
        <path id="Trazado_106317" data-name="Trazado 106317" d="M1970.624,1141.049a38.481,38.481,0,0,0,27.076,1.676c.173-.055-.971-57.412-5.141-58.992-.96,1.206-3.8,2.414-6.344,2.356-2.929-.065-3.879-1.332-3.727-2.715-3.121,1.755-5.611,3.412-5.611,3.412C1974.224,1091.441,1970.624,1141.049,1970.624,1141.049Z" fill="#fc7972"/>
        <path id="Trazado_106318" data-name="Trazado 106318" d="M1997.491,1122.749c1.264,1.806,3.685,12.782,9.71,14.161-3.1-7.822-5.462-11.252-5.83-13.657a59.955,59.955,0,0,1-.358-13.517c-2.016-3.571-3.522-6.019-3.522-6.019-.158-.577-3.2-10.093-4.181-1.587S1996.081,1120.729,1997.491,1122.749Z" fill="#5f9aa8"/>
        <path id="Trazado_106319" data-name="Trazado 106319" d="M1980.588,1079.78s11.921.2,11.929-7.3,1.552-12.526-6.058-12.969-9.093,2.416-9.7,4.919S1977.488,1079.535,1980.588,1079.78Z" fill="#ab7041"/>
        <path id="Trazado_106320" data-name="Trazado 106320" d="M1981.03,1059.325s3.263,8.8,8.272,10.1,7.181-.055,7.181-.055a25.2,25.2,0,0,1-3.172-9.081S1983.491,1055.137,1981.03,1059.325Z" fill="#163560"/>
        <path id="Trazado_106321" data-name="Trazado 106321" d="M1981.838,1060.039s-2.437,1.965-3.031,3.874-.861,5.842-2,5.708c0,0-2.459-5.98.3-9.364C1980.046,1056.67,1981.838,1060.039,1981.838,1060.039Z" fill="#163560"/>
        <path id="Trazado_106322" data-name="Trazado 106322" d="M1989.519,1256.491c.406-2.254,1.178-6.151,1.178-6.151l-.18-13.829h8.315l-3.111,13.236a13.607,13.607,0,0,0,.639,5.527s.8,3.675-2.784,3.743S1989.113,1258.744,1989.519,1256.491Z" fill="#ffb27d"/>
        <path id="Trazado_106323" data-name="Trazado 106323" d="M1989.181,1260.814h7.451a20.445,20.445,0,0,0-.272-5.535c-4.055,3.97-6.595-.1-6.595-.1A20.66,20.66,0,0,0,1989.181,1260.814Z" fill="#ed7d2b"/>
        <path id="Trazado_106324" data-name="Trazado 106324" d="M1932.239,1260.841h9.186a15.506,15.506,0,0,0,2.49-4.151,4.441,4.441,0,0,1,2.992-2.069v6.22h1.9l1.747-6.616c1.171-2.226.275-4.227-.549-5.985-.957,0-3.712.66-8.594,6.352a6.3,6.3,0,0,1-5.132,2.478.512.512,0,0,1-.073.039C1933.457,1258.392,1932.54,1259.965,1932.239,1260.841Z" fill="#ed7d2b"/>
        <path id="Trazado_106325" data-name="Trazado 106325" d="M1932.623,1092.227s7.824,4.419,10.619,5.694c1.593.726,5.26,2.46,7.843,3.686a4,4,0,0,0,4.779-1.041c4.242-5.005,15.283-15.86,26.624-17.192,0,0-6.9,17.21-7.1,20.693s-.811,56.954-.811,56.954.406,2.458-4.259,1.434-5.882-2.049-5.882-2.049,4.462-32.984,3.245-44.457a25.793,25.793,0,0,1,.482-7.429,57.728,57.728,0,0,1-15.085,6.132,84.54,84.54,0,0,1-14.468-8.878c-2.623-1.941-7.231-9.345-7.231-9.345Z" fill="#f9e478"/>
        <path id="Trazado_106326" data-name="Trazado 106326" d="M1951.159,1242.194l5.165.16a103.249,103.249,0,0,0,18.626-34.93q.234-.75.495-1.519c3.663-10.788,11.256-24.33,15.258-36.587.637-1.953,1.209-3.79,1.722-5.53.164-.557.324-1.1.476-1.643l-4.255-3.262s-12.775,20.9-16.731,40.563C1968.48,1216.528,1954.72,1237.083,1951.159,1242.194Z" fill="#2cc0c4"/>
        <path id="Trazado_106327" data-name="Trazado 106327" d="M1988.2,1201.277c-.073,9.564.406,31.551,1.639,40.653h4.576c2.529,0,3.79-.037,3.79-.037,3.093-15.826,5.294-28.921,6.9-40.206,1.315-9.26,2.483-17.2,3.381-24.033.905-6.878,1.534-12.637,1.759-17.5.034-.766.061-1.512.075-2.235s.018-1.435.012-2.121l-24.968-2.458C1985.677,1170.094,1988.243,1195.719,1988.2,1201.277Z" fill="#31d9e7"/>
        <path id="Trazado_106328" data-name="Trazado 106328" d="M1994.417,1241.93c2.529,0,3.79-.037,3.79-.037,3.093-15.826,5.294-28.921,6.9-40.206,1.315-9.26,2.483-17.2,3.381-24.033.905-6.878,1.534-12.637,1.759-17.5l-9.162,5.443s5.848,2.084,3.617,17.859S1997.522,1239.7,1994.417,1241.93Z" fill="#2cc0c4"/>
        <path id="Trazado_106329" data-name="Trazado 106329" d="M1993.238,1160s1.757,6.417,7.842,5.6,14.738-4.508,14.738-4.508-2.6-8.3-5.833-19.2c-.035-.114-.068-.231-.1-.348-3.816-12.875-8.478-29.263-10.8-39.927q-.075-.342-.145-.674a66.845,66.845,0,0,1-1.241-7.318l-5.141-9.886s-7.433,17.056-7.84,21.359S1993.238,1160,1993.238,1160Z" fill="#f9e478"/>
        <path id="Trazado_106330" data-name="Trazado 106330" d="M1999.313,1104.45l-6.754-20.717c.018.008,8.506,2.516,12.73,4.671,0,0,2.64,3.438,4.274,11.37,0,0,1.726,19.043-2.128,26.009,0,0-12.169,2.458-31.64-4.3v-4.507s21.3,1.126,25.657,1.638Z" fill="#ab7041"/>
        <path id="Trazado_106331" data-name="Trazado 106331" d="M1994.093,1114.1c.268,6.872,1.852,20.126,15.789,27.432-3.816-12.875-8.478-29.263-10.8-39.927C1996.558,1105.529,1993.954,1110.48,1994.093,1114.1Z" fill="#edd674"/>
        <path id="Trazado_106332" data-name="Trazado 106332" d="M1992.559,1083.733s12.442.871,15.417,7.563,3.921,28.956.135,35.511c0,0-5.212,1.5-14.431-.242l-.341-.065s-2.941-7.273-.3-8.707c0,0,7.774.41,6.963-2.185S1992.559,1083.733,1992.559,1083.733Z" fill="#f9e478"/>
        <path id="Trazado_106333" data-name="Trazado 106333" d="M1926.565,1092.61s3.972,71.846,5.623,85.182c0,0,5.344,2.62,10.059,1.191l5.973-52.775,5.894,53.2s7.623,2.272,13.438-1.062l3.114-66.359-5.652-.973a74.939,74.939,0,0,1-31.327-13.234Z" fill="#233862"/>
        <path id="Trazado_106334" data-name="Trazado 106334" d="M1932.623,1092.227a7.452,7.452,0,0,0-8.339-5.253c-.764.242-3,1.141-1.569,3.556,1.051,1.78,1.507.861,3.162,3.253s3.45,2.932,5.5,2.646Z" fill="#ab7041"/>
        <path id="Trazado_106335" data-name="Trazado 106335" d="M1977.978,1118.172a10.788,10.788,0,0,1-2.058-4.2c-.362-2.121-1.485-3.693-4.413-4.082s-4.187-.43-4.18.4,2.392,6.655,6.595,10.132S1977.978,1118.172,1977.978,1118.172Z" fill="#ab7041"/>
      </g>
      <rect id="Rectángulo_5540" data-name="Rectángulo 5540" width="7.312" height="3.949" rx="0.899" transform="matrix(0.976, 0.216, -0.216, 0.976, 1988.088, 1100.284)" fill="#fff"/>
      <rect id="Rectángulo_5541" data-name="Rectángulo 5541" width="1.933" height="2.299" rx="0.26" transform="matrix(0.976, 0.216, -0.216, 0.976, 1988.509, 1100.728)" fill="#233862"/>
      <path id="Trazado_106336" data-name="Trazado 106336" d="M1994.36,1102.944l-3.609-.8a.263.263,0,0,1-.2-.315l.009-.043a.265.265,0,0,1,.316-.2l3.609.8a.264.264,0,0,1,.2.316l-.009.042A.266.266,0,0,1,1994.36,1102.944Z" fill="#233862"/>
      <path id="Trazado_106337" data-name="Trazado 106337" d="M1994.14,1103.938l-3.609-.8a.264.264,0,0,1-.2-.316l.009-.042a.266.266,0,0,1,.316-.2l3.609.8a.263.263,0,0,1,.2.315l-.009.043A.265.265,0,0,1,1994.14,1103.938Z" fill="#233862"/>
      <path id="Trazado_106338" data-name="Trazado 106338" d="M1981.248,1162.7v-45.593a.474.474,0,0,1,.51-.473l6.623.51.062-.116a1.343,1.343,0,0,1,1.239-.713l7.793.312a1.25,1.25,0,0,1,1.2,1.222l1.5,68.646-11.338-.607V1169.98l-4.72-.522-.44-5.906Z" fill="#c4453b"/>
      <path id="Trazado_106339" data-name="Trazado 106339" d="M1988.839,1169.98l.483-34.176-2.566,33.946Z" fill="#99332b"/>
      <path id="Trazado_106340" data-name="Trazado 106340" d="M1983.678,1163.552l-1.19-20.145-.168,19.672Z" fill="#99332b"/>
      <path id="Trazado_106341" data-name="Trazado 106341" d="M1987.742,1117.1l1.58,11-.941-10.948Z" fill="#99332b"/>
      <path id="Trazado_106342" data-name="Trazado 106342" d="M1980.694,1123.039l-1.431,35.313,1.986.261V1123.2Z" fill="#99332b"/>
      <rect id="Rectángulo_5542" data-name="Rectángulo 5542" width="432.435" height="1.147" rx="0.49" transform="translate(2120.216 1261.813) rotate(180)" fill="#855db5"/>
    </g>
  </g>
</svg>
