<svg id="Grupo_57391" data-name="Grupo 57391" xmlns="http://www.w3.org/2000/svg" xmlns:xlink="http://www.w3.org/1999/xlink" width="276.492" height="145" viewBox="0 0 276.492 145">
  <defs>
    <radialGradient id="radial-gradient" cx="0.047" cy="-13.949" r="40.904" gradientTransform="translate(0.489) scale(0.022 1)" gradientUnits="objectBoundingBox">
      <stop offset="0.002" stop-color="#cdf7f1"/>
      <stop offset="1" stop-color="#5dcfca"/>
    </radialGradient>
  </defs>
  <path id="Trazado_126204" data-name="Trazado 126204" d="M2677.6,3518.39c-19.394-.139-79.49-.788-115.963-2.938-67.63-3.988-122.853,2.9-86.559,10.6,10.142,2.15-19.081,15.2,52.507,18.008,62.841,2.467,126.888-3.163,157.886-5.585s45.3-6.651,51.939-8.558C2743.249,3528.238,2745.392,3518.879,2677.6,3518.39Z" transform="translate(-2463.57 -3399.669)" fill="#f2e9bd"/>
  <g id="Grupo_57347" data-name="Grupo 57347" transform="translate(115.754 0)">
    <rect id="Rectángulo_7003" data-name="Rectángulo 7003" width="149.903" height="60.161" fill="#edf4fc"/>
    <rect id="Rectángulo_7004" data-name="Rectángulo 7004" width="36.12" height="60.161" transform="translate(113.783)" fill="#aebddc"/>
    <g id="Grupo_57303" data-name="Grupo 57303" transform="translate(7.708 6.473)">
      <rect id="Rectángulo_7005" data-name="Rectángulo 7005" width="24.081" height="0.991" fill="#d9e1e4"/>
    </g>
    <g id="Grupo_57304" data-name="Grupo 57304" transform="translate(7.708 4.362)">
      <rect id="Rectángulo_7006" data-name="Rectángulo 7006" width="7.801" height="0.991" fill="#d9e1e4"/>
    </g>
    <g id="Grupo_57305" data-name="Grupo 57305" transform="translate(58.292 6.473)">
      <rect id="Rectángulo_7007" data-name="Rectángulo 7007" width="24.081" height="0.991" fill="#d9e1e4"/>
    </g>
    <g id="Grupo_57306" data-name="Grupo 57306" transform="translate(58.292 41.625)">
      <rect id="Rectángulo_7008" data-name="Rectángulo 7008" width="1.217" height="0.99" fill="#ffc40e"/>
    </g>
    <g id="Grupo_57307" data-name="Grupo 57307" transform="translate(58.292 44.007)">
      <rect id="Rectángulo_7009" data-name="Rectángulo 7009" width="20.27" height="0.99" fill="#d9e1e4"/>
    </g>
    <g id="Grupo_57308" data-name="Grupo 57308" transform="translate(58.292 46.388)">
      <rect id="Rectángulo_7010" data-name="Rectángulo 7010" width="14.84" height="0.99" fill="#d9e1e4"/>
    </g>
    <g id="Grupo_57309" data-name="Grupo 57309" transform="translate(85.443 41.625)">
      <rect id="Rectángulo_7011" data-name="Rectángulo 7011" width="1.216" height="0.99" fill="#3bb6d5"/>
    </g>
    <g id="Grupo_57310" data-name="Grupo 57310" transform="translate(85.443 44.007)">
      <rect id="Rectángulo_7012" data-name="Rectángulo 7012" width="20.27" height="0.99" fill="#d9e1e4"/>
    </g>
    <g id="Grupo_57311" data-name="Grupo 57311" transform="translate(85.443 46.388)">
      <rect id="Rectángulo_7013" data-name="Rectángulo 7013" width="14.84" height="0.99" fill="#d9e1e4"/>
    </g>
    <g id="Grupo_57312" data-name="Grupo 57312" transform="translate(58.292 4.362)">
      <rect id="Rectángulo_7014" data-name="Rectángulo 7014" width="7.801" height="0.991" fill="#d9e1e4"/>
    </g>
    <g id="Grupo_57313" data-name="Grupo 57313" transform="translate(119.654 6.473)">
      <rect id="Rectángulo_7015" data-name="Rectángulo 7015" width="24.081" height="0.991" fill="#cfd9e8"/>
    </g>
    <g id="Grupo_57314" data-name="Grupo 57314" transform="translate(119.654 4.362)">
      <rect id="Rectángulo_7016" data-name="Rectángulo 7016" width="7.801" height="0.991" fill="#cfd9e8"/>
    </g>
    <g id="Grupo_57329" data-name="Grupo 57329" transform="translate(4.6 9.534)">
      <g id="Grupo_57328" data-name="Grupo 57328">
        <g id="Grupo_57326" data-name="Grupo 57326">
          <g id="Grupo_57315" data-name="Grupo 57315" transform="translate(4.049)">
            <rect id="Rectángulo_7017" data-name="Rectángulo 7017" width="37.602" height="42.627" fill="none" stroke="#bac2c6" stroke-miterlimit="10" stroke-width="0.057"/>
            <line id="Línea_141" data-name="Línea 141" x2="37.602" transform="translate(0 36.538)" fill="none" stroke="#bac2c6" stroke-miterlimit="10" stroke-width="0.057"/>
            <line id="Línea_142" data-name="Línea 142" x2="37.602" transform="translate(0 30.448)" fill="none" stroke="#bac2c6" stroke-miterlimit="10" stroke-width="0.057"/>
            <line id="Línea_143" data-name="Línea 143" x2="37.602" transform="translate(0 24.359)" fill="none" stroke="#bac2c6" stroke-miterlimit="10" stroke-width="0.057"/>
            <line id="Línea_144" data-name="Línea 144" x2="37.602" transform="translate(0 18.269)" fill="none" stroke="#bac2c6" stroke-miterlimit="10" stroke-width="0.057"/>
            <line id="Línea_145" data-name="Línea 145" x2="37.602" transform="translate(0 12.179)" fill="none" stroke="#bac2c6" stroke-miterlimit="10" stroke-width="0.057"/>
            <line id="Línea_146" data-name="Línea 146" x2="37.602" transform="translate(0 6.089)" fill="none" stroke="#bac2c6" stroke-miterlimit="10" stroke-width="0.057"/>
            <line id="Línea_147" data-name="Línea 147" y2="42.627" transform="translate(25.068)" fill="none" stroke="#bac2c6" stroke-miterlimit="10" stroke-width="0.057"/>
            <line id="Línea_148" data-name="Línea 148" y2="42.627" transform="translate(12.534)" fill="none" stroke="#bac2c6" stroke-miterlimit="10" stroke-width="0.057"/>
          </g>
          <line id="Línea_149" data-name="Línea 149" x1="1.944" y2="1.945" transform="translate(2.104)" fill="none" stroke="#bac2c6" stroke-miterlimit="10" stroke-width="0.057"/>
          <line id="Línea_150" data-name="Línea 150" x1="1.944" y2="1.945" transform="translate(2.104 6.089)" fill="none" stroke="#bac2c6" stroke-miterlimit="10" stroke-width="0.057"/>
          <line id="Línea_151" data-name="Línea 151" x1="1.944" y2="1.945" transform="translate(2.104 12.179)" fill="none" stroke="#bac2c6" stroke-miterlimit="10" stroke-width="0.057"/>
          <line id="Línea_152" data-name="Línea 152" x1="1.944" y2="1.945" transform="translate(2.104 18.269)" fill="none" stroke="#bac2c6" stroke-miterlimit="10" stroke-width="0.057"/>
          <line id="Línea_153" data-name="Línea 153" x1="1.944" y2="1.945" transform="translate(2.104 24.359)" fill="none" stroke="#bac2c6" stroke-miterlimit="10" stroke-width="0.057"/>
          <line id="Línea_154" data-name="Línea 154" x1="1.944" y2="1.945" transform="translate(2.104 30.448)" fill="none" stroke="#bac2c6" stroke-miterlimit="10" stroke-width="0.057"/>
          <line id="Línea_155" data-name="Línea 155" x1="1.944" y2="1.944" transform="translate(2.104 36.538)" fill="none" stroke="#bac2c6" stroke-miterlimit="10" stroke-width="0.057"/>
          <g id="Grupo_57316" data-name="Grupo 57316" transform="translate(0.151 38.494)">
            <path id="Trazado_126205" data-name="Trazado 126205" d="M2595.794,3440.941h0l-.192.1-.029-.114.241-.129h.127v1.1h-.145Z" transform="translate(-2595.57 -3440.783)" fill="#bac2c6"/>
            <path id="Trazado_126206" data-name="Trazado 126206" d="M2597.275,3441.337c0,.376-.14.583-.385.583-.216,0-.362-.2-.365-.567s.159-.575.385-.575S2597.275,3440.985,2597.275,3441.337Zm-.6.017c0,.287.089.451.224.451.153,0,.226-.179.226-.461s-.07-.45-.224-.45C2596.77,3440.894,2596.675,3441.053,2596.675,3441.354Z" transform="translate(-2595.769 -3440.778)" fill="#bac2c6"/>
          </g>
          <g id="Grupo_57317" data-name="Grupo 57317" transform="translate(0.052 32.448)">
            <path id="Trazado_126207" data-name="Trazado 126207" d="M2595.444,3434.267v-.092l.117-.113c.282-.269.409-.412.411-.578a.2.2,0,0,0-.219-.216.381.381,0,0,0-.234.093l-.048-.105a.489.489,0,0,1,.313-.112.311.311,0,0,1,.338.321c0,.2-.148.369-.381.593l-.087.081v0h.5v.124Z" transform="translate(-2595.444 -3433.144)" fill="#bac2c6"/>
            <path id="Trazado_126208" data-name="Trazado 126208" d="M2597.275,3433.7c0,.375-.14.583-.385.583-.216,0-.362-.2-.365-.568s.159-.574.385-.574S2597.275,3433.351,2597.275,3433.7Zm-.6.017c0,.287.089.451.224.451.153,0,.226-.179.226-.461s-.07-.45-.224-.45C2596.77,3433.26,2596.675,3433.419,2596.675,3433.72Z" transform="translate(-2595.669 -3433.144)" fill="#bac2c6"/>
          </g>
          <g id="Grupo_57318" data-name="Grupo 57318" transform="translate(0.046 26.401)">
            <path id="Trazado_126209" data-name="Trazado 126209" d="M2595.478,3426.459a.488.488,0,0,0,.245.07c.192,0,.251-.121.25-.213,0-.155-.141-.221-.285-.221h-.084v-.113h.084c.108,0,.247-.057.247-.187,0-.088-.057-.167-.194-.167a.408.408,0,0,0-.221.073l-.039-.108a.525.525,0,0,1,.289-.086c.217,0,.316.13.316.264a.273.273,0,0,1-.2.259v0a.287.287,0,0,1,.246.283c0,.177-.137.332-.4.332a.558.558,0,0,1-.287-.075Z" transform="translate(-2595.437 -3425.508)" fill="#bac2c6"/>
            <path id="Trazado_126210" data-name="Trazado 126210" d="M2597.275,3426.068c0,.375-.14.583-.385.583-.216,0-.362-.2-.365-.568s.159-.575.385-.575S2597.275,3425.715,2597.275,3426.068Zm-.6.017c0,.287.089.45.224.45.153,0,.226-.179.226-.461s-.07-.451-.224-.451C2596.77,3425.623,2596.675,3425.784,2596.675,3426.085Z" transform="translate(-2595.663 -3425.508)" fill="#bac2c6"/>
          </g>
          <g id="Grupo_57319" data-name="Grupo 57319" transform="translate(0 20.355)">
            <path id="Trazado_126211" data-name="Trazado 126211" d="M2595.892,3419v-.3h-.513v-.1l.493-.706h.162v.687h.155v.117h-.155v.3Zm0-.418v-.368c0-.058,0-.116.006-.173h-.006c-.034.064-.061.112-.092.163l-.27.375v0Z" transform="translate(-2595.379 -3417.879)" fill="#bac2c6"/>
            <path id="Trazado_126212" data-name="Trazado 126212" d="M2597.275,3418.433c0,.375-.14.583-.385.583-.216,0-.362-.2-.365-.568s.159-.574.385-.574S2597.275,3418.082,2597.275,3418.433Zm-.6.016c0,.287.089.45.224.45.153,0,.226-.178.226-.461s-.07-.45-.224-.45C2596.77,3417.989,2596.675,3418.148,2596.675,3418.449Z" transform="translate(-2595.617 -3417.874)" fill="#bac2c6"/>
          </g>
          <g id="Grupo_57320" data-name="Grupo 57320" transform="translate(0.046 14.309)">
            <path id="Trazado_126213" data-name="Trazado 126213" d="M2596.1,3410.388h-.421l-.043.284a.481.481,0,0,1,.09-.008.469.469,0,0,1,.238.06.316.316,0,0,1,.158.285.383.383,0,0,1-.411.376.541.541,0,0,1-.275-.068l.037-.115a.489.489,0,0,0,.237.063.244.244,0,0,0,.262-.24c0-.143-.1-.245-.318-.245a1.117,1.117,0,0,0-.153.012l.071-.53h.528Z" transform="translate(-2595.437 -3410.244)" fill="#bac2c6"/>
            <path id="Trazado_126214" data-name="Trazado 126214" d="M2597.275,3410.8c0,.375-.14.583-.385.583-.216,0-.362-.2-.365-.567s.159-.574.385-.574S2597.275,3410.446,2597.275,3410.8Zm-.6.017c0,.287.089.45.224.45.153,0,.226-.178.226-.46s-.07-.451-.224-.451C2596.77,3410.354,2596.675,3410.514,2596.675,3410.815Z" transform="translate(-2595.663 -3410.239)" fill="#bac2c6"/>
          </g>
          <g id="Grupo_57321" data-name="Grupo 57321" transform="translate(0.032 8.262)">
            <path id="Trazado_126215" data-name="Trazado 126215" d="M2596.069,3402.728a.544.544,0,0,0-.113.007.449.449,0,0,0-.384.393h0a.337.337,0,0,1,.6.229.369.369,0,0,1-.368.389c-.236,0-.39-.183-.39-.471a.7.7,0,0,1,.187-.5.606.606,0,0,1,.353-.163.764.764,0,0,1,.109-.008Zm-.042.638a.224.224,0,0,0-.228-.253.247.247,0,0,0-.214.136.123.123,0,0,0-.017.066c0,.181.087.316.242.316C2595.94,3403.63,2596.027,3403.523,2596.027,3403.365Z" transform="translate(-2595.42 -3402.604)" fill="#bac2c6"/>
            <path id="Trazado_126216" data-name="Trazado 126216" d="M2597.275,3403.163c0,.376-.14.583-.385.583-.216,0-.362-.2-.365-.567s.159-.574.385-.574S2597.275,3402.811,2597.275,3403.163Zm-.6.017c0,.288.089.45.224.45.153,0,.226-.178.226-.46s-.07-.451-.224-.451C2596.77,3402.719,2596.675,3402.879,2596.675,3403.179Z" transform="translate(-2595.65 -3402.604)" fill="#bac2c6"/>
          </g>
          <g id="Grupo_57322" data-name="Grupo 57322" transform="translate(0.071 2.216)">
            <path id="Trazado_126217" data-name="Trazado 126217" d="M2596.166,3394.993v.1l-.481,1.005h-.154l.479-.977v0h-.541v-.123Z" transform="translate(-2595.469 -3394.974)" fill="#bac2c6"/>
            <path id="Trazado_126218" data-name="Trazado 126218" d="M2597.275,3395.528c0,.375-.14.583-.385.583-.216,0-.362-.2-.365-.568s.159-.574.385-.574S2597.275,3395.176,2597.275,3395.528Zm-.6.016c0,.288.089.451.224.451.153,0,.226-.178.226-.46s-.07-.451-.224-.451C2596.77,3395.084,2596.675,3395.244,2596.675,3395.544Z" transform="translate(-2595.689 -3394.969)" fill="#bac2c6"/>
          </g>
          <g id="Grupo_57323" data-name="Grupo 57323" transform="translate(8.006 43.753)">
            <path id="Trazado_126219" data-name="Trazado 126219" d="M2605.488,3448.542v-.092l.117-.114c.282-.269.409-.411.411-.577a.2.2,0,0,0-.219-.216.369.369,0,0,0-.234.094l-.049-.105a.484.484,0,0,1,.313-.113.311.311,0,0,1,.338.322c0,.2-.147.369-.38.594l-.089.082v0h.5v.124Z" transform="translate(-2605.488 -3447.419)" fill="#bac2c6"/>
            <path id="Trazado_126220" data-name="Trazado 126220" d="M2607.32,3447.979c0,.375-.139.583-.384.583-.216,0-.363-.2-.366-.568s.16-.575.384-.575S2607.32,3447.626,2607.32,3447.979Zm-.6.017c0,.288.089.451.224.451.154,0,.226-.179.226-.461s-.07-.45-.224-.45C2606.815,3447.535,2606.72,3447.694,2606.72,3448Z" transform="translate(-2605.714 -3447.419)" fill="#bac2c6"/>
            <path id="Trazado_126221" data-name="Trazado 126221" d="M2608.042,3447.582h0l-.192.1-.028-.114.241-.129h.126v1.1h-.144Z" transform="translate(-2605.973 -3447.424)" fill="#bac2c6"/>
            <path id="Trazado_126222" data-name="Trazado 126222" d="M2609.515,3447.443v.1l-.48,1.007h-.155l.479-.977v0h-.541v-.125Z" transform="translate(-2606.181 -3447.424)" fill="#bac2c6"/>
          </g>
          <g id="Grupo_57324" data-name="Grupo 57324" transform="translate(20.793 43.753)">
            <path id="Trazado_126223" data-name="Trazado 126223" d="M2621.634,3448.542v-.092l.117-.114c.282-.269.409-.411.412-.577a.2.2,0,0,0-.219-.216.371.371,0,0,0-.235.094l-.047-.105a.48.48,0,0,1,.312-.113.311.311,0,0,1,.338.322c0,.2-.147.369-.38.594l-.088.082v0h.5v.124Z" transform="translate(-2621.634 -3447.419)" fill="#bac2c6"/>
            <path id="Trazado_126224" data-name="Trazado 126224" d="M2623.466,3447.979c0,.375-.14.583-.384.583-.216,0-.362-.2-.366-.568s.16-.575.384-.575S2623.466,3447.626,2623.466,3447.979Zm-.6.017c0,.288.089.451.224.451.154,0,.226-.179.226-.461s-.07-.45-.224-.45C2622.96,3447.535,2622.865,3447.694,2622.865,3448Z" transform="translate(-2621.859 -3447.419)" fill="#bac2c6"/>
            <path id="Trazado_126225" data-name="Trazado 126225" d="M2624.188,3447.582h0l-.193.1-.029-.114.242-.129h.127v1.1h-.144Z" transform="translate(-2622.118 -3447.424)" fill="#bac2c6"/>
            <path id="Trazado_126226" data-name="Trazado 126226" d="M2624.922,3448.262a.315.315,0,0,1,.219-.3v-.005a.274.274,0,0,1-.175-.248.31.31,0,0,1,.341-.295.285.285,0,0,1,.322.272.281.281,0,0,1-.182.259v0a.307.307,0,0,1,.223.286.342.342,0,0,1-.376.322C2625.06,3448.562,2624.922,3448.423,2624.922,3448.262Zm.595-.008c0-.134-.094-.2-.243-.241a.24.24,0,0,0-.2.228.2.2,0,0,0,.221.211A.2.2,0,0,0,2625.517,3448.255Zm-.412-.552c0,.111.083.169.211.2a.216.216,0,0,0,.168-.2.171.171,0,0,0-.187-.179A.176.176,0,0,0,2625.1,3447.7Z" transform="translate(-2622.318 -3447.419)" fill="#bac2c6"/>
          </g>
          <g id="Grupo_57325" data-name="Grupo 57325" transform="translate(33.579 43.753)">
            <path id="Trazado_126227" data-name="Trazado 126227" d="M2637.779,3448.542v-.092l.117-.114c.282-.269.409-.411.412-.577a.2.2,0,0,0-.22-.216.37.37,0,0,0-.234.094l-.047-.105a.482.482,0,0,1,.313-.113.31.31,0,0,1,.337.322c0,.2-.147.369-.38.594l-.088.082v0h.5v.124Z" transform="translate(-2637.779 -3447.419)" fill="#bac2c6"/>
            <path id="Trazado_126228" data-name="Trazado 126228" d="M2639.611,3447.979c0,.375-.14.583-.385.583-.216,0-.362-.2-.366-.568s.16-.575.385-.575S2639.611,3447.626,2639.611,3447.979Zm-.6.017c0,.288.089.451.225.451.153,0,.226-.179.226-.461s-.07-.45-.224-.45C2639.105,3447.535,2639.01,3447.694,2639.01,3448Z" transform="translate(-2638.004 -3447.419)" fill="#bac2c6"/>
            <path id="Trazado_126229" data-name="Trazado 126229" d="M2640.333,3447.582h0l-.192.1-.029-.114.242-.129h.127v1.1h-.145Z" transform="translate(-2638.264 -3447.424)" fill="#bac2c6"/>
            <path id="Trazado_126230" data-name="Trazado 126230" d="M2641.168,3448.437a.665.665,0,0,0,.121-.005.416.416,0,0,0,.231-.107.483.483,0,0,0,.146-.293h-.006a.324.324,0,0,1-.26.118.32.32,0,0,1-.326-.338.379.379,0,0,1,.377-.393c.226,0,.366.184.366.466a.7.7,0,0,1-.19.519.556.556,0,0,1-.322.148.669.669,0,0,1-.138.008Zm.054-.635a.213.213,0,0,0,.212.234.247.247,0,0,0,.218-.115.1.1,0,0,0,.014-.054c0-.188-.07-.334-.226-.334C2641.313,3447.532,2641.223,3447.645,2641.223,3447.8Z" transform="translate(-2638.465 -3447.419)" fill="#bac2c6"/>
          </g>
          <rect id="Rectángulo_7018" data-name="Rectángulo 7018" width="37.602" height="6.09" transform="translate(4.049 6.089)" fill="#fff" opacity="0.34"/>
          <rect id="Rectángulo_7019" data-name="Rectángulo 7019" width="37.602" height="6.09" transform="translate(4.049 18.269)" fill="#fff" opacity="0.34"/>
          <rect id="Rectángulo_7020" data-name="Rectángulo 7020" width="37.602" height="6.09" transform="translate(4.049 30.448)" fill="#fff" opacity="0.34"/>
        </g>
        <g id="Grupo_57327" data-name="Grupo 57327" transform="translate(4.049 6.089)">
          <rect id="Rectángulo_7021" data-name="Rectángulo 7021" width="16.897" height="0.972" fill="#ffc40e"/>
          <rect id="Rectángulo_7022" data-name="Rectángulo 7022" width="29.026" height="0.972" transform="translate(0 2.559)" fill="#165670"/>
          <rect id="Rectángulo_7023" data-name="Rectángulo 7023" width="10.345" height="0.972" transform="translate(0 5.117)" fill="#3bb6d5"/>
          <rect id="Rectángulo_7024" data-name="Rectángulo 7024" width="30.501" height="0.972" transform="translate(0 12.179)" fill="#ffc40e"/>
          <rect id="Rectángulo_7025" data-name="Rectángulo 7025" width="12.534" height="0.973" transform="translate(0 14.738)" fill="#165670"/>
          <rect id="Rectángulo_7026" data-name="Rectángulo 7026" width="25.068" height="0.972" transform="translate(0 17.297)" fill="#3bb6d5"/>
          <rect id="Rectángulo_7027" data-name="Rectángulo 7027" width="12.534" height="0.972" transform="translate(0 24.438)" fill="#ffc40e"/>
          <rect id="Rectángulo_7028" data-name="Rectángulo 7028" width="25.068" height="0.972" transform="translate(0 26.996)" fill="#165670"/>
          <rect id="Rectángulo_7029" data-name="Rectángulo 7029" width="20.69" height="0.972" transform="translate(0 29.555)" fill="#3bb6d5"/>
        </g>
      </g>
    </g>
    <g id="Grupo_57330" data-name="Grupo 57330" transform="translate(119.654 11.289)">
      <rect id="Rectángulo_7030" data-name="Rectángulo 7030" width="1.286" height="1.286" fill="#cfd9e8"/>
      <rect id="Rectángulo_7031" data-name="Rectángulo 7031" width="1.286" height="1.286" transform="translate(3.644)" fill="#cfd9e8"/>
      <rect id="Rectángulo_7032" data-name="Rectángulo 7032" width="1.286" height="1.286" transform="translate(7.287)" fill="#cfd9e8"/>
      <rect id="Rectángulo_7033" data-name="Rectángulo 7033" width="1.286" height="1.286" transform="translate(10.932)" fill="#fff"/>
      <rect id="Rectángulo_7034" data-name="Rectángulo 7034" width="1.286" height="1.286" transform="translate(14.575)" fill="#fff"/>
      <rect id="Rectángulo_7035" data-name="Rectángulo 7035" width="1.286" height="1.286" transform="translate(18.219)" fill="#cfd9e8"/>
      <rect id="Rectángulo_7036" data-name="Rectángulo 7036" width="1.286" height="1.286" transform="translate(21.863)" fill="#cfd9e8"/>
      <rect id="Rectángulo_7037" data-name="Rectángulo 7037" width="1.286" height="1.286" transform="translate(0 3.216)" fill="#fff"/>
      <rect id="Rectángulo_7038" data-name="Rectángulo 7038" width="1.286" height="1.286" transform="translate(3.644 3.216)" fill="#fff"/>
      <rect id="Rectángulo_7039" data-name="Rectángulo 7039" width="1.286" height="1.286" transform="translate(7.287 3.216)" fill="#fff"/>
      <rect id="Rectángulo_7040" data-name="Rectángulo 7040" width="1.286" height="1.286" transform="translate(10.932 3.216)" fill="#3bb6d5"/>
      <rect id="Rectángulo_7041" data-name="Rectángulo 7041" width="1.286" height="1.286" transform="translate(14.575 3.216)" fill="#fff"/>
      <rect id="Rectángulo_7042" data-name="Rectángulo 7042" width="1.286" height="1.286" transform="translate(18.219 3.216)" fill="#cfd9e8"/>
      <rect id="Rectángulo_7043" data-name="Rectángulo 7043" width="1.286" height="1.286" transform="translate(21.863 3.216)" fill="#cfd9e8"/>
      <rect id="Rectángulo_7044" data-name="Rectángulo 7044" width="1.286" height="1.286" transform="translate(0 6.431)" fill="#fff"/>
      <rect id="Rectángulo_7045" data-name="Rectángulo 7045" width="1.286" height="1.286" transform="translate(3.644 6.431)" fill="#fff"/>
      <rect id="Rectángulo_7046" data-name="Rectángulo 7046" width="1.286" height="1.286" transform="translate(7.287 6.431)" fill="#fff"/>
      <rect id="Rectángulo_7047" data-name="Rectángulo 7047" width="1.286" height="1.286" transform="translate(10.932 6.431)" fill="#fff"/>
      <rect id="Rectángulo_7048" data-name="Rectángulo 7048" width="1.286" height="1.286" transform="translate(14.575 6.431)" fill="#165670"/>
      <rect id="Rectángulo_7049" data-name="Rectángulo 7049" width="1.286" height="1.286" transform="translate(18.219 6.431)" fill="#cfd9e8"/>
      <rect id="Rectángulo_7050" data-name="Rectángulo 7050" width="1.286" height="1.286" transform="translate(21.863 6.431)" fill="#cfd9e8"/>
      <rect id="Rectángulo_7051" data-name="Rectángulo 7051" width="1.286" height="1.286" transform="translate(0 9.645)" fill="#fff"/>
      <rect id="Rectángulo_7052" data-name="Rectángulo 7052" width="1.286" height="1.286" transform="translate(3.644 9.645)" fill="#3bb6d5"/>
      <rect id="Rectángulo_7053" data-name="Rectángulo 7053" width="1.286" height="1.286" transform="translate(7.287 9.645)" fill="#3bb6d5"/>
      <rect id="Rectángulo_7054" data-name="Rectángulo 7054" width="1.286" height="1.286" transform="translate(10.932 9.645)" fill="#165670"/>
      <rect id="Rectángulo_7055" data-name="Rectángulo 7055" width="1.286" height="1.286" transform="translate(14.575 9.645)" fill="#fff"/>
      <rect id="Rectángulo_7056" data-name="Rectángulo 7056" width="1.286" height="1.286" transform="translate(18.219 9.645)" fill="#cfd9e8"/>
      <rect id="Rectángulo_7057" data-name="Rectángulo 7057" width="1.286" height="1.286" transform="translate(21.863 9.645)" fill="#cfd9e8"/>
      <rect id="Rectángulo_7058" data-name="Rectángulo 7058" width="1.286" height="1.286" transform="translate(0 12.861)" fill="#fff"/>
      <rect id="Rectángulo_7059" data-name="Rectángulo 7059" width="1.286" height="1.286" transform="translate(3.644 12.861)" fill="#fff"/>
      <rect id="Rectángulo_7060" data-name="Rectángulo 7060" width="1.286" height="1.286" transform="translate(7.287 12.861)" fill="#fff"/>
      <rect id="Rectángulo_7061" data-name="Rectángulo 7061" width="1.286" height="1.286" transform="translate(10.932 12.861)" fill="#fff"/>
      <rect id="Rectángulo_7062" data-name="Rectángulo 7062" width="1.286" height="1.286" transform="translate(14.575 12.861)" fill="#fff"/>
      <rect id="Rectángulo_7063" data-name="Rectángulo 7063" width="1.286" height="1.286" transform="translate(18.219 12.861)" fill="#cfd9e8"/>
      <rect id="Rectángulo_7064" data-name="Rectángulo 7064" width="1.286" height="1.286" transform="translate(21.863 12.861)" fill="#cfd9e8"/>
      <rect id="Rectángulo_7065" data-name="Rectángulo 7065" width="1.286" height="1.286" transform="translate(0 16.076)" fill="#fece40"/>
      <rect id="Rectángulo_7066" data-name="Rectángulo 7066" width="1.286" height="1.286" transform="translate(3.644 16.076)" fill="#fff"/>
      <rect id="Rectángulo_7067" data-name="Rectángulo 7067" width="1.286" height="1.286" transform="translate(7.287 16.076)" fill="#fff"/>
      <rect id="Rectángulo_7068" data-name="Rectángulo 7068" width="1.286" height="1.286" transform="translate(10.932 16.076)" fill="#fff"/>
      <rect id="Rectángulo_7069" data-name="Rectángulo 7069" width="1.286" height="1.286" transform="translate(14.575 16.076)" fill="#fff"/>
      <rect id="Rectángulo_7070" data-name="Rectángulo 7070" width="1.286" height="1.286" transform="translate(18.219 16.076)" fill="#cfd9e8"/>
      <rect id="Rectángulo_7071" data-name="Rectángulo 7071" width="1.286" height="1.286" transform="translate(21.863 16.076)" fill="#cfd9e8"/>
    </g>
    <g id="Grupo_57346" data-name="Grupo 57346" transform="translate(56.315 9.384)">
      <g id="Grupo_57345" data-name="Grupo 57345">
        <line id="Línea_156" data-name="Línea 156" y2="23.329" transform="translate(40.341)" fill="none" stroke="#bac2c6" stroke-miterlimit="10" stroke-width="0.063"/>
        <line id="Línea_157" data-name="Línea 157" y2="23.329" transform="translate(30.835)" fill="none" stroke="#bac2c6" stroke-miterlimit="10" stroke-width="0.063"/>
        <line id="Línea_158" data-name="Línea 158" y2="23.329" transform="translate(21.329)" fill="none" stroke="#bac2c6" stroke-miterlimit="10" stroke-width="0.063"/>
        <line id="Línea_159" data-name="Línea 159" y2="23.329" transform="translate(11.822)" fill="none" stroke="#bac2c6" stroke-miterlimit="10" stroke-width="0.063"/>
        <g id="Grupo_57343" data-name="Grupo 57343">
          <rect id="Rectángulo_7072" data-name="Rectángulo 7072" width="19.013" height="23.329" transform="translate(21.329)" fill="#fff" opacity="0.34"/>
          <g id="Grupo_57342" data-name="Grupo 57342">
            <rect id="Rectángulo_7073" data-name="Rectángulo 7073" width="47.532" height="23.329" transform="translate(2.316)" fill="none" stroke="#bac2c6" stroke-miterlimit="10" stroke-width="0.063"/>
            <line id="Línea_160" data-name="Línea 160" x1="47.532" transform="translate(2.316 19.441)" fill="none" stroke="#bac2c6" stroke-miterlimit="10" stroke-width="0.063"/>
            <line id="Línea_161" data-name="Línea 161" x2="47.532" transform="translate(2.316 15.553)" fill="none" stroke="#bac2c6" stroke-miterlimit="10" stroke-width="0.063"/>
            <line id="Línea_162" data-name="Línea 162" x2="47.532" transform="translate(2.316 11.665)" fill="none" stroke="#bac2c6" stroke-miterlimit="10" stroke-width="0.063"/>
            <line id="Línea_163" data-name="Línea 163" x2="47.532" transform="translate(2.316 7.776)" fill="none" stroke="#bac2c6" stroke-miterlimit="10" stroke-width="0.063"/>
            <line id="Línea_164" data-name="Línea 164" x2="47.532" transform="translate(2.316 3.888)" fill="none" stroke="#bac2c6" stroke-miterlimit="10" stroke-width="0.063"/>
            <g id="Grupo_57331" data-name="Grupo 57331" transform="translate(0.831 22.603)">
              <path id="Trazado_126231" data-name="Trazado 126231" d="M2662.415,3421.034c0,.344-.127.534-.352.534-.2,0-.331-.186-.334-.52s.147-.526.352-.526S2662.415,3420.713,2662.415,3421.034Zm-.549.016c0,.263.081.412.205.412.14,0,.207-.163.207-.421s-.063-.412-.205-.412C2661.953,3420.629,2661.866,3420.775,2661.866,3421.05Z" transform="translate(-2661.729 -3420.523)" fill="#bac2c6"/>
            </g>
            <g id="Grupo_57332" data-name="Grupo 57332" transform="translate(0.139 18.702)">
              <path id="Trazado_126232" data-name="Trazado 126232" d="M2661.06,3415.747h0l-.175.095-.027-.1.221-.118h.116v1.01h-.132Z" transform="translate(-2660.855 -3415.603)" fill="#bac2c6"/>
              <path id="Trazado_126233" data-name="Trazado 126233" d="M2662.415,3416.109c0,.344-.127.534-.352.534-.2,0-.331-.185-.334-.52s.147-.525.352-.525S2662.415,3415.788,2662.415,3416.109Zm-.549.016c0,.263.081.412.205.412.14,0,.207-.163.207-.421s-.063-.412-.205-.412C2661.953,3415.7,2661.866,3415.85,2661.866,3416.125Z" transform="translate(-2661.036 -3415.598)" fill="#bac2c6"/>
            </g>
            <g id="Grupo_57333" data-name="Grupo 57333" transform="translate(0.047 14.802)">
              <path id="Trazado_126234" data-name="Trazado 126234" d="M2660.739,3411.7v-.083l.108-.1c.258-.245.375-.375.376-.528a.181.181,0,0,0-.2-.2.344.344,0,0,0-.214.086l-.044-.1a.443.443,0,0,1,.286-.1.284.284,0,0,1,.31.294c0,.187-.135.337-.348.544l-.081.074v0h.454v.113Z" transform="translate(-2660.739 -3410.673)" fill="#bac2c6"/>
              <path id="Trazado_126235" data-name="Trazado 126235" d="M2662.415,3411.185c0,.343-.127.534-.352.534-.2,0-.331-.186-.334-.52s.147-.526.352-.526S2662.415,3410.863,2662.415,3411.185Zm-.549.016c0,.263.081.411.205.411.14,0,.207-.163.207-.421s-.063-.412-.205-.412C2661.953,3410.779,2661.866,3410.925,2661.866,3411.2Z" transform="translate(-2660.945 -3410.673)" fill="#bac2c6"/>
            </g>
            <g id="Grupo_57334" data-name="Grupo 57334" transform="translate(0.042 10.902)">
              <path id="Trazado_126236" data-name="Trazado 126236" d="M2660.771,3406.619a.459.459,0,0,0,.223.063c.175,0,.23-.111.229-.2,0-.142-.129-.2-.261-.2h-.076v-.1h.076c.1,0,.226-.052.226-.171,0-.081-.052-.153-.177-.153a.365.365,0,0,0-.2.067l-.036-.1a.484.484,0,0,1,.264-.077c.2,0,.289.118.289.241a.251.251,0,0,1-.187.239v0a.264.264,0,0,1,.226.26c0,.162-.126.3-.369.3a.52.52,0,0,1-.263-.068Z" transform="translate(-2660.733 -3405.748)" fill="#bac2c6"/>
              <path id="Trazado_126237" data-name="Trazado 126237" d="M2662.415,3406.259c0,.344-.127.533-.352.533-.2,0-.331-.184-.334-.518s.147-.526.352-.526S2662.415,3405.937,2662.415,3406.259Zm-.549.015c0,.263.081.412.205.412.14,0,.207-.163.207-.421s-.063-.413-.205-.413C2661.953,3405.853,2661.866,3406,2661.866,3406.275Z" transform="translate(-2660.94 -3405.748)" fill="#bac2c6"/>
            </g>
            <g id="Grupo_57335" data-name="Grupo 57335" transform="translate(0 7.001)">
              <path id="Trazado_126238" data-name="Trazado 126238" d="M2661.149,3401.856v-.276h-.47v-.09l.452-.645h.147v.628h.142v.107h-.142v.276Zm0-.383v-.337c0-.053,0-.107,0-.158h0c-.031.058-.055.1-.084.149l-.247.344v0Z" transform="translate(-2660.68 -3400.828)" fill="#bac2c6"/>
              <path id="Trazado_126239" data-name="Trazado 126239" d="M2662.415,3401.334c0,.344-.127.534-.352.534-.2,0-.331-.186-.334-.52s.147-.526.352-.526S2662.415,3401.013,2662.415,3401.334Zm-.549.016c0,.263.081.412.205.412.14,0,.207-.163.207-.422s-.063-.412-.205-.412C2661.953,3400.928,2661.866,3401.075,2661.866,3401.35Z" transform="translate(-2660.898 -3400.823)" fill="#bac2c6"/>
            </g>
            <g id="Grupo_57336" data-name="Grupo 57336" transform="translate(0.042 3.101)">
              <path id="Trazado_126240" data-name="Trazado 126240" d="M2661.341,3396.034h-.386l-.039.26a.442.442,0,0,1,.082-.007.425.425,0,0,1,.217.055.287.287,0,0,1,.145.26.351.351,0,0,1-.377.345.5.5,0,0,1-.252-.062l.035-.1a.449.449,0,0,0,.216.056.223.223,0,0,0,.239-.219c0-.131-.089-.224-.291-.224a1,1,0,0,0-.14.011l.066-.486h.483Z" transform="translate(-2660.733 -3395.902)" fill="#bac2c6"/>
              <path id="Trazado_126241" data-name="Trazado 126241" d="M2662.415,3396.41c0,.344-.127.533-.352.533-.2,0-.331-.185-.334-.519s.147-.526.352-.526S2662.415,3396.087,2662.415,3396.41Zm-.549.015c0,.263.081.412.205.412.14,0,.207-.163.207-.421s-.063-.413-.205-.413C2661.953,3396,2661.866,3396.15,2661.866,3396.425Z" transform="translate(-2660.94 -3395.898)" fill="#bac2c6"/>
            </g>
            <g id="Grupo_57337" data-name="Grupo 57337" transform="translate(6.727 24.495)">
              <path id="Trazado_126242" data-name="Trazado 126242" d="M2669.366,3423.031h0l-.165.09-.025-.1.207-.111h.109v.946h-.124Z" transform="translate(-2669.174 -3422.912)" fill="#bac2c6"/>
            </g>
            <g id="Grupo_57338" data-name="Grupo 57338" transform="translate(16.149 24.478)">
              <path id="Trazado_126243" data-name="Trazado 126243" d="M2681.071,3423.854v-.078l.1-.1c.241-.23.351-.353.353-.5a.169.169,0,0,0-.188-.185.324.324,0,0,0-.2.08l-.041-.09a.412.412,0,0,1,.267-.1.267.267,0,0,1,.29.276c0,.175-.127.315-.326.508l-.076.07v0h.426v.106Z" transform="translate(-2681.071 -3422.891)" fill="#bac2c6"/>
            </g>
            <g id="Grupo_57339" data-name="Grupo 57339" transform="translate(25.652 24.478)">
              <path id="Trazado_126244" data-name="Trazado 126244" d="M2693.105,3423.708a.437.437,0,0,0,.209.06c.165,0,.216-.1.215-.184,0-.133-.121-.189-.244-.189h-.072v-.1h.072c.092,0,.21-.048.21-.161,0-.075-.047-.142-.166-.142a.347.347,0,0,0-.189.063l-.034-.093a.447.447,0,0,1,.248-.073c.186,0,.271.111.271.227a.234.234,0,0,1-.175.222v0a.246.246,0,0,1,.211.243c0,.151-.118.284-.345.284a.491.491,0,0,1-.247-.064Z" transform="translate(-2693.071 -3422.891)" fill="#bac2c6"/>
            </g>
            <g id="Grupo_57340" data-name="Grupo 57340" transform="translate(35.121 24.495)">
              <path id="Trazado_126245" data-name="Trazado 126245" d="M2705.468,3423.858v-.258h-.44v-.084l.423-.6h.137v.588h.134v.1h-.134v.258Zm0-.358v-.316c0-.05,0-.1,0-.148h0c-.03.055-.053.1-.079.14l-.231.322v0Z" transform="translate(-2705.027 -3422.912)" fill="#bac2c6"/>
            </g>
            <g id="Grupo_57341" data-name="Grupo 57341" transform="translate(44.668 24.495)">
              <path id="Trazado_126246" data-name="Trazado 126246" d="M2717.652,3423.02h-.361l-.036.243a.5.5,0,0,1,.077-.005.4.4,0,0,1,.2.051.27.27,0,0,1,.135.243.329.329,0,0,1-.352.324.459.459,0,0,1-.236-.059l.031-.1a.428.428,0,0,0,.2.052.209.209,0,0,0,.224-.205c0-.123-.083-.21-.272-.21a.92.92,0,0,0-.131.01l.061-.454h.453Z" transform="translate(-2717.083 -3422.912)" fill="#bac2c6"/>
            </g>
          </g>
        </g>
        <g id="Grupo_57344" data-name="Grupo 57344" transform="translate(2.316)">
          <path id="Trazado_126247" data-name="Trazado 126247" d="M2663.6,3417.517l9.506-3.888,9.507-4.161,9.506-3.842h9.594l9.418-3.811" transform="translate(-2663.604 -3394.028)" fill="none" stroke="#ffc40e" stroke-miterlimit="10" stroke-width="0.361"/>
          <path id="Trazado_126248" data-name="Trazado 126248" d="M2663.6,3411.423l9.506-3.888,9.507,3.888,9.506-3.611,9.507-11.7,9.506-4.129" transform="translate(-2663.604 -3391.982)" fill="none" stroke="#3bb6d5" stroke-miterlimit="10" stroke-width="0.361"/>
          <path id="Trazado_126249" data-name="Trazado 126249" d="M2712.02,3397.053a.544.544,0,1,1-.544-.544A.544.544,0,0,1,2712.02,3397.053Z" transform="translate(-2673.451 -3392.924)" fill="#fff" stroke="#3bb6d5" stroke-miterlimit="10" stroke-width="0.361"/>
          <path id="Trazado_126250" data-name="Trazado 126250" d="M2700.016,3411.829a.544.544,0,1,1-.544-.544A.544.544,0,0,1,2700.016,3411.829Z" transform="translate(-2670.953 -3395.998)" fill="#fff" stroke="#3bb6d5" stroke-miterlimit="10" stroke-width="0.361"/>
          <path id="Trazado_126251" data-name="Trazado 126251" d="M2688.013,3416.388a.544.544,0,1,1-.544-.544A.545.545,0,0,1,2688.013,3416.388Z" transform="translate(-2668.456 -3396.947)" fill="#fff" stroke="#3bb6d5" stroke-miterlimit="10" stroke-width="0.361"/>
          <path id="Trazado_126252" data-name="Trazado 126252" d="M2676.009,3411.478a.544.544,0,1,1-.544-.544A.545.545,0,0,1,2676.009,3411.478Z" transform="translate(-2665.959 -3395.925)" fill="#fff" stroke="#3bb6d5" stroke-miterlimit="10" stroke-width="0.361"/>
          <path id="Trazado_126253" data-name="Trazado 126253" d="M2699.74,3406.545a.544.544,0,1,1-.544-.544A.544.544,0,0,1,2699.74,3406.545Z" transform="translate(-2670.896 -3394.9)" fill="#fff" stroke="#ffc40e" stroke-miterlimit="10" stroke-width="0.361"/>
          <path id="Trazado_126254" data-name="Trazado 126254" d="M2712.01,3406.545a.544.544,0,1,1-.544-.544A.544.544,0,0,1,2712.01,3406.545Z" transform="translate(-2673.448 -3394.9)" fill="#fff" stroke="#ffc40e" stroke-miterlimit="10" stroke-width="0.361"/>
        </g>
      </g>
    </g>
  </g>
  <g id="Grupo_57349" data-name="Grupo 57349" transform="translate(207.109 33.517)">
    <g id="Grupo_57348" data-name="Grupo 57348">
      <path id="Trazado_126255" data-name="Trazado 126255" d="M2719.947,3418.242l.38-4.878a3.687,3.687,0,0,1,3.093-1.475c2.251.176,3.885,2.752,3.651,5.754s-2.247,5.291-4.5,5.117a4.133,4.133,0,0,1-3.387-3.219A1.763,1.763,0,0,0,2719.947,3418.242Z" transform="translate(-2707.891 -3411.88)" fill="#163f59"/>
      <path id="Trazado_126256" data-name="Trazado 126256" d="M2729.549,3420.577c.136.768-.629,1.543-1.711,1.736l-2.465.438c-1.082.192-2.067-.274-2.2-1.041l-1.24-6.992c-.137-.768.629-1.543,1.709-1.736l2.467-.437c1.08-.193,2.066.274,2.2,1.04Z" transform="translate(-2708.459 -3412.01)" fill="#163f59"/>
      <path id="Trazado_126257" data-name="Trazado 126257" d="M2723.213,3425.741c-1.43.735-2.18.584-1.024.985.584.626,7.438-.751,7.757-1.634.053-.147-2.78-.376-2.8-.481a8.892,8.892,0,0,1-.135-3.694.208.208,0,0,0-.2-.182c-.523.049-1.05.088-1.575.139-.086.01-1.1.3-.84.784C2724.6,3423.006,2724.727,3424.965,2723.213,3425.741Z" transform="translate(-2708.399 -3413.722)" fill="#e9d6b8"/>
      <path id="Trazado_126258" data-name="Trazado 126258" d="M2722.521,3420.4c-.028-.047-.054-.095-.081-.145-.007-.015-.015-.028-.023-.044-.032-.059-.062-.122-.093-.187l-.023-.052c-.021-.047-.043-.1-.064-.146l-.034-.083-.05-.126c-.011-.03-.022-.059-.032-.089-.021-.056-.039-.113-.058-.172-.014-.042-.027-.086-.041-.132s-.025-.079-.037-.119-.022-.081-.033-.123-.019-.071-.027-.108l-.023-.085v0a13.2,13.2,0,0,1,.22-4.019.36.36,0,0,1,.381-.248c1.223.056,4.915-.36,4.181,3.077v0c0,.009-.036.3-.055.438l-.007.035c-.02.136-.044.27-.071.4l-.005.025c-.028.134-.058.264-.091.391l0,.013c-.427,1.625-1.285,2.737-2.272,2.734a1.941,1.941,0,0,1-1.529-1.023h0l-.01-.017c-.031-.048-.063-.1-.094-.15A.506.506,0,0,1,2722.521,3420.4Z" transform="translate(-2708.442 -3412.43)" fill="#e9d6b8"/>
      <path id="Trazado_126259" data-name="Trazado 126259" d="M2705.638,3426.68s-.25.14-.369-.049a3.961,3.961,0,0,1-.336-1.308c-.033-.293.05-1.7.05-1.7a1.64,1.64,0,0,1,.28.984A7.1,7.1,0,0,0,2705.638,3426.68Z" transform="translate(-2704.925 -3414.324)" fill="#e2c59c"/>
      <path id="Trazado_126260" data-name="Trazado 126260" d="M2705.639,3426.507a2.066,2.066,0,0,1,.09-1.762,1.206,1.206,0,0,0,.015-1.043,8.677,8.677,0,0,0-.5,1.469,2.605,2.605,0,0,0-.121.932C2705.215,3427.022,2706.321,3427.689,2705.639,3426.507Z" transform="translate(-2704.964 -3414.339)" fill="#e2c59c"/>
      <path id="Trazado_126261" data-name="Trazado 126261" d="M2723.532,3525.958a11.381,11.381,0,0,1,2.075-.527c.892-.17,1.568-.165,1.89-.5.528-.552.19-2.3.449-2.236,1.261.29,1.734,3.287,1,3.655s-4.889.237-5.23.21S2723.425,3525.877,2723.532,3525.958Z" transform="translate(-2708.779 -3434.936)" fill="#e9d6b8"/>
      <path id="Trazado_126262" data-name="Trazado 126262" d="M2734.2,3483.677q-.263-1.115-.535-2.195c-.606-1.061-1.132-1.624-1.532-1.556-1.509.263-2.851,6.159,1.965,20.421.242.717,3.418,13.112,3.466,12.815C2738.164,3509.483,2736.8,3494.692,2734.2,3483.677Z" transform="translate(-2710.295 -3426.036)" fill="#e9d6b8"/>
      <path id="Trazado_126263" data-name="Trazado 126263" d="M2732.07,3457.326c-1.2-.2-1.215.5-2.043,2.239a25.532,25.532,0,0,0-1.786,13.791c.816,6.263,2.536,11.718,4.554,15.137a41.4,41.4,0,0,0,2.137-10.4C2736.284,3465.9,2735.768,3457.928,2732.07,3457.326Z" transform="translate(-2709.724 -3421.329)" fill="#e9d6b8"/>
      <path id="Trazado_126264" data-name="Trazado 126264" d="M2730.885,3474.829a17.745,17.745,0,0,1,4.68-.538c-.1,2.054-.279,4.309-.539,6.736-1.793-1.919-5.262-.867-6.046.089-.282-1.354-.521-2.766-.71-4.224-.056-.419-.1-.837-.134-1.251C2729.019,3475.342,2729.936,3475.068,2730.885,3474.829Z" transform="translate(-2709.754 -3424.865)" fill="#e2c59c"/>
      <path id="Trazado_126265" data-name="Trazado 126265" d="M2741.05,3436.813c-1.784,1.63-3.4,9.052-3.4,9.052s.212,2.942,4.175-6.351C2743.015,3436.723,2741.491,3436.412,2741.05,3436.813Z" transform="translate(-2711.733 -3417.038)" fill="#e9d6b8"/>
      <path id="Trazado_126266" data-name="Trazado 126266" d="M2717.891,3433.8c-1.281,1.08-2.249,4.649-3.031,6.921a4.074,4.074,0,0,0-.19,2.21s.643,2.894,3.618-5.3C2719.032,3435.582,2718.372,3433.393,2717.891,3433.8Z" transform="translate(-2706.937 -3416.43)" fill="#e9d6b8"/>
      <path id="Trazado_126267" data-name="Trazado 126267" d="M2714.312,3442.319c-.206-2.944-5.971-10.366-5.971-10.366s-2.918-2.161,2.863,8.916C2712.94,3444.194,2714.363,3443.045,2714.312,3442.319Z" transform="translate(-2705.482 -3416.021)" fill="#e9d6b8"/>
      <path id="Trazado_126268" data-name="Trazado 126268" d="M2705.662,3426.369l-.215.157-.095.912a10.357,10.357,0,0,0,.914,2.094,32.519,32.519,0,0,1,1.288,3.217c.167.265,1.621.157,1.621.157s-1.319-2.265-1.764-3.208a22.747,22.747,0,0,1-.781-2.88,10.382,10.382,0,0,1-.38-.983s-.323.2.052,1.228c.1.271-.259.237-.259.237Z" transform="translate(-2705.013 -3414.783)" fill="#e9d6b8"/>
      <path id="Trazado_126269" data-name="Trazado 126269" d="M2723.059,3463.358a29.159,29.159,0,0,1,2.49,12.719,46.438,46.438,0,0,1-2.149,14.4c-1.115-2.663-1.648-5.955-2.469-9.539C2718.4,3469.892,2722.292,3461.792,2723.059,3463.358Z" transform="translate(-2708.079 -3422.55)" fill="#e9d6b8"/>
      <path id="Trazado_126270" data-name="Trazado 126270" d="M2720.653,3476.657c-.366-1.969-.133-5.437,1.044-6.436.29-.357.458-.158.979.021a5.168,5.168,0,0,1,2.739,3.013c.06,1.121.09,2.275.078,3.455-.011,1.3-.048,1.5-.1,2.724A8.365,8.365,0,0,0,2720.653,3476.657Z" transform="translate(-2708.164 -3423.977)" fill="#e2c59c"/>
      <path id="Trazado_126271" data-name="Trazado 126271" d="M2723.911,3485.969c.588-.3,1.66.442,2.4,1.921,1.458,2.9,1.914,6.871,2.175,11.782.273,5.194.284,9.066.211,12.269-.071,3.161,1.262,7.579-1.123,7.158.281-4.349-.442-10.791-1.72-14.167C2721.5,3493.4,2722.106,3486.894,2723.911,3485.969Z" transform="translate(-2708.59 -3427.281)" fill="#e9d6b8"/>
      <path id="Trazado_126272" data-name="Trazado 126272" d="M2722.028,3437l9.221-.667.457-10.626-10.884,1.738Z" transform="translate(-2708.232 -3414.758)" fill="#3bb6d5"/>
      <path id="Trazado_126273" data-name="Trazado 126273" d="M2734.989,3470.758q-7.9-.65-15.8-1.3c-.594.047,2.743-9.827,2.453-29.832l9.293-.765C2730.476,3442.818,2738.75,3449.356,2734.989,3470.758Z" transform="translate(-2707.878 -3417.494)" fill="#3bb6d5"/>
      <path id="Trazado_126274" data-name="Trazado 126274" d="M2738.813,3436.077l-5.046-6.315-1.3-2.966a1.475,1.475,0,0,1,.527-.7l.171-.123a1.472,1.472,0,0,1,2.056.341l5.783,8.079Z" transform="translate(-2710.655 -3414.756)" fill="#3bb6d5"/>
      <path id="Trazado_126275" data-name="Trazado 126275" d="M2717.3,3440.27l2.746-6.959.975-4.8a1.467,1.467,0,0,0-.722-.489l-.2-.062a1.474,1.474,0,0,0-1.838.981l-3.227,9.551Z" transform="translate(-2707.028 -3415.212)" fill="#3bb6d5"/>
      <path id="Trazado_126276" data-name="Trazado 126276" d="M2737.462,3450.16a.316.316,0,0,0,.4.208l.4-.126a.316.316,0,0,0,.207-.4l-.566-1.806a.317.317,0,0,0-.4-.209l-.4.128a.316.316,0,0,0-.208.4Z" transform="translate(-2711.573 -3419.357)" fill="#e9d6b8"/>
      <path id="Trazado_126277" data-name="Trazado 126277" d="M2739.307,3522.4c.944,1.983,2.134,3.39,2.658,3.14s.184-2.06-.76-4.044-2.135-3.389-2.66-3.139S2738.363,3520.412,2739.307,3522.4Z" transform="translate(-2711.868 -3434.026)" fill="#3bb6d5"/>
      <path id="Trazado_126278" data-name="Trazado 126278" d="M2739.02,3520.689c.476,1.55,1.519,2.677,2.044,2.429s.352-1.574-.409-3c-.962-1.811-1.332-2.33-1.4-3.619C2739.2,3515.287,2737.228,3514.864,2739.02,3520.689Z" transform="translate(-2711.862 -3433.49)" fill="#e9d6b8"/>
      <path id="Trazado_126279" data-name="Trazado 126279" d="M2730.136,3524.641a.055.055,0,0,1-.054.053h-.106a.053.053,0,0,1-.052-.053h0a.052.052,0,0,1,.052-.052h.106a.054.054,0,0,1,.054.052Z" transform="translate(-2710.125 -3435.33)" fill="#e9d6b8"/>
      <path id="Trazado_126280" data-name="Trazado 126280" d="M2723.889,3526.475c-.235.994,2.815.593,3.6.334a9.129,9.129,0,0,1,1.236-.325c.031,0,.062,0,.094,0a.548.548,0,0,1,.011.07c0,.545.24,1.27-.631,1.27h-5.468C2718.265,3527.821,2723.895,3526.452,2723.889,3526.475Z" transform="translate(-2708.271 -3435.722)" fill="#3bb6d5"/>
      <path id="Trazado_126281" data-name="Trazado 126281" d="M2705.692,3427.228a2.773,2.773,0,0,1-.2-1.2c.072-.285.633-1.575.633-1.575a1.652,1.652,0,0,1-.076,1.02A5.589,5.589,0,0,0,2705.692,3427.228Z" transform="translate(-2705.038 -3414.497)" fill="#e9d6b8"/>
      <path id="Trazado_126282" data-name="Trazado 126282" d="M2706.188,3427.6s.238.04.311-.04a1.268,1.268,0,0,1-.009.221c-.005.139.131,1.081.131,1.081a7.8,7.8,0,0,0-.338-.837,3.793,3.793,0,0,1-.224-.622.968.968,0,0,1-.006-.136Z" transform="translate(-2705.159 -3415.08)" fill="#e2c59c"/>
      <path id="Trazado_126283" data-name="Trazado 126283" d="M2706.5,3427.084c-.252-.694-.189-1.009-.119-1.142.057.164.156.426.312.789a5.138,5.138,0,0,1,.185.747,1.3,1.3,0,0,0-.294.719c-.01.1-.239-.5-.294-.876C2706.378,3427.319,2706.572,3427.292,2706.5,3427.084Z" transform="translate(-2705.207 -3414.806)" fill="#e2c59c"/>
      <path id="Trazado_126284" data-name="Trazado 126284" d="M2725.5,3418.872a1.771,1.771,0,0,0,.761-1.3l.38-4.879c.039-.046.082-.088.123-.133l.085-.016c1.08-.193,2.067.274,2.2,1.04l1.241,6.993a1.517,1.517,0,0,1-1.029,1.516,2.675,2.675,0,0,1-.375,0A4.13,4.13,0,0,1,2725.5,3418.872Z" transform="translate(-2709.206 -3412.01)" fill="#163f59"/>
    </g>
  </g>
  <g id="Grupo_57355" data-name="Grupo 57355" transform="translate(36.731 79.663)">
    <g id="Grupo_57350" data-name="Grupo 57350" transform="translate(0 5.667)">
      <path id="Trazado_126285" data-name="Trazado 126285" d="M2514.412,3503.855a4.06,4.06,0,0,1-2.686-.972c-1.349-1.173-1.935-3.261-1.738-6.2a21.591,21.591,0,0,1,1.742-6.127c1.394-3.582,2.973-7.642,2.147-13.011l1.534-.236c.889,5.781-.843,10.233-2.233,13.81a20.176,20.176,0,0,0-1.641,5.667c-.159,2.386.253,4.087,1.193,4.918a2.576,2.576,0,0,0,2.053.576l.311,1.522A3.626,3.626,0,0,1,2514.412,3503.855Z" transform="translate(-2509.951 -3477.305)" fill="#367082"/>
    </g>
    <g id="Grupo_57353" data-name="Grupo 57353" transform="translate(3.773 37.674)">
      <g id="Grupo_57351" data-name="Grupo 57351" transform="translate(1.299 6.856)">
        <path id="Trazado_126286" data-name="Trazado 126286" d="M2527.643,3526.378l1.512,2.3-12.7,4.066s-.847-.811,2.267-2.44C2522.354,3528.412,2527.643,3526.378,2527.643,3526.378Z" transform="translate(-2516.355 -3526.378)" fill="#88bdda"/>
        <path id="Trazado_126287" data-name="Trazado 126287" d="M2533.059,3526.378l-1.511,2.3,12.693,4.066s.848-.811-2.266-2.44C2538.347,3528.412,2533.059,3526.378,2533.059,3526.378Z" transform="translate(-2519.516 -3526.378)" fill="#88bdda"/>
      </g>
      <rect id="Rectángulo_7074" data-name="Rectángulo 7074" width="2.652" height="9.444" transform="translate(12.388)" fill="#88bdda"/>
      <g id="Grupo_57352" data-name="Grupo 57352" transform="translate(2.754 7.342)">
        <path id="Trazado_126288" data-name="Trazado 126288" d="M2527.856,3526.991l1.293,2.2-10.866,3.881s-.725-.774,1.94-2.328A84.98,84.98,0,0,1,2527.856,3526.991Z" transform="translate(-2518.193 -3526.991)" fill="#91e2f6"/>
        <path id="Trazado_126289" data-name="Trazado 126289" d="M2533.33,3526.991l-1.293,2.2,10.867,3.881s.725-.774-1.94-2.328A85.053,85.053,0,0,0,2533.33,3526.991Z" transform="translate(-2521.073 -3526.991)" fill="#91e2f6"/>
      </g>
      <path id="Trazado_126290" data-name="Trazado 126290" d="M2519.376,3535.529a.922.922,0,1,1-.921-.922A.92.92,0,0,1,2519.376,3535.529Z" transform="translate(-2515.301 -3521.233)" fill="#001f46"/>
      <path id="Trazado_126291" data-name="Trazado 126291" d="M2545.963,3535.529a.922.922,0,1,1-.923-.922A.922.922,0,0,1,2545.963,3535.529Z" transform="translate(-2520.833 -3521.233)" fill="#001f46"/>
      <path id="Trazado_126292" data-name="Trazado 126292" d="M2516.559,3535.529a.922.922,0,1,1-.922-.922A.921.921,0,0,1,2516.559,3535.529Z" transform="translate(-2514.715 -3521.233)" fill="#367082"/>
      <path id="Trazado_126293" data-name="Trazado 126293" d="M2548.78,3535.529a.922.922,0,1,1-.922-.922A.921.921,0,0,1,2548.78,3535.529Z" transform="translate(-2521.419 -3521.233)" fill="#367082"/>
    </g>
    <rect id="Rectángulo_7075" data-name="Rectángulo 7075" width="1.941" height="3.396" transform="translate(16.482 34.213)" fill="#367082"/>
    <path id="Trazado_126294" data-name="Trazado 126294" d="M2533.777,3510.588a1.891,1.891,0,0,1-1.891,1.891h-1.068a1.892,1.892,0,0,1-1.892-1.891h0a1.892,1.892,0,0,1,1.892-1.892h1.068a1.891,1.891,0,0,1,1.891,1.892Z" transform="translate(-2513.899 -3478.168)" fill="#367082"/>
    <path id="Trazado_126295" data-name="Trazado 126295" d="M2542.6,3507.684c.046-.222.073-1.62.073-1.859a2.533,2.533,0,0,0-2.2-2.765h-24.578a2.533,2.533,0,0,0-2.205,2.765c0,.24.027,1.637.073,1.859Z" transform="translate(-2510.729 -3476.996)" fill="#3dc7c9"/>
    <path id="Trazado_126296" data-name="Trazado 126296" d="M2513.4,3509.622c0,.468.273.846.611.846h28.221c.337,0,.612-.378.612-.846h0c0-.468-.275-.846-.612-.846h-28.221c-.338,0-.611.379-.611.846Z" transform="translate(-2510.669 -3478.186)" fill="#367082"/>
    <g id="Grupo_57354" data-name="Grupo 57354" transform="translate(2.784)">
      <path id="Trazado_126297" data-name="Trazado 126297" d="M2515.108,3486.646c.607.045,4.459.114,5.123.121,4.216.052,7.849-.74,8.051-1.779a35.968,35.968,0,0,0,.11-13.06c-.179-1.038-3.866-1.829-8.172-1.777-.677.008-4.609.077-5.226.122A35.327,35.327,0,0,1,2515.108,3486.646Z" transform="translate(-2513.784 -3470.149)" fill="#3dc7c9"/>
      <path id="Trazado_126298" data-name="Trazado 126298" d="M2514.211,3470.3c-.473.005-.8.23-.737.5a35.253,35.253,0,0,1,.133,15.375c-.059.272.268.495.729.5h0c.462.006.889-.21.948-.482a35.354,35.354,0,0,0-.1-15.413c-.064-.272-.5-.487-.972-.481Z" transform="translate(-2513.467 -3470.181)" fill="#367082"/>
      <path id="Trazado_126299" data-name="Trazado 126299" d="M2514.135,3486.654a9.968,9.968,0,0,0,1.1.073,2.222,2.222,0,0,0,2.049-1.82,35.439,35.439,0,0,0-.06-12.862,2.264,2.264,0,0,0-2.1-1.819,10.9,10.9,0,0,0-1.128.074A35.3,35.3,0,0,1,2514.135,3486.654Z" transform="translate(-2513.578 -3470.165)" fill="#33a8b5"/>
    </g>
  </g>
  <g id="Grupo_57356" data-name="Grupo 57356" transform="translate(46.215 52.347)">
    <path id="Trazado_126300" data-name="Trazado 126300" d="M2524.007,3442.385h-2.081v1.066A2.563,2.563,0,0,1,2524.007,3442.385Z" transform="translate(-2521.927 -3442.385)" fill="#dce5ea"/>
  </g>
  <g id="Grupo_57359" data-name="Grupo 57359" transform="translate(44.622 50.267)">
    <path id="Trazado_126301" data-name="Trazado 126301" d="M2531.244,3450.427s-3.594,1.283-.143,11.589,5.753,9.057,5.753,9.057l2.853-.278,5.475-6.491-2.948-2.575-.595.237a1.448,1.448,0,0,1-.851-1.024c-.088-.709-1.27-2.474-3.609-8.156C2535.878,3449.625,2531.936,3450.175,2531.244,3450.427Z" transform="translate(-2518.848 -3436.608)" fill="#aebddc"/>
    <path id="Trazado_126302" data-name="Trazado 126302" d="M2546.866,3468.66a125.513,125.513,0,0,0,9.622,9.9c1.878,1.609,3.388,1.056,1.116,1.813-.836.279-8.884-2.667-13.247-5.16-2.929-1.673-2.059-3.647-.418-4.74C2545.611,3469.357,2546.866,3468.66,2546.866,3468.66Z" transform="translate(-2521.517 -3440.444)" fill="#e2c59c"/>
    <path id="Trazado_126303" data-name="Trazado 126303" d="M2540.2,3465.662l1.8-1.166.747-.424a1.559,1.559,0,0,0,.788.776l-1.5.617-1.636,1.052-1.69,2.03Z" transform="translate(-2520.742 -3439.489)" fill="#cfd9e8"/>
    <path id="Trazado_126304" data-name="Trazado 126304" d="M2535.056,3479.8l-13.435-.292s-5.281-13.833-5.585-18.7c-.177-2.826,1.51-9.048,4.391-10.443a14.392,14.392,0,0,1,3.62-1.171,22.59,22.59,0,0,1,9.471,1.227S2538.98,3453.27,2535.056,3479.8Z" transform="translate(-2516.023 -3436.381)" fill="#cfd9e8"/>
    <path id="Trazado_126305" data-name="Trazado 126305" d="M2566.325,3529.584s-1.307,2.016-1.974.78c-2-3.707-3.809-15.407-3.921-20.208-.152-6.4-.444-10.308-.444-10.308l6.441-2.334Z" transform="translate(-2525.169 -3446.447)" fill="#163f59"/>
    <path id="Trazado_126306" data-name="Trazado 126306" d="M2537.591,3487.682l22.73,7.782-5.962,3.326s-23.443,4.112-23.86-4.588C2530.147,3486.883,2537.591,3487.682,2537.591,3487.682Z" transform="translate(-2519.032 -3444.396)" fill="#163f59"/>
    <path id="Trazado_126307" data-name="Trazado 126307" d="M2555.885,3529.927s-1.178,1.078-1.844-.157c-2-3.708-5.288-13.554-5.4-18.355a47.018,47.018,0,0,1,.906-10.856l6.583-2.285Z" transform="translate(-2522.806 -3446.604)" fill="#194866"/>
    <path id="Trazado_126308" data-name="Trazado 126308" d="M2528.8,3487.96l21.673,8.176-5.937,3.231s-21.995,4.112-22.42-4.588S2528.8,3487.96,2528.8,3487.96Z" transform="translate(-2517.286 -3444.423)" fill="#194866"/>
    <path id="Trazado_126309" data-name="Trazado 126309" d="M2521.63,3495.169a6.588,6.588,0,0,0,.961,3.4c2.052,2.479,6.912,1.648,10.786,1.648a18.423,18.423,0,0,0,1.294-3.023l1.618-9.889-13.588.231A65.885,65.885,0,0,0,2521.63,3495.169Z" transform="translate(-2517.188 -3444.323)" fill="#194866"/>
    <path id="Trazado_126310" data-name="Trazado 126310" d="M2549.506,3479.8l4.975-.893s.774-.083.81.452c.046.707-.08,3.012-.08,3.012l-.894-.552-1.281.782-1.486-1.968a3.854,3.854,0,0,1-1.408-.014C2549.927,3480.568,2549.506,3479.8,2549.506,3479.8Z" transform="translate(-2522.989 -3442.575)" fill="#e9d6b8"/>
    <path id="Trazado_126311" data-name="Trazado 126311" d="M2533.2,3478.257l13.173,1.461s-7.066,3.61-10.3,3.633a28.86,28.86,0,0,1-6.269-.721Z" transform="translate(-2518.889 -3442.44)" fill="#e9d6b8"/>
    <path id="Trazado_126312" data-name="Trazado 126312" d="M2524.028,3459.349l6.581,12.454-.377,1.011,1.012.188-3.073,4.89-4.822-1.1-5.892-13.908s-2.085-5.888,2.139-9.761C2520.711,3452.1,2523.446,3458.352,2524.028,3459.349Z" transform="translate(-2516.214 -3437.188)" fill="#aebddc"/>
    <path id="Trazado_126313" data-name="Trazado 126313" d="M2528,3481.139s3.115-2.38,4.7-3.68l-.164.441,1.012.187-1.075,1.683-1.867,2.171-1.069-.391.4-.762Z" transform="translate(-2518.514 -3442.274)" fill="#cfd9e8"/>
    <path id="Trazado_126314" data-name="Trazado 126314" d="M2559.381,3540.114a1.47,1.47,0,0,1,.024.7,10.043,10.043,0,0,1-2.681.134,2.978,2.978,0,0,1-.721-.454c-.045-.035-.123-.246-.166-.28-.082-.065-.125.046-.195-.013a2.332,2.332,0,0,1-.307-.288,3.538,3.538,0,0,1,.076-1.779s1.735-.805,2.052-.265A15.435,15.435,0,0,0,2559.381,3540.114Z" transform="translate(-2524.19 -3454.802)" fill="#194866"/>
    <path id="Trazado_126315" data-name="Trazado 126315" d="M2565.223,3538.518l.289,1.837h1.537s.085-.26.214-.26c.109,0,.252.26.4.26h3.909s.071-.386-.015-.52a1.35,1.35,0,0,0-.472-.245c-.794-.273-3.2-.866-3.732-1.718C2566.939,3537.211,2565.223,3538.518,2565.223,3538.518Z" transform="translate(-2526.259 -3454.804)" fill="#163f59"/>
    <rect id="Rectángulo_7076" data-name="Rectángulo 7076" width="2.37" height="3.347" transform="translate(7.043 13.21) rotate(-66.282)" fill="#aebddc"/>
    <g id="Grupo_57358" data-name="Grupo 57358" transform="translate(3.526)">
      <g id="Grupo_57357" data-name="Grupo 57357">
        <path id="Trazado_126316" data-name="Trazado 126316" d="M2530.437,3437.429a1.629,1.629,0,0,1-1.355,1.861l-6.076.958a1.628,1.628,0,0,1-1.862-1.356h0a1.629,1.629,0,0,1,1.355-1.861l6.076-.957a1.628,1.628,0,0,1,1.862,1.355Z" transform="translate(-2520.61 -3433.66)" fill="#163f59"/>
        <path id="Trazado_126317" data-name="Trazado 126317" d="M2529.627,3440.865a3.009,3.009,0,0,1-2.5,3.44l-3.17.5a3.009,3.009,0,0,1-3.44-2.5h0a3.009,3.009,0,0,1,2.5-3.44l3.171-.5a3.009,3.009,0,0,1,3.441,2.5Z" transform="translate(-2520.475 -3434.132)" fill="#163f59"/>
        <path id="Trazado_126318" data-name="Trazado 126318" d="M2533.922,3444.465l-1.464-9.292c-.234-1.48-1.2.189-2.68.422l-1.43.225a2.715,2.715,0,0,0-2.258,3.1l1.042,6.612Z" transform="translate(-2521.636 -3433.35)" fill="#e9d6b8"/>
        <path id="Trazado_126319" data-name="Trazado 126319" d="M2527.387,3442.188a1.192,1.192,0,0,1-.993,1.362h0a1.189,1.189,0,0,1-1.362-.992h0a1.19,1.19,0,0,1,.991-1.362h0a1.193,1.193,0,0,1,1.363.992Z" transform="translate(-2521.42 -3434.726)" fill="#e9d6b8"/>
        <path id="Trazado_126320" data-name="Trazado 126320" d="M2534.31,3442.6a.679.679,0,0,0,.767.579l.55-.086a.68.68,0,0,0,.551-.787s-1.76-3.337-2.126-3.28a1.128,1.128,0,0,0-.191.73Z" transform="translate(-2523.259 -3434.279)" fill="#e9d6b8"/>
        <path id="Trazado_126321" data-name="Trazado 126321" d="M2530.214,3446.834c-2.68.423-3.089-.355-3.315-1.283a19.655,19.655,0,0,0-.224,3.225l.133.845c.257,1.634,2.146,2.694,4.218,2.367l3.752-.59-.656-4.168-.155-.985Z" transform="translate(-2521.76 -3435.635)" fill="#163f59"/>
        <path id="Trazado_126322" data-name="Trazado 126322" d="M2534.58,3444.246l-2.145.337a1.786,1.786,0,0,0-1.37,2.506l3.866-.61Z" transform="translate(-2522.646 -3435.364)" fill="#163f59"/>
        <path id="Trazado_126323" data-name="Trazado 126323" d="M2532.421,3447.069l.093.6a.3.3,0,0,0,.345.251l1.737-.273a.3.3,0,0,0,.252-.345l-.094-.6Z" transform="translate(-2522.96 -3435.875)" fill="#e9d6b8"/>
        <path id="Trazado_126324" data-name="Trazado 126324" d="M2530.96,3433.433l-5.5.866a1.086,1.086,0,0,0-.9,1.241l.338,2.145,6.569-1.035Z" transform="translate(-2521.322 -3433.114)" fill="#163f59"/>
        <path id="Trazado_126325" data-name="Trazado 126325" d="M2535.43,3434.414a1.638,1.638,0,0,1-1.363,1.875l-3.721.586a1.64,1.64,0,0,1-1.875-1.365h0a1.638,1.638,0,0,1,1.365-1.873l3.721-.587a1.639,1.639,0,0,1,1.873,1.364Z" transform="translate(-2522.135 -3433.03)" fill="#163f59"/>
      </g>
      <rect id="Rectángulo_7077" data-name="Rectángulo 7077" width="1.504" height="3.959" transform="translate(4.093 3.696) rotate(-8.96)" fill="#163f59"/>
      <rect id="Rectángulo_7078" data-name="Rectángulo 7078" width="4.427" height="4.66" transform="matrix(0.988, -0.156, 0.156, 0.988, 4.291, 1.941)" fill="#163f59"/>
      <path id="Trazado_126326" data-name="Trazado 126326" d="M2528.106,3440.441a2.238,2.238,0,0,1,1.863-2.56l1.142-.18c1.221-.192,2.032.7,2.224,1.916h0a2.239,2.239,0,0,1-1.864,2.561l-.806.127a2.238,2.238,0,0,1-2.559-1.864Z" transform="translate(-2522.057 -3433.997)" fill="#e9d6b8"/>
    </g>
  </g>
  <g id="Grupo_57362" data-name="Grupo 57362" transform="translate(72.962 72.042)">
    <path id="Trazado_126327" data-name="Trazado 126327" d="M2549.742,3483.279l-.011-.022.011-.645h26.69v.645a.033.033,0,0,1,0,.022l-.068.119a1.753,1.753,0,0,1-1.663.66h-23.227a1.756,1.756,0,0,1-1.664-.66Z" transform="translate(-2549.731 -3468.847)" fill="#b4c0c7"/>
    <path id="Trazado_126328" data-name="Trazado 126328" d="M2556.24,3483.454a.024.024,0,0,1,0,.017l-.066.1a1.076,1.076,0,0,1-.391.328h-4.058a1.852,1.852,0,0,1-1.6-.533l-.065-.1-.011-.016.006-.318h6.184Z" transform="translate(-2549.797 -3468.913)" fill="#d6e3eb"/>
    <g id="Grupo_57360" data-name="Grupo 57360" transform="translate(10.045 13.915)">
      <rect id="Rectángulo_7079" data-name="Rectángulo 7079" width="13.337" height="0.455" fill="#8599a4"/>
    </g>
    <g id="Grupo_57361" data-name="Grupo 57361" transform="translate(6.591)">
      <path id="Trazado_126329" data-name="Trazado 126329" d="M2558.054,3478.973l3.46-13.115a.872.872,0,0,1,.791-.626h18.727a.466.466,0,0,1,.461.626l-3.46,13.115Z" transform="translate(-2558.054 -3465.231)" fill="#d7dfe2"/>
      <path id="Trazado_126330" data-name="Trazado 126330" d="M2571.414,3473.589a.9.9,0,0,0,.893,1.212,1.688,1.688,0,0,0,1.532-1.212.9.9,0,0,0-.892-1.214A1.687,1.687,0,0,0,2571.414,3473.589Z" transform="translate(-2560.825 -3466.717)" fill="#b4c0c7"/>
    </g>
  </g>
  <g id="Grupo_57368" data-name="Grupo 57368" transform="translate(177.995 83.382)">
    <g id="Grupo_57363" data-name="Grupo 57363" transform="translate(23.953 5.129)">
      <path id="Trazado_126331" data-name="Trazado 126331" d="M2705.188,3505.345a3.676,3.676,0,0,0,2.431-.878c1.221-1.062,1.75-2.951,1.573-5.614a19.492,19.492,0,0,0-1.577-5.544c-1.261-3.241-2.69-6.915-1.942-11.774l-1.388-.213c-.8,5.23.762,9.259,2.02,12.5a18.275,18.275,0,0,1,1.485,5.129c.144,2.159-.229,3.7-1.079,4.45a2.333,2.333,0,0,1-1.856.522l-.282,1.376A3.313,3.313,0,0,0,2705.188,3505.345Z" transform="translate(-2704.064 -3481.321)" fill="#367082"/>
    </g>
    <g id="Grupo_57366" data-name="Grupo 57366" transform="translate(0.942 34.09)">
      <g id="Grupo_57364" data-name="Grupo 57364" transform="translate(1.114 6.205)">
        <path id="Trazado_126332" data-name="Trazado 126332" d="M2691.528,3525.726l-1.369,2.085,11.488,3.679s.767-.733-2.052-2.207C2696.314,3527.567,2691.528,3525.726,2691.528,3525.726Z" transform="translate(-2679.273 -3525.726)" fill="#88bdda"/>
        <path id="Trazado_126333" data-name="Trazado 126333" d="M2686.628,3525.726l1.367,2.085-11.487,3.679s-.767-.733,2.051-2.207C2681.843,3527.567,2686.628,3525.726,2686.628,3525.726Z" transform="translate(-2676.413 -3525.726)" fill="#88bdda"/>
      </g>
      <rect id="Rectángulo_7080" data-name="Rectángulo 7080" width="2.4" height="8.546" transform="translate(11.149)" fill="#88bdda"/>
      <g id="Grupo_57365" data-name="Grupo 57365" transform="translate(2.43 6.644)">
        <path id="Trazado_126334" data-name="Trazado 126334" d="M2691.774,3526.28l-1.171,1.99,9.833,3.512s.657-.7-1.755-2.107C2695.871,3528.036,2691.774,3526.28,2691.774,3526.28Z" transform="translate(-2680.682 -3526.28)" fill="#91e2f6"/>
        <path id="Trazado_126335" data-name="Trazado 126335" d="M2686.82,3526.28l1.171,1.99-9.834,3.512s-.656-.7,1.756-2.107A76.964,76.964,0,0,1,2686.82,3526.28Z" transform="translate(-2678.076 -3526.28)" fill="#91e2f6"/>
      </g>
      <path id="Trazado_126336" data-name="Trazado 126336" d="M2701.614,3534.007a.834.834,0,1,0,.834-.834A.833.833,0,0,0,2701.614,3534.007Z" transform="translate(-2680.543 -3521.07)" fill="#001f46"/>
      <path id="Trazado_126337" data-name="Trazado 126337" d="M2677.556,3534.007a.834.834,0,1,0,.835-.834A.834.834,0,0,0,2677.556,3534.007Z" transform="translate(-2675.538 -3521.07)" fill="#001f46"/>
      <path id="Trazado_126338" data-name="Trazado 126338" d="M2704.163,3534.007a.834.834,0,1,0,.835-.834A.834.834,0,0,0,2704.163,3534.007Z" transform="translate(-2681.073 -3521.07)" fill="#367082"/>
      <path id="Trazado_126339" data-name="Trazado 126339" d="M2675.007,3534.007a.834.834,0,1,0,.834-.834A.833.833,0,0,0,2675.007,3534.007Z" transform="translate(-2675.007 -3521.07)" fill="#367082"/>
    </g>
    <rect id="Rectángulo_7081" data-name="Rectángulo 7081" width="1.756" height="3.073" transform="translate(12.443 30.959)" fill="#367082"/>
    <path id="Trazado_126340" data-name="Trazado 126340" d="M2687.867,3511.436a1.713,1.713,0,0,0,1.712,1.713h.966a1.713,1.713,0,0,0,1.711-1.713h0a1.711,1.711,0,0,0-1.711-1.711h-.966a1.712,1.712,0,0,0-1.712,1.711Z" transform="translate(-2676.741 -3482.102)" fill="#367082"/>
    <path id="Trazado_126341" data-name="Trazado 126341" d="M2674.143,3508.809c-.041-.2-.066-1.465-.066-1.682a2.293,2.293,0,0,1,2-2.5h22.239a2.293,2.293,0,0,1,2,2.5c0,.217-.024,1.481-.066,1.682Z" transform="translate(-2673.872 -3481.04)" fill="#3dc7c9"/>
    <path id="Trazado_126342" data-name="Trazado 126342" d="M2700.46,3510.565c0,.423-.248.766-.552.766h-25.536c-.3,0-.553-.343-.553-.766h0c0-.424.248-.767.553-.767h25.536c.3,0,.552.343.552.767Z" transform="translate(-2673.818 -3482.117)" fill="#367082"/>
    <g id="Grupo_57367" data-name="Grupo 57367" transform="translate(12.885)">
      <path id="Trazado_126343" data-name="Trazado 126343" d="M2702.6,3489.773c-.55.041-4.035.1-4.636.11-3.815.046-7.1-.671-7.285-1.61a32.57,32.57,0,0,1-.1-11.818c.163-.939,3.5-1.656,7.4-1.607.613.006,4.17.069,4.73.11A31.955,31.955,0,0,0,2702.6,3489.773Z" transform="translate(-2690.087 -3474.845)" fill="#3dc7c9"/>
      <path id="Trazado_126344" data-name="Trazado 126344" d="M2706.1,3474.986c.427.005.724.208.666.453a31.923,31.923,0,0,0-.12,13.913c.054.246-.241.448-.659.453h0c-.418.005-.8-.191-.858-.436a31.987,31.987,0,0,1,.091-13.947c.058-.247.451-.442.88-.436Z" transform="translate(-2693.067 -3474.874)" fill="#367082"/>
      <path id="Trazado_126345" data-name="Trazado 126345" d="M2705.88,3489.78a9.269,9.269,0,0,1-1,.066,2.008,2.008,0,0,1-1.853-1.647,32.04,32.04,0,0,1,.053-11.638,2.048,2.048,0,0,1,1.9-1.647,9.56,9.56,0,0,1,1.021.067A31.94,31.94,0,0,0,2705.88,3489.78Z" transform="translate(-2692.674 -3474.86)" fill="#33a8b5"/>
    </g>
  </g>
  <g id="Grupo_57373" data-name="Grupo 57373" transform="translate(151.954 56.087)">
    <g id="Grupo_57371" data-name="Grupo 57371" transform="translate(8.049 14.38)">
      <g id="Grupo_57370" data-name="Grupo 57370" transform="translate(0 14.731)">
        <g id="Grupo_57369" data-name="Grupo 57369" transform="translate(0 0.76)">
          <path id="Trazado_126346" data-name="Trazado 126346" d="M2673.241,3479.314s-.027.972-4.741.976a88.19,88.19,0,0,1-11.635-1.156l10.873-1.027S2671.914,3477.913,2673.241,3479.314Z" transform="translate(-2653.207 -3478.098)" fill="#e2c59c"/>
          <path id="Trazado_126347" data-name="Trazado 126347" d="M2659.614,3479.665c-2.241.071-3.167,1.224-4.046,1.6a15.452,15.452,0,0,0-1.748.928c.469-.975,1.193-1.025,1.545-1.346s.263-.164-.537-.2c-.454-.019-1.226.8-1.787,1.267a1.815,1.815,0,0,1-.8.438,9.885,9.885,0,0,1,1.274-1.5,11.476,11.476,0,0,1,2.209-1.618,8.773,8.773,0,0,1,3.043-.194C2659.98,3479.166,2661.228,3479.614,2659.614,3479.665Z" transform="translate(-2652.246 -3478.286)" fill="#e2c59c"/>
          <path id="Trazado_126348" data-name="Trazado 126348" d="M2656,3479.35a12.175,12.175,0,0,0-2,.727c-.205.164-1.053,1.111-1.053,1.111a2.234,2.234,0,0,0,1-.483A19.6,19.6,0,0,1,2656,3479.35Z" transform="translate(-2652.392 -3478.359)" fill="#e2c59c"/>
        </g>
        <path id="Trazado_126349" data-name="Trazado 126349" d="M2673.574,3477.139s4.347.124,4.137,2.706a2.011,2.011,0,0,1-2.406,1.949c-2.442-.114-5.213-.374-5.213-.374l-1.371-3.956Z" transform="translate(-2655.674 -3477.139)" fill="#b0bfde"/>
      </g>
      <path id="Trazado_126350" data-name="Trazado 126350" d="M2675.751,3473.594l3.792-13.386s.558-1.962,1.6-1.632c1.506.473.824,2.085.725,3.031a31.04,31.04,0,0,1-1.206,7.428c-.748,2.881-1.366,6.191-2.041,8.092-.463,1.309-1.394-.513-2.723-.983C2673.423,3475.263,2675.751,3473.594,2675.751,3473.594Z" transform="translate(-2656.93 -3458.538)" fill="#b0bfde"/>
    </g>
    <path id="Trazado_126351" data-name="Trazado 126351" d="M2685.268,3453.448a5.523,5.523,0,1,0,4.207-6.484A5.465,5.465,0,0,0,2685.268,3453.448Z" transform="translate(-2651.04 -3441.721)" fill="#194866"/>
    <path id="Trazado_126352" data-name="Trazado 126352" d="M2678.653,3449.113a4.152,4.152,0,0,0,4.96,3.145l.583-2.152a4.153,4.153,0,0,0,3.143-4.96l-.341-1.519a4.154,4.154,0,0,0-4.96-3.146l-1.014.227a4.152,4.152,0,0,0-3.144,4.96Z" transform="translate(-2649.509 -3440.38)" fill="#194866"/>
    <path id="Trazado_126353" data-name="Trazado 126353" d="M2679.062,3443.426a8.372,8.372,0,0,0,.353,1.12c.992,2.51,3.018,4.132,4.8,3.988a12.65,12.65,0,0,0,1.278,3.01,6.3,6.3,0,0,0,2,1.768c.7,1.752-6.312,7.618-6.611,7.465-.637-.325.5-4.539,1.651-5.844a4.135,4.135,0,0,0,1.1-1.745,2.527,2.527,0,0,0-1.115-2.416,3.4,3.4,0,0,0-2.62-.591.478.478,0,0,1-.375-.073,2.942,2.942,0,0,1-.316-.819l-.75-3.341A2.936,2.936,0,0,1,2679.062,3443.426Z" transform="translate(-2649.634 -3441.014)" fill="#e9d6b8"/>
    <path id="Trazado_126354" data-name="Trazado 126354" d="M2686.765,3483.936a14.313,14.313,0,0,1-2.3,1.772,6.574,6.574,0,0,1-2.568-.625s.521-8.435.328-11.777-.98-4.31-.89-5.342c.145-1.651-1.2-2.493-.8-3.752s1.39-5.78,1.458-5.152c.583,5.347,2.634,1.223,3.043.578C2685.26,3459.283,2686.765,3483.936,2686.765,3483.936Z" transform="translate(-2650.066 -3444.254)" fill="#fece40"/>
    <path id="Trazado_126355" data-name="Trazado 126355" d="M2682.7,3457.231s-2.376,1.743-2.344,2.548-1.228,3.184-.718,6.761a49.368,49.368,0,0,1,.68,9.429c-.119,2.6-1.32,4.862-1.36,8.068-.033,2.512.542,2.737.542,2.737a2.085,2.085,0,0,0,2.041-.449c.931-.858.766-9.456.625-11.619s-.816-7.261-.973-8.75a15.792,15.792,0,0,1,.195-4.18,17.769,17.769,0,0,1,1-3.625c.047-.115.665-.61.7-.7C2683.257,3457.06,2682.895,3457.012,2682.7,3457.231Z" transform="translate(-2649.754 -3443.859)" fill="#d1dbea"/>
    <path id="Trazado_126356" data-name="Trazado 126356" d="M2684.1,3456.159s.494-.1.073.461a1.177,1.177,0,0,0-.243.583s-.214-.224-.535.1c-.292.292-.754.656-.754.656a8.114,8.114,0,0,1,.365-.9C2683.245,3456.841,2684.1,3456.159,2684.1,3456.159Z" transform="translate(-2650.519 -3443.662)" fill="#b0bfde"/>
    <path id="Trazado_126357" data-name="Trazado 126357" d="M2687.254,3462.643a5.769,5.769,0,1,0,4.394-6.771A5.708,5.708,0,0,0,2687.254,3462.643Z" transform="translate(-2651.452 -3443.573)" fill="#194866"/>
    <path id="Trazado_126358" data-name="Trazado 126358" d="M2670.683,3526.926l1.078,8.27-4.661,2.139-2.588.546,4.593-3.429-1.5-7.462Z" transform="translate(-2646.748 -3458.386)" fill="#e9d6b8"/>
    <path id="Trazado_126359" data-name="Trazado 126359" d="M2671.759,3538.42l-1.011.264-.679-.611-3.724,1.808-3.3.755a.606.606,0,0,1,.071-.4,14.947,14.947,0,0,1,2.728-1.691s.037.768.366.789a24.977,24.977,0,0,0,3.842-1.829c1.136-.695,1.349-1.126,1.435-1.072C2671.713,3536.577,2671.759,3538.42,2671.759,3538.42Z" transform="translate(-2646.441 -3460.364)" fill="#161711"/>
    <path id="Trazado_126360" data-name="Trazado 126360" d="M2655.107,3512.175l-3.7,7.048-5.123-.25-2.548-.708,5.656-.926,3.089-6.022Z" transform="translate(-2642.426 -3455.139)" fill="#e9d6b8"/>
    <path id="Trazado_126361" data-name="Trazado 126361" d="M2650.756,3522.2l-1.018-.233-.321-.854-4.593-.066-2.742-.623a2.305,2.305,0,0,1,.536-.442,15.724,15.724,0,0,1,2.779-.372s-.229.6.053.771a23.346,23.346,0,0,0,4.211.219c1.328-.091,1.715-.376,1.768-.289C2651.567,3520.54,2650.756,3522.2,2650.756,3522.2Z" transform="translate(-2642.082 -3456.864)" fill="#161711"/>
    <path id="Trazado_126362" data-name="Trazado 126362" d="M2684.246,3485.783l-2.763,1.2-1.2,3.605-17.774-2.926s-1.81-.559-2.963,2.3c-1.641,4.071-5.817,16.726-5.817,16.726l2.643,2.764,8.291-14.3s16.988,7.968,22.589,6.249c2.148-.661,3.792-4.457,3.484-8.291a49.157,49.157,0,0,0-.841-5.768Z" transform="translate(-2644.505 -3449.826)" fill="#194866"/>
    <path id="Trazado_126363" data-name="Trazado 126363" d="M2684.134,3503.393l-13.594-.978,1.169,20.976-4.009.128-2.961-24.566s.8-3.656,3.4-3.1S2677.012,3501.212,2684.134,3503.393Z" transform="translate(-2646.795 -3451.908)" fill="#163f59"/>
    <path id="Trazado_126364" data-name="Trazado 126364" d="M2686.844,3484.709s-.327-8.535-.576-12.583-.2-11.859-.25-12.833a11.918,11.918,0,0,1,.213-2.346s1.23-2.1,2.6-1.916c1.205.162,3.064,1.84,4.23,2.617,1.14.761,1.013,15.031,1.069,15.749.207,2.592,1.75,5.152,2.915,7.643a14.2,14.2,0,0,1,.919,4.117S2691.044,3483.829,2686.844,3484.709Z" transform="translate(-2651.222 -3443.426)" fill="#d1dbea"/>
    <path id="Trazado_126365" data-name="Trazado 126365" d="M2688.416,3454.2l-.976.961-1.373,1.473.7,1.652,2.422-3.4Z" transform="translate(-2651.233 -3443.255)" fill="#b0bfde"/>
    <g id="Grupo_57372" data-name="Grupo 57372" transform="translate(14.953 30.698)">
      <path id="Trazado_126366" data-name="Trazado 126366" d="M2686.288,3481.737s-.148,1.042-5.736.427a115.374,115.374,0,0,1-13.657-2.78l13.014.327S2684.882,3480.052,2686.288,3481.737Z" transform="translate(-2662.197 -3479.193)" fill="#e9d6b8"/>
      <path id="Trazado_126367" data-name="Trazado 126367" d="M2670.016,3480.194c-2.666-.219-3.9.9-4.985,1.191a19.549,19.549,0,0,0-2.182.768c.672-.988,1.535-.946,1.992-1.248s.331-.14-.613-.283c-.537-.081-1.551.707-2.27,1.129a2.275,2.275,0,0,1-1,.37,10.993,10.993,0,0,1,1.689-1.45,13.678,13.678,0,0,1,2.812-1.452,11.492,11.492,0,0,1,3.629.193C2670.512,3479.7,2671.937,3480.351,2670.016,3480.194Z" transform="translate(-2660.963 -3479.143)" fill="#e9d6b8"/>
      <path id="Trazado_126368" data-name="Trazado 126368" d="M2665.814,3479.315a15.528,15.528,0,0,0-2.451.52c-.263.15-1.379,1.061-1.379,1.061a2.812,2.812,0,0,0,1.24-.391A23.442,23.442,0,0,1,2665.814,3479.315Z" transform="translate(-2661.175 -3479.179)" fill="#e9d6b8"/>
    </g>
    <path id="Trazado_126369" data-name="Trazado 126369" d="M2686.963,3474.889l.62-13.206s.713-2.766,1.751-3.4c1.23-.753,2.922.643,2.922.643s.867,2.063.285,11.8c-.389,6.513-.989,9.886-4.078,9.41-2.881-.444-6.136-1.089-6.136-1.089l-1.156-4.443Z" transform="translate(-2650.214 -3444.058)" fill="#b0bfde"/>
  </g>
  <g id="Grupo_57376" data-name="Grupo 57376" transform="translate(145.961 71.802)">
    <path id="Trazado_126370" data-name="Trazado 126370" d="M2667.331,3483.277l.012-.021-.012-.655h-27.123v.655a.039.039,0,0,0,0,.021l.07.121a1.78,1.78,0,0,0,1.69.67h23.6a1.783,1.783,0,0,0,1.691-.67Z" transform="translate(-2636.804 -3468.612)" fill="#d0dee6"/>
    <path id="Trazado_126371" data-name="Trazado 126371" d="M2666.2,3483.454a.023.023,0,0,0,0,.018l.067.1a1.11,1.11,0,0,0,.4.335h4.125a1.883,1.883,0,0,0,1.626-.542l.065-.1.012-.017-.007-.323H2666.2Z" transform="translate(-2642.212 -3468.679)" fill="#b6c2c9"/>
    <g id="Grupo_57374" data-name="Grupo 57374" transform="translate(6.777 14.14)">
      <rect id="Rectángulo_7082" data-name="Rectángulo 7082" width="13.553" height="0.463" fill="#b6c2c9"/>
    </g>
    <g id="Grupo_57375" data-name="Grupo 57375">
      <path id="Trazado_126372" data-name="Trazado 126372" d="M2659.751,3478.9l-3.516-13.327a.886.886,0,0,0-.8-.637H2636.4a.474.474,0,0,0-.468.637l3.516,13.327Z" transform="translate(-2635.91 -3464.937)" fill="#f1f0f6"/>
      <path id="Trazado_126373" data-name="Trazado 126373" d="M2651.768,3473.431a.918.918,0,0,1-.907,1.232,1.715,1.715,0,0,1-1.558-1.232.918.918,0,0,1,.907-1.234A1.716,1.716,0,0,1,2651.768,3473.431Z" transform="translate(-2638.688 -3466.447)" fill="#b6c2c9"/>
    </g>
  </g>
  <g id="Grupo_57378" data-name="Grupo 57378" transform="translate(28.905 90.974)">
    <g id="Grupo_57377" data-name="Grupo 57377" transform="translate(26.093 1.44)">
      <path id="Trazado_126374" data-name="Trazado 126374" d="M2538.846,3530.611h2.777l-4.58-44.361h-4.026Z" transform="translate(-2533.017 -3486.251)" fill="#acd5f4"/>
      <path id="Trazado_126375" data-name="Trazado 126375" d="M2533.357,3488.3l5.386,13.69-1.527-14.734-.1-1h-3.519Z" transform="translate(-2533.088 -3486.251)" fill="#86bbd8"/>
    </g>
    <path id="Trazado_126376" data-name="Trazado 126376" d="M2502.846,3530.611h-2.777l4.58-44.361h4.025Z" transform="translate(-2500.069 -3484.811)" fill="#acd5f4"/>
    <path id="Trazado_126377" data-name="Trazado 126377" d="M2509.582,3488.3l-1.765,13.434-2.1-14.478.1-1h3.518Z" transform="translate(-2501.245 -3484.811)" fill="#86bbd8"/>
    <path id="Trazado_126378" data-name="Trazado 126378" d="M2652.042,3530.611h-2.776l4.58-44.361h4.026Z" transform="translate(-2531.11 -3484.811)" fill="#acd5f4"/>
    <path id="Trazado_126379" data-name="Trazado 126379" d="M2658.779,3488.3l-1.765,13.434-2.095-14.478.1-1h3.519Z" transform="translate(-2532.286 -3484.811)" fill="#86bbd8"/>
    <path id="Trazado_126380" data-name="Trazado 126380" d="M2688.044,3530.611h2.776l-4.58-44.361h-4.025Z" transform="translate(-2537.965 -3484.811)" fill="#acd5f4"/>
    <path id="Trazado_126381" data-name="Trazado 126381" d="M2682.553,3488.3l5.388,13.69-1.528-14.734-.1-1h-3.518Z" transform="translate(-2538.035 -3484.811)" fill="#86bbd8"/>
    <rect id="Rectángulo_7083" data-name="Rectángulo 7083" width="85.276" height="2.592" transform="translate(66.885)" fill="#367082"/>
    <rect id="Rectángulo_7084" data-name="Rectángulo 7084" width="118.969" height="2.592" transform="translate(1.27)" fill="url(#radial-gradient)"/>
  </g>
  <g id="Grupo_57385" data-name="Grupo 57385" transform="translate(109.407 53.706)">
    <path id="Trazado_126382" data-name="Trazado 126382" d="M2602.179,3532.114l-.447,2.328h-2.374s-.13-.331-.331-.331c-.169,0-.388.331-.619.331h-6.038s-.106-.49.026-.659a2.287,2.287,0,0,1,.728-.311c1.227-.345,4.735-1.421,5.344-2.592C2599.212,3529.455,2602.179,3532.114,2602.179,3532.114Z" transform="translate(-2592.331 -3456.74)" fill="#161711"/>
    <path id="Trazado_126383" data-name="Trazado 126383" d="M2602.446,3495.449s.679,3.8,1.244,8.657a137.88,137.88,0,0,1-.231,20.828c-.04.433-4.538-.885-4.538-.885s-1.642-19.8-2.019-24.237S2599.747,3492.686,2602.446,3495.449Z" transform="translate(-2593.276 -3449.223)" fill="#163f59"/>
    <path id="Trazado_126384" data-name="Trazado 126384" d="M2613.46,3526.993c-.18-.216-.049-.785-.049-.785a20.837,20.837,0,0,1,4.129-.112,5.164,5.164,0,0,1,1.117.525c.07.041.193.281.264.32.125.074.191-.052.3.015a3.745,3.745,0,0,1,.478.331,2.987,2.987,0,0,1-.091,2.01s-2.572.8-3.157.269C2614.957,3528.219,2613.851,3527.467,2613.46,3526.993Z" transform="translate(-2596.707 -3455.815)" fill="#161711"/>
    <path id="Trazado_126385" data-name="Trazado 126385" d="M2613.253,3499.866s-2.488-1.454-1.854,2.447c1.53,9.412,2.937,16.311,3.6,19.437.255,1.214.647,1.022.647,1.022l2.861.465,1.444-.985-2.672-21.274Z" transform="translate(-2596.277 -3450.32)" fill="#163f59"/>
    <g id="Grupo_57379" data-name="Grupo 57379" transform="translate(4.676)">
      <path id="Trazado_126386" data-name="Trazado 126386" d="M2599.193,3499.164a148.982,148.982,0,0,0,13.777,6.962h10.53c.591,0,4.873-.626,5.8-3.439.981-2.974,0-8.273,0-8.273a1.093,1.093,0,0,0-1.071-1.115h-13.119c-.592,0-1.785.5-1.785,1.115l-12.738-.408S2596.4,3495.538,2599.193,3499.164Z" transform="translate(-2598.235 -3449.008)" fill="#194866"/>
      <path id="Trazado_126387" data-name="Trazado 126387" d="M2624.088,3503.929h-12.054c-.128,0-10.535-2.839-10.651-2.872l1.255,4.044c0,.616,10.4,2.639,10.988,2.639h10.529c.592,0,4.874-.626,5.8-3.439a11,11,0,0,0,.434-3.159C2628.882,3503.4,2624.708,3503.929,2624.088,3503.929Z" transform="translate(-2598.89 -3450.623)" fill="#163f59"/>
      <path id="Trazado_126388" data-name="Trazado 126388" d="M2623.53,3453.005l-.568-2.572s-2,.141-2.393-.843a9.243,9.243,0,0,1,.345-6.006c1.352-2.514,1.923-6.917,8.239-3.416,2.4,1.333-1.307,7.787-1.582,9.186a5.475,5.475,0,0,0,.544,3.007l-1.478,1.01Z" transform="translate(-2602.806 -3437.684)" fill="#e9d6b8"/>
      <path id="Trazado_126389" data-name="Trazado 126389" d="M2610.719,3479.008l10.833,3.846s-12.773.917-12.822.175C2608.461,3478.949,2610.719,3479.008,2610.719,3479.008Z" transform="translate(-2600.414 -3446.035)" fill="#e9d6b8"/>
      <path id="Trazado_126390" data-name="Trazado 126390" d="M2638.079,3459.883s2.155,1.021,3.705,9.316.563,7.978.563,7.978l-.282,1.89-4.028.336-2.176-7.161Z" transform="translate(-2606.063 -3442.056)" fill="#fec12f"/>
      <path id="Trazado_126391" data-name="Trazado 126391" d="M2634.023,3458.967l-5.305-2.195-1.464-1.262-5.64-.124-.988,1.482-4.372,1.727s-1.079,1.546-.14,7.283c1.039,6.359-.017,22.809-.017,22.809l17.849.254S2632.473,3462.052,2634.023,3458.967Z" transform="translate(-2601.875 -3441.121)" fill="#fece40"/>
      <path id="Trazado_126392" data-name="Trazado 126392" d="M2615.47,3459.408s-.983-1-3.379,1.715a36.977,36.977,0,0,0-6.487,11.482c-.423,1.111-.9,3.853.773,5.7a2.288,2.288,0,0,0,2.51.89l3.9-3.051-1.254-.635-.856-.063s1.974-3.951,4.09-7.532S2615.47,3459.408,2615.47,3459.408Z" transform="translate(-2599.684 -3441.92)" fill="#fece40"/>
      <path id="Trazado_126393" data-name="Trazado 126393" d="M2622.571,3444.014s.715-.4.824.1-.275,1.6-.6,1.7-.437,1.451-.437,1.451l.879,1.5h4.446s1.374-.55,1.485-1.451,1.207-7.258,1.207-7.258l-3.129-1.5a21.93,21.93,0,0,0-2.8-1.052c-1.77-.461-2.141.4-2.086.851s-.5.5-1.209.5-1.594.5-1.208.8c.16.124-.551.52-.27,1,.4.682,1.752.9,1.863,2.006C2621.577,3443.161,2621.8,3444.813,2622.571,3444.014Z" transform="translate(-2602.68 -3437.373)" fill="#194866"/>
    </g>
    <g id="Grupo_57383" data-name="Grupo 57383" transform="translate(11.261 56.919)">
      <path id="Trazado_126394" data-name="Trazado 126394" d="M2606.876,3513.429c-.042-.2-.066-1.465-.066-1.682a2.292,2.292,0,0,1,2-2.5h22.239a2.292,2.292,0,0,1,2,2.5c0,.217-.024,1.481-.065,1.682Z" transform="translate(-2606.605 -3509.245)" fill="#36afb1"/>
      <path id="Trazado_126395" data-name="Trazado 126395" d="M2633.192,3515.184c0,.423-.247.765-.551.765H2607.1c-.306,0-.553-.343-.553-.765h0c0-.424.247-.766.553-.766h25.537c.3,0,.551.343.551.766Z" transform="translate(-2606.551 -3510.322)" fill="#2c5b6a"/>
      <g id="Grupo_57382" data-name="Grupo 57382" transform="translate(2.894 10.506)">
        <g id="Grupo_57380" data-name="Grupo 57380" transform="translate(1.114 6.205)">
          <path id="Trazado_126396" data-name="Trazado 126396" d="M2626.725,3530.346l-1.367,2.085,11.487,3.679s.767-.733-2.051-2.207C2631.512,3532.187,2626.725,3530.346,2626.725,3530.346Z" transform="translate(-2614.471 -3530.346)" fill="#88bdda"/>
          <path id="Trazado_126397" data-name="Trazado 126397" d="M2621.826,3530.346l1.367,2.085-11.486,3.679s-.767-.733,2.051-2.207C2617.04,3532.187,2621.826,3530.346,2621.826,3530.346Z" transform="translate(-2611.612 -3530.346)" fill="#88bdda"/>
        </g>
        <rect id="Rectángulo_7085" data-name="Rectángulo 7085" width="2.4" height="8.546" transform="translate(11.148)" fill="#88bdda"/>
        <g id="Grupo_57381" data-name="Grupo 57381" transform="translate(2.43 6.644)">
          <path id="Trazado_126398" data-name="Trazado 126398" d="M2626.972,3530.9l-1.171,1.99,9.832,3.511s.657-.7-1.755-2.106A76.954,76.954,0,0,0,2626.972,3530.9Z" transform="translate(-2615.879 -3530.901)" fill="#91e2f6"/>
          <path id="Trazado_126399" data-name="Trazado 126399" d="M2622.019,3530.9l1.17,1.99-9.834,3.511s-.656-.7,1.756-2.106A76.869,76.869,0,0,1,2622.019,3530.9Z" transform="translate(-2613.273 -3530.901)" fill="#91e2f6"/>
        </g>
        <path id="Trazado_126400" data-name="Trazado 126400" d="M2636.812,3538.625a.834.834,0,1,0,.834-.834A.833.833,0,0,0,2636.812,3538.625Z" transform="translate(-2615.741 -3525.69)" fill="#001f46"/>
        <path id="Trazado_126401" data-name="Trazado 126401" d="M2612.754,3538.625a.834.834,0,1,0,.835-.834A.834.834,0,0,0,2612.754,3538.625Z" transform="translate(-2610.735 -3525.69)" fill="#001f46"/>
        <path id="Trazado_126402" data-name="Trazado 126402" d="M2639.361,3538.625a.834.834,0,1,0,.834-.834A.833.833,0,0,0,2639.361,3538.625Z" transform="translate(-2616.271 -3525.69)" fill="#367082"/>
        <path id="Trazado_126403" data-name="Trazado 126403" d="M2610.205,3538.625a.834.834,0,1,0,.834-.834A.833.833,0,0,0,2610.205,3538.625Z" transform="translate(-2610.205 -3525.69)" fill="#367082"/>
      </g>
      <rect id="Rectángulo_7086" data-name="Rectángulo 7086" width="1.755" height="3.073" transform="translate(14.396 7.374)" fill="#2c5b6a"/>
      <path id="Trazado_126404" data-name="Trazado 126404" d="M2623.065,3516.057a1.712,1.712,0,0,0,1.711,1.712h.966a1.712,1.712,0,0,0,1.712-1.712h0a1.712,1.712,0,0,0-1.712-1.712h-.966a1.712,1.712,0,0,0-1.711,1.712Z" transform="translate(-2609.986 -3510.306)" fill="#2c5b6a"/>
      <path id="Trazado_126405" data-name="Trazado 126405" d="M2611.454,3513.429c-.042-.2-.066-1.465-.066-1.682a2.292,2.292,0,0,1,2-2.5h22.24a2.292,2.292,0,0,1,2,2.5c0,.217-.025,1.481-.067,1.682Z" transform="translate(-2607.557 -3509.245)" fill="#3dc7c9"/>
      <path id="Trazado_126406" data-name="Trazado 126406" d="M2637.771,3515.184c0,.423-.248.765-.553.765h-25.537c-.305,0-.552-.343-.552-.765h0c0-.424.247-.766.552-.766h25.537c.3,0,.553.343.553.766Z" transform="translate(-2607.503 -3510.322)" fill="#367082"/>
    </g>
    <g id="Grupo_57384" data-name="Grupo 57384" transform="translate(14.729 25.837)">
      <path id="Trazado_126407" data-name="Trazado 126407" d="M2634.98,3484.825a1.1,1.1,0,0,1-1.1,1.115h-21.014a1.4,1.4,0,0,1-1.328-1.106,39.319,39.319,0,0,1,0-13.729,1.4,1.4,0,0,1,1.328-1.106h21.014a1.1,1.1,0,0,1,1.1,1.115Q2634.922,3477.966,2634.98,3484.825Z" transform="translate(-2610.929 -3469.998)" fill="#33a8b5"/>
      <path id="Trazado_126408" data-name="Trazado 126408" d="M2636.531,3484.825a1.115,1.115,0,0,1-1.115,1.115H2614.4a1.386,1.386,0,0,1-1.317-1.106,41.255,41.255,0,0,1,0-13.729A1.388,1.388,0,0,1,2614.4,3470h21.014a1.117,1.117,0,0,1,1.115,1.116Z" transform="translate(-2611.258 -3469.998)" fill="#3dc7c9"/>
    </g>
    <path id="Trazado_126409" data-name="Trazado 126409" d="M2617.719,3506.959c3.235-11.635-2.935-23.271-.282-34.906a.845.845,0,0,0-.833-1.116h-.377a1.515,1.515,0,0,0-1.4,1.116c-2.652,11.635,3.518,23.271.282,34.906Z" transform="translate(-2596.87 -3444.356)" fill="#367082"/>
    <path id="Trazado_126410" data-name="Trazado 126410" d="M2640.961,3506.959c3.235-11.635-2.935-23.271-.282-34.906a.845.845,0,0,0-.834-1.116h-.377a1.514,1.514,0,0,0-1.4,1.116c-2.653,11.635,3.517,23.271.282,34.906Z" transform="translate(-2601.706 -3444.356)" fill="#367082"/>
  </g>
  <g id="Grupo_57386" data-name="Grupo 57386" transform="translate(240.343 92.679)">
    <rect id="Rectángulo_7087" data-name="Rectángulo 7087" width="20.744" height="2.767" transform="translate(3.914 26.114)" fill="#b0bfde"/>
    <rect id="Rectángulo_7088" data-name="Rectángulo 7088" width="25.807" height="23.963" transform="translate(1.382 2.765)" fill="#b0bfde"/>
    <rect id="Rectángulo_7089" data-name="Rectángulo 7089" width="25.807" height="21.198" transform="translate(1.382 4.916)" fill="#cfd9e8"/>
    <rect id="Rectángulo_7090" data-name="Rectángulo 7090" width="17.511" height="7.374" transform="translate(5.53 5.53)" fill="#e4efff"/>
    <rect id="Rectángulo_7091" data-name="Rectángulo 7091" width="5.308" height="1.248" transform="translate(11.632 6.75)" fill="#fff"/>
    <rect id="Rectángulo_7092" data-name="Rectángulo 7092" width="17.511" height="7.373" transform="translate(5.53 15.055)" fill="#e4efff"/>
    <rect id="Rectángulo_7093" data-name="Rectángulo 7093" width="5.308" height="1.248" transform="translate(11.632 16.274)" fill="#fff"/>
    <rect id="Rectángulo_7094" data-name="Rectángulo 7094" width="28.572" height="2.765" fill="#cfd9e8"/>
  </g>
  <g id="Grupo_57390" data-name="Grupo 57390" transform="translate(242.67 56.424)">
    <g id="Grupo_57387" data-name="Grupo 57387" transform="translate(9.55 11.852)">
      <path id="Trazado_126411" data-name="Trazado 126411" d="M2763.434,3476.138s1.267-4.53,3.262-6.071,3.444-3.715,6.071-4.712,3.262-2.809,2.265-3.444-4.259-2.448-8.246,1.722-4.984,7.43-4.893,11.326S2763.253,3478.4,2763.434,3476.138Z" transform="translate(-2761.887 -3460.972)" fill="#3bb6d5"/>
      <path id="Trazado_126412" data-name="Trazado 126412" d="M2773.726,3463.035a24.106,24.106,0,0,0-5.8,2.538c-1.813,1.36-5.166,5.165-5.346,8.88" transform="translate(-2762.032 -3461.401)" fill="none" stroke="#3096af" stroke-miterlimit="10" stroke-width="0.612"/>
    </g>
    <g id="Grupo_57388" data-name="Grupo 57388" transform="translate(6.573)">
      <path id="Trazado_126413" data-name="Trazado 126413" d="M2761.563,3474.474s-2.054-5.8-2.9-7.61-.725-6.163.6-7.854,3.5-4.229,2.537-7.974-.484-6.041,1.329-4.59a12.8,12.8,0,0,1,5.074,9.786c.061,3.926-1.1,6.224-3.262,9.06C2763.194,3467.587,2761.443,3471.816,2761.563,3474.474Z" transform="translate(-2758.128 -3446.006)" fill="#f8c44f"/>
      <path id="Trazado_126414" data-name="Trazado 126414" d="M2761.539,3473.676s-1.089-5.8,0-8.155,3.679-6.713,3.9-9.6a12.979,12.979,0,0,0-1.994-7.067" transform="translate(-2758.737 -3446.597)" fill="none" stroke="#f4da80" stroke-miterlimit="10" stroke-width="0.612"/>
    </g>
    <g id="Grupo_57389" data-name="Grupo 57389" transform="translate(0 15.857)">
      <path id="Trazado_126415" data-name="Trazado 126415" d="M2751.772,3470.031c-2.355-.453-2.537-3.171-.725-3.716s4.8-.452,6.252,1.451a12.559,12.559,0,0,1,1.812,8.97c-.544,2.808,0-1.088-1.177-2.991S2753.716,3470.405,2751.772,3470.031Z" transform="translate(-2749.828 -3466.028)" fill="#194866"/>
      <path id="Trazado_126416" data-name="Trazado 126416" d="M2750.91,3468.277a6.778,6.778,0,0,1,5.528,1.541,11.122,11.122,0,0,1,3.172,6.644" transform="translate(-2750.054 -3466.478)" fill="none" stroke="#161711" stroke-miterlimit="10" stroke-width="0.458"/>
    </g>
    <path id="Trazado_126417" data-name="Trazado 126417" d="M2765.386,3486.133h-6.524l-1.088-10.511h8.7Z" transform="translate(-2751.482 -3452.167)" fill="#b0bfde"/>
    <path id="Trazado_126418" data-name="Trazado 126418" d="M2758.587,3475.623l.621,8.366h4.681l.621-8.366Z" transform="translate(-2751.651 -3452.167)" fill="#cfd9e8"/>
  </g>
</svg>
