<svg id="Grupo_60283" data-name="Grupo 60283" xmlns="http://www.w3.org/2000/svg" xmlns:xlink="http://www.w3.org/1999/xlink" width="117.207" height="120.988" viewBox="0 0 117.207 120.988">
  <defs>
    <clipPath id="clip-path">
      <rect id="SVGID" width="117.207" height="120.988" fill="none"/>
    </clipPath>
  </defs>
  <path id="Trazado_128546" data-name="Trazado 128546" d="M1208.5,836.44l.866-10.623a21.41,21.41,0,0,0-29.637-21.475l-5.809,2.443a14.179,14.179,0,0,0-11.221,15.867l1.934,13.788.817,4.169,42.595-.331Zm0,0" transform="translate(-1149.908 -778.166)" fill="#8f8390"/>
  <path id="Trazado_128547" data-name="Trazado 128547" d="M1331.61,731.621a23.233,23.233,0,0,0-21.911,31.51l-5.211,7.673a1.136,1.136,0,0,0,1.019,1.771l10.091-.713a23.223,23.223,0,1,0,16.012-40.241Zm0,0" transform="translate(-1246.981 -729.522)" fill="#b3e5ee"/>
  <path id="Trazado_128548" data-name="Trazado 128548" d="M1170.022,992.967l13.361,6.315a23.617,23.617,0,0,1,13.527,21.354v4.119a1.886,1.886,0,0,1-1.885,1.885h-64.459a1.886,1.886,0,0,1-1.886-1.885v-4.119a23.619,23.619,0,0,1,13.526-21.354l13.361-6.315,4.06-1.586h4.953Zm0,0" transform="translate(-1126.701 -907.44)" fill="#e79098"/>
  <path id="Trazado_128549" data-name="Trazado 128549" d="M1170.022,992.967l-.828-.241.148.418-8.014,2.837v-4.6h-1.7l-4.06,1.586-13.361,6.315a23.62,23.62,0,0,0-13.526,21.354v4.119a1.886,1.886,0,0,0,1.886,1.885h6.473v-3.551a23.618,23.618,0,0,1,13.526-21.354l1.905-.9a3.175,3.175,0,0,1,3.395.409,10.795,10.795,0,0,0,17.612-6.645Zm0,0" transform="translate(-1126.701 -907.44)" fill="#e17983"/>
  <path id="Trazado_128550" data-name="Trazado 128550" d="M1228.471,963.617a7.228,7.228,0,1,1-14.455,0V948.529h14.455Zm0,0" transform="translate(-1185.15 -878.089)" fill="#ffd1c2"/>
  <path id="Trazado_128551" data-name="Trazado 128551" d="M1277.207,911.994a4.215,4.215,0,1,0,0-8.429h-8.843v8.429Zm0,0" transform="translate(-1222.375 -847.292)" fill="#ffd1c2"/>
  <path id="Trazado_128552" data-name="Trazado 128552" d="M1171.04,911.994a4.215,4.215,0,1,1,0-8.429h8.779v8.429Zm0,0" transform="translate(-1152.828 -847.292)" fill="#ffd1c2"/>
  <path id="Trazado_128553" data-name="Trazado 128553" d="M1191.6,856.765a16.063,16.063,0,0,0-3.052,9.42v13.907a15.682,15.682,0,0,0,31.363,0V864.712a2.037,2.037,0,0,0-2.036-2.036h-7.357a27.165,27.165,0,0,1-16.413-5.519l-.843-.64a1.174,1.174,0,0,0-1.661.247Zm0,0" transform="translate(-1167.706 -814.904)" fill="#ffe0d1"/>
  <path id="Trazado_128554" data-name="Trazado 128554" d="M1193.411,859.9l1.062.747a36.042,36.042,0,0,0,20.68,6.443h7.759v-2.377a2.036,2.036,0,0,0-2.036-2.036h-7.357a27.161,27.161,0,0,1-16.413-5.52l-.843-.639a1.174,1.174,0,0,0-1.661.247,15.964,15.964,0,0,0-1.671,2.911,1.528,1.528,0,0,1,.481.223Zm0,0" transform="translate(-1170.708 -814.904)" fill="#ffd1c2"/>
  <path id="Trazado_128555" data-name="Trazado 128555" d="M1318.752,754.844a27.018,27.018,0,0,1,13.179-23.218l-.321-.005a23.233,23.233,0,0,0-21.911,31.51l-5.211,7.673a1.136,1.136,0,0,0,1.019,1.771l10.091-.713a23.15,23.15,0,0,0,16.338,6.2,27.016,27.016,0,0,1-13.184-23.218Zm0,0" transform="translate(-1246.981 -729.522)" fill="#86d7e5"/>
  <path id="Trazado_128556" data-name="Trazado 128556" d="M1371.569,770.591a15.98,15.98,0,1,1-15.979-15.98,15.979,15.979,0,0,1,15.979,15.98Zm0,0" transform="translate(-1271.173 -745.27)" fill="#fbe88c"/>
  <path id="Trazado_128557" data-name="Trazado 128557" d="M1346.255,790.105a27.068,27.068,0,0,1,0-25.939,15.981,15.981,0,0,0,0,25.939Zm0,0" transform="translate(-1271.173 -751.814)" fill="#f9de58"/>
  <path id="Trazado_128558" data-name="Trazado 128558" d="M1380.911,787.886a8.023,8.023,0,1,1-8.023-8.025,8.024,8.024,0,0,1,8.023,8.025Zm0,0" transform="translate(-1288.47 -762.564)" fill="#e79098"/>
  <path id="Trazado_128559" data-name="Trazado 128559" d="M1444.409,730.777l-8.065,5.337a.8.8,0,0,0-.353.752l.788,7.266,9.565-6.33-.7-6.445a.8.8,0,0,0-1.236-.58Zm0,0" transform="translate(-1337.183 -728.853)" fill="#f2eae7"/>
  <path id="Trazado_128560" data-name="Trazado 128560" d="M1453.776,757.892l-8.065,5.336a.8.8,0,0,1-.83.032l-6.379-3.566,9.565-6.33,5.659,3.163a.8.8,0,0,1,.05,1.364Zm0,0" transform="translate(-1338.906 -744.416)" fill="#f2eae7"/>
  <path id="Trazado_128561" data-name="Trazado 128561" d="M1182.213,855.2a1.789,1.789,0,0,0-1.927,1.637l-.4,4.9a5.968,5.968,0,0,0-2.24-.436h-.841v-4.677a3.828,3.828,0,0,0-3.823-3.824h-7.359a25.513,25.513,0,0,1-15.331-5.156l-.843-.639a2.961,2.961,0,0,0-4.191.623,17.741,17.741,0,0,0-3.392,10.469v3.2h-.841a5.973,5.973,0,0,0-2.155.4l-1.494-10.648a12.374,12.374,0,0,1,.176-4.409,1.788,1.788,0,0,0-3.49-.775,15.92,15.92,0,0,0-.226,5.68l1.832,13.053a6,6,0,0,0,5.359,8.7h.895a17.475,17.475,0,0,0,7.971,13.383v4.523l-12.337,5.831A25.514,25.514,0,0,0,1123,920.012v6a1.788,1.788,0,1,0,3.575,0v-6a21.926,21.926,0,0,1,12.5-19.736l11.2-5.295a9.017,9.017,0,0,0,17.244,0l11.2,5.295.18.09a1.788,1.788,0,1,0,1.563-3.216l-.062-.031c-.052-.026-.1-.052-.154-.075l-12.337-5.831v-4a17.488,17.488,0,0,0,8.829-13.9h.894a6,6,0,0,0,5.558-8.267l.645-7.909a1.787,1.787,0,0,0-1.636-1.927ZM1138.6,867.3a2.429,2.429,0,0,1,2.427-2.427h.841v4.854h-.841a2.429,2.429,0,0,1-2.427-2.427Zm25.748,25.041a5.44,5.44,0,1,1-10.88,0v-3.887a17.437,17.437,0,0,0,10.88.281ZM1173.23,872a13.894,13.894,0,1,1-27.788,0V858.1a14.17,14.17,0,0,1,2.357-7.857l.332.254a29.122,29.122,0,0,0,17.493,5.883h7.359a.247.247,0,0,1,.248.247Zm4.416-2.274h-.841v-4.854h.841a2.427,2.427,0,0,1,0,4.854Zm0,0" transform="translate(-1122.813 -806.817)"/>
  <path id="Trazado_128562" data-name="Trazado 128562" d="M1171.153,808.779a1.784,1.784,0,0,0,1.293-.554,12.318,12.318,0,0,1,6.491-3.583,1.755,1.755,0,0,0,.337-.1l5.809-2.442A19.526,19.526,0,0,1,1208,807.9a1.788,1.788,0,0,0,2.78-2.249,23.643,23.643,0,0,0-12.018-7.874A22.882,22.882,0,0,0,1183.7,798.8l-5.651,2.375a15.876,15.876,0,0,0-8.188,4.581,1.789,1.789,0,0,0,1.294,3.023Zm0,0" transform="translate(-1154.567 -774.272)"/>
  <path id="Trazado_128563" data-name="Trazado 128563" d="M1317.557,1025.549a1.785,1.785,0,0,0,.026,2.528,21.964,21.964,0,0,1,6.556,15.593v6a1.788,1.788,0,1,0,3.575,0v-6a25.554,25.554,0,0,0-7.63-18.146,1.786,1.786,0,0,0-2.528.026Zm0,0" transform="translate(-1255.717 -930.474)"/>
  <path id="Trazado_128564" data-name="Trazado 128564" d="M1167.46,1073.467a1.787,1.787,0,0,0-1.788,1.788v7.607a1.788,1.788,0,1,0,3.575,0v-7.607a1.787,1.787,0,0,0-1.787-1.788Zm0,0" transform="translate(-1152.038 -963.663)"/>
  <path id="Trazado_128565" data-name="Trazado 128565" d="M1298.679,1073.467a1.787,1.787,0,0,0-1.788,1.788v7.607a1.788,1.788,0,1,0,3.575,0v-7.607a1.787,1.787,0,0,0-1.787-1.788Zm0,0" transform="translate(-1241.913 -963.663)"/>
  <path id="Trazado_128566" data-name="Trazado 128566" d="M1411.423,810.515a1.788,1.788,0,1,0,1.829,3.073,17.862,17.862,0,0,0,8.694-15.275c0-.513-.025-1.037-.075-1.6a1.788,1.788,0,0,0-3.562.319c.042.457.062.875.062,1.281a14.269,14.269,0,0,1-6.948,12.2Zm0,0" transform="translate(-1319.761 -772.992)"/>
  <g id="Grupo_60282" data-name="Grupo 60282" transform="translate(0 0)">
    <g id="Grupo_60281" data-name="Grupo 60281" clip-path="url(#clip-path)">
      <path id="Trazado_128567" data-name="Trazado 128567" d="M1351.705,752.512a14.209,14.209,0,0,1,6.7,1.68,1.788,1.788,0,1,0,1.691-3.151,17.768,17.768,0,1,0-8.391,33.43c.3,0,.6-.009.9-.023a1.788,1.788,0,1,0-.179-3.572c-.243.012-.486.018-.724.018a14.191,14.191,0,1,1,0-28.382Zm0,0" transform="translate(-1267.288 -741.383)"/>
      <path id="Trazado_128568" data-name="Trazado 128568" d="M1400.273,735.513l-4.853-2.712-.6-5.527a2.587,2.587,0,0,0-4-1.879l-8.065,5.337a2.583,2.583,0,0,0-1.145,2.437l.671,6.182-6.23,4.123a9.766,9.766,0,1,0,1.979,2.978l6.224-4.119,5.429,3.035a2.581,2.581,0,0,0,2.69-.1l8.064-5.338a2.586,2.586,0,0,0-.165-4.415Zm-25.038,14.77a6.242,6.242,0,1,1-2.242-4.786l-4.978,3.295a1.788,1.788,0,1,0,1.973,2.982l4.981-3.3a6.206,6.206,0,0,1,.267,1.805Zm10-16.9,6.209-4.108.406,3.749-6.209,4.108Zm5.671,8.571-3.292-1.84,2.426-1.6,3.785-2.5,3.291,1.84Zm0,0" transform="translate(-1284.582 -724.962)"/>
    </g>
  </g>
  <path id="Trazado_128569" data-name="Trazado 128569" d="M1350.772,749.839a1.783,1.783,0,0,0-1.839,1.737,21.433,21.433,0,0,1-36.009,15.088,1.787,1.787,0,0,0-1.343-.474l-8.75.618,4.456-6.56a1.789,1.789,0,0,0,.192-1.643,21.446,21.446,0,0,1,20.034-29.085h.191a21.373,21.373,0,0,1,7.609,1.466,1.787,1.787,0,1,0,1.3-3.329,24.872,24.872,0,0,0-8.88-1.712h-.223a25.025,25.025,0,0,0-23.7,33.048l-4.7,6.918a2.924,2.924,0,0,0,2.625,4.559l9.333-.659a24.9,24.9,0,0,0,16.433,6.157h.252a25.09,25.09,0,0,0,24.745-24.288,1.788,1.788,0,0,0-1.735-1.839Zm0,0" transform="translate(-1243.091 -725.634)"/>
</svg>
