<svg id="Grupo_60286" data-name="Grupo 60286" xmlns="http://www.w3.org/2000/svg" xmlns:xlink="http://www.w3.org/1999/xlink" width="102.714" height="120.988" viewBox="0 0 102.714 120.988">
  <defs>
    <clipPath id="clip-path">
      <rect id="SVGID" width="102.714" height="120.988" fill="none"/>
    </clipPath>
  </defs>
  <path id="Trazado_128570" data-name="Trazado 128570" d="M1708.091,797.262A5.9,5.9,0,0,1,1703.9,799h-15.351a.962.962,0,0,0-.93,1.2l1.221,4.733a26.369,26.369,0,0,1-1.134,16.582l-.183.442a3.74,3.74,0,0,1-7.058-.4l-1.721-6.068a12.182,12.182,0,0,0-3.787-5.927l-15.165-13.034H1635v-40.2l25.244-.1.251-.16a28.372,28.372,0,0,1,15.266-4.458H1703.9a5.924,5.924,0,1,1,0,11.847,5.924,5.924,0,0,1,0,11.849,5.924,5.924,0,0,1,0,11.847,5.922,5.922,0,0,1,4.188,10.111Zm0,0" transform="translate(-1624.736 -749.796)" fill="#ffe0d1"/>
  <path id="Trazado_128571" data-name="Trazado 128571" d="M1685.36,942.64h-22.842a2.191,2.191,0,0,0-2.191,2.191v27.909h-15.143a1.261,1.261,0,0,0-.849,2.194l26.438,24.049a3.168,3.168,0,0,0,4.263,0l26.438-24.049a1.261,1.261,0,0,0-.849-2.194h-15.143Zm.122,30.1" transform="translate(-1630.845 -880.638)" fill="#fbe88c"/>
  <path id="Trazado_128572" data-name="Trazado 128572" d="M1862.44,924.446a1.915,1.915,0,0,0-1.915-1.915h-7.284a1.915,1.915,0,0,0-1.915,1.915v10.78a1.335,1.335,0,0,1-1.334,1.334h-3.93a1.335,1.335,0,0,0-1.006,2.212l10.821,12.4a1.333,1.333,0,0,0,2.01,0l10.821-12.4a1.334,1.334,0,0,0-1.006-2.212h-3.928a1.334,1.334,0,0,1-1.334-1.334v-10.78Zm0,0" transform="translate(-1768.382 -866.865)" fill="#fbe88c"/>
  <path id="Trazado_128573" data-name="Trazado 128573" d="M1709.148,760.285a5.889,5.889,0,0,0,.677-2.87,6.017,6.017,0,0,0-6.064-5.806h-28a28.362,28.362,0,0,0-15.266,4.459l-.251.159-25.244.1v40.194h21.581a10.2,10.2,0,0,0,.319-2.536V764.06a2.307,2.307,0,0,1,2.3-2.308,5.035,5.035,0,0,0,1.973-.411c2.614-1.126,10.175-4.212,14.6-4.212h28.141a5.92,5.92,0,0,1,5.239,3.154Zm0,0" transform="translate(-1624.736 -749.796)" fill="#ffd1c2"/>
  <path id="Trazado_128574" data-name="Trazado 128574" d="M1605.777,753.476a2.589,2.589,0,0,0-2.589,2.59v43.213a2.59,2.59,0,0,0,2.589,2.591h19.108a6.6,6.6,0,0,0,6.6-6.6v-35.19a6.6,6.6,0,0,0-6.6-6.6Zm19.108,0" transform="translate(-1602.947 -751.075)" fill="#a59ca6"/>
  <path id="Trazado_128575" data-name="Trazado 128575" d="M1625.126,801.863a6.6,6.6,0,0,0,6.36-6.6v-35.19a6.6,6.6,0,0,0-6.6-6.6h-19.108a2.589,2.589,0,0,0-2.589,2.59v3.719h15.344a6.6,6.6,0,0,1,6.6,6.6s0,35.38-.006,35.476Zm0,0" transform="translate(-1602.947 -751.075)" fill="#8f8390"/>
  <path id="Trazado_128576" data-name="Trazado 128576" d="M1866.127,936.025a3.147,3.147,0,0,0-2.371-5.216h-3.451V918.593a1.812,1.812,0,0,0-3.625,0v12.7a3.15,3.15,0,0,0,3.147,3.146h2.876l-9.768,11.191-9.769-11.191h2.878a3.15,3.15,0,0,0,3.147-3.146v-12.7a1.812,1.812,0,0,0-3.625,0v12.216h-3.451a3.147,3.147,0,0,0-2.371,5.216l10.821,12.4a3.145,3.145,0,0,0,4.741,0l10.82-12.4Zm0,0" transform="translate(-1764.436 -862.927)"/>
  <g id="Grupo_60285" data-name="Grupo 60285" transform="translate(0 0)">
    <g id="Grupo_60284" data-name="Grupo 60284" clip-path="url(#clip-path)">
      <path id="Trazado_128577" data-name="Trazado 128577" d="M1707.694,789.133a7.724,7.724,0,0,0-2.766-5.923,7.727,7.727,0,0,0,0-11.847,7.728,7.728,0,0,0,0-11.848,7.733,7.733,0,0,0-4.969-13.659h-28.141a30.131,30.131,0,0,0-16.044,4.616h-5.866a8.417,8.417,0,0,0-7.178-4.028h-11.675a1.812,1.812,0,1,0,0,3.625h11.675a4.794,4.794,0,0,1,4.789,4.789v5.971a1.812,1.812,0,0,0,3.625,0v-5.971c0-.256-.014-.51-.036-.761h5.192a1.817,1.817,0,0,0,.974-.283l.251-.16a26.514,26.514,0,0,1,14.293-4.173h28.141a4.111,4.111,0,0,1,0,8.223,1.812,1.812,0,1,0,0,3.624,4.111,4.111,0,0,1,0,8.223,1.812,1.812,0,1,0,0,3.625,4.111,4.111,0,0,1,0,8.223,1.812,1.812,0,1,0,0,3.625,4.112,4.112,0,0,1,0,8.224H1697.9a1.812,1.812,0,1,0,0,3.625h2.063a7.744,7.744,0,0,0,7.735-7.737Zm0,0" transform="translate(-1620.792 -745.855)"/>
      <path id="Trazado_128578" data-name="Trazado 128578" d="M1641.245,1009.5a3.074,3.074,0,0,0-2.069,5.348l26.438,24.048a4.962,4.962,0,0,0,6.7,0l26.436-24.048a3.074,3.074,0,0,0-2.067-5.348h-13.332v-8.732a1.812,1.812,0,1,0-3.625,0v10.544a1.812,1.812,0,0,0,1.813,1.813h13.718l-25.383,23.089a1.352,1.352,0,0,1-1.826,0l-25.383-23.089h13.719a1.812,1.812,0,0,0,1.812-1.813v-9.9a1.812,1.812,0,0,0-3.625,0v8.086Zm0,0" transform="translate(-1626.906 -919.209)"/>
    </g>
  </g>
  <path id="Trazado_128579" data-name="Trazado 128579" d="M1692.055,952.992a1.812,1.812,0,0,0,1.812-1.812V938.7a1.812,1.812,0,0,0-3.625,0V951.18a1.813,1.813,0,0,0,1.813,1.812Zm0,0" transform="translate(-1662.572 -876.7)"/>
  <path id="Trazado_128580" data-name="Trazado 128580" d="M1631.055,840.237a1.812,1.812,0,1,0,0,3.625h11.675a8.415,8.415,0,0,0,7.2-4.064h5.248l14.656,12.6a10.361,10.361,0,0,1,3.225,5.047l1.721,6.069a5.553,5.553,0,0,0,10.48.593l.181-.442a28.173,28.173,0,0,0,1.215-17.724l-.947-3.667h4.464a1.812,1.812,0,1,0,0-3.625h-5.564a2.772,2.772,0,0,0-2.685,3.466l1.221,4.731a24.545,24.545,0,0,1-1.057,15.442l-.181.442a1.929,1.929,0,0,1-3.641-.207l-1.721-6.069a13.975,13.975,0,0,0-4.348-6.806l-15.165-13.034a1.811,1.811,0,0,0-1.182-.438h-4.74c.021-.239.033-22.22.033-22.22a1.812,1.812,0,1,0-3.625,0v21.5a4.8,4.8,0,0,1-4.789,4.789Zm0,0" transform="translate(-1620.792 -791.255)"/>
</svg>
