<svg id="Grupo_60277" data-name="Grupo 60277" xmlns="http://www.w3.org/2000/svg" width="113.813" height="120.988" viewBox="0 0 113.813 120.988">
  <path id="Trazado_128519" data-name="Trazado 128519" d="M267.828,1023.179l7.2,18.506a1.028,1.028,0,0,1-.959,1.4h-5.487a1.03,1.03,0,0,1-.959-.656l-4.87-12.526a.762.762,0,0,0-.708-.485h-4.747a.76.76,0,0,0-.759.759v11.349a1.559,1.559,0,0,1-1.558,1.558H250.5a1.558,1.558,0,0,1-1.557-1.558V1030.18a.761.761,0,0,0-.759-.759h-4.747a.759.759,0,0,0-.708.485l-4.852,12.476a1.107,1.107,0,0,1-1.031.705h-5.319a1.107,1.107,0,0,1-1.033-1.508l7.154-18.4,4.584-11.442h21.343Zm0,0" transform="translate(-195.831 -923.867)" fill="#cac5cb"/>
  <path id="Trazado_128520" data-name="Trazado 128520" d="M279.974,1013.7h-35.63v7.983a2.841,2.841,0,0,0,2.842,2.841h29.946a2.841,2.841,0,0,0,2.842-2.841Zm0,0" transform="translate(-205.371 -925.21)" fill="#f8f3f2"/>
  <rect id="Rectángulo_7275" data-name="Rectángulo 7275" width="105.441" height="74.213" transform="translate(4.186 13.618)" fill="#f9f7f7"/>
  <path id="Trazado_128521" data-name="Trazado 128521" d="M147.931,833.634V776.073h-14v74.213H239.375v-9.911h-84.7a6.743,6.743,0,0,1-6.743-6.742Zm0,0" transform="translate(-129.748 -762.455)" fill="#f2eae7"/>
  <path id="Trazado_128522" data-name="Trazado 128522" d="M289.59,750.313H269.7v-6.589a5.263,5.263,0,0,1,5.263-5.261h9.361a5.263,5.263,0,0,1,5.263,5.261Zm0,0" transform="translate(-222.74 -736.695)" fill="#f8f3f2"/>
  <path id="Trazado_128523" data-name="Trazado 128523" d="M234.117,774.063H128.676a2.418,2.418,0,0,1-2.419-2.417v-2.135a2.419,2.419,0,0,1,2.419-2.419H234.117a2.419,2.419,0,0,1,2.418,2.419v2.135a2.418,2.418,0,0,1-2.418,2.417Zm0,0" transform="translate(-124.491 -756.303)" fill="#a59ca6"/>
  <path id="Trazado_128524" data-name="Trazado 128524" d="M234.117,1007.524H128.676a2.419,2.419,0,0,1-2.419-2.419v-2.134a2.419,2.419,0,0,1,2.419-2.419H234.117a2.419,2.419,0,0,1,2.418,2.419v2.134a2.418,2.418,0,0,1-2.418,2.419Zm0,0" transform="translate(-124.491 -916.207)" fill="#a59ca6"/>
  <path id="Trazado_128525" data-name="Trazado 128525" d="M254.985,888.164a8.788,8.788,0,0,0,8.787,8.788h24.953l3.434,2.492a1.457,1.457,0,0,0,2.314-1.179V876.288a8.786,8.786,0,0,0-8.786-8.786h-23.9a6.8,6.8,0,0,0-6.8,6.8Zm0,0" transform="translate(-212.659 -825.077)" fill="#b3e5ee"/>
  <path id="Trazado_128526" data-name="Trazado 128526" d="M240.651,854.827H215.7l-3.434,2.492a1.457,1.457,0,0,1-2.314-1.179V834.165a8.787,8.787,0,0,1,8.787-8.788h21.914a8.788,8.788,0,0,1,8.788,8.788v11.874a8.787,8.787,0,0,1-8.788,8.788Zm0,0" transform="translate(-181.814 -796.224)" fill="#fbe372"/>
  <path id="Trazado_128527" data-name="Trazado 128527" d="M234.461,748.192v-2.135a4.19,4.19,0,0,0-4.186-4.186h-41.01V739.88a7.038,7.038,0,0,0-7.03-7.03h-9.361a7.038,7.038,0,0,0-7.03,7.03v1.992h-41.01a4.19,4.19,0,0,0-4.186,4.186v2.135a4.188,4.188,0,0,0,2.417,3.79v63.843a4.188,4.188,0,0,0-2.417,3.789v2.135a4.19,4.19,0,0,0,4.186,4.186h14.776a1.768,1.768,0,0,0,0-3.537H124.835a.65.65,0,0,1-.65-.649v-2.135a.651.651,0,0,1,.65-.65H230.276a.651.651,0,0,1,.65.65v2.135a.65.65,0,0,1-.65.649H147.152a1.768,1.768,0,0,0,0,3.537h10.7v3.385a4.606,4.606,0,0,0,2.275,3.968l-7.054,18.14a1.768,1.768,0,1,0,3.3,1.282l7.3-18.78h27.764l7.3,18.78a1.768,1.768,0,0,0,3.3-1.282l-7.1-18.256a4.606,4.606,0,0,0,2.085-3.852v-3.385h33.255a4.191,4.191,0,0,0,4.186-4.186v-2.135a4.188,4.188,0,0,0-2.417-3.789V751.981a4.187,4.187,0,0,0,2.417-3.788ZM193.485,829.32a1.077,1.077,0,0,1-1.075,1.074H162.464a1.075,1.075,0,0,1-1.073-1.074v-3.385h32.095Zm-24.1-89.44a3.5,3.5,0,0,1,3.494-3.494h9.361a3.5,3.5,0,0,1,3.494,3.494v1.992H169.381Zm-45.2,6.177a.651.651,0,0,1,.65-.65H230.276a.651.651,0,0,1,.65.65v2.135a.651.651,0,0,1-.65.65H218.052a1.768,1.768,0,1,0,0,3.536h10.455v63.051H126.6V752.378H210.51a1.768,1.768,0,1,0,0-3.536H124.835a.651.651,0,0,1-.65-.65Zm0,0" transform="translate(-120.649 -732.85)"/>
  <path id="Trazado_128528" data-name="Trazado 128528" d="M259.956,1062.252h-4.747a2.511,2.511,0,0,0-2.356,1.611l-5.126,13.182a1.768,1.768,0,1,0,3.3,1.282l4.876-12.539h3.047v11.9a1.768,1.768,0,0,0,3.536,0v-12.907a2.53,2.53,0,0,0-2.527-2.527Zm0,0" transform="translate(-207.606 -958.466)"/>
  <path id="Trazado_128529" data-name="Trazado 128529" d="M317.333,1063.863a2.511,2.511,0,0,0-2.355-1.611h-4.747a2.53,2.53,0,0,0-2.528,2.527v12.907a1.769,1.769,0,0,0,3.537,0v-11.9h3.047l4.875,12.539a1.769,1.769,0,0,0,1.648,1.127,1.747,1.747,0,0,0,.641-.121,1.768,1.768,0,0,0,1.007-2.289Zm0,0" transform="translate(-248.767 -958.466)"/>
  <path id="Trazado_128530" data-name="Trazado 128530" d="M251,833.036h-3.633v-2.718a10.568,10.568,0,0,0-10.556-10.555H214.895a10.566,10.566,0,0,0-10.555,10.555V852.3a3.223,3.223,0,0,0,5.121,2.61l2.969-2.155h6.1v2.716a10.568,10.568,0,0,0,10.555,10.556h24.38l2.969,2.155a3.226,3.226,0,0,0,5.121-2.612V843.591A10.567,10.567,0,0,0,251,833.036Zm7.019,31.922-2.94-2.135a1.772,1.772,0,0,0-1.039-.337H229.084a7.026,7.026,0,0,1-7.019-7.019V852.75h5.245a1.768,1.768,0,1,0,0-3.537H211.855a1.764,1.764,0,0,0-1.039.338l-2.94,2.134V830.319a7.027,7.027,0,0,1,7.019-7.019h21.914a7.027,7.027,0,0,1,7.019,7.019v11.875a7.026,7.026,0,0,1-7.019,7.019h-1.956a1.768,1.768,0,1,0,0,3.537h1.956a10.567,10.567,0,0,0,10.555-10.556v-5.622H251a7.026,7.026,0,0,1,7.019,7.019Zm0,0" transform="translate(-177.971 -792.38)"/>
</svg>
