<svg xmlns="http://www.w3.org/2000/svg" width="89.827" height="62.879" viewBox="0 0 89.827 62.879">
  <g id="Grupo_57611" data-name="Grupo 57611" transform="translate(-1318.929 -1435.064)">
    <path id="Trazado_126963" data-name="Trazado 126963" d="M1329.409,1436.562h68.867a2.993,2.993,0,0,1,2.994,2.994v44.913h-74.856v-44.913a2.994,2.994,0,0,1,3-2.994Zm0,0" fill="#c595ff"/>
    <rect id="Rectángulo_7177" data-name="Rectángulo 7177" width="62.879" height="41.919" transform="translate(1332.403 1442.55)" fill="#95f7ff"/>
    <path id="Trazado_126964" data-name="Trazado 126964" d="M1320.426,1484.469h86.833v5.989a5.988,5.988,0,0,1-5.989,5.988h-74.856a5.988,5.988,0,0,1-5.988-5.988Zm0,0" fill="#c595ff"/>
    <rect id="Rectángulo_7178" data-name="Rectángulo 7178" width="32.937" height="29.942" transform="translate(1369.831 1448.538)" fill="#f9e478"/>
    <path id="Trazado_126965" data-name="Trazado 126965" d="M1395.282,1457.521v5.989h-2.994v8.982h-11.977v-8.982h-2.994v-5.989a2.993,2.993,0,0,1,2.994-2.994h2.994a2.994,2.994,0,1,0,5.988,0h2.995a2.993,2.993,0,0,1,2.994,2.994Zm0,0" fill="#f17781"/>
    <rect id="Rectángulo_7179" data-name="Rectángulo 7179" width="32.937" height="29.942" transform="translate(1324.917 1448.538)" fill="#f9e478"/>
    <path id="Trazado_126966" data-name="Trazado 126966" d="M1350.368,1457.521v5.989h-2.994v8.982H1335.4v-8.982H1332.4v-5.989a2.993,2.993,0,0,1,2.994-2.994h2.994a2.995,2.995,0,0,0,5.989,0h2.994a2.993,2.993,0,0,1,2.994,2.994Zm0,0" fill="#f17781"/>
    <path id="Trazado_126967" data-name="Trazado 126967" d="M1367.98,1490.458H1359.7a2.99,2.99,0,0,1-2.678-1.655l-2.167-4.334h17.965l-2.167,4.334a2.99,2.99,0,0,1-2.678,1.655Zm0,0" fill="#c595ff"/>
    <rect id="Rectángulo_7180" data-name="Rectángulo 7180" width="32.937" height="29.942" transform="translate(1347.374 1442.55)" fill="#f9e478"/>
    <path id="Trazado_126968" data-name="Trazado 126968" d="M1372.825,1451.533v5.988h-2.994v8.983h-11.977v-8.983h-2.994v-5.988a2.994,2.994,0,0,1,2.994-2.995h2.994a2.995,2.995,0,1,0,5.989,0h2.994a2.994,2.994,0,0,1,2.994,2.995Zm0,0" fill="#95f7ff"/>
    <path id="Trazado_126969" data-name="Trazado 126969" d="M1368.334,1468l-2.994-11.977,11.977,2.994Zm0,0" fill="#e9eef2"/>
    <path id="Trazado_126970" data-name="Trazado 126970" d="M1407.259,1482.972h-4.491v-2.994a1.5,1.5,0,0,0,1.5-1.5v-29.943a1.5,1.5,0,0,0-1.5-1.5v-7.485a4.5,4.5,0,0,0-4.492-4.492h-68.867a4.5,4.5,0,0,0-4.492,4.492v7.485a1.5,1.5,0,0,0-1.5,1.5v29.943a1.5,1.5,0,0,0,1.5,1.5v2.994h-4.491a1.5,1.5,0,0,0-1.5,1.5v5.989a7.494,7.494,0,0,0,7.485,7.485h74.856a7.494,7.494,0,0,0,7.486-7.485v-5.989a1.5,1.5,0,0,0-1.5-1.5Zm-7.486,0h-2.994v-2.994h2.994Zm-65.873,0v-2.994h23.954a1.5,1.5,0,0,0,1.5-1.5v-4.491h8.983v4.491a1.5,1.5,0,0,0,1.5,1.5h23.954v2.994Zm36.5,2.994-1.084,2.167a1.487,1.487,0,0,1-1.339.828H1359.7a1.487,1.487,0,0,1-1.339-.828l-1.084-2.167Zm-43.989-8.982v-26.948h19.463v2.994h-1.5a1.5,1.5,0,0,0-1.5,1.5,1.5,1.5,0,1,1-2.994,0,1.5,1.5,0,0,0-1.5-1.5H1335.4a4.5,4.5,0,0,0-4.491,4.491v5.989a1.5,1.5,0,0,0,1.5,1.5h1.5v7.485a1.5,1.5,0,0,0,1.5,1.5h20.96v2.994Zm74.856-26.948v26.948h-29.942v-2.994h20.96a1.5,1.5,0,0,0,1.5-1.5v-7.485h1.5a1.5,1.5,0,0,0,1.5-1.5v-5.989a4.5,4.5,0,0,0-4.491-4.491h-2.995a1.5,1.5,0,0,0-1.5,1.5,1.5,1.5,0,1,1-2.994,0,1.5,1.5,0,0,0-1.5-1.5h-1.5v-2.994Zm-19.462,5.988h.256a4.492,4.492,0,0,0,8.47,0h1.754a1.5,1.5,0,0,1,1.5,1.5v4.492h-1.5a1.5,1.5,0,0,0-1.5,1.5v1.5h-8.983Zm0,11.977h8.983v2.994h-8.983Zm11.977-20.96h-11.977v-2.994h11.977Zm-14.971,11.97a1.5,1.5,0,0,0-1.135-1.445l-3.357-.839v-5.194a4.5,4.5,0,0,0-4.491-4.492h-2.994a1.5,1.5,0,0,0-1.5,1.5,1.5,1.5,0,1,1-2.995,0,1.5,1.5,0,0,0-1.5-1.5h-2.994a4.5,4.5,0,0,0-4.491,4.492v5.988a1.5,1.5,0,0,0,1.5,1.5h1.5v7.486a1.5,1.5,0,0,0,1.5,1.5h8.937l.091.363a1.5,1.5,0,0,0,2.51.7l8.983-8.983a1.5,1.5,0,0,0,.439-1.064v11.982h-29.943v-26.948h29.943Zm-9.6,6h-.083l-1.73-6.924,6.992,1.747Zm-11.357-8.983h-1.5v-4.491a1.5,1.5,0,0,1,1.5-1.5h1.753a4.492,4.492,0,0,0,8.471,0h1.753a1.5,1.5,0,0,1,1.5,1.5v4.445l-5.626-1.406a1.5,1.5,0,0,0-1.815,1.815l2.155,8.62h-6.691v-7.486a1.5,1.5,0,0,0-1.5-1.5Zm-11.977,14.971h-2.994v-12.236a4.512,4.512,0,0,0,2.738-2.735h.256Zm-10.48-8.982h-1.5v-4.492a1.5,1.5,0,0,1,1.5-1.5h1.754a4.513,4.513,0,0,0,2.738,2.735v12.236h-2.995v-7.485a1.5,1.5,0,0,0-1.5-1.5Zm10.48-14.972H1333.9v-2.994h11.977Zm-17.965-7.485a1.5,1.5,0,0,1,1.5-1.5h68.867a1.5,1.5,0,0,1,1.5,1.5v7.485h-2.994v-4.491a1.5,1.5,0,0,0-1.5-1.5H1332.4a1.5,1.5,0,0,0-1.5,1.5v4.491h-2.994Zm0,40.422h2.994v2.994h-2.994Zm77.85,10.48a4.5,4.5,0,0,1-4.492,4.491h-74.856a4.5,4.5,0,0,1-4.491-4.491v-4.492h32.012l1.752,3.506a4.467,4.467,0,0,0,4.018,2.483h8.275a4.468,4.468,0,0,0,4.018-2.483l1.752-3.506h32.012Zm0,0" fill="#855db5"/>
  </g>
</svg>
