<svg xmlns="http://www.w3.org/2000/svg" width="73.407" height="94.342" viewBox="0 0 73.407 94.342">
  <g id="Grupo_57623" data-name="Grupo 57623" transform="translate(-1327.139 -2270.677)">
    <path id="Trazado_127149" data-name="Trazado 127149" d="M1361.383,2362.621a50.625,50.625,0,0,1-32.862-47.408v-25.445l35.321-17.548,35.323,17.548v25.445a50.63,50.63,0,0,1-32.863,47.408l-2.46.921Z" fill="#c595ff"/>
    <path id="Trazado_127151" data-name="Trazado 127151" d="M1363.842,2281.166l-27.474,13.649v20.477a42.328,42.328,0,0,0,27.474,39.636,42.326,42.326,0,0,0,27.475-39.636v-20.477Z" fill="#f9e478"/>
    <path id="Trazado_127153" data-name="Trazado 127153" d="M1346.278,2310.393h8v20.06h-8Z" fill="#95f7ff"/>
    <path id="Trazado_127154" data-name="Trazado 127154" d="M1369.158,2309.916l1.373-5.1-2.135-2.787h-4.437l-2.44,9.054-7.237.005v15.954h4.7l3.409,3.409h16.449v-3.823h.858v-5.059h.858v-5.025h.858v-5.482l-11.36.014Z" fill="#ffdaaa"/>
    <path id="Trazado_127159" data-name="Trazado 127159" d="M1363.842,2270.677l-36.7,18.234v26.3a52.01,52.01,0,0,0,33.759,48.7l2.946,1.1,2.944-1.1a52.009,52.009,0,0,0,33.758-48.7v-26.3Zm0,82.772a41.138,41.138,0,0,1-26.092-38.157v-19.62l24.709-12.277v12.341h2.764V2283.4l24.712,12.277v19.62A41.137,41.137,0,0,1,1363.842,2353.449Zm-25.167-10.181a49.035,49.035,0,0,1-8.772-28.055v-24.588l32.557-16.175v5.859l-27.473,13.651v21.332a43.708,43.708,0,0,0,27.475,40.583v5.675l-.593-.223A49.018,49.018,0,0,1,1338.675,2343.268Zm59.107-28.055a49.245,49.245,0,0,1-31.966,46.114l-.592.222v-5.675a43.709,43.709,0,0,0,27.475-40.582v-21.333l-27.475-13.65v-5.86l32.559,16.175Z" fill="#855db5"/>
    <path id="Trazado_127160" data-name="Trazado 127160" d="M1344.9,2331.835h10.768v-22.824H1344.9Zm2.764-20.06h5.24v17.3h-5.24Z" fill="#855db5"/>
    <path id="Trazado_127161" data-name="Trazado 127161" d="M1380.216,2328.012h.858v-5.059h.857v-5.025h.858v-8.248l-12.06.014-.06-.078,1.374-5.1-2.965-3.87H1362.9l-2.441,9.057-2.494,0,0,2.764,4.608-.006,2.44-9.053h2.7l1.305,1.7-1.374,5.1,1.722,2.244,10.658-.013v2.717h-6.578v2.764h5.72v2.261h-5.72v2.764h4.863v2.3H1373.6v2.764h3.848v1.059h-14.494l-2.6-2.6v-5.741h-2.764v6.887l4.218,4.218h18.4Z" fill="#855db5"/>
  </g>
</svg>
