<svg xmlns="http://www.w3.org/2000/svg" width="90.699" height="63.185" viewBox="0 0 90.699 63.185">
  <g id="Grupo_57617" data-name="Grupo 57617" transform="translate(-1318.493 -1135.663)">
    <path id="Trazado_126997" data-name="Trazado 126997" d="M1402.361,1186.515h-77.037v-46.866a2.658,2.658,0,0,1,2.657-2.658H1399.7a2.658,2.658,0,0,1,2.657,2.658Z" fill="#c595ff"/>
    <path id="Trazado_126998" data-name="Trazado 126998" d="M1330.827,1142.494h66.031v44.021h-66.031Z" fill="#95f7ff"/>
    <path id="Trazado_126999" data-name="Trazado 126999" d="M1402.549,1197.52h-77.413a5.314,5.314,0,0,1-5.314-5.314v-5.691h88.041v5.691A5.314,5.314,0,0,1,1402.549,1197.52Z" fill="#f5fcff"/>
    <path id="Trazado_127000" data-name="Trazado 127000" d="M1333.993,1197.519h-8.857a5.314,5.314,0,0,1-5.315-5.314v-5.69h8.858v5.69A5.314,5.314,0,0,0,1333.993,1197.519Z" fill="#dff1f7"/>
    <path id="Trazado_127001" data-name="Trazado 127001" d="M1380.35,1186.515h-33.015l5.5,5.5h22.011Z" fill="#c595ff"/>
    <path id="Trazado_127002" data-name="Trazado 127002" d="M1385.854,1159l-8.255-2.75-2.748,2.755-2.754-2.751-8.255,2.746v5.506h3.732v13.653h14.548V1164.51h3.732Z" fill="#f07281"/>
    <path id="Trazado_127003" data-name="Trazado 127003" d="M1367.573,1164.51h3.543v13.652h-3.543Z" fill="#eb5569"/>
    <path id="Trazado_127004" data-name="Trazado 127004" d="M1372.1,1156.258l.886.884-5.6,1.862v5.506h-3.543V1159Z" fill="#eb5569"/>
    <path id="Trazado_127005" data-name="Trazado 127005" d="M1341.832,1142.494h55.026V1148h-55.026Z" fill="#95f7ff"/>
    <path id="Trazado_127006" data-name="Trazado 127006" d="M1330.827,1142.494h11.005V1148h-11.005Z" fill="#f07281"/>
    <path id="Trazado_127007" data-name="Trazado 127007" d="M1330.827,1142.494h3.354V1148h-3.354Z" fill="#eb5569"/>
    <path id="Trazado_127008" data-name="Trazado 127008" d="M1348.158,1167.787l1.15,2.33a.764.764,0,0,0,.576.419l2.571.374a.765.765,0,0,1,.424,1.3l-1.86,1.813a.764.764,0,0,0-.22.678l.439,2.56a.765.765,0,0,1-1.11.807l-2.3-1.209a.768.768,0,0,0-.713,0l-2.3,1.209a.766.766,0,0,1-1.111-.807l.44-2.56a.77.77,0,0,0-.22-.678l-1.861-1.813a.765.765,0,0,1,.424-1.3l2.571-.374a.766.766,0,0,0,.577-.419l1.149-2.33a.766.766,0,0,1,1.373,0Z" fill="#ffb952"/>
    <g id="Grupo_57616" data-name="Grupo 57616">
      <path id="Trazado_127009" data-name="Trazado 127009" d="M1407.864,1185.186h-4.174v-45.537a3.99,3.99,0,0,0-3.986-3.986h-13.729a1.328,1.328,0,0,0,0,2.657H1399.7a1.33,1.33,0,0,1,1.329,1.329v45.537h-2.847v-17.78a1.328,1.328,0,1,0-2.657,0v17.78h-63.373v-35.857h63.373v12.288a1.328,1.328,0,0,0,2.657,0v-19.123a1.236,1.236,0,0,0-1.329-1.329h-66.031a1.225,1.225,0,0,0-1.329,1.329v42.692h-2.847v-45.537a1.33,1.33,0,0,1,1.329-1.329h52.205a1.328,1.328,0,1,0,0-2.657h-52.205a3.99,3.99,0,0,0-3.986,3.986v45.537h-4.174a1.328,1.328,0,0,0-1.328,1.329v5.69a6.65,6.65,0,0,0,6.643,6.643h13.8a1.328,1.328,0,1,0,0-2.657h-13.8a3.99,3.99,0,0,1-3.986-3.986v-4.361h25.635l5.113,5.113a1.328,1.328,0,0,0,.939.389h22.011a1.328,1.328,0,0,0,.939-.389l5.113-5.113h25.635v4.361a3.991,3.991,0,0,1-3.986,3.986h-57.823a1.328,1.328,0,0,0,0,2.657h57.823a6.65,6.65,0,0,0,6.643-6.643v-5.69a1.329,1.329,0,0,0-1.328-1.329Zm-75.708-41.363h8.347v2.849h-8.347Zm11.005,2.848v-2.849h52.368v2.849Zm31.136,44.018h-20.909l-2.846-2.845h26.6Z" fill="#855db5"/>
      <path id="Trazado_127010" data-name="Trazado 127010" d="M1367.574,1179.492h14.548a1.329,1.329,0,0,0,1.329-1.329v-12.324h2.4a1.329,1.329,0,0,0,1.328-1.329V1159a1.329,1.329,0,0,0-.908-1.261l-8.255-2.749a1.327,1.327,0,0,0-1.361.322l-1.809,1.813-1.813-1.811a1.328,1.328,0,0,0-1.359-.321l-8.255,2.746a1.33,1.33,0,0,0-.909,1.261v5.506a1.329,1.329,0,0,0,1.329,1.329h2.4v12.324A1.329,1.329,0,0,0,1367.574,1179.492Zm-2.4-16.31v-3.22l6.568-2.185,1.781,1.78v3.8a1.328,1.328,0,0,0,2.657,0v-3.8l1.783-1.786,6.566,2.187v3.22h-2.4a1.329,1.329,0,0,0-1.329,1.328v12.325H1368.9V1164.51a1.329,1.329,0,0,0-1.328-1.328Z" fill="#855db5"/>
      <path id="Trazado_127011" data-name="Trazado 127011" d="M1341.832,1157.583h11.005a1.329,1.329,0,0,0,0-2.658h-11.005a1.329,1.329,0,0,0,0,2.658Z" fill="#855db5"/>
      <path id="Trazado_127012" data-name="Trazado 127012" d="M1341.832,1163.082h11.005a1.328,1.328,0,1,0,0-2.657h-11.005a1.328,1.328,0,1,0,0,2.657Z" fill="#855db5"/>
      <path id="Trazado_127013" data-name="Trazado 127013" d="M1352.646,1169.595l-2.278-.331-1.019-2.064q-1.876-2.336-3.755,0l-1.019,2.064-2.278.331q-2.8,1.065-1.16,3.572l1.648,1.606-.389,2.269q.147,2.992,3.038,2.208l2.038-1.072,2.037,1.072a2.125,2.125,0,0,0,3.038-2.208l-.389-2.269,1.649-1.606a2.056,2.056,0,0,0-1.161-3.572Zm-2.555,3.482a2.1,2.1,0,0,0-.6,1.853l.246,1.436-1.289-.678a2.093,2.093,0,0,0-1.949,0l-1.289.678.246-1.436a2.1,2.1,0,0,0-.6-1.853l-1.044-1.017,1.442-.209a2.1,2.1,0,0,0,1.577-1.146l.644-1.306.645,1.306a2.1,2.1,0,0,0,1.577,1.146l1.441.209Z" fill="#855db5"/>
    </g>
  </g>
</svg>
