<svg id="Grupo_60287" data-name="Grupo 60287" xmlns="http://www.w3.org/2000/svg" width="115.145" height="120.988" viewBox="0 0 115.145 120.988">
  <path id="Trazado_128581" data-name="Trazado 128581" d="M2187.895,820.7h-103.33s-6.139,8.606-5.758,8.606v77.1a6.029,6.029,0,0,0,6.029,6.029h99.531a6.029,6.029,0,0,0,6.03-6.029V829.3Zm0,0" transform="translate(-2077.03 -793.218)" fill="#f9f7f7"/>
  <path id="Trazado_128582" data-name="Trazado 128582" d="M2190.434,793.921v12.911h-111.59V793.921a6.029,6.029,0,0,1,6.03-6.031H2184.4a6.029,6.029,0,0,1,6.03,6.031Zm0,0" transform="translate(-2077.067 -770.749)" fill="#e79098"/>
  <path id="Trazado_128583" data-name="Trazado 128583" d="M2098.787,903.535a6.029,6.029,0,0,1-6.031-6.031V820.7h-8.192s-6.139,8.606-5.758,8.606v77.1a6.029,6.029,0,0,0,6.029,6.029h99.531a6.029,6.029,0,0,0,6.03-6.029v-2.865Zm0,0" transform="translate(-2077.03 -793.218)" fill="#f2eae7"/>
  <path id="Trazado_128584" data-name="Trazado 128584" d="M2106.791,1052.834h-21.917a6.029,6.029,0,0,1-6.03-6.029v-21.117h27.947Zm0,0" transform="translate(-2077.067 -933.623)" fill="#f2eae7"/>
  <rect id="Rectángulo_7276" data-name="Rectángulo 7276" width="27.848" height="27.147" transform="translate(57.572 92.064)" fill="#f2eae7"/>
  <rect id="Rectángulo_7277" data-name="Rectángulo 7277" width="27.848" height="8.894" transform="translate(57.572 110.316)" fill="#ede2dd"/>
  <rect id="Rectángulo_7278" data-name="Rectángulo 7278" width="27.947" height="27.99" transform="translate(85.421 64.074)" fill="#f2eae7"/>
  <rect id="Rectángulo_7279" data-name="Rectángulo 7279" width="27.848" height="27.99" transform="translate(29.724 64.074)" fill="#f2eae7"/>
  <rect id="Rectángulo_7280" data-name="Rectángulo 7280" width="27.848" height="27.992" transform="translate(57.572 36.082)" fill="#f2eae7"/>
  <rect id="Rectángulo_7281" data-name="Rectángulo 7281" width="27.947" height="27.992" transform="translate(1.777 36.082)" fill="#f2eae7"/>
  <rect id="Rectángulo_7282" data-name="Rectángulo 7282" width="13.949" height="27.992" transform="translate(1.777 36.082)" fill="#ede2dd"/>
  <path id="Trazado_128585" data-name="Trazado 128585" d="M2293,874.961a4.918,4.918,0,1,1-4.918-4.918,4.918,4.918,0,0,1,4.918,4.918Zm0,0" transform="translate(-2217.014 -827.018)" fill="#b3e5ee"/>
  <path id="Trazado_128586" data-name="Trazado 128586" d="M2284.268,895.209l2.634,2.438a8.236,8.236,0,0,1,2.639,6.043v3.471h-15.732V903.69a8.235,8.235,0,0,1,2.64-6.043l2.634-2.438,1.51-1.7h2.07Zm0,0" transform="translate(-2210.604 -843.087)" fill="#b3e5ee"/>
  <path id="Trazado_128587" data-name="Trazado 128587" d="M2206.734,1048.4a4.918,4.918,0,1,1-4.918-4.918,4.919,4.919,0,0,1,4.918,4.918Zm0,0" transform="translate(-2157.926 -945.81)" fill="#b3e5ee"/>
  <path id="Trazado_128588" data-name="Trazado 128588" d="M2198,1069.941l2.634,2.53a8.694,8.694,0,0,1,2.64,6.27v3.6h-15.733v-3.6a8.7,8.7,0,0,1,2.64-6.27l2.634-2.53,1.38-1.171h2.3Zm0,0" transform="translate(-2151.515 -963.131)" fill="#b3e5ee"/>
  <path id="Trazado_128589" data-name="Trazado 128589" d="M2201.5,1083.617h-12.193a8.753,8.753,0,0,0-1.77,5.292v3.6h15.733v-3.6a8.753,8.753,0,0,0-1.77-5.292Zm0,0" transform="translate(-2151.515 -973.301)" fill="#86d7e5"/>
  <path id="Trazado_128590" data-name="Trazado 128590" d="M2240.463,799.267a7.3,7.3,0,0,0,7.287-7.287v-4.09h-14.575v4.09a7.3,7.3,0,0,0,7.287,7.287Zm0,0" transform="translate(-2182.773 -770.749)" fill="#e17983"/>
  <path id="Trazado_128591" data-name="Trazado 128591" d="M2248.19,762.315a3.733,3.733,0,0,1-3.733-3.733V742.862a3.733,3.733,0,0,1,7.466,0v15.721a3.733,3.733,0,0,1-3.733,3.733Zm0,0" transform="translate(-2190.5 -737.352)" fill="#f9f7f7"/>
  <path id="Trazado_128592" data-name="Trazado 128592" d="M2193.3,799.267a7.3,7.3,0,0,0,7.287-7.287v-4.09h-14.574v4.09a7.3,7.3,0,0,0,7.287,7.287Zm0,0" transform="translate(-2150.469 -770.749)" fill="#e17983"/>
  <path id="Trazado_128593" data-name="Trazado 128593" d="M2201.026,762.315a3.733,3.733,0,0,1-3.733-3.733V742.862a3.733,3.733,0,0,1,7.466,0v15.721a3.733,3.733,0,0,1-3.733,3.733Zm0,0" transform="translate(-2158.196 -737.352)" fill="#f9f7f7"/>
  <path id="Trazado_128594" data-name="Trazado 128594" d="M2146.135,799.267a7.3,7.3,0,0,0,7.287-7.287v-4.09h-14.575v4.09a7.3,7.3,0,0,0,7.287,7.287Zm0,0" transform="translate(-2118.165 -770.749)" fill="#e17983"/>
  <path id="Trazado_128595" data-name="Trazado 128595" d="M2153.862,762.315a3.733,3.733,0,0,1-3.733-3.733V742.862a3.733,3.733,0,0,1,7.466,0v15.721a3.733,3.733,0,0,1-3.733,3.733Zm0,0" transform="translate(-2125.892 -737.352)" fill="#f9f7f7"/>
  <path id="Trazado_128596" data-name="Trazado 128596" d="M2287.63,799.267a7.3,7.3,0,0,0,7.287-7.287v-4.09h-14.573v4.09a7.3,7.3,0,0,0,7.286,7.287Zm0,0" transform="translate(-2215.079 -770.749)" fill="#e17983"/>
  <path id="Trazado_128597" data-name="Trazado 128597" d="M2295.354,762.315a3.733,3.733,0,0,0,3.734-3.733V742.862a3.734,3.734,0,0,0-7.467,0v15.721a3.733,3.733,0,0,0,3.733,3.733Zm0,0" transform="translate(-2222.803 -737.352)" fill="#f9f7f7"/>
  <path id="Trazado_128598" data-name="Trazado 128598" d="M2334.794,799.267a7.3,7.3,0,0,0,7.287-7.287v-4.09h-14.573v4.09a7.3,7.3,0,0,0,7.286,7.287Zm0,0" transform="translate(-2247.383 -770.749)" fill="#e17983"/>
  <path id="Trazado_128599" data-name="Trazado 128599" d="M2342.519,762.315a3.733,3.733,0,0,0,3.733-3.733V742.862a3.734,3.734,0,0,0-7.467,0v15.721a3.733,3.733,0,0,0,3.734,3.733Zm0,0" transform="translate(-2255.107 -737.352)" fill="#f9f7f7"/>
  <path id="Trazado_128600" data-name="Trazado 128600" d="M2092.793,787.89h-7.92a6.029,6.029,0,0,0-6.03,6.031v12.911h13.949Zm0,0" transform="translate(-2077.067 -770.749)" fill="#e17983"/>
  <path id="Trazado_128601" data-name="Trazado 128601" d="M2092.793,1037.908v-12.221h-13.949V1046.8a6.029,6.029,0,0,0,6.03,6.029h21.917v-8.895h-7.967a6.03,6.03,0,0,1-6.031-6.031Zm0,0" transform="translate(-2077.067 -933.623)" fill="#ede2dd"/>
  <path id="Trazado_128602" data-name="Trazado 128602" d="M2186.57,834.371a1.778,1.778,0,0,0,1.777-1.777V756.658a7.816,7.816,0,0,0-7.807-7.807h-14.417v-1.074a1.777,1.777,0,1,0-3.553,0v6.941a1.956,1.956,0,0,1-3.912,0V739a1.956,1.956,0,0,1,3.912,0v1.2a1.777,1.777,0,1,0,3.553,0V739a5.509,5.509,0,1,0-11.019,0v9.854h-3.841V739a5.509,5.509,0,1,0-11.019,0v9.854H2136.4V739a5.51,5.51,0,0,0-11.02,0v9.854h-3.84V739a5.51,5.51,0,0,0-11.02,0v9.854h-3.84V739a5.51,5.51,0,0,0-11.02,0v9.854H2081.01a7.816,7.816,0,0,0-7.807,7.807v90.011a7.817,7.817,0,0,0,7.807,7.807h99.531a7.817,7.817,0,0,0,7.807-7.807v-6.5a1.777,1.777,0,0,0-3.555,0v6.5a4.257,4.257,0,0,1-4.252,4.252H2160.4V827.331h24.393v5.264a1.777,1.777,0,0,0,1.777,1.777Zm-69.476,4.846a3.141,3.141,0,1,1,3.14-3.141,3.144,3.144,0,0,1-3.14,3.141Zm-4.02,4.78,1.753-1.622a6.7,6.7,0,0,0,4.533,0l1.753,1.622a6.477,6.477,0,0,1,2.07,4.738v2.186H2111v-2.186a6.482,6.482,0,0,1,2.071-4.738Zm10.453-2.608-1.216-1.126a6.695,6.695,0,1,0-10.436,0l-1.216,1.126a10.041,10.041,0,0,0-3.209,7.346v2.186h-2.745V827.331H2129v23.591h-2.261v-2.186a10.037,10.037,0,0,0-3.21-7.346Zm-18.822-17.613v-8.711a1.777,1.777,0,0,0-3.554,0v8.711h-24.394V799.338h24.394v8.147a1.777,1.777,0,1,0,3.554,0v-8.147H2129v24.438Zm80.087-30.388-10.1-9.727,10.1-9.727Zm-12.657-12.194-10.221-9.847h20.442Zm-11.736-6.371,9.174,8.839L2160.4,792.5Zm-3.555,20.962h-2.926V794.09a10.038,10.038,0,0,0-3.21-7.347l-1.216-1.126a6.694,6.694,0,1,0-10.435,0l-1.216,1.126a10.042,10.042,0,0,0-3.21,7.347v1.694h-2.079V771.346h24.292Zm-18.659,0V794.09a6.476,6.476,0,0,1,2.07-4.738l1.752-1.622a6.7,6.7,0,0,0,4.534,0l1.752,1.622a6.476,6.476,0,0,1,2.071,4.738v1.694Zm6.09-11.212a3.141,3.141,0,1,1,3.141-3.141,3.145,3.145,0,0,1-3.141,3.141ZM2129,795.784h-24.292V771.346H2129Zm-27.847,0h-24.394V771.346h24.394Zm31.4,3.554h24.292v24.438h-24.292Zm39.583-13.21,10.022,9.655h-20.045ZM2143.8,739a1.956,1.956,0,0,1,3.911,0v15.721a1.956,1.956,0,0,1-3.911,0Zm-14.86,0a1.956,1.956,0,1,1,3.911,0v15.721a1.956,1.956,0,1,1-3.911,0Zm-14.86,0a1.956,1.956,0,1,1,3.911,0v15.721a1.956,1.956,0,1,1-3.911,0Zm-14.86,0a1.956,1.956,0,0,1,3.911,0v15.721a1.956,1.956,0,0,1-3.911,0Zm-18.208,13.408h14.653v2.313a5.51,5.51,0,0,0,11.02,0v-2.313h3.84v2.313a5.51,5.51,0,0,0,11.02,0v-2.313h3.84v2.313a5.51,5.51,0,0,0,11.02,0v-2.313h3.841v2.313a5.51,5.51,0,0,0,11.02,0v-2.313h3.84v2.313a5.51,5.51,0,0,0,11.02,0v-2.313h14.416a4.257,4.257,0,0,1,4.252,4.252v11.133H2076.758V756.658a4.257,4.257,0,0,1,4.252-4.252Zm-4.252,94.263V827.331h24.394v23.591H2081.01a4.257,4.257,0,0,1-4.252-4.252Zm80.087,4.252h-24.292V827.331h24.292Zm3.555-27.146V799.338h24.393v24.438Zm0,0" transform="translate(-2073.203 -733.488)"/>
  <path id="Trazado_128603" data-name="Trazado 128603" d="M2101.121,879.709a9.637,9.637,0,0,0,8.288-14.567l1.684-1.687a1.777,1.777,0,0,0-2.514-2.511l-1.525,1.527a9.641,9.641,0,1,0-5.932,17.238Zm0-15.733a6.054,6.054,0,0,1,3.393,1.036l-3.626,3.632-.225-.241a1.777,1.777,0,1,0-2.6,2.421l1.48,1.59a1.776,1.776,0,0,0,1.269.566h.03a1.776,1.776,0,0,0,1.258-.522l4.666-4.672a6.089,6.089,0,1,1-5.646-3.811Zm0,0" transform="translate(-2085.719 -820.429)"/>
  <path id="Trazado_128604" data-name="Trazado 128604" d="M2287.781,951.933a1.778,1.778,0,0,0-2.513,0l-1.525,1.526a9.638,9.638,0,1,0,2.355,2.671l1.685-1.686a1.778,1.778,0,0,0,0-2.513Zm-3.879,9.125a6.1,6.1,0,1,1-2.7-5.053l-3.627,3.631-.223-.241a1.777,1.777,0,1,0-2.6,2.422l1.479,1.59a1.78,1.78,0,0,0,1.27.566h.031a1.78,1.78,0,0,0,1.258-.521l4.666-4.673a6.053,6.053,0,0,1,.444,2.279Zm0,0" transform="translate(-2206.74 -882.751)"/>
</svg>
