<svg xmlns="http://www.w3.org/2000/svg" width="74.471" height="94.342" viewBox="0 0 74.471 94.342">
  <g id="Grupo_57628" data-name="Grupo 57628" transform="translate(-1326.607 -1579.582)">
    <path id="Trazado_127193" data-name="Trazado 127193" d="M1382.461,1672.542h-51.708a2.763,2.763,0,0,1-2.764-2.764h0v-86.05a2.764,2.764,0,0,1,2.764-2.764h51.708a2.765,2.765,0,0,1,2.764,2.764v86.05a2.764,2.764,0,0,1-2.764,2.764Z" fill="#c595ff"/>
    <path id="Trazado_127195" data-name="Trazado 127195" d="M1333.713,1592.412H1379.5v68.683h-45.788Z" fill="#f5fcff"/>
    <path id="Trazado_127197" data-name="Trazado 127197" d="M1333.713,1592.412H1379.5v11.442h-45.788Z" fill="#f9e478"/>
    <path id="Trazado_127199" data-name="Trazado 127199" d="M1333.713,1649.653H1379.5V1661.1h-45.788Z" fill="#f9e478"/>
    <path id="Trazado_127201" data-name="Trazado 127201" d="M1368.055,1615.354l-8.587-2.861-2.859,2.866-2.864-2.862-8.587,2.856v5.727h3.883v14.2h15.132v-14.2h3.882Z" fill="#f17781"/>
    <path id="Trazado_127202" data-name="Trazado 127202" d="M1349.041,1621.081h3.685v14.2h-3.685Z" fill="#eb5569"/>
    <path id="Trazado_127203" data-name="Trazado 127203" d="M1353.745,1612.5l.921.919-5.822,1.937v5.728h-3.686v-5.728Z" fill="#eb5569"/>
    <path id="Trazado_127204" data-name="Trazado 127204" d="M1371.014,1586.681H1342.2a2.764,2.764,0,0,1-2.764-2.764v-2.96h34.342v2.96A2.765,2.765,0,0,1,1371.014,1586.681Z" fill="#8cbdf9"/>
    <path id="Trazado_127205" data-name="Trazado 127205" d="M1371.258,1661.1v-5.723h25.395v5.723Z" fill="#f5fcff"/>
    <path id="Trazado_127206" data-name="Trazado 127206" d="M1374.943,1661.1h-3.686v-5.723h3.686" fill="#d8ecfe"/>
    <path id="Trazado_127207" data-name="Trazado 127207" d="M1368.215,1672.538V1661.1H1399.7v11.438Z" fill="#95f7ff"/>
    <g id="Grupo_57626" data-name="Grupo 57626">
      <path id="Trazado_127209" data-name="Trazado 127209" d="M1393.8,1631.132a2.861,2.861,0,0,0-2.862,2.861h0v-1.245a2.862,2.862,0,1,0-5.723,0v-.969a2.862,2.862,0,1,0-5.724,0v-15.6a2.862,2.862,0,0,0-5.724,0v20.032c0,2.346-1.728,2.209-2.348,1.079-1.628-2.963-2.379-6.086-5.686-7.613-2.759-1.274-4.973.556-4.238,2.1,2.542,5.315,3.821,9.527,5.809,14.515.712,1.787,2.8,2.953,3.844,4.12a7.215,7.215,0,0,1,2.077,4.971h21.022a10.083,10.083,0,0,1,1.221-4.892,8.383,8.383,0,0,0,1.194-4.367v-12.122a2.862,2.862,0,0,0-2.862-2.862Z" fill="#ffcebf"/>
      <path id="Trazado_127210" data-name="Trazado 127210" d="M1396.657,1633.994" fill="#ffcebf"/>
    </g>
    <path id="Trazado_127213" data-name="Trazado 127213" d="M1373.762,1668.2a1.382,1.382,0,1,1,1.382-1.382h0A1.382,1.382,0,0,1,1373.762,1668.2Z" fill="#855db5"/>
    <g id="Grupo_57627" data-name="Grupo 57627">
      <path id="Trazado_127214" data-name="Trazado 127214" d="M1327.989,1619.453a1.382,1.382,0,0,0,1.382-1.382h0v-34.343a1.384,1.384,0,0,1,1.382-1.382h7.3v1.571a4.152,4.152,0,0,0,4.146,4.146h28.813a4.151,4.151,0,0,0,4.146-4.146v-1.571h7.3a1.384,1.384,0,0,1,1.382,1.382v16.985a1.382,1.382,0,1,0,2.764,0v-16.985a4.15,4.15,0,0,0-4.146-4.146h-51.707a4.151,4.151,0,0,0-4.146,4.146v34.343A1.382,1.382,0,0,0,1327.989,1619.453Zm12.829-37.107H1372.4v1.571a1.383,1.383,0,0,1-1.382,1.382H1342.2a1.384,1.384,0,0,1-1.382-1.382Z" fill="#855db5"/>
      <path id="Trazado_127215" data-name="Trazado 127215" d="M1362.33,1668.2a1.382,1.382,0,1,0,0-2.764h-11.447a1.382,1.382,0,1,0,0,2.764Z" fill="#855db5"/>
      <path id="Trazado_127216" data-name="Trazado 127216" d="M1399.7,1659.717h-1.661v-4.343a1.382,1.382,0,0,0-1.382-1.382h-.9a6.841,6.841,0,0,1,.893-2.791,9.774,9.774,0,0,0,1.395-5.086v-12.137a4.284,4.284,0,0,0-6.453-3.607,4.453,4.453,0,0,0-4.98-1.6v-22.032a1.382,1.382,0,1,0-2.764,0v21.073a4.235,4.235,0,0,0-2.974-.007l.015-35.389a1.382,1.382,0,0,0-1.382-1.382h-45.789a1.382,1.382,0,0,0-1.382,1.382h0v68.682a1.382,1.382,0,0,0,1.382,1.382h33.121v8.684h-36.08a1.384,1.384,0,0,1-1.382-1.382v-45.686a1.382,1.382,0,1,0-2.764,0v45.686a4.151,4.151,0,0,0,4.146,4.146l68.943,0a1.382,1.382,0,0,0,1.382-1.382h0V1661.1a1.382,1.382,0,0,0-1.382-1.382Zm-20.21-22.127a1.382,1.382,0,0,0,1.382-1.382h0v-4.429a1.48,1.48,0,0,1,2.96-.033v4.462a1.382,1.382,0,0,0,2.764,0v-3.46a1.483,1.483,0,1,1,2.959,0v3.46a1.382,1.382,0,1,0,2.764,0v-2.215a1.48,1.48,0,0,1,2.96,0h0v12.123a7.007,7.007,0,0,1-.992,3.649,9.761,9.761,0,0,0-1.315,4.228h-18.509a8.414,8.414,0,0,0-2.286-4.511,13.119,13.119,0,0,1-3.59-3.71c-.862-1.529-5.276-13.351-5.845-14.6-.443-.969,1.527-.75,2.411-.244.993.45,2.616,1.613,4.022,4.967.286.684,1.378,3.782,4.015,3.488.471-.052,1.958-.7,1.958-3.176v-20.032a1.48,1.48,0,0,1,2.96,0h0v20.032a1.382,1.382,0,0,0,1.382,1.382Zm15.785,19.167v2.959H1372.64v-2.959Zm-34.314-22.856h-10.534v-12.82a1.382,1.382,0,0,0-1.382-1.382h-2.5v-3.35l6.832-2.272,1.856,1.854v3.325a1.382,1.382,0,0,0,2.764,0h0v-3.326l1.851-1.856,6.83,2.275v3.35h-2.5a1.382,1.382,0,0,0-1.382,1.382v6.91C1360.661,1628.684,1358.787,1630.342,1360.957,1633.9Zm-25.863-40.107h43.025v8.679h-43.025Zm0,65.918v-8.686h10.936a1.382,1.382,0,0,0,0-2.764h-10.936v-43.025h43.025v6.968a4.468,4.468,0,0,0-5.739,3.971v19.986c-.25-.483-.486-.976-.715-1.457-1.332-2.788-2.957-5.57-6.111-6.579v-5.663h2.5a1.382,1.382,0,0,0,1.382-1.382v-5.728a1.382,1.382,0,0,0-.946-1.311l-8.586-2.86a1.381,1.381,0,0,0-1.415.335l-1.882,1.886-1.886-1.884a1.382,1.382,0,0,0-1.413-.334l-8.587,2.856a1.382,1.382,0,0,0-.945,1.312v5.728a1.381,1.381,0,0,0,1.381,1.382h2.5v12.819a1.382,1.382,0,0,0,1.382,1.382h13.1c1.479,3.616,3.178,8.989,4.738,11.6h-14.831a1.382,1.382,0,0,0,0,2.764h17.766a6.838,6.838,0,0,1,1.822,2.966,1.541,1.541,0,0,0-1.764,1.382v4.338Zm63.22,11.444H1369.6v-8.675h28.717Z" fill="#855db5"/>
    </g>
  </g>
</svg>
