<svg xmlns="http://www.w3.org/2000/svg" width="87.031" height="87.031" viewBox="0 0 87.031 87.031">
  <g id="Grupo_57612" data-name="Grupo 57612" transform="translate(-1320.327 -963.422)">
    <path id="Trazado_126971" data-name="Trazado 126971" d="M1353.689,964.872H1388.5a5.789,5.789,0,0,1,5.8,5.8V1043.2a5.788,5.788,0,0,1-5.8,5.8h-34.812a5.788,5.788,0,0,1-5.8-5.8V970.674a5.789,5.789,0,0,1,5.8-5.8Zm0,0" fill="#c595ff"/>
    <path id="Trazado_126972" data-name="Trazado 126972" d="M1374,1041.75a2.9,2.9,0,1,1-2.9-2.9,2.9,2.9,0,0,1,2.9,2.9Zm0,0" fill="#9aa3a8"/>
    <rect id="Rectángulo_7181" data-name="Rectángulo 7181" width="46.417" height="58.021" transform="translate(1347.887 976.476)" fill="#95f7ff"/>
    <path id="Trazado_126973" data-name="Trazado 126973" d="M1353.657,1019.992h-28.922a2.959,2.959,0,0,1-2.958-2.958v-28.9a2.959,2.959,0,0,1,2.958-2.958h28.9a2.959,2.959,0,0,1,2.958,2.958v23.152l5.8,14.5-8.68-5.779a.078.078,0,0,0-.055-.023Zm0,0" fill="#f9e478"/>
    <path id="Trazado_126974" data-name="Trazado 126974" d="M1405.908,1014.19V1049h-10.154a14.5,14.5,0,0,1-14.505-14.505h.029l-9.411-13.926a5.8,5.8,0,0,1,9.616-6.5l8.469,11.72h4.351V990.981l10.922,20.479a5.8,5.8,0,0,1,.683,2.73Zm0,0" fill="#f7cca9"/>
    <path id="Trazado_126975" data-name="Trazado 126975" d="M1382.7,1002.586l7.253-2.9h13.054a2.9,2.9,0,0,0,2.9-2.9v-11.6a2.9,2.9,0,0,0-2.9-2.9H1388.5a2.9,2.9,0,0,0-2.9,2.9v8.7Zm0,0" fill="#f17781"/>
    <path id="Trazado_126976" data-name="Trazado 126976" d="M1343.535,1014.19H1329.03l1.451-17.406h11.6Zm0,0" fill="#f17781"/>
    <path id="Trazado_126977" data-name="Trazado 126977" d="M1349.337,1014.19h-5.8l-1.45-17.406h5.8Zm0,0" fill="#e26d7b"/>
    <path id="Trazado_126978" data-name="Trazado 126978" d="M1371.095,1037.4a4.351,4.351,0,1,0,4.352,4.352,4.352,4.352,0,0,0-4.352-4.352Zm0,5.8a1.45,1.45,0,1,1,1.451-1.45,1.451,1.451,0,0,1-1.451,1.45Zm0,0" fill="#855db5"/>
    <path id="Trazado_126979" data-name="Trazado 126979" d="M1365.293,970.674a1.451,1.451,0,1,1-1.451-1.45,1.451,1.451,0,0,1,1.451,1.45Zm0,0" fill="#855db5"/>
    <path id="Trazado_126980" data-name="Trazado 126980" d="M1369.645,972.125H1379.8a1.451,1.451,0,1,0,0-2.9h-10.153a1.451,1.451,0,1,0,0,2.9Zm0,0" fill="#855db5"/>
    <path id="Trazado_126981" data-name="Trazado 126981" d="M1403.006,980.828h-7.252V970.674a7.26,7.26,0,0,0-7.253-7.252h-34.812a7.26,7.26,0,0,0-7.253,7.252v13.055h-21.7a4.413,4.413,0,0,0-4.408,4.408v28.9a4.413,4.413,0,0,0,4.408,4.408h21.7V1043.2a7.262,7.262,0,0,0,7.253,7.253h52.219a1.451,1.451,0,0,0,1.45-1.451V1014.19a7.272,7.272,0,0,0-.854-3.413l-5.142-9.642h1.644a4.356,4.356,0,0,0,4.352-4.351v-11.6a4.356,4.356,0,0,0-4.352-4.351Zm-49.317-14.505H1388.5a4.356,4.356,0,0,1,4.352,4.351v4.352h-43.516v-4.352a4.356,4.356,0,0,1,4.352-4.351Zm-30.461,50.711v-28.9a1.509,1.509,0,0,1,1.507-1.507h28.9a1.509,1.509,0,0,1,1.507,1.507v23.152a1.437,1.437,0,0,0,.1.538l4.069,10.174-4.747-3.161a1.515,1.515,0,0,0-.908-.3h-28.922a1.509,1.509,0,0,1-1.507-1.507Zm30.01,4.408,8.35,5.56a1.451,1.451,0,0,0,2.151-1.746l-5.7-14.247V988.137a4.412,4.412,0,0,0-4.408-4.408h-4.295v-5.8h43.516v2.9H1388.5a4.356,4.356,0,0,0-4.351,4.351v8.467l-2.827,8.481a1.45,1.45,0,0,0,1.915,1.8l6.993-2.8h2.622v23.208h-2.16l-8.021-11.1a7.253,7.253,0,1,0-12.006,8.141l7.881,11.662h-29.21v-11.6Zm.451,26.11a4.356,4.356,0,0,1-4.352-4.352v-7.252h30.531a15.957,15.957,0,0,0,6.729,11.6Zm50.256-35.41a4.365,4.365,0,0,1,.512,2.048v33.362h-8.7a13.071,13.071,0,0,1-13.052-12.78,1.45,1.45,0,0,0-.223-1.087l-9.407-13.926a4.351,4.351,0,1,1,7.211-4.872l.026.037,8.468,11.72a1.45,1.45,0,0,0,1.175.6h4.351a1.451,1.451,0,0,0,1.451-1.45v-24.659h2.321Zm.512-15.358a1.453,1.453,0,0,1-1.451,1.45h-13.054a1.443,1.443,0,0,0-.539.1l-4.349,1.739,1.912-5.736a1.459,1.459,0,0,0,.075-.459v-8.7a1.452,1.452,0,0,1,1.45-1.45h14.505a1.453,1.453,0,0,1,1.451,1.45Zm0,0" fill="#855db5"/>
    <path id="Trazado_126982" data-name="Trazado 126982" d="M1400.1,986.63h-8.7a1.451,1.451,0,0,0,0,2.9h8.7a1.451,1.451,0,1,0,0-2.9Zm0,0" fill="#855db5"/>
    <path id="Trazado_126983" data-name="Trazado 126983" d="M1400.1,992.432h-8.7a1.451,1.451,0,0,0,0,2.9h8.7a1.451,1.451,0,1,0,0-2.9Zm0,0" fill="#855db5"/>
    <path id="Trazado_126984" data-name="Trazado 126984" d="M1349.332,996.663a1.45,1.45,0,0,0-1.445-1.33h-1.451v-1.451a7.492,7.492,0,0,0-14.505,0v1.451h-1.45a1.451,1.451,0,0,0-1.446,1.33l-1.451,17.406a1.451,1.451,0,0,0,1.446,1.571h20.307a1.451,1.451,0,0,0,1.446-1.571Zm-7.247-4.231a1.452,1.452,0,0,1,1.45,1.45v1.451h-2.9v-1.451a1.452,1.452,0,0,1,1.451-1.45Zm-7.253,1.45a1.451,1.451,0,0,1,2.9,0v1.451h-2.9Zm-4.226,18.857,1.209-14.505h8.935l1.209,14.505Zm14.264,0-1.208-14.505h2.891l1.209,14.505Zm0,0" fill="#855db5"/>
  </g>
</svg>
