<svg xmlns="http://www.w3.org/2000/svg" width="271" height="145" viewBox="0 0 271 145">
  <g id="Grupo_60289" data-name="Grupo 60289" transform="translate(-309 -2096)">
    <g id="Grupo_57607" data-name="Grupo 57607" transform="translate(339 2096)">
      <g id="Grupo_57485" data-name="Grupo 57485" transform="translate(107.473 4.234)">
        <path id="Trazado_126730" data-name="Trazado 126730" d="M3197.781,2984.735l1.322-5.251-2.662-1.31a17.314,17.314,0,0,0-.145-2.326l2.616-1.39-1.482-5.208-3.275.218a17.329,17.329,0,0,0-1.124-1.721l1.721-2.752-3.888-3.77-2.907,1.946a17.409,17.409,0,0,0-1.66-.868l.12-3.427-5.252-1.321-1.57,3.191a17.067,17.067,0,0,0-1.837.047l-1.619-3.046-5.208,1.483.228,3.442a17.221,17.221,0,0,0-1.68.99l-2.805-1.755-3.77,3.888,1.786,2.668a17.558,17.558,0,0,0-1.092,1.887l-3.042-.107-1.32,5.251,2.591,1.275a17.253,17.253,0,0,0-.007,2.479l-2.394,1.272,1.482,5.208,2.574-.171a17.333,17.333,0,0,0,1.382,2.384l-1.278,2.044,3.889,3.769,1.96-1.312a17.409,17.409,0,0,0,2.567,1.427l-.078,2.233,5.251,1.32,1.007-2.047a17.286,17.286,0,0,0,2.98-.1l1.039,1.956,5.209-1.482-.157-2.382a17.249,17.249,0,0,0,2.411-1.549l2.005,1.253,3.768-3.887-1.47-2.2a17.413,17.413,0,0,0,1.178-2.345Zm-16.181,2.082a9.1,9.1,0,1,1,6.26-11.239A9.1,9.1,0,0,1,3181.6,2986.816Z" transform="translate(-3159.235 -2957.553)" fill="#fec12f"/>
        <path id="Trazado_126731" data-name="Trazado 126731" d="M3176.886,2966.983a13.067,13.067,0,1,0,16.145,8.99A13.067,13.067,0,0,0,3176.886,2966.983Zm6.413,22.526a10.355,10.355,0,1,1,7.125-12.793A10.354,10.354,0,0,1,3183.3,2989.509Z" transform="translate(-3160.591 -2959.036)" fill="#feb04c"/>
      </g>
      <g id="Grupo_57486" data-name="Grupo 57486" transform="translate(94.41 32.561)">
        <path id="Trazado_126732" data-name="Trazado 126732" d="M3143.424,3009.521a1.9,1.9,0,0,0,1.905,1.9h1.27l4.445,4.444v-4.444h14.6a1.9,1.9,0,0,0,1.905-1.9v-15.875a1.9,1.9,0,0,0-1.905-1.906h-20.319a1.905,1.905,0,0,0-1.905,1.906Z" transform="translate(-3143.424 -2991.741)" fill="#3bb6d5"/>
        <rect id="Rectángulo_7161" data-name="Rectángulo 7161" width="16.51" height="1.27" transform="translate(3.809 5.716)" fill="#fff"/>
        <rect id="Rectángulo_7162" data-name="Rectángulo 7162" width="16.51" height="1.269" transform="translate(3.809 8.891)" fill="#fff"/>
        <rect id="Rectángulo_7163" data-name="Rectángulo 7163" width="16.51" height="1.27" transform="translate(3.809 12.065)" fill="#fff"/>
      </g>
      <path id="Trazado_126733" data-name="Trazado 126733" d="M3209.055,3069.579c6.451-4.517,1.121-5.683-5.136-5.3,2.864-3.167.825-5.929-6.83-8.714-3.437-1.25-7.477-.2-11.38,1.9-3.432-5.7-7.838-9.479-12.539-7.024a23.424,23.424,0,0,0-8.431,6.81q-1.894-.624-4.068-1.141c-3.152-.746-5.407.095-6.963,1.874-6.278-3.163-12.547-4.872-16.028-2.245-6.053,4.568-6.685,8.192-2.375,11.5-6.241.559-10.831,2.818-2.4,7.148-7.469-.368-12.726.69-9.308,4.9,7.62,9.384,41.008,9.151,65.614,3.284,15.643-1.705,28.542-5.274,30.78-10.379C3221.638,3068.435,3216.135,3068.3,3209.055,3069.579Z" transform="translate(-3045.717 -2969.127)" fill="#b0bfde"/>
      <path id="Trazado_126734" data-name="Trazado 126734" d="M3130.7,3084.105c31.284-1.76,58.805-1.028,76.944.773,18.3,1.845,27.2,4.759,24.748,8.375-2.455,3.648-15.569,7.563-33.206,11.626-17.754,4.017-40.03,8.181-63.816,11.271-46.338,6.315-90.143,4.594-101.39-5.535C3022.65,3100.553,3066.754,3087.375,3130.7,3084.105Z" transform="translate(-3030.042 -2974.85)" fill="#f2e9bd"/>
      <path id="Trazado_126735" data-name="Trazado 126735" d="M3263.005,3091.462s13.039-3.814,9.437-11.221c-3.372-6.935-10.2,2.3-10.712,5.1s7.142-7.4,2.805-9.181-13.007,5.865-12.5,8.926,8.926-7.4,3.061-10.967-7.906,4.081-7.652,8.161,3.316-8.672-.764-9.181-5.1,8.16-4.337,9.691,4.337-11.987-3.315-11.223-4.081,8.161-3.06,9.691,0-10.711-7.652-6.885-3.315,15.559,3.316,15.813S3263.005,3091.462,3263.005,3091.462Z" transform="translate(-3062.925 -2972.786)" fill="#d1dbea"/>
      <g id="Grupo_57489" data-name="Grupo 57489" transform="translate(120.609 46.067)">
        <g id="Grupo_57487" data-name="Grupo 57487">
          <path id="Trazado_126736" data-name="Trazado 126736" d="M3219.207,3008.875a38.668,38.668,0,1,0,33.217,43.442A38.71,38.71,0,0,0,3219.207,3008.875Z" transform="translate(-3175.423 -3008.532)" fill="#fff"/>
        </g>
        <g id="Grupo_57488" data-name="Grupo 57488" transform="translate(0.392 5.348)">
          <path id="Trazado_126737" data-name="Trazado 126737" d="M3257.911,3043.954l-4,5.516-7.04,10.538-2.622-7.483-5.724,2.844-2.711-6.808-3.511,3.425-1.468-.58-4.617-2.536.276,5.2,3.537,1.969-8.6,15.117-3.1,1.456-1.839-6.274-.412-10.173-4.868-.854-1.619-3.961,3.753-7.24,4.219-.417,2.322,2.011,6.218-.675-6.143-4.516-5.408-1.68-.067-1.7,5.741-2.38-1.8-3.789,6.065-4.194,5.5,2.791,9.99-1.722s4.2-1.569,8.9-3.289A38.733,38.733,0,0,1,3257.911,3043.954Z" transform="translate(-3181.489 -3016.539)" fill="#d1dbea"/>
          <path id="Trazado_126738" data-name="Trazado 126738" d="M3194.07,3015.367l-2.683,3.475-4.706,6.416a.609.609,0,0,0-.061.6l2.094,4.6a.661.661,0,0,0,.47.342.6.6,0,0,0,.533-.218l2.724-3.386,3.791,6.092-9.787,6.661-5.017-.187a.6.6,0,0,0-.553.324l-1.463,2.893a.6.6,0,0,0,.016.571l2.754,4.655-5.017-3.166-1.273-2.044A38.576,38.576,0,0,1,3194.07,3015.367Z" transform="translate(-3175.892 -3015.015)" fill="#d1dbea"/>
          <path id="Trazado_126739" data-name="Trazado 126739" d="M3188.427,3068.468l-2.517-7.049,4.589-7.5,9.153,10.791-11.149,16.856-1.252-4.324,1.2-8.493A.568.568,0,0,0,3188.427,3068.468Z" transform="translate(-3177.556 -3021.419)" fill="#d1dbea"/>
          <path id="Trazado_126740" data-name="Trazado 126740" d="M3204.61,3027.014l-3.127-9.611c6.67-2.349,10.96-2.506,12.6-2.449l-2.955,8.087Z" transform="translate(-3180.143 -3014.945)" fill="#d1dbea"/>
        </g>
      </g>
      <path id="Trazado_126741" data-name="Trazado 126741" d="M3256.139,3094.8c.853-1.31-.207-2.423-4.253-3.015a33.028,33.028,0,0,0-12.108.594c8.188-3.967,17.734-9.538,9.019-10.183-2.718-.2-6.9,1.115-11.544,3.17,5.184-4.219,8.037-7.688,4.9-8.332-2.916-.6-8.864,2.833-15.193,7.389,3.607-3.818,5.7-7.15,4.075-8.721-1.323-1.282-4.144.19-7.389,2.918.146-2.4-.863-3.847-3.163-3.557-2.163.273-3.916,3.05-5.167,6.38a10.974,10.974,0,0,0-13.087-6.756c-6.5,1.842-1.278,14.226,1.629,20.114Z" transform="translate(-3058.747 -2973.258)" fill="#3bb6d5"/>
      <g id="Grupo_57491" data-name="Grupo 57491" transform="translate(5.968 95.763)">
        <path id="Trazado_126742" data-name="Trazado 126742" d="M3063.323,3071.847a15.028,15.028,0,1,1-26.555-.845A28.481,28.481,0,0,1,3063.323,3071.847Z" transform="translate(-3036.768 -3068.125)" fill="#d1dbea"/>
        <g id="Grupo_57490" data-name="Grupo 57490" transform="translate(3.29 1.07)">
          <line id="Línea_210" data-name="Línea 210" x2="36.038" y2="20.554" transform="translate(0 3.512)" fill="none"/>
          <line id="Línea_211" data-name="Línea 211" x1="6.64" y2="2.34" transform="translate(0.769 7.794)" fill="none"/>
          <line id="Línea_212" data-name="Línea 212" x1="8.186" y2="2.884" transform="translate(5.369 11.299)" fill="none"/>
          <line id="Línea_213" data-name="Línea 213" x1="13.683" y2="4.822" transform="translate(6.016 14.803)" fill="none"/>
          <line id="Línea_214" data-name="Línea 214" x1="13.311" y2="4.692" transform="translate(12.532 18.308)" fill="none"/>
          <line id="Línea_215" data-name="Línea 215" x1="7.412" y2="2.612" transform="translate(24.576 21.812)" fill="none"/>
          <line id="Línea_216" data-name="Línea 216" x1="1.367" y1="6.906" transform="translate(5.362 0.358)" fill="none"/>
          <line id="Línea_217" data-name="Línea 217" x1="2.13" y1="10.768" transform="translate(10.743)" fill="none"/>
          <line id="Línea_218" data-name="Línea 218" x1="2.668" y1="13.48" transform="translate(16.351 0.794)" fill="none"/>
          <line id="Línea_219" data-name="Línea 219" x1="2.739" y1="13.846" transform="translate(22.424 3.932)" fill="none"/>
          <line id="Línea_220" data-name="Línea 220" x1="2.354" y1="11.894" transform="translate(28.955 9.388)" fill="none"/>
        </g>
      </g>
      <g id="Grupo_57493" data-name="Grupo 57493" transform="translate(0.896 78.834)">
        <g id="Grupo_57492" data-name="Grupo 57492" transform="translate(7.925 2.013)">
          <path id="Trazado_126743" data-name="Trazado 126743" d="M3055.084,3084.208a52.6,52.6,0,0,0-7.631-25.356,42.191,42.191,0,0,0-6.99-8.838l-.274.31a41.831,41.831,0,0,1,6.92,8.759,52.193,52.193,0,0,1,7.562,25.141Z" transform="translate(-3040.189 -3050.014)" fill="#b0bfde"/>
        </g>
        <path id="Trazado_126744" data-name="Trazado 126744" d="M3040.3,3050.108a4.442,4.442,0,0,0-1.342-2.137c-.369-.3-1.238-.546-1.518-.2s-.039,1.008.5,1.448A4.451,4.451,0,0,0,3040.3,3050.108Z" transform="translate(-3031.787 -3047.601)" fill="#b0bfde"/>
        <path id="Trazado_126745" data-name="Trazado 126745" d="M3042.041,3052.492a4.168,4.168,0,0,0-2.106-.877c-.432-.037-1.208.208-1.24.59s.491.739,1.122.792A4.171,4.171,0,0,0,3042.041,3052.492Z" transform="translate(-3032.015 -3048.267)" fill="#b0bfde"/>
        <path id="Trazado_126746" data-name="Trazado 126746" d="M3044.909,3056.309a3.151,3.151,0,0,0-1.891-.581c-.367.029-.975.4-.944.8s.525.688,1.058.646A3.136,3.136,0,0,0,3044.909,3056.309Z" transform="translate(-3032.577 -3048.949)" fill="#b0bfde"/>
        <path id="Trazado_126747" data-name="Trazado 126747" d="M3042.428,3052.1a3.117,3.117,0,0,0,1.232-1.532c.108-.351-.013-1.049-.394-1.167s-.828.231-.985.739A3.125,3.125,0,0,0,3042.428,3052.1Z" transform="translate(-3032.594 -3047.896)" fill="#b0bfde"/>
        <path id="Trazado_126748" data-name="Trazado 126748" d="M3056.127,3077.978a3.694,3.694,0,0,0,1.82-1.058c.262-.3.489-1.018.208-1.264s-.84-.061-1.222.376A3.7,3.7,0,0,0,3056.127,3077.978Z" transform="translate(-3034.911 -3052.242)" fill="#b0bfde"/>
        <path id="Trazado_126749" data-name="Trazado 126749" d="M3045.66,3055.58a4.159,4.159,0,0,0,1.38-1.912c.132-.427.039-1.264-.357-1.388s-.885.321-1.077.943A4.155,4.155,0,0,0,3045.66,3055.58Z" transform="translate(-3033.139 -3048.374)" fill="#b0bfde"/>
        <path id="Trazado_126750" data-name="Trazado 126750" d="M3048.545,3059.7a3.128,3.128,0,0,0,1.428-1.6c.116-.374-.064-1.136-.533-1.282a1,1,0,0,0-1.164.755A3.141,3.141,0,0,0,3048.545,3059.7Z" transform="translate(-3033.591 -3049.126)" fill="#b0bfde"/>
        <path id="Trazado_126751" data-name="Trazado 126751" d="M3047.642,3060.207a3.336,3.336,0,0,0-1.932-1c-.4-.033-1.123.284-1.159.745s.439.878,1.023.925A3.336,3.336,0,0,0,3047.642,3060.207Z" transform="translate(-3032.988 -3049.528)" fill="#b0bfde"/>
        <path id="Trazado_126752" data-name="Trazado 126752" d="M3055.444,3078.321a3.352,3.352,0,0,0-1.375-1.593c-.371-.221-1.233-.387-1.5-.119s-.014.765.527,1.088A5.351,5.351,0,0,0,3055.444,3078.321Z" transform="translate(-3034.301 -3052.396)" fill="#b0bfde"/>
        <path id="Trazado_126753" data-name="Trazado 126753" d="M3052.334,3068.824a2.832,2.832,0,0,0-1.728-.309c-.38.044-1.109.356-1.2.649s.315.472.867.409A5.853,5.853,0,0,0,3052.334,3068.824Z" transform="translate(-3033.792 -3051.071)" fill="#b0bfde"/>
        <path id="Trazado_126754" data-name="Trazado 126754" d="M3051.117,3064.217a2.413,2.413,0,0,0,.806-1.371c.072-.334-.007-1.044-.255-1.208s-.541.128-.644.614A4.783,4.783,0,0,0,3051.117,3064.217Z" transform="translate(-3034.052 -3049.925)" fill="#b0bfde"/>
        <path id="Trazado_126755" data-name="Trazado 126755" d="M3054.209,3073.641a4.671,4.671,0,0,0-1.286-1.756c-.286-.2-.844-.208-.923.208a1.491,1.491,0,0,0,.636,1.3A1.773,1.773,0,0,0,3054.209,3073.641Z" transform="translate(-3034.223 -3051.612)" fill="#b0bfde"/>
        <path id="Trazado_126756" data-name="Trazado 126756" d="M3052.873,3068.515a6.288,6.288,0,0,0,1.949-1.815c.229-.383.267-1.083-.176-1.135a1.825,1.825,0,0,0-1.427.949A2.651,2.651,0,0,0,3052.873,3068.515Z" transform="translate(-3034.359 -3050.583)" fill="#b0bfde"/>
        <path id="Trazado_126757" data-name="Trazado 126757" d="M3054.883,3073.607a5.477,5.477,0,0,0,1.781-1.7c.194-.352.166-.99-.281-1.026a1.678,1.678,0,0,0-1.339.9A2.186,2.186,0,0,0,3054.883,3073.607Z" transform="translate(-3034.683 -3051.467)" fill="#b0bfde"/>
        <path id="Trazado_126758" data-name="Trazado 126758" d="M3030.685,3061.594a3.7,3.7,0,0,0,1.821-1.058c.262-.3.487-1.019.207-1.264s-.841-.061-1.222.376A3.7,3.7,0,0,0,3030.685,3061.594Z" transform="translate(-3030.685 -3049.521)" fill="#b0bfde"/>
        <path id="Trazado_126759" data-name="Trazado 126759" d="M3056.451,3082.86a2.794,2.794,0,0,0-1.321-1.155c-.348-.156-1.139-.258-1.373-.052s.024.575.531.8A5.829,5.829,0,0,0,3056.451,3082.86Z" transform="translate(-3034.503 -3053.237)" fill="#b0bfde"/>
        <path id="Trazado_126760" data-name="Trazado 126760" d="M3045.134,3066.317a4.853,4.853,0,0,0-1.773-1.119c-.335-.094-.865.034-.809.393a1.44,1.44,0,0,0,1.014.907A1.977,1.977,0,0,0,3045.134,3066.317Z" transform="translate(-3032.656 -3050.519)" fill="#b0bfde"/>
        <path id="Trazado_126761" data-name="Trazado 126761" d="M3050.435,3064.871a4.229,4.229,0,0,0-1.966-1.031c-.454-.1-1.378-.06-1.548.22s.269.64.931.792A6.9,6.9,0,0,0,3050.435,3064.871Z" transform="translate(-3033.376 -3050.29)" fill="#b0bfde"/>
      </g>
      <g id="Grupo_57494" data-name="Grupo 57494" transform="translate(0 106.108)">
        <path id="Trazado_126762" data-name="Trazado 126762" d="M3068.888,3093.746c-.675.314-6.755,1.622-8.106,5.889-1.072,3.388-2.661,2.526-3.689,1.316s-1.457-2.813-3.071-1.638c-5.312,3.868-11.849,3.4-9.661-.5,1.183-2.107-1.557-3.218-2.924-2.271-2.9,2.009-5.77,2.05-5.232-.524.529-2.531-.156-4.094-1.66-3.7s-3.693,2.547-4.853-.224c-.457-1.091,1.052-3.667,3.414-4.311,1.347-.367,5.783-.343,3.421-2.983-2.433-2.721.425-3.546,2.208-2.62.663.345,7.06,3.058,6.308.892-.888-2.556,1.269-3.5,3.981-1.349,1.23.976,3.26,3.906,4.016,2.785s4.151-3.1,5.033-.858C3060.58,3090.005,3067.487,3094.4,3068.888,3093.746Z" transform="translate(-3029.611 -3080.531)" fill="#b0bfde"/>
        <path id="Trazado_126763" data-name="Trazado 126763" d="M3031.5,3092.182a40.758,40.758,0,0,1,20.232-.922c11.46,2.418,15.425,5.79,22.444,3.154" transform="translate(-3029.925 -3082.172)" fill="none"/>
        <path id="Trazado_126764" data-name="Trazado 126764" d="M3040.773,3095.988s2.807-4.661,6.476-5.727" transform="translate(-3031.465 -3082.147)" fill="none"/>
        <path id="Trazado_126765" data-name="Trazado 126765" d="M3039.555,3084.1a19.5,19.5,0,0,0,8.387,5.219" transform="translate(-3031.262 -3081.124)" fill="none"/>
        <path id="Trazado_126766" data-name="Trazado 126766" d="M3050.132,3101.259s2.394-1.017,8.839-8.488" transform="translate(-3033.019 -3082.564)" fill="none"/>
        <path id="Trazado_126767" data-name="Trazado 126767" d="M3049.625,3081.874s4.395,6.987,5.992,8.187" transform="translate(-3032.935 -3080.754)" fill="none"/>
        <path id="Trazado_126768" data-name="Trazado 126768" d="M3060.563,3085.1s2.907,6.109,6.7,8.086" transform="translate(-3034.752 -3081.289)" fill="none"/>
      </g>
      <g id="Grupo_57497" data-name="Grupo 57497" transform="translate(12.644 99.77)">
        <g id="Grupo_57495" data-name="Grupo 57495">
          <path id="Trazado_126769" data-name="Trazado 126769" d="M3048.04,3076.433a5.068,5.068,0,0,1-2.777-1.385c-.4-.427-.72-1.494-.277-1.905s1.3-.2,1.878.418A5.067,5.067,0,0,1,3048.04,3076.433Z" transform="translate(-3044.773 -3072.931)" fill="#194866"/>
          <path id="Trazado_126770" data-name="Trazado 126770" d="M3050.893,3078.551a4.312,4.312,0,0,1-.739-2.585c.047-.5.56-1.322,1.1-1.272s.911.725.843,1.451A4.31,4.31,0,0,1,3050.893,3078.551Z" transform="translate(-3045.664 -3073.223)" fill="#194866"/>
          <path id="Trazado_126771" data-name="Trazado 126771" d="M3053.226,3081.672a4.308,4.308,0,0,1,.38-2.662c.247-.437,1.051-.977,1.519-.713a1.238,1.238,0,0,1,.178,1.667A4.3,4.3,0,0,1,3053.226,3081.672Z" transform="translate(-3046.167 -3073.811)" fill="#194866"/>
          <path id="Trazado_126772" data-name="Trazado 126772" d="M3050.3,3079.318a4.829,4.829,0,0,1-2.39,1.1c-.5.062-1.4-.185-1.454-.621s.534-.868,1.258-.958A4.827,4.827,0,0,1,3050.3,3079.318Z" transform="translate(-3045.052 -3073.907)" fill="#194866"/>
          <path id="Trazado_126773" data-name="Trazado 126773" d="M3052.662,3082.1a4.668,4.668,0,0,1-2.383,1.143c-.5.062-1.4-.207-1.461-.668s.531-.913,1.254-1A4.667,4.667,0,0,1,3052.662,3082.1Z" transform="translate(-3045.444 -3074.363)" fill="#194866"/>
          <path id="Trazado_126774" data-name="Trazado 126774" d="M3055.343,3086.475a3.109,3.109,0,0,1-1.8,1.071c-.38.047-1.083-.246-1.14-.708a.973.973,0,0,1,.932-.964A3.116,3.116,0,0,1,3055.343,3086.475Z" transform="translate(-3046.04 -3075.078)" fill="#194866"/>
          <path id="Trazado_126775" data-name="Trazado 126775" d="M3056.067,3085.89a3.745,3.745,0,0,1,.073-2.15c.145-.38.687-.926,1.046-.789s.468.731.257,1.285A3.737,3.737,0,0,1,3056.067,3085.89Z" transform="translate(-3046.627 -3074.592)" fill="#194866"/>
        </g>
        <g id="Grupo_57496" data-name="Grupo 57496" transform="translate(2.591 2.843)">
          <path id="Trazado_126776" data-name="Trazado 126776" d="M3066.013,3097.471a1.44,1.44,0,0,0,.511-.314l-.207-.193.1.1-.1-.1a1.632,1.632,0,0,1-1.411.335,6.934,6.934,0,0,1-3.637-2.411,43.234,43.234,0,0,1-6.083-9.327,27.339,27.339,0,0,0-6.161-8.292c-.371-.348-.69-.649-.937-.927l-.211.187c.255.288.579.593.955.945a27.1,27.1,0,0,1,6.1,8.217c4.851,9.359,8.085,11.632,9.946,11.89A2.239,2.239,0,0,0,3066.013,3097.471Z" transform="translate(-3047.88 -3076.34)" fill="#194866"/>
        </g>
      </g>
      <g id="Grupo_57498" data-name="Grupo 57498" transform="translate(163.812 81.183)">
        <path id="Trazado_126777" data-name="Trazado 126777" d="M3250.194,3054.8s-11.878,8.523-21.357,32.53" transform="translate(-3227.498 -3051.161)" fill="none"/>
        <path id="Trazado_126778" data-name="Trazado 126778" d="M3238.214,3058.562s-8.511,11.881-10.984,26.563" transform="translate(-3227.231 -3051.785)" fill="none"/>
        <path id="Trazado_126779" data-name="Trazado 126779" d="M3246.245,3072.595s-10.209,3.271-12.527,16.717" transform="translate(-3228.308 -3054.116)" fill="none"/>
        <path id="Trazado_126780" data-name="Trazado 126780" d="M3255.339,3052.248c1.895,1.594,2.907,3.508,2.262,4.275s-2.7.1-4.6-1.495-2.907-3.508-2.261-4.275S3253.444,3050.655,3255.339,3052.248Z" transform="translate(-3231.103 -3050.435)" fill="#3bb6d5"/>
        <path id="Trazado_126781" data-name="Trazado 126781" d="M3255.034,3053.633c.6.506.923,1.113.718,1.357s-.859.031-1.46-.475-.923-1.114-.718-1.357S3254.432,3053.126,3255.034,3053.633Z" transform="translate(-3231.596 -3050.87)" fill="#0c1153"/>
        <path id="Trazado_126782" data-name="Trazado 126782" d="M3240.772,3057.5c.79.664,1.21,1.46.942,1.78s-1.127.041-1.915-.622-1.211-1.46-.942-1.779S3239.984,3056.833,3240.772,3057.5Z" transform="translate(-3229.148 -3051.483)" fill="#3bb6d5"/>
        <path id="Trazado_126783" data-name="Trazado 126783" d="M3240.645,3058.073c.251.211.385.463.3.565s-.358.013-.608-.2-.385-.464-.3-.565S3240.4,3057.862,3240.645,3058.073Z" transform="translate(-3229.354 -3051.664)" fill="#0c1153"/>
        <path id="Trazado_126784" data-name="Trazado 126784" d="M3249.224,3071.629c.759,1.091,1.015,2.225.573,2.532s-1.415-.327-2.174-1.419-1.015-2.224-.573-2.532S3248.467,3070.538,3249.224,3071.629Z" transform="translate(-3230.487 -3053.707)" fill="#3bb6d5"/>
        <path id="Trazado_126785" data-name="Trazado 126785" d="M3248.9,3072.288c.241.347.322.707.181.8s-.449-.1-.69-.45-.322-.706-.182-.8S3248.654,3071.943,3248.9,3072.288Z" transform="translate(-3230.703 -3053.986)" fill="#0c1153"/>
      </g>
      <g id="Grupo_57500" data-name="Grupo 57500" transform="translate(24.948 90.027)">
        <path id="Trazado_126786" data-name="Trazado 126786" d="M3078.283,3076.562a11.99,11.99,0,1,1-15.52-15.315A25.252,25.252,0,0,1,3078.283,3076.562Z" transform="translate(-3059.528 -3061.247)" fill="#3bb6d5"/>
        <g id="Grupo_57499" data-name="Grupo 57499" transform="translate(0.871 2.885)">
          <line id="Línea_221" data-name="Línea 221" x2="12.42" y2="32.738" transform="translate(3.573)" fill="none"/>
          <line id="Línea_222" data-name="Línea 222" x1="5.017" y1="2.257" transform="translate(1.085 4.508)" fill="none"/>
          <line id="Línea_223" data-name="Línea 223" x1="6.183" y1="2.782" transform="translate(2.036 9.566)" fill="none"/>
          <line id="Línea_224" data-name="Línea 224" x1="10.337" y1="4.651" transform="translate(0 13.279)" fill="none"/>
          <line id="Línea_225" data-name="Línea 225" x1="10.057" y1="4.525" transform="translate(2.398 18.987)" fill="none"/>
          <line id="Línea_226" data-name="Línea 226" x1="5.6" y1="2.52" transform="translate(8.973 26.574)" fill="none"/>
          <line id="Línea_227" data-name="Línea 227" y1="5.016" x2="2.258" transform="translate(5.93 1.043)" fill="none"/>
          <line id="Línea_228" data-name="Línea 228" y1="7.822" x2="3.52" transform="translate(8.048 3.82)" fill="none"/>
          <line id="Línea_229" data-name="Línea 229" y1="9.791" x2="4.405" transform="translate(10.166 7.433)" fill="none"/>
          <line id="Línea_230" data-name="Línea 230" y1="10.057" x2="4.525" transform="translate(12.284 12.75)" fill="none"/>
          <line id="Línea_231" data-name="Línea 231" y1="8.64" x2="3.887" transform="translate(14.402 19.748)" fill="none"/>
        </g>
      </g>
      <g id="Grupo_57559" data-name="Grupo 57559" transform="translate(38.197 88.635)">
        <g id="Grupo_57529" data-name="Grupo 57529" transform="translate(0 17.179)">
          <g id="Grupo_57515" data-name="Grupo 57515" transform="translate(0 8.767)">
            <g id="Grupo_57507" data-name="Grupo 57507" transform="translate(0 4.036)">
              <g id="Grupo_57506" data-name="Grupo 57506" style="isolation: isolate">
                <g id="Grupo_57501" data-name="Grupo 57501" transform="translate(2.429 4.495)">
                  <path id="Trazado_126787" data-name="Trazado 126787" d="M3078.695,3104.02c-.034-.928-.082-2.167-.117-3.1.024.64.091,2.364.117,3.025A.689.689,0,0,0,3078.695,3104.02Z" transform="translate(-3078.578 -3100.924)" fill="#ffc910"/>
                </g>
                <g id="Grupo_57502" data-name="Grupo 57502" transform="translate(0.001 3.193)">
                  <path id="Trazado_126788" data-name="Trazado 126788" d="M3103.792,3099.362q.066,1.714.129,3.427c.033.875-1.111,1.8-3.48,2.589-5.116,1.715-14,2.182-19.846,1.047-3.139-.611-4.762-1.56-4.8-2.573l-.129-3.427c.038,1.011,1.661,1.961,4.8,2.571,5.844,1.136,14.728.668,19.844-1.046C3102.681,3101.157,3103.825,3100.235,3103.792,3099.362Z" transform="translate(-3075.667 -3099.362)" fill="#ffab01"/>
                </g>
                <g id="Grupo_57503" data-name="Grupo 57503">
                  <path id="Trazado_126789" data-name="Trazado 126789" d="M3098.991,3096.152c5.845,1.137,6.438,3.447,1.32,5.161s-14,2.182-19.844,1.046-6.437-3.447-1.32-5.159S3093.145,3095.018,3098.991,3096.152Zm-16.934,5.674a38.23,38.23,0,0,0,16.438-.867c4.237-1.419,3.75-3.332-1.093-4.273a38.259,38.259,0,0,0-16.438.865c-4.237,1.42-3.748,3.334,1.093,4.275" transform="translate(-3075.665 -3095.533)" fill="#ffc910"/>
                </g>
                <path id="Trazado_126790" data-name="Trazado 126790" d="M3097.882,3096.815c4.842.94,5.331,2.854,1.093,4.272a38.225,38.225,0,0,1-16.437.866c-4.841-.941-5.331-2.854-1.094-4.274A38.258,38.258,0,0,1,3097.882,3096.815Z" transform="translate(-3076.146 -3095.661)" fill="#ffab01"/>
                <path id="Trazado_126791" data-name="Trazado 126791" d="M3081.444,3098.108a38.23,38.23,0,0,1,16.438-.868c2.409.469,3.74,1.178,3.948,1.948.241-.929-1.1-1.819-3.948-2.373a38.261,38.261,0,0,0-16.438.865c-2.128.714-3.062,1.551-2.854,2.328C3078.761,3099.358,3079.7,3098.691,3081.444,3098.108Z" transform="translate(-3076.146 -3095.661)" fill="#f99b0f"/>
                <g id="Grupo_57504" data-name="Grupo 57504" transform="translate(5.904 1.807)">
                  <path id="Trazado_126792" data-name="Trazado 126792" d="M3093.911,3100.342c.363.33.085.722-.873,1.042a13.288,13.288,0,0,1-4.336.479,10.932,10.932,0,0,1-1.525-.169l-.262-.052-.093.031-.362.122-.213-.041-1.09-.212.456-.153-.781-.153-.094.032-.361.122-.215-.042-1.088-.211.455-.153-.782-.152,1.046-.351.092-.031.569.111.215.042,3.194-1.07,1.14-.382,2.736-.916-.782-.153,1.048-.35.093-.033.568.112.214.042.362-.122.094-.031,1.3.253-.457.153.569.111.215.041.363-.12.092-.033,1.3.253-.456.153c1.581.307,1.742.934.359,1.4A10.552,10.552,0,0,1,3093.911,3100.342Zm-4.767,1.065a7.815,7.815,0,0,0,2.592-.275c.882-.295.78-.695-.228-.891l-2.345-.455-.094.031-3.1,1.04,2.344.455a5.9,5.9,0,0,0,.829.1m3.8-2.888-2.643.885,2.082.4a5.005,5.005,0,0,0,.69.082,6.682,6.682,0,0,0,2.243-.235c.755-.254.668-.594-.2-.763l-2.084-.4-.093.031" transform="translate(-3082.745 -3097.699)" fill="#f99b0f"/>
                </g>
                <g id="Grupo_57505" data-name="Grupo 57505" transform="translate(5.904 1.38)">
                  <path id="Trazado_126793" data-name="Trazado 126793" d="M3093.911,3099.832c.363.329.085.721-.873,1.042a13.265,13.265,0,0,1-4.336.477,10.482,10.482,0,0,1-1.525-.168l-.262-.05-.093.031-.362.121-.213-.043-1.09-.21.456-.154-.781-.151-.094.031-.361.121-.215-.041-1.088-.211.455-.153-.782-.152,1.046-.352.092-.031.569.109.215.042,3.194-1.069,1.14-.382,2.736-.916-.782-.154,1.048-.349.093-.033.568.112.214.041.362-.121.094-.032,1.3.254-.457.152.569.109.215.042.363-.122.092-.031,1.3.254-.456.152c1.581.308,1.742.934.359,1.4A10.6,10.6,0,0,1,3093.911,3099.832Zm-4.767,1.065a7.787,7.787,0,0,0,2.592-.277c.882-.295.78-.693-.228-.888l-2.345-.457-.094.031-3.1,1.039,2.344.457a6.286,6.286,0,0,0,.829.1m3.8-2.889-2.643.885,2.082.405a4.9,4.9,0,0,0,.69.08,6.684,6.684,0,0,0,2.243-.234c.755-.254.668-.6-.2-.764l-2.084-.4-.093.031" transform="translate(-3082.745 -3097.188)" fill="#ffca10"/>
                </g>
                <path id="Trazado_126794" data-name="Trazado 126794" d="M3077.278,3102.425v3.359a12.69,12.69,0,0,0,3.586,1.148,36.214,36.214,0,0,0,5.228.573v-3.422a36.34,36.34,0,0,1-5.357-.58A13.087,13.087,0,0,1,3077.278,3102.425Z" transform="translate(-3075.933 -3096.677)" fill="#f99b0f"/>
              </g>
            </g>
            <g id="Grupo_57514" data-name="Grupo 57514" transform="translate(1.296)">
              <g id="Grupo_57513" data-name="Grupo 57513" style="isolation: isolate">
                <g id="Grupo_57508" data-name="Grupo 57508" transform="translate(2.428 4.496)">
                  <path id="Trazado_126795" data-name="Trazado 126795" d="M3080.249,3099.179c-.035-.927-.081-2.166-.116-3.094.023.639.091,2.362.117,3.023C3080.249,3099.133,3080.248,3099.156,3080.249,3099.179Z" transform="translate(-3080.132 -3096.085)" fill="#ffc910"/>
                </g>
                <g id="Grupo_57509" data-name="Grupo 57509" transform="translate(0.001 3.194)">
                  <path id="Trazado_126796" data-name="Trazado 126796" d="M3105.346,3094.523q.066,1.712.131,3.427c.033.873-1.112,1.794-3.481,2.588-5.116,1.714-14,2.181-19.845,1.045-3.138-.61-4.762-1.559-4.8-2.571l-.13-3.427c.039,1.011,1.662,1.96,4.8,2.571,5.844,1.137,14.729.667,19.845-1.046C3104.235,3096.317,3105.379,3095.4,3105.346,3094.523Z" transform="translate(-3077.221 -3094.523)" fill="#ffab01"/>
                </g>
                <g id="Grupo_57510" data-name="Grupo 57510">
                  <path id="Trazado_126797" data-name="Trazado 126797" d="M3100.547,3091.314c5.844,1.137,6.436,3.447,1.32,5.16s-14,2.182-19.845,1.045-6.436-3.445-1.32-5.159S3094.7,3090.177,3100.547,3091.314Zm-16.935,5.674a38.235,38.235,0,0,0,16.438-.866c4.237-1.42,3.748-3.333-1.094-4.275a38.224,38.224,0,0,0-16.437.867c-4.237,1.419-3.748,3.333,1.093,4.274" transform="translate(-3077.22 -3090.693)" fill="#ffc910"/>
                </g>
                <path id="Trazado_126798" data-name="Trazado 126798" d="M3099.437,3091.973c4.842.942,5.332,2.855,1.095,4.274a38.238,38.238,0,0,1-16.438.866c-4.84-.941-5.33-2.855-1.093-4.274A38.236,38.236,0,0,1,3099.437,3091.973Z" transform="translate(-3077.701 -3090.82)" fill="#ffab01"/>
                <path id="Trazado_126799" data-name="Trazado 126799" d="M3083,3093.267a38.258,38.258,0,0,1,16.437-.867c2.411.47,3.74,1.178,3.949,1.947.241-.928-1.1-1.82-3.949-2.374a38.235,38.235,0,0,0-16.437.866c-2.13.713-3.064,1.552-2.853,2.327C3080.315,3094.517,3081.257,3093.851,3083,3093.267Z" transform="translate(-3077.701 -3090.82)" fill="#f99b0f"/>
                <g id="Grupo_57511" data-name="Grupo 57511" transform="translate(5.904 1.807)">
                  <path id="Trazado_126800" data-name="Trazado 126800" d="M3095.465,3095.5c.363.329.084.722-.872,1.042a13.281,13.281,0,0,1-4.336.478,10.8,10.8,0,0,1-1.527-.168l-.261-.052-.094.031-.362.122-.214-.042-1.089-.211.456-.154-.783-.151-.092.03-.364.123-.212-.042-1.09-.212.456-.153-.783-.151,1.047-.351.094-.032.568.11.214.042,3.193-1.069,1.14-.382,2.737-.918-.781-.152,1.047-.35.094-.032.567.111.215.042.362-.122.094-.031,1.3.253-.457.152.568.112.213.041.364-.122.093-.032,1.3.254-.457.152c1.582.308,1.743.935.359,1.4A10.588,10.588,0,0,1,3095.465,3095.5Zm-4.765,1.064a7.779,7.779,0,0,0,2.591-.275c.881-.3.779-.694-.228-.89l-2.344-.456-.094.031-3.1,1.039,2.345.456a5.9,5.9,0,0,0,.83.1m3.8-2.888-2.642.886,2.084.4a4.874,4.874,0,0,0,.69.081,6.706,6.706,0,0,0,2.241-.235c.757-.254.669-.594-.195-.763l-2.084-.406-.094.032" transform="translate(-3084.3 -3092.86)" fill="#f99b0f"/>
                </g>
                <g id="Grupo_57512" data-name="Grupo 57512" transform="translate(5.904 1.38)">
                  <path id="Trazado_126801" data-name="Trazado 126801" d="M3095.465,3094.991c.363.329.084.721-.872,1.042a13.3,13.3,0,0,1-4.336.478,10.354,10.354,0,0,1-1.527-.169l-.261-.051-.094.032-.362.12-.214-.042-1.089-.212.456-.152-.783-.152-.092.032-.364.12-.212-.04-1.09-.212.456-.151-.783-.153,1.047-.351.094-.032.568.111.214.042,3.193-1.07,1.14-.382,2.737-.917-.781-.154,1.047-.35.094-.031.567.11.215.042.362-.122.094-.032,1.3.254-.457.154.568.109.213.043.364-.123.093-.031,1.3.254-.457.153c1.582.308,1.743.934.359,1.4A10.534,10.534,0,0,1,3095.465,3094.991Zm-4.765,1.064a7.74,7.74,0,0,0,2.591-.276c.881-.3.779-.693-.228-.889l-2.344-.456-.094.033-3.1,1.038,2.345.457a6.252,6.252,0,0,0,.83.094m3.8-2.888-2.642.885,2.084.405a5.1,5.1,0,0,0,.69.081,6.686,6.686,0,0,0,2.241-.235c.757-.253.669-.594-.195-.763l-2.084-.4-.094.032" transform="translate(-3084.3 -3092.348)" fill="#ffca10"/>
                </g>
                <path id="Trazado_126802" data-name="Trazado 126802" d="M3078.832,3097.585v3.358a12.618,12.618,0,0,0,3.587,1.148,35.978,35.978,0,0,0,5.228.573v-3.421a36.281,36.281,0,0,1-5.357-.58A13.151,13.151,0,0,1,3078.832,3097.585Z" transform="translate(-3077.488 -3091.838)" fill="#f99b0f"/>
              </g>
            </g>
          </g>
          <g id="Grupo_57528" data-name="Grupo 57528">
            <g id="Grupo_57522" data-name="Grupo 57522" transform="translate(0 4.036)">
              <g id="Grupo_57521" data-name="Grupo 57521" style="isolation: isolate">
                <g id="Grupo_57516" data-name="Grupo 57516" transform="translate(2.429 4.495)">
                  <path id="Trazado_126803" data-name="Trazado 126803" d="M3078.695,3093.506c-.034-.928-.082-2.168-.117-3.1.024.64.091,2.364.117,3.025A.7.7,0,0,0,3078.695,3093.506Z" transform="translate(-3078.578 -3090.41)" fill="#ffc910"/>
                </g>
                <g id="Grupo_57517" data-name="Grupo 57517" transform="translate(0.001 3.193)">
                  <path id="Trazado_126804" data-name="Trazado 126804" d="M3103.792,3088.849q.066,1.711.129,3.426c.033.874-1.111,1.795-3.48,2.589-5.116,1.712-14,2.181-19.846,1.045-3.139-.61-4.762-1.558-4.8-2.571l-.129-3.427c.038,1.013,1.661,1.961,4.8,2.571,5.844,1.137,14.728.669,19.844-1.046C3102.681,3090.643,3103.825,3089.721,3103.792,3088.849Z" transform="translate(-3075.667 -3088.849)" fill="#ffab01"/>
                </g>
                <g id="Grupo_57518" data-name="Grupo 57518">
                  <path id="Trazado_126805" data-name="Trazado 126805" d="M3098.991,3085.64c5.845,1.137,6.438,3.447,1.32,5.16s-14,2.183-19.844,1.046-6.437-3.446-1.32-5.16S3093.145,3084.5,3098.991,3085.64Zm-16.934,5.673a38.226,38.226,0,0,0,16.438-.866c4.237-1.42,3.75-3.333-1.093-4.274a38.258,38.258,0,0,0-16.438.866c-4.237,1.42-3.748,3.333,1.093,4.274" transform="translate(-3075.665 -3085.02)" fill="#ffc910"/>
                </g>
                <path id="Trazado_126806" data-name="Trazado 126806" d="M3097.882,3086.3c4.842.941,5.331,2.854,1.093,4.274a38.217,38.217,0,0,1-16.437.865c-4.841-.94-5.331-2.854-1.094-4.273A38.25,38.25,0,0,1,3097.882,3086.3Z" transform="translate(-3076.146 -3085.147)" fill="#ffab01"/>
                <path id="Trazado_126807" data-name="Trazado 126807" d="M3081.444,3087.593a38.242,38.242,0,0,1,16.438-.867c2.409.468,3.74,1.178,3.948,1.947.241-.928-1.1-1.819-3.948-2.374a38.253,38.253,0,0,0-16.438.866c-2.128.714-3.062,1.551-2.854,2.327C3078.761,3088.844,3079.7,3088.177,3081.444,3087.593Z" transform="translate(-3076.146 -3085.147)" fill="#f99b0f"/>
                <g id="Grupo_57519" data-name="Grupo 57519" transform="translate(5.904 1.806)">
                  <path id="Trazado_126808" data-name="Trazado 126808" d="M3093.911,3089.829c.363.33.085.722-.873,1.042a13.237,13.237,0,0,1-4.336.478,10.577,10.577,0,0,1-1.525-.169l-.262-.051-.093.032-.362.121-.213-.041-1.09-.211.456-.152-.781-.154-.094.033-.361.121-.215-.043-1.088-.211.455-.153-.782-.151,1.046-.351.092-.031.569.109.215.042,3.194-1.07,1.14-.381,2.736-.917-.782-.152,1.048-.35.093-.033.568.112.214.042.362-.123.094-.031,1.3.254-.457.152.569.111.215.042.363-.122.092-.031,1.3.253-.456.152c1.581.308,1.742.935.359,1.4A10.627,10.627,0,0,1,3093.911,3089.829Zm-4.767,1.065a7.813,7.813,0,0,0,2.592-.277c.882-.295.78-.693-.228-.89l-2.345-.456-.094.033-3.1,1.038,2.344.456a6.327,6.327,0,0,0,.829.1m3.8-2.888-2.643.885,2.082.405a5.168,5.168,0,0,0,.69.081,6.682,6.682,0,0,0,2.243-.235c.755-.253.668-.594-.2-.762l-2.084-.405-.093.031" transform="translate(-3082.745 -3087.186)" fill="#f99b0f"/>
                </g>
                <g id="Grupo_57520" data-name="Grupo 57520" transform="translate(5.904 1.379)">
                  <path id="Trazado_126809" data-name="Trazado 126809" d="M3093.911,3089.317c.363.33.085.722-.873,1.042a13.237,13.237,0,0,1-4.336.478,10.509,10.509,0,0,1-1.525-.169l-.262-.05-.093.031-.362.122-.213-.042-1.09-.212.456-.153-.781-.152-.094.031-.361.121-.215-.041-1.088-.212.455-.153-.782-.152,1.046-.351.092-.032.569.111.215.042,3.194-1.07,1.14-.382,2.736-.916-.782-.153,1.048-.351.093-.031.568.111.214.041.362-.121.094-.032,1.3.254-.457.154.569.11.215.042.363-.122.092-.032,1.3.254-.456.153c1.581.308,1.742.935.359,1.4A10.529,10.529,0,0,1,3093.911,3089.317Zm-4.767,1.064a7.789,7.789,0,0,0,2.592-.275c.882-.3.78-.694-.228-.889l-2.345-.457-.094.032-3.1,1.039,2.344.457a6.256,6.256,0,0,0,.829.094m3.8-2.889-2.643.886,2.082.4a4.863,4.863,0,0,0,.69.081,6.688,6.688,0,0,0,2.243-.235c.755-.253.668-.594-.2-.762l-2.084-.406-.093.031" transform="translate(-3082.745 -3086.673)" fill="#ffca10"/>
                </g>
                <path id="Trazado_126810" data-name="Trazado 126810" d="M3077.278,3091.912v3.358a12.662,12.662,0,0,0,3.586,1.147,35.942,35.942,0,0,0,5.228.573v-3.421a36.014,36.014,0,0,1-5.357-.579A13.166,13.166,0,0,1,3077.278,3091.912Z" transform="translate(-3075.933 -3086.165)" fill="#f99b0f"/>
              </g>
            </g>
            <g id="Grupo_57527" data-name="Grupo 57527" transform="translate(1.296)">
              <g id="Grupo_57526" data-name="Grupo 57526" style="isolation: isolate">
                <g id="Grupo_57523" data-name="Grupo 57523" transform="translate(2.428 4.495)">
                  <path id="Trazado_126811" data-name="Trazado 126811" d="M3080.249,3088.666c-.035-.928-.081-2.167-.116-3.1.023.639.091,2.363.117,3.024C3080.249,3088.619,3080.248,3088.642,3080.249,3088.666Z" transform="translate(-3080.132 -3085.57)" fill="#ffc910"/>
                </g>
                <g id="Grupo_57524" data-name="Grupo 57524" transform="translate(0.001 3.192)">
                  <path id="Trazado_126812" data-name="Trazado 126812" d="M3105.346,3084.008q.066,1.714.131,3.427c.033.874-1.112,1.795-3.481,2.588-5.116,1.714-14,2.181-19.845,1.046-3.138-.611-4.762-1.56-4.8-2.572l-.13-3.427c.039,1.013,1.662,1.96,4.8,2.572,5.844,1.135,14.729.667,19.845-1.046C3104.235,3085.8,3105.379,3084.881,3105.346,3084.008Z" transform="translate(-3077.221 -3084.008)" fill="#ffab01"/>
                </g>
                <g id="Grupo_57525" data-name="Grupo 57525">
                  <path id="Trazado_126813" data-name="Trazado 126813" d="M3100.547,3080.8c5.844,1.138,6.436,3.447,1.32,5.161s-14,2.181-19.845,1.046-6.436-3.447-1.32-5.16S3094.7,3079.664,3100.547,3080.8Zm-16.935,5.673a38.239,38.239,0,0,0,16.438-.865c4.237-1.42,3.748-3.334-1.094-4.275a38.251,38.251,0,0,0-16.437.866c-4.237,1.42-3.748,3.333,1.093,4.274" transform="translate(-3077.22 -3080.179)" fill="#ffc910"/>
                </g>
                <path id="Trazado_126814" data-name="Trazado 126814" d="M3099.437,3081.459c4.842.941,5.332,2.854,1.095,4.275a38.234,38.234,0,0,1-16.438.865c-4.84-.941-5.33-2.853-1.093-4.273A38.236,38.236,0,0,1,3099.437,3081.459Z" transform="translate(-3077.701 -3080.307)" fill="#ffab01"/>
                <path id="Trazado_126815" data-name="Trazado 126815" d="M3083,3082.753a38.243,38.243,0,0,1,16.437-.867c2.411.469,3.74,1.178,3.949,1.948.241-.929-1.1-1.819-3.949-2.374a38.235,38.235,0,0,0-16.437.867c-2.13.714-3.064,1.551-2.853,2.327C3080.315,3084,3081.257,3083.336,3083,3082.753Z" transform="translate(-3077.701 -3080.307)" fill="#f99b0f"/>
                <path id="Trazado_126816" data-name="Trazado 126816" d="M3078.832,3087.072v3.357a12.61,12.61,0,0,0,3.587,1.149,35.939,35.939,0,0,0,5.228.573v-3.421a36.445,36.445,0,0,1-5.357-.58A13.225,13.225,0,0,1,3078.832,3087.072Z" transform="translate(-3077.488 -3081.324)" fill="#f99b0f"/>
              </g>
            </g>
          </g>
        </g>
        <g id="Grupo_57558" data-name="Grupo 57558">
          <g id="Grupo_57544" data-name="Grupo 57544" transform="translate(0 8.768)">
            <g id="Grupo_57536" data-name="Grupo 57536" transform="translate(0 4.036)">
              <g id="Grupo_57535" data-name="Grupo 57535" style="isolation: isolate">
                <g id="Grupo_57530" data-name="Grupo 57530" transform="translate(2.429 4.495)">
                  <path id="Trazado_126817" data-name="Trazado 126817" d="M3078.695,3083.418c-.034-.928-.082-2.166-.117-3.1.024.641.091,2.364.117,3.025A.684.684,0,0,0,3078.695,3083.418Z" transform="translate(-3078.578 -3080.323)" fill="#ffc910"/>
                </g>
                <g id="Grupo_57531" data-name="Grupo 57531" transform="translate(0.001 3.193)">
                  <path id="Trazado_126818" data-name="Trazado 126818" d="M3103.792,3078.762q.066,1.713.129,3.427c.033.874-1.111,1.794-3.48,2.588-5.116,1.715-14,2.182-19.846,1.046-3.139-.612-4.762-1.56-4.8-2.572l-.129-3.427c.038,1.012,1.661,1.961,4.8,2.57,5.844,1.137,14.728.669,19.844-1.044C3102.681,3080.556,3103.825,3079.634,3103.792,3078.762Z" transform="translate(-3075.667 -3078.762)" fill="#ffab01"/>
                </g>
                <g id="Grupo_57532" data-name="Grupo 57532">
                  <path id="Trazado_126819" data-name="Trazado 126819" d="M3098.991,3075.552c5.845,1.137,6.438,3.447,1.32,5.161s-14,2.181-19.844,1.045-6.437-3.446-1.32-5.159S3093.145,3074.417,3098.991,3075.552Zm-16.934,5.674a38.249,38.249,0,0,0,16.438-.867c4.237-1.419,3.75-3.332-1.093-4.272a38.243,38.243,0,0,0-16.438.865c-4.237,1.42-3.748,3.333,1.093,4.274" transform="translate(-3075.665 -3074.932)" fill="#ffc910"/>
                </g>
                <path id="Trazado_126820" data-name="Trazado 126820" d="M3097.882,3076.214c4.842.94,5.331,2.853,1.093,4.272a38.24,38.24,0,0,1-16.437.867c-4.841-.941-5.331-2.854-1.094-4.274A38.246,38.246,0,0,1,3097.882,3076.214Z" transform="translate(-3076.146 -3075.06)" fill="#ffab01"/>
                <path id="Trazado_126821" data-name="Trazado 126821" d="M3081.444,3077.507a38.234,38.234,0,0,1,16.438-.867c2.409.469,3.74,1.177,3.948,1.947.241-.928-1.1-1.82-3.948-2.373a38.25,38.25,0,0,0-16.438.865c-2.128.714-3.062,1.551-2.854,2.326C3078.761,3078.757,3079.7,3078.09,3081.444,3077.507Z" transform="translate(-3076.146 -3075.06)" fill="#f99b0f"/>
                <g id="Grupo_57533" data-name="Grupo 57533" transform="translate(5.904 1.807)">
                  <path id="Trazado_126822" data-name="Trazado 126822" d="M3093.911,3079.741c.363.33.085.722-.873,1.042a13.288,13.288,0,0,1-4.336.479,11.011,11.011,0,0,1-1.525-.169l-.262-.052-.093.031-.362.122-.213-.042-1.09-.211.456-.153-.781-.152-.094.032-.361.12-.215-.041-1.088-.211.455-.154-.782-.152,1.046-.349.092-.032.569.111.215.041,3.194-1.069,1.14-.382,2.736-.916-.782-.152,1.048-.351.093-.032.568.111.214.042.362-.122.094-.031,1.3.253-.457.152.569.111.215.041.363-.12.092-.031,1.3.252-.456.154c1.581.307,1.742.934.359,1.4A10.619,10.619,0,0,1,3093.911,3079.741Zm-4.767,1.066a7.814,7.814,0,0,0,2.592-.276c.882-.295.78-.694-.228-.89l-2.345-.455-.094.03-3.1,1.039,2.344.456a6.085,6.085,0,0,0,.829.1m3.8-2.889-2.643.886,2.082.4a5.207,5.207,0,0,0,.69.081,6.651,6.651,0,0,0,2.243-.235c.755-.253.668-.594-.2-.763l-2.084-.4-.093.032" transform="translate(-3082.745 -3077.099)" fill="#f99b0f"/>
                </g>
                <g id="Grupo_57534" data-name="Grupo 57534" transform="translate(5.904 1.38)">
                  <path id="Trazado_126823" data-name="Trazado 126823" d="M3093.911,3079.23c.363.33.085.722-.873,1.042a13.291,13.291,0,0,1-4.336.478,10.509,10.509,0,0,1-1.525-.169l-.262-.049-.093.031-.362.12-.213-.041-1.09-.212.456-.152-.781-.152-.094.031-.361.121-.215-.04-1.088-.212.455-.153-.782-.152,1.046-.351.092-.031.569.111.215.041,3.194-1.07,1.14-.382,2.736-.916-.782-.154,1.048-.349.093-.032.568.111.214.042.362-.122.094-.032,1.3.255-.457.152.569.111.215.042.363-.123.092-.03,1.3.253-.456.152c1.581.308,1.742.934.359,1.4A10.531,10.531,0,0,1,3093.911,3079.23Zm-4.767,1.065a7.724,7.724,0,0,0,2.592-.277c.882-.294.78-.693-.228-.887l-2.345-.457-.094.031-3.1,1.038,2.344.457a6.129,6.129,0,0,0,.829.1m3.8-2.888-2.643.885,2.082.405a5.089,5.089,0,0,0,.69.081,6.683,6.683,0,0,0,2.243-.234c.755-.254.668-.6-.2-.764l-2.084-.4-.093.032" transform="translate(-3082.745 -3076.587)" fill="#ffca10"/>
                </g>
                <path id="Trazado_126824" data-name="Trazado 126824" d="M3077.278,3081.825v3.358a12.634,12.634,0,0,0,3.586,1.148,36.077,36.077,0,0,0,5.228.573v-3.422a36.241,36.241,0,0,1-5.357-.58A13.1,13.1,0,0,1,3077.278,3081.825Z" transform="translate(-3075.933 -3076.077)" fill="#f99b0f"/>
              </g>
            </g>
            <g id="Grupo_57543" data-name="Grupo 57543" transform="translate(1.296)">
              <g id="Grupo_57542" data-name="Grupo 57542" style="isolation: isolate">
                <g id="Grupo_57537" data-name="Grupo 57537" transform="translate(2.428 4.496)">
                  <path id="Trazado_126825" data-name="Trazado 126825" d="M3080.249,3078.578c-.035-.928-.081-2.166-.116-3.094.023.639.091,2.363.117,3.024C3080.249,3078.532,3080.248,3078.555,3080.249,3078.578Z" transform="translate(-3080.132 -3075.484)" fill="#ffc910"/>
                </g>
                <g id="Grupo_57538" data-name="Grupo 57538" transform="translate(0.001 3.192)">
                  <path id="Trazado_126826" data-name="Trazado 126826" d="M3105.346,3073.921q.066,1.714.131,3.427c.033.875-1.112,1.8-3.481,2.589-5.116,1.714-14,2.181-19.845,1.045-3.138-.611-4.762-1.56-4.8-2.572l-.13-3.427c.039,1.011,1.662,1.96,4.8,2.57,5.844,1.136,14.729.668,19.845-1.045C3104.235,3075.715,3105.379,3074.795,3105.346,3073.921Z" transform="translate(-3077.221 -3073.921)" fill="#ffab01"/>
                </g>
                <g id="Grupo_57539" data-name="Grupo 57539">
                  <path id="Trazado_126827" data-name="Trazado 126827" d="M3100.547,3070.712c5.844,1.138,6.436,3.447,1.32,5.161s-14,2.181-19.845,1.045-6.436-3.446-1.32-5.159S3094.7,3069.577,3100.547,3070.712Zm-16.935,5.674a38.235,38.235,0,0,0,16.438-.866c4.237-1.42,3.748-3.333-1.094-4.275a38.255,38.255,0,0,0-16.437.866c-4.237,1.42-3.748,3.334,1.093,4.275" transform="translate(-3077.22 -3070.093)" fill="#ffc910"/>
                </g>
                <path id="Trazado_126828" data-name="Trazado 126828" d="M3099.437,3071.373c4.842.942,5.332,2.854,1.095,4.274a38.238,38.238,0,0,1-16.438.867c-4.84-.941-5.33-2.855-1.093-4.275A38.236,38.236,0,0,1,3099.437,3071.373Z" transform="translate(-3077.701 -3070.22)" fill="#ffab01"/>
                <path id="Trazado_126829" data-name="Trazado 126829" d="M3083,3072.667a38.231,38.231,0,0,1,16.437-.867c2.411.469,3.74,1.178,3.949,1.947.241-.927-1.1-1.82-3.949-2.373a38.235,38.235,0,0,0-16.437.866c-2.13.714-3.064,1.551-2.853,2.326C3080.315,3073.917,3081.257,3073.25,3083,3072.667Z" transform="translate(-3077.701 -3070.22)" fill="#f99b0f"/>
                <g id="Grupo_57540" data-name="Grupo 57540" transform="translate(5.904 1.807)">
                  <path id="Trazado_126830" data-name="Trazado 126830" d="M3095.465,3074.9c.363.33.084.722-.872,1.042a13.274,13.274,0,0,1-4.336.478,10.73,10.73,0,0,1-1.527-.169l-.261-.051-.094.031-.362.122-.214-.041-1.089-.21.456-.154-.783-.152-.092.03-.364.123-.212-.042-1.09-.212.456-.152-.783-.153,1.047-.349.094-.032.568.111.214.042,3.193-1.07,1.14-.382,2.737-.917-.781-.153,1.047-.35.094-.032.567.111.215.041.362-.122.094-.031,1.3.253-.457.153.568.111.213.041.364-.121.093-.032,1.3.252-.457.153c1.582.308,1.743.935.359,1.4A10.579,10.579,0,0,1,3095.465,3074.9Zm-4.765,1.065a7.791,7.791,0,0,0,2.591-.276c.881-.3.779-.694-.228-.89l-2.344-.456-.094.032-3.1,1.038,2.345.456a6.121,6.121,0,0,0,.83.1m3.8-2.889-2.642.885,2.084.405a5.093,5.093,0,0,0,.69.082,6.7,6.7,0,0,0,2.241-.236c.757-.254.669-.594-.195-.762l-2.084-.406-.094.033" transform="translate(-3084.3 -3072.26)" fill="#f99b0f"/>
                </g>
                <g id="Grupo_57541" data-name="Grupo 57541" transform="translate(5.904 1.38)">
                  <path id="Trazado_126831" data-name="Trazado 126831" d="M3095.465,3074.391c.363.33.084.722-.872,1.042a13.242,13.242,0,0,1-4.336.477,10.562,10.562,0,0,1-1.527-.168l-.261-.051-.094.031-.362.121-.214-.042-1.089-.211.456-.153-.783-.152-.092.032-.364.12-.212-.041-1.09-.212.456-.152-.783-.152,1.047-.351.094-.031.568.11.214.042,3.193-1.07,1.14-.381,2.737-.917-.781-.153,1.047-.349.094-.033.567.111.215.042.362-.122.094-.031,1.3.254-.457.153.568.11.213.042.364-.122.093-.031,1.3.254-.457.152c1.582.308,1.743.934.359,1.4A10.6,10.6,0,0,1,3095.465,3074.391Zm-4.765,1.065a7.732,7.732,0,0,0,2.591-.277c.881-.294.779-.692-.228-.889l-2.344-.455-.094.031-3.1,1.038,2.345.457a6.247,6.247,0,0,0,.83.095m3.8-2.889-2.642.885,2.084.406a4.841,4.841,0,0,0,.69.081,6.669,6.669,0,0,0,2.241-.234c.757-.254.669-.595-.195-.764l-2.084-.4-.094.031" transform="translate(-3084.3 -3071.747)" fill="#ffca10"/>
                </g>
                <path id="Trazado_126832" data-name="Trazado 126832" d="M3078.832,3076.984v3.358a12.6,12.6,0,0,0,3.587,1.149,36.047,36.047,0,0,0,5.228.573v-3.422a36.021,36.021,0,0,1-5.357-.579A13.123,13.123,0,0,1,3078.832,3076.984Z" transform="translate(-3077.488 -3071.237)" fill="#f99b0f"/>
              </g>
            </g>
          </g>
          <g id="Grupo_57557" data-name="Grupo 57557">
            <g id="Grupo_57551" data-name="Grupo 57551" transform="translate(0 4.037)">
              <g id="Grupo_57550" data-name="Grupo 57550" style="isolation: isolate">
                <g id="Grupo_57545" data-name="Grupo 57545" transform="translate(2.429 4.494)">
                  <path id="Trazado_126833" data-name="Trazado 126833" d="M3078.695,3072.905c-.034-.928-.082-2.167-.117-3.1.024.64.091,2.363.117,3.025A.685.685,0,0,0,3078.695,3072.905Z" transform="translate(-3078.578 -3069.809)" fill="#ffc910"/>
                </g>
                <g id="Grupo_57546" data-name="Grupo 57546" transform="translate(0.001 3.193)">
                  <path id="Trazado_126834" data-name="Trazado 126834" d="M3103.792,3068.248q.066,1.713.129,3.426c.033.874-1.111,1.795-3.48,2.589-5.116,1.714-14,2.181-19.846,1.045-3.139-.61-4.762-1.558-4.8-2.571l-.129-3.428c.038,1.013,1.661,1.961,4.8,2.572,5.844,1.136,14.728.668,19.844-1.046C3102.681,3070.042,3103.825,3069.12,3103.792,3068.248Z" transform="translate(-3075.667 -3068.248)" fill="#ffab01"/>
                </g>
                <g id="Grupo_57547" data-name="Grupo 57547">
                  <path id="Trazado_126835" data-name="Trazado 126835" d="M3098.991,3065.04c5.845,1.136,6.438,3.447,1.32,5.16s-14,2.182-19.844,1.046-6.437-3.446-1.32-5.16S3093.145,3063.9,3098.991,3065.04Zm-16.934,5.673a38.241,38.241,0,0,0,16.438-.866c4.237-1.42,3.75-3.333-1.093-4.275a38.262,38.262,0,0,0-16.438.867c-4.237,1.42-3.748,3.333,1.093,4.274" transform="translate(-3075.665 -3064.419)" fill="#ffc910"/>
                </g>
                <path id="Trazado_126836" data-name="Trazado 126836" d="M3097.882,3065.7c4.842.942,5.331,2.854,1.093,4.275a38.229,38.229,0,0,1-16.437.866c-4.841-.941-5.331-2.854-1.094-4.274A38.269,38.269,0,0,1,3097.882,3065.7Z" transform="translate(-3076.146 -3064.547)" fill="#ffab01"/>
                <path id="Trazado_126837" data-name="Trazado 126837" d="M3081.444,3066.992a38.238,38.238,0,0,1,16.438-.867c2.409.469,3.74,1.179,3.948,1.948.241-.928-1.1-1.819-3.948-2.374a38.272,38.272,0,0,0-16.438.867c-2.128.714-3.062,1.551-2.854,2.327C3078.761,3068.243,3079.7,3067.576,3081.444,3066.992Z" transform="translate(-3076.146 -3064.547)" fill="#f99b0f"/>
                <g id="Grupo_57548" data-name="Grupo 57548" transform="translate(5.904 1.807)">
                  <path id="Trazado_126838" data-name="Trazado 126838" d="M3093.911,3069.228c.363.33.085.723-.873,1.042a13.262,13.262,0,0,1-4.336.479,10.509,10.509,0,0,1-1.525-.169l-.262-.051-.093.032-.362.122-.213-.043-1.09-.211.456-.153-.781-.153-.094.033-.361.12-.215-.042-1.088-.212.455-.152-.782-.152,1.046-.35.092-.032.569.111.215.042,3.194-1.07,1.14-.382,2.736-.917-.782-.153,1.048-.35.093-.032.568.112.214.041.362-.122.094-.03,1.3.253-.457.152.569.111.215.041.363-.121.092-.031,1.3.252-.456.154c1.581.307,1.742.934.359,1.4A10.6,10.6,0,0,1,3093.911,3069.228Zm-4.767,1.065a7.819,7.819,0,0,0,2.592-.277c.882-.294.78-.693-.228-.889l-2.345-.457-.094.032-3.1,1.038,2.344.456a6.244,6.244,0,0,0,.829.1m3.8-2.888-2.643.885,2.082.405a5.289,5.289,0,0,0,.69.081,6.719,6.719,0,0,0,2.243-.235c.755-.253.668-.594-.2-.762l-2.084-.405-.093.032" transform="translate(-3082.745 -3066.586)" fill="#f99b0f"/>
                </g>
                <g id="Grupo_57549" data-name="Grupo 57549" transform="translate(5.904 1.378)">
                  <path id="Trazado_126839" data-name="Trazado 126839" d="M3093.911,3068.716c.363.33.085.722-.873,1.042a13.23,13.23,0,0,1-4.336.479,10.475,10.475,0,0,1-1.525-.169l-.262-.049-.093.031-.362.121-.213-.042-1.09-.212.456-.152-.781-.153-.094.032-.361.121-.215-.041-1.088-.212.455-.152-.782-.152,1.046-.351.092-.031.569.11.215.042,3.194-1.069,1.14-.382,2.736-.916-.782-.153,1.048-.351.093-.032.568.111.214.042.362-.122.094-.032,1.3.255-.457.153.569.11.215.042.363-.122.092-.032,1.3.254-.456.153c1.581.307,1.742.934.359,1.4A10.6,10.6,0,0,1,3093.911,3068.716Zm-4.767,1.064a7.751,7.751,0,0,0,2.592-.275c.882-.3.78-.693-.228-.888l-2.345-.458-.094.032-3.1,1.039,2.344.457a6.1,6.1,0,0,0,.829.094m3.8-2.888-2.643.885,2.082.4a4.76,4.76,0,0,0,.69.081,6.676,6.676,0,0,0,2.243-.235c.755-.254.668-.594-.2-.763l-2.084-.4-.093.031" transform="translate(-3082.745 -3066.072)" fill="#ffca10"/>
                </g>
                <path id="Trazado_126840" data-name="Trazado 126840" d="M3077.278,3071.311v3.359a12.641,12.641,0,0,0,3.586,1.146,35.971,35.971,0,0,0,5.228.574v-3.421a36.373,36.373,0,0,1-5.357-.58A13.18,13.18,0,0,1,3077.278,3071.311Z" transform="translate(-3075.933 -3065.564)" fill="#f99b0f"/>
              </g>
            </g>
            <g id="Grupo_57556" data-name="Grupo 57556" transform="translate(1.296)">
              <g id="Grupo_57555" data-name="Grupo 57555" style="isolation: isolate">
                <g id="Grupo_57552" data-name="Grupo 57552" transform="translate(2.428 4.496)">
                  <path id="Trazado_126841" data-name="Trazado 126841" d="M3080.249,3068.064c-.035-.927-.081-2.166-.116-3.094.023.639.091,2.363.117,3.023C3080.249,3068.018,3080.248,3068.042,3080.249,3068.064Z" transform="translate(-3080.132 -3064.97)" fill="#ffc910"/>
                </g>
                <g id="Grupo_57553" data-name="Grupo 57553" transform="translate(0.001 3.193)">
                  <path id="Trazado_126842" data-name="Trazado 126842" d="M3105.346,3063.408q.066,1.714.131,3.427c.033.874-1.112,1.794-3.481,2.589-5.116,1.714-14,2.181-19.845,1.045-3.138-.612-4.762-1.56-4.8-2.572l-.13-3.427c.039,1.013,1.662,1.961,4.8,2.572,5.844,1.136,14.729.667,19.845-1.045C3104.235,3065.2,3105.379,3064.281,3105.346,3063.408Z" transform="translate(-3077.221 -3063.408)" fill="#ffab01"/>
                </g>
                <g id="Grupo_57554" data-name="Grupo 57554">
                  <path id="Trazado_126843" data-name="Trazado 126843" d="M3100.547,3060.2c5.844,1.137,6.436,3.447,1.32,5.162s-14,2.181-19.845,1.045-6.436-3.447-1.32-5.16S3094.7,3059.063,3100.547,3060.2Zm-16.935,5.673a38.232,38.232,0,0,0,16.438-.865c4.237-1.419,3.748-3.333-1.094-4.274a38.251,38.251,0,0,0-16.437.865c-4.237,1.42-3.748,3.334,1.093,4.274" transform="translate(-3077.22 -3059.578)" fill="#ffc910"/>
                </g>
                <path id="Trazado_126844" data-name="Trazado 126844" d="M3099.437,3060.86c4.842.941,5.332,2.854,1.095,4.274a38.234,38.234,0,0,1-16.438.865c-4.84-.939-5.33-2.854-1.093-4.274A38.248,38.248,0,0,1,3099.437,3060.86Z" transform="translate(-3077.701 -3059.706)" fill="#ffab01"/>
                <path id="Trazado_126845" data-name="Trazado 126845" d="M3083,3062.152a38.247,38.247,0,0,1,16.437-.866c2.411.469,3.74,1.178,3.949,1.947.241-.929-1.1-1.819-3.949-2.373a38.247,38.247,0,0,0-16.437.865c-2.13.714-3.064,1.552-2.853,2.328C3080.315,3063.4,3081.257,3062.736,3083,3062.152Z" transform="translate(-3077.701 -3059.706)" fill="#f99b0f"/>
                <path id="Trazado_126846" data-name="Trazado 126846" d="M3078.832,3066.471v3.358a12.653,12.653,0,0,0,3.587,1.147,35.907,35.907,0,0,0,5.228.573v-3.42a36.41,36.41,0,0,1-5.357-.58A13.161,13.161,0,0,1,3078.832,3066.471Z" transform="translate(-3077.488 -3060.724)" fill="#f99b0f"/>
              </g>
            </g>
          </g>
        </g>
      </g>
      <g id="Grupo_57588" data-name="Grupo 57588" transform="translate(16.665 112.698)">
        <g id="Grupo_57574" data-name="Grupo 57574" transform="translate(0 8.768)">
          <g id="Grupo_57566" data-name="Grupo 57566" transform="translate(0 4.036)">
            <g id="Grupo_57565" data-name="Grupo 57565" style="isolation: isolate">
              <g id="Grupo_57560" data-name="Grupo 57560" transform="translate(2.429 4.495)">
                <path id="Trazado_126847" data-name="Trazado 126847" d="M3052.625,3112.273c-.035-.928-.082-2.167-.117-3.1.023.64.091,2.364.117,3.025C3052.625,3112.227,3052.625,3112.25,3052.625,3112.273Z" transform="translate(-3052.509 -3109.178)" fill="#ffc910"/>
              </g>
              <g id="Grupo_57561" data-name="Grupo 57561" transform="translate(0.001 3.193)">
                <path id="Trazado_126848" data-name="Trazado 126848" d="M3077.723,3107.616q.064,1.712.129,3.428c.033.873-1.112,1.795-3.48,2.588-5.115,1.715-14,2.182-19.846,1.046-3.137-.611-4.761-1.56-4.8-2.573l-.129-3.427c.039,1.012,1.662,1.962,4.8,2.57,5.844,1.137,14.729.669,19.843-1.044C3076.611,3109.409,3077.755,3108.489,3077.723,3107.616Z" transform="translate(-3049.596 -3107.616)" fill="#ffab01"/>
              </g>
              <g id="Grupo_57562" data-name="Grupo 57562">
                <path id="Trazado_126849" data-name="Trazado 126849" d="M3072.921,3104.406c5.845,1.138,6.437,3.448,1.319,5.162s-14,2.181-19.844,1.044-6.437-3.445-1.319-5.158S3067.076,3103.272,3072.921,3104.406Zm-16.935,5.674a38.235,38.235,0,0,0,16.439-.866c4.236-1.419,3.749-3.332-1.094-4.273a38.259,38.259,0,0,0-16.437.865c-4.237,1.42-3.748,3.334,1.093,4.274" transform="translate(-3049.595 -3103.787)" fill="#ffc910"/>
              </g>
              <path id="Trazado_126850" data-name="Trazado 126850" d="M3071.812,3105.069c4.842.941,5.331,2.853,1.094,4.273a38.231,38.231,0,0,1-16.438.866c-4.841-.94-5.33-2.854-1.093-4.275A38.259,38.259,0,0,1,3071.812,3105.069Z" transform="translate(-3050.076 -3103.915)" fill="#ffab01"/>
              <path id="Trazado_126851" data-name="Trazado 126851" d="M3055.375,3106.361a38.249,38.249,0,0,1,16.437-.868c2.409.47,3.741,1.178,3.948,1.948.242-.929-1.1-1.82-3.948-2.373a38.261,38.261,0,0,0-16.437.864c-2.128.714-3.064,1.552-2.854,2.328C3052.691,3107.612,3053.633,3106.945,3055.375,3106.361Z" transform="translate(-3050.077 -3103.915)" fill="#f99b0f"/>
              <g id="Grupo_57563" data-name="Grupo 57563" transform="translate(5.904 1.807)">
                <path id="Trazado_126852" data-name="Trazado 126852" d="M3067.842,3108.6c.363.33.084.722-.874,1.043a13.305,13.305,0,0,1-4.335.479,10.859,10.859,0,0,1-1.527-.17l-.26-.051-.1.031-.362.122-.212-.042-1.089-.211.455-.152-.781-.152-.094.031-.362.122-.213-.042-1.089-.212.455-.152-.782-.152,1.046-.351.093-.032.569.111.213.042,3.194-1.069,1.141-.383,2.736-.916-.782-.153,1.048-.351.094-.031.567.11.214.042.363-.121.094-.031,1.3.252-.457.153.568.111.215.041.363-.121.092-.031,1.3.253-.456.153c1.58.307,1.742.934.358,1.4A10.582,10.582,0,0,1,3067.842,3108.6Zm-4.766,1.065a7.827,7.827,0,0,0,2.591-.275c.881-.3.781-.694-.227-.89l-2.346-.456-.094.031-3.1,1.039,2.343.455a6.015,6.015,0,0,0,.831.1m3.8-2.889-2.643.886,2.083.4a5.117,5.117,0,0,0,.69.082,6.665,6.665,0,0,0,2.242-.235c.755-.253.668-.594-.2-.762l-2.083-.405-.094.031" transform="translate(-3056.676 -3105.954)" fill="#f99b0f"/>
              </g>
              <g id="Grupo_57564" data-name="Grupo 57564" transform="translate(5.904 1.38)">
                <path id="Trazado_126853" data-name="Trazado 126853" d="M3067.842,3108.086c.363.329.084.721-.874,1.041a13.226,13.226,0,0,1-4.335.478,10.8,10.8,0,0,1-1.527-.168l-.26-.05-.1.031-.362.121-.212-.043-1.089-.211.455-.152-.781-.152-.094.031-.362.121-.213-.041-1.089-.211.455-.153-.782-.152,1.046-.352.093-.031.569.11.213.043,3.194-1.07,1.141-.382,2.736-.917-.782-.153,1.048-.349.094-.031.567.11.214.042.363-.121.094-.031,1.3.254-.457.152.568.109.215.042.363-.123.092-.031,1.3.254-.456.153c1.58.307,1.742.934.358,1.4A10.6,10.6,0,0,1,3067.842,3108.086Zm-4.766,1.064a7.717,7.717,0,0,0,2.591-.276c.881-.294.781-.693-.227-.888l-2.346-.457-.094.031-3.1,1.038,2.343.457a5.949,5.949,0,0,0,.831.095m3.8-2.887-2.643.884,2.083.405a5.008,5.008,0,0,0,.69.081,6.673,6.673,0,0,0,2.242-.234c.755-.255.668-.6-.2-.764l-2.083-.406-.094.033" transform="translate(-3056.676 -3105.442)" fill="#ffca10"/>
              </g>
              <path id="Trazado_126854" data-name="Trazado 126854" d="M3051.209,3110.679v3.359a12.681,12.681,0,0,0,3.585,1.148,35.958,35.958,0,0,0,5.228.572v-3.42a36.3,36.3,0,0,1-5.356-.581A13.028,13.028,0,0,1,3051.209,3110.679Z" transform="translate(-3049.864 -3104.932)" fill="#f99b0f"/>
            </g>
          </g>
          <g id="Grupo_57573" data-name="Grupo 57573" transform="translate(1.297)">
            <g id="Grupo_57572" data-name="Grupo 57572" style="isolation: isolate">
              <g id="Grupo_57567" data-name="Grupo 57567" transform="translate(2.428 4.495)">
                <path id="Trazado_126855" data-name="Trazado 126855" d="M3054.179,3107.433c-.035-.928-.081-2.167-.117-3.1.023.64.092,2.364.117,3.025C3054.179,3107.386,3054.178,3107.41,3054.179,3107.433Z" transform="translate(-3054.063 -3104.338)" fill="#ffc910"/>
              </g>
              <g id="Grupo_57568" data-name="Grupo 57568" transform="translate(0.001 3.192)">
                <path id="Trazado_126856" data-name="Trazado 126856" d="M3079.277,3102.776q.066,1.714.131,3.427c.033.874-1.111,1.794-3.481,2.588-5.114,1.713-14,2.181-19.844,1.045-3.139-.61-4.762-1.56-4.8-2.571l-.129-3.428c.038,1.012,1.661,1.96,4.8,2.572,5.844,1.136,14.73.667,19.846-1.046C3078.166,3104.57,3079.31,3103.649,3079.277,3102.776Z" transform="translate(-3051.152 -3102.776)" fill="#ffab01"/>
              </g>
              <g id="Grupo_57569" data-name="Grupo 57569">
                <path id="Trazado_126857" data-name="Trazado 126857" d="M3074.478,3099.567c5.843,1.137,6.436,3.447,1.32,5.16s-14,2.182-19.845,1.046-6.436-3.447-1.32-5.158S3068.631,3098.432,3074.478,3099.567Zm-16.935,5.673a38.227,38.227,0,0,0,16.437-.865c4.237-1.42,3.747-3.334-1.094-4.274a38.228,38.228,0,0,0-16.438.866c-4.236,1.419-3.748,3.333,1.094,4.273" transform="translate(-3051.151 -3098.948)" fill="#ffc910"/>
              </g>
              <path id="Trazado_126858" data-name="Trazado 126858" d="M3073.368,3100.227c4.841.94,5.33,2.854,1.093,4.275a38.222,38.222,0,0,1-16.437.865c-4.842-.941-5.331-2.854-1.095-4.274A38.246,38.246,0,0,1,3073.368,3100.227Z" transform="translate(-3051.632 -3099.075)" fill="#ffab01"/>
              <path id="Trazado_126859" data-name="Trazado 126859" d="M3056.93,3101.521a38.235,38.235,0,0,1,16.438-.867c2.409.469,3.74,1.178,3.948,1.947.241-.929-1.1-1.82-3.948-2.374a38.243,38.243,0,0,0-16.438.866c-2.129.713-3.063,1.551-2.853,2.327C3054.246,3102.772,3055.187,3102.1,3056.93,3101.521Z" transform="translate(-3051.632 -3099.075)" fill="#f99b0f"/>
              <g id="Grupo_57570" data-name="Grupo 57570" transform="translate(5.904 1.806)">
                <path id="Trazado_126860" data-name="Trazado 126860" d="M3069.4,3103.757c.364.33.085.722-.871,1.041a13.254,13.254,0,0,1-4.336.478,10.548,10.548,0,0,1-1.528-.169l-.26-.051-.094.031-.363.123-.213-.042-1.089-.211.455-.153-.781-.151-.093.03-.362.123-.213-.042-1.09-.212.456-.153-.782-.152,1.046-.351.093-.031.569.11.213.042,3.194-1.07,1.139-.382,2.737-.916-.781-.153,1.046-.35.094-.032.566.111.215.042.362-.121.095-.032,1.3.254-.455.152.568.111.213.042.363-.122.092-.032,1.3.254-.457.152c1.581.308,1.743.934.359,1.4A10.575,10.575,0,0,1,3069.4,3103.757Zm-4.765,1.065a7.805,7.805,0,0,0,2.591-.277c.882-.3.78-.694-.228-.889l-2.345-.456-.094.031-3.1,1.039,2.345.456a6.067,6.067,0,0,0,.831.1m3.8-2.89-2.643.886,2.084.405a5.227,5.227,0,0,0,.69.081,6.681,6.681,0,0,0,2.241-.235c.756-.254.67-.594-.2-.763l-2.084-.406-.093.033" transform="translate(-3058.231 -3101.114)" fill="#f99b0f"/>
              </g>
              <g id="Grupo_57571" data-name="Grupo 57571" transform="translate(5.904 1.38)">
                <path id="Trazado_126861" data-name="Trazado 126861" d="M3069.4,3103.245c.364.329.085.721-.871,1.042a13.249,13.249,0,0,1-4.336.477,10.452,10.452,0,0,1-1.528-.168l-.26-.05-.094.032-.363.12-.213-.041-1.089-.212.455-.152-.781-.153-.093.033-.362.12-.213-.041-1.09-.211.456-.152-.782-.153,1.046-.351.093-.032.569.11.213.042,3.194-1.07,1.139-.381,2.737-.917-.781-.153,1.046-.349.094-.032.566.11.215.042.362-.122.095-.031,1.3.254-.455.153.568.109.213.042.363-.122.092-.031,1.3.254-.457.153c1.581.308,1.743.935.359,1.4A10.568,10.568,0,0,1,3069.4,3103.245Zm-4.765,1.065a7.767,7.767,0,0,0,2.591-.277c.882-.294.78-.692-.228-.889l-2.345-.456-.094.032-3.1,1.039,2.345.457a6.36,6.36,0,0,0,.831.095m3.8-2.89-2.643.886,2.084.405a4.883,4.883,0,0,0,.69.081,6.676,6.676,0,0,0,2.241-.234c.756-.254.67-.6-.2-.764l-2.084-.4-.093.031" transform="translate(-3058.231 -3100.602)" fill="#ffca10"/>
              </g>
              <path id="Trazado_126862" data-name="Trazado 126862" d="M3052.762,3105.839v3.358a12.641,12.641,0,0,0,3.587,1.148,35.963,35.963,0,0,0,5.228.574V3107.5a36.149,36.149,0,0,1-5.357-.579A13.14,13.14,0,0,1,3052.762,3105.839Z" transform="translate(-3051.418 -3100.092)" fill="#f99b0f"/>
            </g>
          </g>
        </g>
        <g id="Grupo_57587" data-name="Grupo 57587">
          <g id="Grupo_57581" data-name="Grupo 57581" transform="translate(0 4.036)">
            <g id="Grupo_57580" data-name="Grupo 57580" style="isolation: isolate">
              <g id="Grupo_57575" data-name="Grupo 57575" transform="translate(2.429 4.496)">
                <path id="Trazado_126863" data-name="Trazado 126863" d="M3052.625,3101.759c-.035-.927-.082-2.166-.117-3.094.023.638.091,2.362.117,3.024C3052.625,3101.713,3052.625,3101.736,3052.625,3101.759Z" transform="translate(-3052.509 -3098.665)" fill="#ffc910"/>
              </g>
              <g id="Grupo_57576" data-name="Grupo 57576" transform="translate(0.001 3.193)">
                <path id="Trazado_126864" data-name="Trazado 126864" d="M3077.723,3097.1q.064,1.712.129,3.425c.033.874-1.112,1.8-3.48,2.589-5.115,1.713-14,2.181-19.846,1.045-3.137-.611-4.761-1.559-4.8-2.572l-.129-3.428c.039,1.013,1.662,1.961,4.8,2.572,5.844,1.136,14.729.669,19.843-1.046C3076.611,3098.9,3077.755,3097.975,3077.723,3097.1Z" transform="translate(-3049.596 -3097.103)" fill="#ffab01"/>
              </g>
              <g id="Grupo_57577" data-name="Grupo 57577">
                <path id="Trazado_126865" data-name="Trazado 126865" d="M3072.921,3093.893c5.845,1.138,6.437,3.447,1.319,5.16s-14,2.182-19.844,1.046-6.437-3.446-1.319-5.159S3067.076,3092.757,3072.921,3093.893Zm-16.935,5.673a38.235,38.235,0,0,0,16.439-.866c4.236-1.42,3.749-3.333-1.094-4.274a38.27,38.27,0,0,0-16.437.866c-4.237,1.419-3.748,3.333,1.093,4.274" transform="translate(-3049.595 -3093.273)" fill="#ffc910"/>
              </g>
              <path id="Trazado_126866" data-name="Trazado 126866" d="M3071.812,3094.554c4.842.942,5.331,2.855,1.094,4.275a38.239,38.239,0,0,1-16.438.866c-4.841-.941-5.33-2.855-1.093-4.274A38.273,38.273,0,0,1,3071.812,3094.554Z" transform="translate(-3050.076 -3093.402)" fill="#ffab01"/>
              <path id="Trazado_126867" data-name="Trazado 126867" d="M3055.375,3095.847a38.253,38.253,0,0,1,16.437-.867c2.409.469,3.741,1.178,3.948,1.947.242-.928-1.1-1.818-3.948-2.373a38.276,38.276,0,0,0-16.437.867c-2.128.714-3.064,1.551-2.854,2.328C3052.691,3097.1,3053.633,3096.432,3055.375,3095.847Z" transform="translate(-3050.077 -3093.402)" fill="#f99b0f"/>
              <g id="Grupo_57578" data-name="Grupo 57578" transform="translate(5.904 1.806)">
                <path id="Trazado_126868" data-name="Trazado 126868" d="M3067.842,3098.082c.363.33.084.723-.874,1.042a13.278,13.278,0,0,1-4.335.479,10.713,10.713,0,0,1-1.527-.17l-.26-.05-.1.031-.362.122-.212-.042-1.089-.211.455-.153-.781-.153-.094.032-.362.121-.213-.041-1.089-.212.455-.152-.782-.153,1.046-.35.093-.032.569.11.213.041,3.194-1.07,1.141-.382,2.736-.917-.782-.152,1.048-.35.094-.032.567.111.214.041.363-.122.094-.031,1.3.253-.457.153.568.111.215.041.363-.122.092-.03,1.3.252-.456.153c1.58.308,1.742.934.358,1.4A10.558,10.558,0,0,1,3067.842,3098.082Zm-4.766,1.066a7.8,7.8,0,0,0,2.591-.277c.881-.3.781-.693-.227-.89l-2.346-.457-.094.033-3.1,1.038,2.343.457a6.464,6.464,0,0,0,.831.1m3.8-2.889-2.643.885,2.083.405a5.2,5.2,0,0,0,.69.081,6.692,6.692,0,0,0,2.242-.234c.755-.255.668-.6-.2-.763l-2.083-.405-.094.031" transform="translate(-3056.676 -3095.44)" fill="#f99b0f"/>
              </g>
              <g id="Grupo_57579" data-name="Grupo 57579" transform="translate(5.904 1.379)">
                <path id="Trazado_126869" data-name="Trazado 126869" d="M3067.842,3097.571c.363.329.084.721-.874,1.042a13.266,13.266,0,0,1-4.335.479,10.754,10.754,0,0,1-1.527-.169l-.26-.051-.1.031-.362.122-.212-.043-1.089-.21.455-.153-.781-.152-.094.031-.362.121-.213-.041-1.089-.212.455-.153-.782-.151,1.046-.352.093-.031.569.111.213.042,3.194-1.07,1.141-.382,2.736-.917-.782-.153,1.048-.351.094-.03.567.11.214.041.363-.121.094-.032,1.3.254-.457.153.568.111.215.041.363-.122.092-.032,1.3.255-.456.153c1.58.307,1.742.933.358,1.4A10.59,10.59,0,0,1,3067.842,3097.571Zm-4.766,1.064a7.757,7.757,0,0,0,2.591-.275c.881-.3.781-.693-.227-.889l-2.346-.457-.094.032-3.1,1.038,2.343.456a6.342,6.342,0,0,0,.831.094m3.8-2.889-2.643.886,2.083.406a4.9,4.9,0,0,0,.69.081,6.66,6.66,0,0,0,2.242-.234c.755-.255.668-.594-.2-.763l-2.083-.4-.094.029" transform="translate(-3056.676 -3094.927)" fill="#ffca10"/>
              </g>
              <path id="Trazado_126870" data-name="Trazado 126870" d="M3051.209,3100.166v3.358a12.621,12.621,0,0,0,3.585,1.147,36.151,36.151,0,0,0,5.228.574v-3.421a36.3,36.3,0,0,1-5.356-.58A13.081,13.081,0,0,1,3051.209,3100.166Z" transform="translate(-3049.864 -3094.418)" fill="#f99b0f"/>
            </g>
          </g>
          <g id="Grupo_57586" data-name="Grupo 57586" transform="translate(1.297)">
            <g id="Grupo_57585" data-name="Grupo 57585" style="isolation: isolate">
              <g id="Grupo_57582" data-name="Grupo 57582" transform="translate(2.428 4.495)">
                <path id="Trazado_126871" data-name="Trazado 126871" d="M3054.179,3096.919c-.035-.928-.081-2.166-.117-3.1.023.64.092,2.364.117,3.025C3054.179,3096.872,3054.178,3096.9,3054.179,3096.919Z" transform="translate(-3054.063 -3093.823)" fill="#ffc910"/>
              </g>
              <g id="Grupo_57583" data-name="Grupo 57583" transform="translate(0.001 3.192)">
                <path id="Trazado_126872" data-name="Trazado 126872" d="M3079.277,3092.261q.066,1.714.131,3.428c.033.873-1.111,1.794-3.481,2.588-5.114,1.713-14,2.181-19.844,1.046-3.139-.611-4.762-1.561-4.8-2.572l-.129-3.427c.038,1.013,1.661,1.96,4.8,2.572,5.844,1.135,14.73.667,19.846-1.046C3078.166,3094.057,3079.31,3093.135,3079.277,3092.261Z" transform="translate(-3051.152 -3092.261)" fill="#ffab01"/>
              </g>
              <g id="Grupo_57584" data-name="Grupo 57584">
                <path id="Trazado_126873" data-name="Trazado 126873" d="M3074.478,3089.053c5.843,1.137,6.436,3.447,1.32,5.161s-14,2.182-19.845,1.046-6.436-3.446-1.32-5.16S3068.631,3087.918,3074.478,3089.053Zm-16.935,5.673a38.243,38.243,0,0,0,16.437-.865c4.237-1.42,3.747-3.334-1.094-4.274a38.235,38.235,0,0,0-16.438.866c-4.236,1.42-3.748,3.333,1.094,4.273" transform="translate(-3051.151 -3088.433)" fill="#ffc910"/>
              </g>
              <path id="Trazado_126874" data-name="Trazado 126874" d="M3073.368,3089.713c4.841.941,5.33,2.856,1.093,4.275a38.234,38.234,0,0,1-16.437.866c-4.842-.941-5.331-2.854-1.095-4.274A38.257,38.257,0,0,1,3073.368,3089.713Z" transform="translate(-3051.632 -3088.561)" fill="#ffab01"/>
              <path id="Trazado_126875" data-name="Trazado 126875" d="M3056.93,3091.007a38.251,38.251,0,0,1,16.438-.867c2.409.469,3.74,1.178,3.948,1.949.241-.931-1.1-1.821-3.948-2.375a38.255,38.255,0,0,0-16.438.866c-2.129.714-3.063,1.552-2.853,2.328C3054.246,3092.259,3055.187,3091.591,3056.93,3091.007Z" transform="translate(-3051.632 -3088.561)" fill="#f99b0f"/>
              <path id="Trazado_126876" data-name="Trazado 126876" d="M3052.762,3095.326v3.357a12.636,12.636,0,0,0,3.587,1.149,35.97,35.97,0,0,0,5.228.573v-3.421a36.253,36.253,0,0,1-5.357-.578A13.166,13.166,0,0,1,3052.762,3095.326Z" transform="translate(-3051.418 -3089.578)" fill="#f99b0f"/>
            </g>
          </g>
        </g>
      </g>
      <g id="Grupo_57589" data-name="Grupo 57589" transform="translate(102.7 93.418)">
        <path id="Trazado_126877" data-name="Trazado 126877" d="M3182.053,3067c-11.079-4.128-22.548-.8-27.053,11.286s1.992,22.108,13.073,26.236c8.641,3.221,13.9-1.721,22.986-4.193,1.8-.489,6.986,2.6,6.986,2.6l5.632-15.114s-5.948-1.056-6.986-2.6C3191.437,3077.4,3190.7,3070.222,3182.053,3067Z" transform="translate(-3153.556 -3065.314)" fill="#fec12f"/>
        <path id="Trazado_126878" data-name="Trazado 126878" d="M3197.547,3101.192c-12.554,3.417-19.822,10.246-31.765,5.8a37.381,37.381,0,0,1-7.127-3.535,24.2,24.2,0,0,0,10.264,7.018c8.641,3.221,13.9-1.721,22.986-4.193,1.8-.49,6.986,2.6,6.986,2.6l2.584-6.932A7.523,7.523,0,0,0,3197.547,3101.192Z" transform="translate(-3154.403 -3071.261)" fill="#ffab01"/>
        <path id="Trazado_126879" data-name="Trazado 126879" d="M3206.79,3107.623l2.083.776a6.673,6.673,0,0,0,8.584-3.923l1.166-3.127a6.674,6.674,0,0,0-3.924-8.584l-2.083-.776Z" transform="translate(-3162.398 -3069.744)" fill="#3d7aa8"/>
        <path id="Trazado_126880" data-name="Trazado 126880" d="M3174.421,3095.655l-2.236-3.556,4.02-1.232-2.235-3.559,4.02-1.232-2.233-3.564,4.02-1.232-2.232-3.566,4.023-1.24" transform="translate(-3156.65 -3067.168)" fill="none"/>
        <path id="Trazado_126881" data-name="Trazado 126881" d="M3179.381,3097.383l11.625.386,13.117,4.887" transform="translate(-3157.845 -3070.64)" fill="none"/>
        <path id="Trazado_126882" data-name="Trazado 126882" d="M3184.621,3083.321l9.042,7.315,13.117,4.888" transform="translate(-3158.716 -3068.304)" fill="none"/>
        <rect id="Rectángulo_7164" data-name="Rectángulo 7164" width="10.428" height="1.733" transform="matrix(0.349, -0.937, 0.937, 0.349, 47.053, 34.024)" fill="#34688f"/>
        <rect id="Rectángulo_7165" data-name="Rectángulo 7165" width="7.507" height="1.733" transform="matrix(0.349, -0.937, 0.937, 0.349, 49.985, 35.117)" fill="#34688f"/>
      </g>
      <g id="Grupo_57598" data-name="Grupo 57598" transform="translate(48.63 46.56)">
        <g id="Grupo_57590" data-name="Grupo 57590" transform="translate(8.543 35.915)">
          <path id="Trazado_126883" data-name="Trazado 126883" d="M3105.754,3053.038l6.7,27.239s5.305,2.763,5.243-4.2-1.491-22.477-1.491-22.477Z" transform="translate(-3099.773 -3052.332)" fill="#163f59"/>
          <rect id="Rectángulo_7166" data-name="Rectángulo 7166" width="3.248" height="5.745" transform="translate(14.115 45.684)" fill="#593446"/>
          <path id="Trazado_126884" data-name="Trazado 126884" d="M3099.436,3108.48l-.346,4.324,3.12.4.26-5.229Z" transform="translate(-3098.666 -3061.457)" fill="#593446"/>
          <path id="Trazado_126885" data-name="Trazado 126885" d="M3101.717,3054.01l.171,29.1s2.062,4.692,3.434,3.13c1.065-1.213,4.5-14.819,5.752-23.946.364-2.654,3.705-6.621,3.489-9.016C3114.462,3052.162,3101.717,3054.01,3101.717,3054.01Z" transform="translate(-3099.103 -3052.312)" fill="#194866"/>
          <path id="Trazado_126886" data-name="Trazado 126886" d="M3115.651,3115.253h2.371v-.837l1.032.837h5.983s-.1-1.136-4.126-1.316c-1.032-.045-1.753-1.675-1.753-1.675s-.515-.539-1.29.719c-.2.326-2.372-.3-2.372-.3A6.789,6.789,0,0,0,3115.651,3115.253Z" transform="translate(-3101.381 -3062.15)" fill="#081832"/>
          <path id="Trazado_126887" data-name="Trazado 126887" d="M3099.022,3115.323l2.374.121.026-.848,1.006.9,5.983.312s-.067-1.158-4.085-1.549c-1.031-.1-1.7-1.79-1.7-1.79s-.5-.573-1.311.662c-.212.321-2.365-.427-2.365-.427A6.985,6.985,0,0,0,3099.022,3115.323Z" transform="translate(-3098.626 -3062.182)" fill="#081832"/>
          <rect id="Rectángulo_7167" data-name="Rectángulo 7167" width="14.062" height="1.435" transform="translate(2.615 0.203)" fill="#194866"/>
          <rect id="Rectángulo_7168" data-name="Rectángulo 7168" width="0.516" height="1.924" transform="translate(15.109)" fill="#163f59"/>
          <rect id="Rectángulo_7169" data-name="Rectángulo 7169" width="0.516" height="1.924" transform="translate(10.437)" fill="#163f59"/>
          <rect id="Rectángulo_7170" data-name="Rectángulo 7170" width="0.517" height="1.924" transform="translate(4.611)" fill="#163f59"/>
          <path id="Trazado_126888" data-name="Trazado 126888" d="M3101.552,3080.41l-2.97,26.585,4.282.288s4.318-27.205,3.863-28.233C3105.548,3076.383,3101.7,3079.536,3101.552,3080.41Z" transform="translate(-3098.582 -3056.477)" fill="#194866"/>
          <path id="Trazado_126889" data-name="Trazado 126889" d="M3113.714,3080.825l1.119,26.925,3.929-.384s1.141-27.287-.3-28.285S3113.714,3079.579,3113.714,3080.825Z" transform="translate(-3101.095 -3056.603)" fill="#163f59"/>
        </g>
        <path id="Trazado_126890" data-name="Trazado 126890" d="M3112.63,3027.055s-2.866,1.192.642,9.813,5.311,7.494,5.311,7.494l2.323-.318,4.064-5.655-2.586-2.094-.473.218a1.283,1.283,0,0,1-.765-.841,78.119,78.119,0,0,1-3.229-8.123C3116.753,3023.851,3113.18,3026.823,3112.63,3027.055Z" transform="translate(-3092.189 -3011.877)" fill="#b0bfde"/>
        <path id="Trazado_126891" data-name="Trazado 126891" d="M3125.9,3041.066s4.888,2.671,7.86,3c1.991.221-2.121,2.441-6.211,2.883s-5.676.26-6.559-1.179S3125.9,3041.066,3125.9,3041.066Z" transform="translate(-3093.744 -3014.429)" fill="#e2c59c"/>
        <path id="Trazado_126892" data-name="Trazado 126892" d="M3120.561,3039.327l1.4-1.038.584-.382a1.378,1.378,0,0,0,.7.633l-1.191.567-1.274.938-1.252,1.77Z" transform="translate(-3093.517 -3013.904)" fill="#d1dbea"/>
        <path id="Trazado_126893" data-name="Trazado 126893" d="M3115.153,3051.917l-14.47-.163-1.548-17.931s-1.4-9.845,3.884-10.393c5.82-.6,12.118,1.7,12.118,1.7S3118.458,3026.641,3115.153,3051.917Z" transform="translate(-3090.102 -3011.483)" fill="#d1dbea"/>
        <path id="Trazado_126894" data-name="Trazado 126894" d="M3115.043,3010.74s.766,7.749-.982,8.659a4.153,4.153,0,0,0-1.972.678c-.613.552-.64,1.174-.856,1.419a6.189,6.189,0,0,1-.481.74c-.66.578-1.195-.16-1.569-.33-.907-.413-1.147.684-1.286.3-.1-.264-.943-.665-.731-1a15.749,15.749,0,0,0,1.533-4.2c-.139-1.7-1.973-4.836.992-6.745C3110.556,3009.7,3114.833,3010.241,3115.043,3010.74Z" transform="translate(-3091.458 -3009.272)" fill="#e9d6b8"/>
        <path id="Trazado_126895" data-name="Trazado 126895" d="M3110.277,3024.623l-.267,1.871-3.444-2.86.4-.7Z" transform="translate(-3091.364 -3011.417)" fill="#b0bfde"/>
        <path id="Trazado_126896" data-name="Trazado 126896" d="M3112.07,3023.511l.532.45.031,1.985-1.359-1.185Z" transform="translate(-3092.147 -3011.513)" fill="#b0bfde"/>
        <path id="Trazado_126897" data-name="Trazado 126897" d="M3114.452,3020.561s-.241-.132-.676-.422a4.461,4.461,0,0,0-.807-.444,6.694,6.694,0,0,1-1.621-.543,17.726,17.726,0,0,1-1.965-1.425s.418.792.578,1.111a2.2,2.2,0,0,0,1.174,1.058c1.79.753,1.672.887,1.916.895A9.547,9.547,0,0,1,3114.452,3020.561Z" transform="translate(-3091.833 -3010.552)" fill="#e2c59c"/>
        <path id="Trazado_126898" data-name="Trazado 126898" d="M3116.462,3014.687a15.4,15.4,0,0,0,.585,1.613c.093.23.221.519.179.6a2.413,2.413,0,0,1-.385.4c-.1.085-.506.439-.574-.153A17.241,17.241,0,0,1,3116.462,3014.687Z" transform="translate(-3092.974 -3010.048)" fill="#e9d6b8"/>
        <path id="Trazado_126899" data-name="Trazado 126899" d="M3109.7,3009.777c1.44-1.125,4.332-.819,6.3,1.071a1.366,1.366,0,0,1-.766.832,3.562,3.562,0,0,0-3.015-1.274c-1.962.221-.614,1.173-1.072,1.648-.384.4-.744.743-.744.743l-.3,1.09-.515.056s-.274-1.173-.534-.827a2.371,2.371,0,0,0-.171,1.424c.007.125.025.333-.036.368a14.246,14.246,0,0,1-.057,1.841c-.242,0-.54-.33-.684-1.054C3107.791,3014.068,3107.948,3011.153,3109.7,3009.777Z" transform="translate(-3091.599 -3009.123)" fill="#163f59"/>
        <path id="Trazado_126900" data-name="Trazado 126900" d="M3109.238,3013.825a.8.8,0,1,0-.071,1.595" transform="translate(-3091.669 -3009.904)" fill="#e9d6b8"/>
        <path id="Trazado_126901" data-name="Trazado 126901" d="M3115.718,3017.27a8.2,8.2,0,0,1,1.029-.2c.1.024.333.056.338.152s-.14.334-.6.591C3116.37,3017.874,3116.436,3017.638,3115.718,3017.27Z" transform="translate(-3092.884 -3010.443)" fill="#e2c59c"/>
        <path id="Trazado_126902" data-name="Trazado 126902" d="M3095.269,3046.135l4.943,12.719a1.987,1.987,0,0,1-1.631-.05,29.617,29.617,0,0,1-6.071-6.616,33.974,33.974,0,0,1-2.627-5.611Z" transform="translate(-3088.594 -3015.271)" fill="#e9d6b8"/>
        <path id="Trazado_126903" data-name="Trazado 126903" d="M3135.546,3044.682l3.274-1.9,2.11.241s.239.5-.481.857a5.767,5.767,0,0,1-1.628.471l-1.4,2.091s1.371.811,1.734.633,1.789-.853,1.789-.853-.825,1.76-1.706,1.76a16.977,16.977,0,0,1-2.476-.11c-.66-.11-.88-1.98-1.541-2.311S3135.546,3044.682,3135.546,3044.682Z" transform="translate(-3096.085 -3014.713)" fill="#e2c59c"/>
        <g id="Grupo_57596" data-name="Grupo 57596" transform="translate(33.993 1.054)">
          <path id="Trazado_126904" data-name="Trazado 126904" d="M3138.134,3046.906l.976.342,4.007-1.319-1.567-2.817-.525.83-1.4-.057-1.76,2.46Z" transform="translate(-3130.556 -3015.823)" fill="#e9d6b8"/>
          <g id="Grupo_57593" data-name="Grupo 57593" transform="translate(0 5.143)">
            <path id="Trazado_126905" data-name="Trazado 126905" d="M3141.788,3029.071l-8.138-7.443a1.52,1.52,0,0,0-.338,1.252,24.4,24.4,0,0,0,3.826,6.24,28.981,28.981,0,0,0,3.823,3.377Z" transform="translate(-3129.792 -3017.398)" fill="#e9d6b8"/>
            <g id="Grupo_57592" data-name="Grupo 57592">
              <g id="Grupo_57591" data-name="Grupo 57591">
                <path id="Trazado_126906" data-name="Trazado 126906" d="M3133.279,3023.177l-1.027-.874a4.646,4.646,0,0,1-.932-1.045,1.347,1.347,0,0,1,.366-1.811,2.011,2.011,0,0,1,.962-.581s.885.393.772,1.184.686,2.538.384,2.664A1.377,1.377,0,0,0,3133.279,3023.177Z" transform="translate(-3129.433 -3016.939)" fill="#e9d6b8"/>
                <path id="Trazado_126907" data-name="Trazado 126907" d="M3132.983,3018.64l-1.023-1.1-1-.983-.127.288.611.8.326,1.664.4-.221Z" transform="translate(-3129.388 -3016.555)" fill="#e9d6b8"/>
                <path id="Trazado_126908" data-name="Trazado 126908" d="M3130.887,3018.229l-1.1-.575-.2.242.982.764.712,1.118.686-.515Z" transform="translate(-3129.181 -3016.738)" fill="#e9d6b8"/>
                <path id="Trazado_126909" data-name="Trazado 126909" d="M3129.34,3018.542l.9.4.637.185.439.585-.41.582-.453-.646-1.1-.732Z" transform="translate(-3129.14 -3016.885)" fill="#e9d6b8"/>
                <path id="Trazado_126910" data-name="Trazado 126910" d="M3129.1,3019.708l1.729.443.284.436-.258.415-.7-.485-.931-.523Z" transform="translate(-3129.1 -3017.079)" fill="#e9d6b8"/>
              </g>
              <path id="Trazado_126911" data-name="Trazado 126911" d="M3134.581,3022.976a1.816,1.816,0,0,1-.437-1.414s.253-2.113-.056-2.462a3.653,3.653,0,0,1-.5-1.251s-.265-.337-.378.519a3.526,3.526,0,0,0,.033,1.058,5.206,5.206,0,0,0-.527,1.526c.086.771,1.473,2.125,1.473,2.125S3134.653,3023.048,3134.581,3022.976Z" transform="translate(-3129.7 -3016.759)" fill="#e9d6b8"/>
            </g>
            <path id="Trazado_126912" data-name="Trazado 126912" d="M3152.959,3027.777l-9.05,1.672-.346.59-.526-.43-1.147,3.469,2.606,1.959,12.319-2.508a7.444,7.444,0,0,0,3.6-4.783C3161.082,3025.193,3153.709,3027.671,3152.959,3027.777Z" transform="translate(-3131.224 -3018.222)" fill="#b0bfde"/>
            <path id="Trazado_126913" data-name="Trazado 126913" d="M3143.959,3034.177s-.13-2.494-.153-3.8l-.151.259-.526-.431-.386,1.2-.294,1.789.652.376.21-.5Z" transform="translate(-3131.317 -3018.823)" fill="#d1dbea"/>
          </g>
          <g id="Grupo_57595" data-name="Grupo 57595" transform="translate(10.731)">
            <path id="Trazado_126914" data-name="Trazado 126914" d="M3160.394,3023.083c-.024,1.151.485,2.206,1.125,2.322l1.837.193c.653.02,1.37-.906,1.585-2.036q.523-2.8,1.048-5.6c.218-1.119.016-3.433-.891-4.205a2.452,2.452,0,0,0-2.812-.3c-1.048.567-1.729,2.788-1.748,3.926Q3160.468,3020.232,3160.394,3023.083Z" transform="translate(-3145.029 -3010.846)" fill="#e2c59c"/>
            <path id="Trazado_126915" data-name="Trazado 126915" d="M3152.167,3045.253l-10.2.3s7.558,4.551,10.3,2.256S3152.167,3045.253,3152.167,3045.253Z" transform="translate(-3141.968 -3016.179)" fill="#e9d6b8"/>
            <path id="Trazado_126916" data-name="Trazado 126916" d="M3159.874,3117.807l.02,1.036,5.758-.122.076-2.786-3.474-.041A14.247,14.247,0,0,1,3159.874,3117.807Z" transform="translate(-3144.943 -3027.911)" fill="#161711"/>
            <path id="Trazado_126917" data-name="Trazado 126917" d="M3162.663,3058.178s-2.619,17.127-5.57,24.68c-2.613,6.7-6.008-1.868-6.008-1.868l4.42-28.737,8.272-.8S3164.351,3051.647,3162.663,3058.178Z" transform="translate(-3143.482 -3017.208)" fill="#163f59"/>
            <path id="Trazado_126918" data-name="Trazado 126918" d="M3158.308,3053.029l-.786,11.022,1.454.814s1.177,16.326,1.467,17.146c1.654,4.7,5.615,1.773,6.13.185s1.18-13.277.817-21.788l-.364-8.512Z" transform="translate(-3144.552 -3017.282)" fill="#194866"/>
            <path id="Trazado_126919" data-name="Trazado 126919" d="M3161.245,3082.476a38.847,38.847,0,0,0-.39,8.427c.135,3.488.672,12.717,1.457,19.58.049.42,3.476.029,3.476.029s1.617-22.365,1.71-26.69C3167.527,3082.519,3163.922,3079.338,3161.245,3082.476Z" transform="translate(-3145.097 -3022.138)" fill="#194866"/>
            <path id="Trazado_126920" data-name="Trazado 126920" d="M3159.177,3025.708l5.388-1.2,2.764,3.11s2.049,2.749,2.095,8.921c.045,6.188-2.051,17.649-2.051,17.649l-12.332-3.963S3155.615,3028.5,3159.177,3025.708Z" transform="translate(-3144.139 -3012.732)" fill="#d1dbea"/>
            <path id="Trazado_126921" data-name="Trazado 126921" d="M3165.443,3027.954s2.382,1.224,1.239,4.763a40.766,40.766,0,0,1-6.776,11.993c-.765.995-3.436,3.4-5.219,2.607l-1.783-.8-.121-4.021,1.181-.12.7-.132s2.469-3.918,4.532-7.733A21.46,21.46,0,0,1,3165.443,3027.954Z" transform="translate(-3143.764 -3013.305)" fill="#b0bfde"/>
            <path id="Trazado_126922" data-name="Trazado 126922" d="M3160.631,3025.44l.924,2.6,4.854-2.54-.507-1.442Z" transform="translate(-3145.068 -3012.659)" fill="#b0bfde"/>
            <path id="Trazado_126923" data-name="Trazado 126923" d="M3160.137,3024.937l.112.582-1.089,1.584.028-1.3Z" transform="translate(-3144.823 -3012.804)" fill="#b0bfde"/>
            <path id="Trazado_126924" data-name="Trazado 126924" d="M3151.995,3086.136a17.531,17.531,0,0,0,4.031.337c3.051.045-3.407,24.73-3.407,24.73l-4.365-1.5,2.595-24.766Z" transform="translate(-3143.012 -3022.77)" fill="#163f59"/>
            <path id="Trazado_126925" data-name="Trazado 126925" d="M3151.581,3115.827l-.365,2.16-2.193.047-2.056.043-2.879.061-.016-.79s3.4-1.258,4.06-2.588S3151.581,3115.827,3151.581,3115.827Z" transform="translate(-3142.317 -3027.656)" fill="#161711"/>
            <g id="Grupo_57594" data-name="Grupo 57594" transform="translate(12.575)">
              <path id="Trazado_126926" data-name="Trazado 126926" d="M3161.56,3011.717l-.124-1.308-.54.052-1.425.135-.86.083a1.73,1.73,0,0,0-1.556,1.885l.125,1.306.54-.052,1.426-.136.859-.081A1.727,1.727,0,0,0,3161.56,3011.717Z" transform="translate(-3157.048 -3010.391)" fill="#163f59"/>
              <path id="Rectángulo_7171" data-name="Rectángulo 7171" d="M1.841,0H4.718A1.841,1.841,0,0,1,6.559,1.841V8.2a1.843,1.843,0,0,1-1.843,1.843H1.843A1.843,1.843,0,0,1,0,8.2V1.841A1.841,1.841,0,0,1,1.841,0Z" transform="translate(0.638 1.157) rotate(-5.458)" fill="#e9d6b8"/>
              <path id="Trazado_126927" data-name="Trazado 126927" d="M3161.831,3010.4a1.726,1.726,0,0,1,1.512.641l.59-.057a1.339,1.339,0,0,1,1.46,1.205l.316,3.293-.939.09-.127-1.341a.942.942,0,0,0-1.027-.847l-.547.052-1.424.136-.859.082a1.728,1.728,0,0,1-1.885-1.556l-.133-1.407Z" transform="translate(-3157.333 -3010.388)" fill="#163f59"/>
              <path id="Trazado_126928" data-name="Trazado 126928" d="M3165.708,3017.478a.82.82,0,0,1,.738-.893l.068-.005a.819.819,0,0,1,.895.736l.094.991a.823.823,0,0,1-.739.9l-.068.006a.823.823,0,0,1-.794-.416" transform="translate(-3158.485 -3011.415)" fill="#e9d6b8"/>
            </g>
          </g>
        </g>
        <g id="Grupo_57597" data-name="Grupo 57597" transform="translate(9.797 41.076)">
          <path id="Trazado_126929" data-name="Trazado 126929" d="M3100.085,3060.77s1.011-1.508,1.468-1.67,2.161-.638,2.161-.638l.445-.082s.347.441-.8.75-.516.464-.516.464l1.134.117,1.377.251.627.033a1.125,1.125,0,0,1,.443.062c.244.207-.009.324-.009.324l-2.454.081,2.268.545s.278.119.267.279-.105.136-.105.136l-2.727,0,1.135.413s.269.123.266.281,0,.218,0,.218l-4.226-.826Z" transform="translate(-3100.085 -3058.38)" fill="#e9d6b8"/>
          <path id="Trazado_126930" data-name="Trazado 126930" d="M3104.7,3061.408l1.572.476a1.308,1.308,0,0,1,.51.206.222.222,0,0,1,.033.315l-2.445-.484Z" transform="translate(-3100.797 -3058.883)" fill="#e9d6b8"/>
        </g>
        <path id="Trazado_126931" data-name="Trazado 126931" d="M3100.553,3032.214l-5.157,9.207.117,1.37,0,1.12-5.762-.4-1.42-3.82,8.2-13.37s2.712-3.857,5.259-2.115C3104.567,3026.1,3100.973,3031.357,3100.553,3032.214Z" transform="translate(-3088.337 -3011.553)" fill="#b0bfde"/>
        <path id="Trazado_126932" data-name="Trazado 126932" d="M3090.689,3043.786s2.951,1.027,4.507,1.509l-.366.085.319.759-1.59.025-2.263-.286-.209-.886.686-.067Z" transform="translate(-3088.728 -3014.88)" fill="#d1dbea"/>
      </g>
      <path id="Trazado_126933" data-name="Trazado 126933" d="M3238.209,3087.945c.035-.029.07-.054.106-.08l-.055-.019c-.486-.191-.8-.55-.7-.8s.574-.3,1.058-.115c.042.016.083.034.121.052,0-.019-.008-.038-.01-.057-.078-.516.077-.966.346-1.009s.551.345.629.861c.007.044.01.087.015.13l.045-.039c.407-.325.875-.417,1.046-.2s-.023.65-.43.975c-.035.028-.071.053-.105.078l.055.02c.485.19.8.551.7.8s-.573.306-1.058.116a1.3,1.3,0,0,1-.12-.053c0,.02.006.039.009.058.078.516-.077.967-.346,1.008s-.551-.345-.629-.86c-.007-.044-.011-.087-.014-.13l-.046.038c-.407.325-.875.416-1.045.2S3237.8,3088.269,3238.209,3087.945Zm1.162.351a.511.511,0,1,0-.582-.428A.511.511,0,0,0,3239.371,3088.3Z" transform="translate(-3065.131 -2975.17)" fill="#fff"/>
      <path id="Trazado_126934" data-name="Trazado 126934" d="M3210.759,3081a2.5,2.5,0,0,0-1.282-.153.749.749,0,0,0,.6-.7c0-.521-.691-.124-.885.472a5.76,5.76,0,0,0-.368-.895c-.283-.471-.728-.094-.634.329a1.028,1.028,0,0,0,.707.906,1.706,1.706,0,0,0-.755.156c-1.1.545-1.143.848-.705.963a1.84,1.84,0,0,0,1.566-.633c-.06.421-.132,1.137.1,1.4.337.395.7.36.7-.472-.006-.8-.119-.907-.127-.915a1.43,1.43,0,0,0,.775.314C3211.235,3081.77,3211.26,3081.235,3210.759,3081Zm-1.661.208a.133.133,0,1,1,.157.118A.138.138,0,0,1,3209.1,3081.208Z" transform="translate(-3059.807 -2974.08)" fill="#fff"/>
      <g id="Grupo_57599" data-name="Grupo 57599" transform="translate(158.556 113.527)">
        <path id="Trazado_126935" data-name="Trazado 126935" d="M3221.477,3090.527a1.009,1.009,0,0,0-.57.129c-.45.318-.251.635.128.57a1.784,1.784,0,0,0,.854-.479.555.555,0,0,0-.124.7c.286.41.63-.7,0-1.013s.541.6.889.756.454-.235.231-.44c-.166-.153-.322-.438-1.33-.089s.524.211.936-.538.318-.939.021-.832-1.052,1.013-.362,1.439-.068-.02-.22-.328c-.1-.213-.395-.818-.676-.892-.35-.092-.546.073-.212.547S3221.477,3090.527,3221.477,3090.527Z" transform="translate(-3220.649 -3089.261)" fill="#fff"/>
        <path id="Trazado_126936" data-name="Trazado 126936" d="M3222.128,3090.814a.1.1,0,1,1-.007-.136A.1.1,0,0,1,3222.128,3090.814Z" transform="translate(-3220.866 -3089.491)" fill="#fff"/>
      </g>
      <path id="Trazado_126937" data-name="Trazado 126937" d="M3112.223,2962.25h-22.956s5.525-9.775,9.541-9.775c3.736,0,3.875,6.9,6.261,7.246s1.947-1.041,3.875-1.036C3110.757,2958.689,3112.223,2962.25,3112.223,2962.25Z" transform="translate(-3039.779 -2952.475)" fill="#e4efff"/>
      <path id="Trazado_126938" data-name="Trazado 126938" d="M3241.292,2974.785h25.427a5.388,5.388,0,0,1-3.441-1.735c-.876-.864-2.684-3.613-5.683-3.623-3.044-.011-4.029,2.979-6.732,3.006-1.809.019-1.548-.415-3.043-.415s-2.485,1.033-3.463,1.649A5.823,5.823,0,0,1,3241.292,2974.785Z" transform="translate(-3065.754 -2955.291)" fill="#b0bfde"/>
      <g id="Grupo_57600" data-name="Grupo 57600" transform="translate(26.977 40.726)">
        <path id="Trazado_126939" data-name="Trazado 126939" d="M3087.988,3006.558a13.131,13.131,0,0,0-9.793-4.945c-.242-.01-.486-.018-.733-.019h0a12.99,12.99,0,0,0-4.213.668c-.037.014-.075.028-.113.039.038-.011.074-.025.111-.039l1.3,4a9.406,9.406,0,0,1,2.915-.463h0a9.417,9.417,0,0,1,7.632,3.891l3.405-2.474C3088.333,3006.993,3088.162,3006.771,3087.988,3006.558Z" transform="translate(-3063.816 -3001.594)" fill="#194866"/>
        <path id="Trazado_126940" data-name="Trazado 126940" d="M3087.474,3010.789a9.382,9.382,0,0,1,1.8,5.545h4.208c0,.247-.008.49-.02.734,0,.01,0,.02,0,.031.014-.254.023-.51.023-.767a13.577,13.577,0,0,0-2.505-7.881c-.194-.273-.267-.363-.1-.136Z" transform="translate(-3066.198 -3002.69)" fill="#fdbf14"/>
        <path id="Trazado_126941" data-name="Trazado 126941" d="M3081.15,3023.005a9.435,9.435,0,1,1-8.461-16.606l-1.3-4c-.037.013-.073.026-.111.038-.167.057-.334.115-.5.177l-.142.055a13.39,13.39,0,0,0-8.665,12.147c-.006.129-.006.258-.009.387,0,.058,0,.113,0,.171,0,.011,0,.022,0,.032,0,.183.006.365.013.547,0,.055,0,.108.007.165.007.141.019.281.031.423.009.1.016.2.027.294.007.079.02.158.029.236.021.163.041.326.067.487,0,.009,0,.017,0,.027a13.53,13.53,0,0,0,.988,3.314c.057.129.114.258.174.385a.067.067,0,0,1,.006.011,13.65,13.65,0,0,0,10.867,7.647l.083.008c.16.016.323.028.484.038l.249.014c.109,0,.218.006.329.008.094,0,.188.007.284.007a13.577,13.577,0,0,0,8.017-2.607Z" transform="translate(-3061.961 -3001.728)" fill="#3bb6d5"/>
        <path id="Trazado_126942" data-name="Trazado 126942" d="M3088.077,3028.508a13.1,13.1,0,0,0,4.923-9.147c0-.025,0-.05.006-.074.017-.187.032-.374.043-.564,0-.011,0-.021,0-.031.011-.244.021-.486.021-.734h-4.208a9.423,9.423,0,0,1-3.89,7.633l2.474,3.4h0l0,0C3087.664,3028.834,3087.873,3028.672,3088.077,3028.508Z" transform="translate(-3065.783 -3004.313)" fill="#b0bfde"/>
      </g>
      <path id="Trazado_126943" data-name="Trazado 126943" d="M3220.159,2991.681l-.041-1.9-1.7-.106a5.2,5.2,0,0,0-.7-1.715l1.1-1.359-1.374-1.319-1.273,1.125a5.156,5.156,0,0,0-1.71-.715l-.183-1.741-1.9.041-.1,1.694a5.2,5.2,0,0,0-1.715.7l-1.36-1.1-1.318,1.375,1.124,1.273a5.16,5.16,0,0,0-.714,1.711l-1.742.183.041,1.9,1.7.106a5.1,5.1,0,0,0,.7,1.715l-1.1,1.36,1.375,1.319,1.272-1.124a5.118,5.118,0,0,0,1.712.713l.181,1.742,1.9-.04.107-1.7a5.185,5.185,0,0,0,1.714-.7l1.361,1.1,1.318-1.374-1.125-1.274a5.169,5.169,0,0,0,.715-1.711Zm-6.753,1.587a2.515,2.515,0,1,1,2.462-2.568A2.516,2.516,0,0,1,3213.405,2993.268Z" transform="translate(-3059.734 -2957.837)" fill="#3bb6d5"/>
      <path id="Trazado_126944" data-name="Trazado 126944" d="M3224.737,3018.51a2.892,2.892,0,0,0-2.891,2.891c0,1.6,2.891,5.976,2.891,5.976s2.892-4.378,2.892-5.976A2.892,2.892,0,0,0,3224.737,3018.51Zm0,3.908a.855.855,0,1,1,.856-.856A.855.855,0,0,1,3224.737,3022.417Z" transform="translate(-3062.308 -2963.716)" fill="#b0bfde"/>
      <g id="Grupo_57601" data-name="Grupo 57601" transform="translate(99.65 4.506)">
        <path id="Trazado_126945" data-name="Trazado 126945" d="M3160.755,2965.821a.622.622,0,0,1-.6.643h-1.162v2.412l-2.849-2.412H3150.3a.622.622,0,0,1-.6-.643v-7.3a.623.623,0,0,1,.6-.643h9.854a.622.622,0,0,1,.6.643Z" transform="translate(-3149.7 -2957.879)" fill="#7dccd0"/>
        <path id="Trazado_126946" data-name="Trazado 126946" d="M3158.159,2962.614l-1.612.931-1.613.931v-3.724l1.613.931Z" transform="translate(-3150.569 -2958.356)" fill="#fff"/>
      </g>
      <g id="Grupo_57602" data-name="Grupo 57602" transform="translate(71.209 31.181)">
        <path id="Trazado_126947" data-name="Trazado 126947" d="M3119.742,2993.71a.994.994,0,0,0-.8.412l-1.567-.98a.893.893,0,0,0,0-.527l1.566-.979a.995.995,0,1,0-.2-.588c0,.039.008.076.011.114l-1.628,1.019a1,1,0,1,0,0,1.4l1.629,1.019c0,.037-.011.075-.011.114a1,1,0,1,0,1-1Z" transform="translate(-3115.414 -2990.049)" fill="#fec12f"/>
        <path id="Trazado_126948" data-name="Trazado 126948" d="M3120.5,2990.648a.5.5,0,1,1-.5.5A.5.5,0,0,1,3120.5,2990.648Z" transform="translate(-3116.177 -2990.148)" fill="#fec12f"/>
        <path id="Trazado_126949" data-name="Trazado 126949" d="M3116.513,2993.842a.5.5,0,1,1,.5-.5A.5.5,0,0,1,3116.513,2993.842Z" transform="translate(-3115.513 -2990.513)" fill="#fec12f"/>
        <path id="Trazado_126950" data-name="Trazado 126950" d="M3120.5,2996.038a.5.5,0,1,1,.5-.5A.5.5,0,0,1,3120.5,2996.038Z" transform="translate(-3116.177 -2990.878)" fill="#fec12f"/>
      </g>
      <g id="Grupo_57604" data-name="Grupo 57604" transform="translate(52.992 28.559)">
        <rect id="Rectángulo_7172" data-name="Rectángulo 7172" width="13.9" height="14.248" fill="#3bb6d5"/>
        <g id="Grupo_57603" data-name="Grupo 57603" transform="translate(3.318 3.836)">
          <path id="Trazado_126951" data-name="Trazado 126951" d="M3104.477,2993.413h-2.386a5.1,5.1,0,0,0,.287-.77,3.309,3.309,0,0,0,0-.584.56.56,0,0,0-.562-.56h-.279v.865s-.98,1.142-.98,1.608v2.73a.561.561,0,0,0,.561.56h1.959a.886.886,0,0,0,.763-.56l.995-2.73A.379.379,0,0,0,3104.477,2993.413Z" transform="translate(-3097.97 -2991.5)" fill="#fff"/>
          <rect id="Rectángulo_7173" data-name="Rectángulo 7173" width="0.746" height="3.057" transform="translate(2.19 2.356)" fill="#fff"/>
          <rect id="Rectángulo_7174" data-name="Rectángulo 7174" width="1.33" height="3.85" transform="translate(0 1.913)" fill="#fff"/>
        </g>
      </g>
      <g id="Grupo_57606" data-name="Grupo 57606" transform="translate(162.442 37.622)">
        <path id="Trazado_126952" data-name="Trazado 126952" d="M3252.788,2998.56a.752.752,0,0,0-.749-.749h-24.674a.752.752,0,0,0-.749.749v1.169l-1.028,1.169,1.028,1.357v.983a.751.751,0,0,0,.749.749h24.674a.751.751,0,0,0,.749-.749Z" transform="translate(-3225.588 -2997.811)" fill="#d1dbea"/>
        <g id="Grupo_57605" data-name="Grupo 57605" transform="translate(3.816 3.13)">
          <line id="Línea_232" data-name="Línea 232" x1="7.729" transform="translate(13.448)" fill="none"/>
          <line id="Línea_233" data-name="Línea 233" x1="9.35" transform="translate(3.169)" fill="none"/>
          <line id="Línea_234" data-name="Línea 234" x1="2.138" fill="none"/>
        </g>
      </g>
    </g>
    <rect id="Rectángulo_7283" data-name="Rectángulo 7283" width="271" height="145" transform="translate(309 2096)" fill="none"/>
  </g>
</svg>
