<svg xmlns="http://www.w3.org/2000/svg" xmlns:xlink="http://www.w3.org/1999/xlink" width="87.054" height="87.054" viewBox="0 0 87.054 87.054">
  <defs>
    <clipPath id="clip-path">
      <rect id="SVGID" width="87.054" height="87.054" transform="translate(1320.315 800.64)" fill="none"/>
    </clipPath>
  </defs>
  <g id="Grupo_57610" data-name="Grupo 57610" transform="translate(-1320.315 -800.64)">
    <path id="Trazado_126953" data-name="Trazado 126953" d="M1368.195,886.244h-46.429V828.207l5.8-14.509h34.822l5.8,14.509Zm0,0" fill="#c595ff"/>
    <rect id="Rect치ngulo_7175" data-name="Rect치ngulo 7175" width="29.018" height="26.116" transform="translate(1330.472 831.109)" fill="#e9eef2"/>
    <rect id="Rect치ngulo_7176" data-name="Rect치ngulo 7176" width="34.822" height="11.607" transform="translate(1327.57 868.833)" fill="#e9eef2"/>
    <path id="Trazado_126954" data-name="Trazado 126954" d="M1347.882,822.4a2.9,2.9,0,1,1-2.9-2.9,2.9,2.9,0,0,1,2.9,2.9Zm0,0" fill="#e9eef2"/>
    <path id="Trazado_126955" data-name="Trazado 126955" d="M1403.017,886.244a2.9,2.9,0,0,1-2.052-.851l-23.214-23.214a2.9,2.9,0,1,1,4.1-4.1l23.215,23.214a2.9,2.9,0,0,1-2.052,4.954Zm0,0" fill="#95f7ff"/>
    <path id="Trazado_126956" data-name="Trazado 126956" d="M1388.508,845.618a24.666,24.666,0,1,1-24.666-24.665,24.666,24.666,0,0,1,24.666,24.665Zm0,0" fill="#f9e478"/>
    <g id="Grupo_57609" data-name="Grupo 57609">
      <g id="Grupo_57608" data-name="Grupo 57608" clip-path="url(#clip-path)">
        <path id="Trazado_126957" data-name="Trazado 126957" d="M1382.7,845.618a18.86,18.86,0,1,1-5.524-13.338,18.862,18.862,0,0,1,5.524,13.338Zm0,0" fill="#e9eef2"/>
        <path id="Trazado_126958" data-name="Trazado 126958" d="M1385.71,859.88a26.1,26.1,0,0,0-19.387-40.259l-2.585-6.461a1.449,1.449,0,0,0-1.346-.913h-8.8a11.909,11.909,0,0,0,.091-1.451c0-5.6-3.905-10.156-8.7-10.156s-8.706,4.556-8.706,10.156a11.934,11.934,0,0,0,.091,1.451h-8.8a1.45,1.45,0,0,0-1.347.913l-5.8,14.509a1.439,1.439,0,0,0-.1.538v58.037a1.451,1.451,0,0,0,1.451,1.45h46.429a1.451,1.451,0,0,0,1.451-1.45v-15.16a26.04,26.04,0,0,0,10.152-4.8l20.141,20.14a4.353,4.353,0,0,0,6.156-6.155Zm1.347-14.262a23.215,23.215,0,1,1-23.215-23.214,23.214,23.214,0,0,1,23.215,23.214Zm-58.036,33.371v-8.705h2.9v8.705Zm5.8-8.705h2.9v8.705h-2.9Zm5.8,0h2.9v8.705h-2.9Zm5.8,0h2.9v8.705h-2.9Zm5.8,0h2.9v-.043l.122.043h-.122v8.705h-2.9Zm5.8.8a26.108,26.108,0,0,0,2.9.488v7.417h-2.9Zm-18.257-15.31h-7.859V832.56h9.309a26.09,26.09,0,0,0-1.451,23.214Zm5.2-34.821a1.451,1.451,0,1,1-1.451,1.451,1.451,1.451,0,0,1,1.451-1.451Zm18.172-1.442a25.965,25.965,0,0,0-14.2,4.661,4.35,4.35,0,0,0-3.975-6.121,5.516,5.516,0,0,1-4.64-2.9h21.068Zm-23.976-8.715c0-4,2.6-7.254,5.8-7.254s5.8,3.254,5.8,7.254a8.916,8.916,0,0,1-.118,1.451H1339.3a9.026,9.026,0,0,1-.118-1.451Zm27.567,74h-43.527V864.48h1.451a1.451,1.451,0,1,0,0-2.9h-1.451V828.487l5.335-13.338h8.565a9.6,9.6,0,0,0,4.226,4.871,4.349,4.349,0,0,0,4.559,6.637,26.451,26.451,0,0,0-2.717,3h-12.713a1.451,1.451,0,0,0-1.451,1.451v26.116a1.452,1.452,0,0,0,1.451,1.451h10.76a26.312,26.312,0,0,0,8.192,8.706H1327.57a1.451,1.451,0,0,0-1.451,1.451V880.44a1.451,1.451,0,0,0,1.451,1.451h34.822a1.451,1.451,0,0,0,1.45-1.451v-8.706a26.047,26.047,0,0,0,2.9-.162Zm37.3-.425a1.452,1.452,0,0,1-2.052,0L1382,864.373a26.313,26.313,0,0,0,1.973-2.131l20.073,20.074a1.451,1.451,0,0,1,0,2.052Zm0,0" fill="#855db5"/>
      </g>
    </g>
    <path id="Trazado_126959" data-name="Trazado 126959" d="M1330.472,864.48h2.9a1.451,1.451,0,0,0,0-2.9h-2.9a1.451,1.451,0,1,0,0,2.9Zm0,0" fill="#855db5"/>
    <path id="Trazado_126960" data-name="Trazado 126960" d="M1339.177,864.48h2.9a1.451,1.451,0,1,0,0-2.9h-2.9a1.451,1.451,0,1,0,0,2.9Zm0,0" fill="#855db5"/>
    <path id="Trazado_126961" data-name="Trazado 126961" d="M1343.53,845.618a20.312,20.312,0,1,0,20.312-20.313,20.311,20.311,0,0,0-20.312,20.313Zm37.723,0a17.411,17.411,0,1,1-17.411-17.411,17.412,17.412,0,0,1,17.411,17.411Zm0,0" fill="#855db5"/>
    <path id="Trazado_126962" data-name="Trazado 126962" d="M1362.392,836.913v1.7a4.353,4.353,0,0,0,1.45,8.456,1.451,1.451,0,1,1-1.45,1.451,1.451,1.451,0,1,0-2.9,0,4.36,4.36,0,0,0,2.9,4.1v1.7a1.451,1.451,0,0,0,2.9,0v-1.7a4.353,4.353,0,0,0-1.451-8.456,1.451,1.451,0,1,1,1.451-1.451,1.451,1.451,0,1,0,2.9,0,4.36,4.36,0,0,0-2.9-4.1v-1.7a1.451,1.451,0,1,0-2.9,0Zm0,0" fill="#855db5"/>
  </g>
</svg>
