<svg xmlns="http://www.w3.org/2000/svg" width="52.383" height="94.342" viewBox="0 0 52.383 94.342">
  <g id="Grupo_57609" data-name="Grupo 57609" transform="translate(-1337.651 -1894.456)">
    <path id="Trazado_126953" data-name="Trazado 126953" d="M1372.268,1918.693a8.425,8.425,0,0,1-16.85.078v-9.144h-5.511v11.408a8.186,8.186,0,0,0-.087,11.577q.138.139.282.273l2.594,14.774a49.886,49.886,0,0,0-13.663,34.3v5.458h49.619v-5.457a49.891,49.891,0,0,0-13.662-34.3l2.594-14.774a8.186,8.186,0,0,0,.468-11.568q-.133-.144-.273-.282v-11.407h-5.511Z" fill="#f17781"/>
    <path id="Trazado_126954" data-name="Trazado 126954" d="M1366.607,1926.654a8.429,8.429,0,0,0,11.171-7.426v-9.6h-5.51v9.066A8.43,8.43,0,0,1,1366.607,1926.654Z" fill="#e27481"/>
    <path id="Trazado_126955" data-name="Trazado 126955" d="M1358.224,1947.658l-2.595-14.774a8.186,8.186,0,0,1-.467-11.568q.132-.144.273-.282v-1.806c-.012-.177-.018-.355-.018-.535v-9.066h-5.51v11.408a8.186,8.186,0,0,0-.087,11.577c.092.094.186.184.282.273l2.594,14.774a49.886,49.886,0,0,0-13.663,34.3v5.458h5.528v-5.457A49.886,49.886,0,0,1,1358.224,1947.658Z" fill="#e27481"/>
    <path id="Trazado_126956" data-name="Trazado 126956" d="M1376.47,1947.219l2.4-13.656a9.6,9.6,0,0,0,2.735-6.7,9.492,9.492,0,0,0-2.442-6.385v-12.236h-8.274v10.448a7.043,7.043,0,0,1-14.086.061v-10.51h-8.275v12.237a9.492,9.492,0,0,0-2.442,6.385,9.6,9.6,0,0,0,2.735,6.7l2.4,13.656a51.059,51.059,0,0,0-13.564,34.739v6.84h52.383v-6.839A51.057,51.057,0,0,0,1376.47,1947.219Zm10.8,38.815h-46.855v-2.764H1352.7v-2.764h-12.259a48.291,48.291,0,0,1,12.858-31.466h6.936v-2.764h-6.375l-2.474-14.091-.343-.316a6.829,6.829,0,0,1-2.192-5,6.758,6.758,0,0,1,2.029-4.847l.413-.406v-10.6h2.746v7.684a9.807,9.807,0,1,0,19.614.085v-7.769h2.747v10.6l.412.4a6.758,6.758,0,0,1,2.03,4.847,6.829,6.829,0,0,1-2.192,5l-.343.317-2.795,15.919.478.505a48.312,48.312,0,0,1,13.284,33.351Z" fill="#855db5"/>
    <path id="Trazado_126957" data-name="Trazado 126957" d="M1358.517,1908.136l1.172,2.5,4.154-1.943,4.154,1.943,1.172-2.5-3.943-1.845v-5.8h-3.02v-3.271h3.272v1.535h2.763v-4.3h-8.8v8.8h3.019v3.036Z" fill="#855db5"/>
    <path id="Trazado_126958" data-name="Trazado 126958" d="M1359.287,1918.612h9.113v2.764h-9.113Z" fill="#855db5"/>
    <path id="Trazado_126959" data-name="Trazado 126959" d="M1383.958,1918.612h-2.242v2.764h5.006v-5.026l-4.673-2.185-1.17,2.5,3.079,1.441Z" fill="#855db5"/>
    <path id="Trazado_126960" data-name="Trazado 126960" d="M1345.969,1918.612h-2.242v-.5l3.079-1.441-1.17-2.5-4.672,2.186v5.025h5.005Z" fill="#855db5"/>
  </g>
</svg>
