<svg xmlns="http://www.w3.org/2000/svg" width="266" height="227.128" viewBox="0 0 266 227.128">
  <g id="Grupo_59031" data-name="Grupo 59031" transform="translate(-719.315 -311.367)">
    <g id="Grupo_58904" data-name="Grupo 58904" transform="translate(787.329 488.134)">
      <g id="Grupo_58897" data-name="Grupo 58897" transform="translate(1.44 2.684)">
        <g id="Grupo_58896" data-name="Grupo 58896">
          <rect id="Rectángulo_7237" data-name="Rectángulo 7237" width="0.45" height="23.387" fill="#1c468a"/>
        </g>
      </g>
      <g id="Grupo_58900" data-name="Grupo 58900" transform="translate(0 24.809)">
        <g id="Grupo_58899" data-name="Grupo 58899">
          <g id="Grupo_58898" data-name="Grupo 58898">
            <path id="Trazado_127815" data-name="Trazado 127815" d="M1100.537,1537.672l-1.665.707-1.665-.707,1.665,3.947Z" transform="translate(-1097.207 -1537.672)" fill="#1c468a"/>
          </g>
        </g>
      </g>
      <g id="Grupo_58903" data-name="Grupo 58903" transform="translate(0)">
        <g id="Grupo_58902" data-name="Grupo 58902">
          <g id="Grupo_58901" data-name="Grupo 58901">
            <path id="Trazado_127816" data-name="Trazado 127816" d="M1100.537,1402.276l-1.665-.707-1.665.707,1.665-3.947Z" transform="translate(-1097.207 -1398.329)" fill="#1c468a"/>
          </g>
        </g>
      </g>
    </g>
    <g id="Grupo_58929" data-name="Grupo 58929" transform="translate(719.315 535.934)">
      <path id="Rectángulo_7242" data-name="Rectángulo 7242" d="M1.281,0H264.719A1.281,1.281,0,0,1,266,1.281v0a1.281,1.281,0,0,1-1.281,1.281H1.281A1.281,1.281,0,0,1,0,1.281v0A1.281,1.281,0,0,1,1.281,0Z" transform="translate(0 0)" fill="#2e3552"/>
    </g>
    <g id="Grupo_58938" data-name="Grupo 58938" transform="translate(897.293 311.367)">
      <g id="Grupo_58931" data-name="Grupo 58931" transform="translate(0)">
        <g id="Grupo_58930" data-name="Grupo 58930">
          <path id="Trazado_127830" data-name="Trazado 127830" d="M1703.25,518.072l-.19-.02,9.991-98.986.19.02a6.33,6.33,0,0,1,5.571,6.975L1710.1,512.4A6.273,6.273,0,0,1,1703.25,518.072Z" transform="translate(-1703.06 -419.066)" fill="#f17781"/>
        </g>
      </g>
      <g id="Grupo_58933" data-name="Grupo 58933" transform="translate(6.047 47.108)">
        <g id="Grupo_58932" data-name="Grupo 58932">
          <path id="Trazado_127831" data-name="Trazado 127831" d="M1747.037,747.409h-10.016v-4.737h10.016a11.69,11.69,0,0,0,9.569-4.943,12.22,12.22,0,0,0,1.68-11.133l-13.832-41.437,4.493-1.5L1762.78,725.1a17.13,17.13,0,0,1-2.33,15.4A16.377,16.377,0,0,1,1747.037,747.409Z" transform="translate(-1737.022 -683.659)" fill="#f17781"/>
        </g>
      </g>
      <g id="Grupo_58935" data-name="Grupo 58935" transform="translate(8.452 35.878)">
        <g id="Grupo_58934" data-name="Grupo 58934">
          <path id="Trazado_127832" data-name="Trazado 127832" d="M1750.531,646.934h0l2.66-26.353h0A7.734,7.734,0,0,1,1760,629.1l-1.1,10.9A7.664,7.664,0,0,1,1750.531,646.934Z" transform="translate(-1750.531 -620.581)" fill="#f17781"/>
        </g>
      </g>
      <g id="Grupo_58937" data-name="Grupo 58937" transform="translate(3.113 104.727)">
        <g id="Grupo_58936" data-name="Grupo 58936">
          <path id="Rectángulo_7243" data-name="Rectángulo 7243" d="M1.882,0H44.267a1.881,1.881,0,0,1,1.881,1.881v0a1.882,1.882,0,0,1-1.882,1.882H1.882A1.882,1.882,0,0,1,0,1.882v0A1.882,1.882,0,0,1,1.882,0Z" fill="#f17781"/>
        </g>
      </g>
    </g>
    <g id="Grupo_58942" data-name="Grupo 58942" transform="translate(838.237 421.292)">
      <g id="Grupo_58939" data-name="Grupo 58939" transform="translate(0 0)">
        <path id="Trazado_127833" data-name="Trazado 127833" d="M1494.77,1022.9H1373.586a2.225,2.225,0,0,0-2.225,2.225h0a2.225,2.225,0,0,0,2.225,2.225H1494.77a2.225,2.225,0,0,0,2.225-2.225h0A2.225,2.225,0,0,0,1494.77,1022.9Z" transform="translate(-1371.361 -1022.903)" fill="#2c3a64"/>
      </g>
      <g id="Grupo_58940" data-name="Grupo 58940" transform="translate(108.215 0)">
        <path id="Trazado_127834" data-name="Trazado 127834" d="M1986.948,1137.545h-1.625l-.222-4.1-5.929-109.735a.812.812,0,0,1,1.619-.078l5.935,109.813Z" transform="translate(-1979.171 -1022.903)" fill="#2c3a64"/>
      </g>
      <g id="Grupo_58941" data-name="Grupo 58941" transform="translate(77.363 111.261)">
        <path id="Trazado_127835" data-name="Trazado 127835" d="M1844.291,1647.82l.222,3.38h-38.629a3.38,3.38,0,0,1,3.38-3.38Z" transform="translate(-1805.884 -1647.82)" fill="#2c3a64"/>
      </g>
    </g>
    <g id="Grupo_58952" data-name="Grupo 58952" transform="translate(831.707 476.422)">
      <g id="Grupo_58951" data-name="Grupo 58951">
        <g id="Grupo_58944" data-name="Grupo 58944" transform="translate(1.269 2.638)">
          <g id="Grupo_58943" data-name="Grupo 58943">
            <path id="Trazado_127836" data-name="Trazado 127836" d="M1372.954,1372.665c-17.833-2.907-21.824-16.943-22.712-22.842l.445-.067c.874,5.8,4.8,19.606,22.34,22.465Z" transform="translate(-1350.242 -1349.756)" fill="#1c468a"/>
          </g>
        </g>
        <g id="Grupo_58947" data-name="Grupo 58947">
          <g id="Grupo_58946" data-name="Grupo 58946">
            <g id="Grupo_58945" data-name="Grupo 58945">
              <path id="Trazado_127837" data-name="Trazado 127837" d="M1343.117,1339.04l1.58-.881,1.731.525-2.077-3.747Z" transform="translate(-1343.117 -1334.938)" fill="#1c468a"/>
            </g>
          </g>
        </g>
        <g id="Grupo_58950" data-name="Grupo 58950" transform="translate(22.545 23.476)">
          <g id="Grupo_58949" data-name="Grupo 58949">
            <g id="Grupo_58948" data-name="Grupo 58948">
              <path id="Trazado_127838" data-name="Trazado 127838" d="M1469.746,1470.1l.928-1.553-.474-1.746,3.683,2.188Z" transform="translate(-1469.746 -1466.796)" fill="#1c468a"/>
            </g>
          </g>
        </g>
      </g>
    </g>
    <g id="Grupo_58961" data-name="Grupo 58961" transform="translate(825.097 378.421)">
      <g id="Grupo_58954" data-name="Grupo 58954" transform="translate(2.666 1.362)">
        <g id="Grupo_58953" data-name="Grupo 58953">
          <path id="Trazado_127839" data-name="Trazado 127839" d="M1348.821,821.585c-5.041-18.654-20.964-21.842-27.575-22.346l.034-.448c6.707.512,22.859,3.746,27.975,22.678Z" transform="translate(-1321.246 -798.79)" fill="#1c468a"/>
        </g>
      </g>
      <g id="Grupo_58957" data-name="Grupo 58957" transform="translate(0)">
        <g id="Grupo_58956" data-name="Grupo 58956">
          <g id="Grupo_58955" data-name="Grupo 58955">
            <path id="Trazado_127840" data-name="Trazado 127840" d="M1310.153,794.467l-.641-1.692.772-1.636-4.01,1.509Z" transform="translate(-1306.274 -791.14)" fill="#1c468a"/>
          </g>
        </g>
      </g>
      <g id="Grupo_58960" data-name="Grupo 58960" transform="translate(28.515 22.486)">
        <g id="Grupo_58959" data-name="Grupo 58959">
          <g id="Grupo_58958" data-name="Grupo 58958">
            <path id="Trazado_127841" data-name="Trazado 127841" d="M1466.437,918.225l1.786.291,1.449-1.083-.679,4.23Z" transform="translate(-1466.437 -917.434)" fill="#1c468a"/>
          </g>
        </g>
      </g>
    </g>
    <g id="Grupo_58967" data-name="Grupo 58967" transform="translate(824.229 328.396)">
      <g id="Grupo_58963" data-name="Grupo 58963" transform="translate(0 1.201)">
        <g id="Grupo_58962" data-name="Grupo 58962" transform="translate(0 0)">
          <rect id="Rectángulo_7244" data-name="Rectángulo 7244" width="55.921" height="0.45" transform="translate(0 9.575) rotate(-9.859)" fill="#1c468a"/>
        </g>
      </g>
      <g id="Grupo_58966" data-name="Grupo 58966" transform="translate(53.605)">
        <g id="Grupo_58965" data-name="Grupo 58965">
          <g id="Grupo_58964" data-name="Grupo 58964">
            <path id="Trazado_127842" data-name="Trazado 127842" d="M1602.22,517.989l.412-1.762-.982-1.52,4.174.965Z" transform="translate(-1601.65 -514.708)" fill="#1c468a"/>
          </g>
        </g>
      </g>
    </g>
    <g id="Grupo_58973" data-name="Grupo 58973" transform="translate(824.16 343.516)">
      <g id="Grupo_58969" data-name="Grupo 58969" transform="translate(0 0)">
        <g id="Grupo_58968" data-name="Grupo 58968" transform="translate(0)">
          <rect id="Rectángulo_7245" data-name="Rectángulo 7245" width="0.45" height="55.132" transform="translate(0 0.419) rotate(-68.876)" fill="#1c468a"/>
        </g>
      </g>
      <g id="Grupo_58972" data-name="Grupo 58972" transform="translate(49.73 18.071)">
        <g id="Grupo_58971" data-name="Grupo 58971">
          <g id="Grupo_58970" data-name="Grupo 58970">
            <path id="Trazado_127843" data-name="Trazado 127843" d="M1579.646,704.239l1.26-1.3-.06-1.808,3.082,2.976Z" transform="translate(-1579.646 -701.133)" fill="#1c468a"/>
          </g>
        </g>
      </g>
    </g>
    <g id="Grupo_58976" data-name="Grupo 58976" transform="translate(746.151 405.515)">
      <g id="Grupo_58974" data-name="Grupo 58974" transform="translate(0)">
        <path id="Trazado_127844" data-name="Trazado 127844" d="M870.045,947.759a5.828,5.828,0,1,1,5.828,5.828A5.828,5.828,0,0,1,870.045,947.759Z" transform="translate(-870.045 -941.931)" fill="#f17781"/>
      </g>
      <g id="Grupo_58975" data-name="Grupo 58975" transform="translate(3.206 3.035)">
        <path id="Trazado_127845" data-name="Trazado 127845" d="M890.721,965l-2.666-2.914,1.151-1.053,1.286,1.406,2.184-3.457,1.319.833Z" transform="translate(-888.055 -958.979)" fill="#fff"/>
      </g>
    </g>
    <g id="Grupo_58979" data-name="Grupo 58979" transform="translate(888.29 450.992)">
      <g id="Grupo_58977" data-name="Grupo 58977">
        <path id="Trazado_127846" data-name="Trazado 127846" d="M1657.83,1200.322a5.828,5.828,0,1,1,5.828,5.829A5.828,5.828,0,0,1,1657.83,1200.322Z" transform="translate(-1657.83 -1194.494)" fill="#f17781"/>
      </g>
      <g id="Grupo_58978" data-name="Grupo 58978" transform="translate(3.207 3.035)">
        <path id="Trazado_127847" data-name="Trazado 127847" d="M1678.507,1217.561l-2.666-2.914,1.151-1.053,1.287,1.407,2.184-3.457,1.319.833Z" transform="translate(-1675.841 -1211.543)" fill="#fff"/>
      </g>
    </g>
    <g id="Grupo_58982" data-name="Grupo 58982" transform="translate(770.685 495.928)">
      <g id="Grupo_58980" data-name="Grupo 58980" transform="translate(0 0)">
        <path id="Trazado_127848" data-name="Trazado 127848" d="M1004.629,1447.936a5.828,5.828,0,1,1,5.828,5.828A5.828,5.828,0,0,1,1004.629,1447.936Z" transform="translate(-1004.629 -1442.107)" fill="#f17781"/>
      </g>
      <g id="Grupo_58981" data-name="Grupo 58981" transform="translate(3.207 3.035)">
        <path id="Trazado_127849" data-name="Trazado 127849" d="M1025.305,1465.172l-2.666-2.914,1.151-1.053,1.286,1.407,2.184-3.457,1.319.833Z" transform="translate(-1022.64 -1459.154)" fill="#fff"/>
      </g>
    </g>
    <g id="Grupo_58985" data-name="Grupo 58985" transform="translate(861.824 374.152)">
      <g id="Grupo_58983" data-name="Grupo 58983" transform="translate(0 0)">
        <path id="Trazado_127850" data-name="Trazado 127850" d="M1510.83,773.577a5.828,5.828,0,1,1,5.828,5.829A5.828,5.828,0,0,1,1510.83,773.577Z" transform="translate(-1510.83 -767.749)" fill="#f17781"/>
      </g>
      <g id="Grupo_58984" data-name="Grupo 58984" transform="translate(3.207 3.035)">
        <path id="Trazado_127851" data-name="Trazado 127851" d="M1531.506,790.814l-2.666-2.914,1.151-1.053,1.287,1.406,2.184-3.457,1.319.833Z" transform="translate(-1528.84 -784.796)" fill="#fff"/>
      </g>
    </g>
    <g id="Grupo_58986" data-name="Grupo 58986" transform="translate(851.723 414.163)">
      <path id="Trazado_127852" data-name="Trazado 127852" d="M1454.17,993.18l27.745-3.055v5.922H1454.17Z" transform="translate(-1454.17 -990.125)" fill="#2c3a64"/>
    </g>
    <g id="Grupo_58987" data-name="Grupo 58987" transform="translate(878.463 517.505)">
      <path id="Trazado_127853" data-name="Trazado 127853" d="M1632.2,1581.732H1616.54s-12.127,0-12.459-.022c-1.988-.154-1.635-9.653-1.435-13.188.044-.817.089-1.3.089-1.3s.2-.287.53-.707c1.48-1.767,5.567-5.921,7.908-.6a11.414,11.414,0,0,0,1.569,2.562,16.428,16.428,0,0,0,2.761,2.783,28.8,28.8,0,0,0,11.885,5.656A5.565,5.565,0,0,1,1632.2,1581.732Z" transform="translate(-1602.486 -1563.297)" fill="#163560"/>
    </g>
    <g id="Grupo_58988" data-name="Grupo 58988" transform="translate(868.591 517.505)">
      <path id="Trazado_127854" data-name="Trazado 127854" d="M1577.418,1581.732h-15.662s-12.127,0-12.46-.022c-1.988-.154-1.635-9.653-1.436-13.188.044-.817.089-1.3.089-1.3s.2-.287.53-.707c1.48-1.767,5.567-5.921,7.908-.6a11.422,11.422,0,0,0,1.568,2.562,16.424,16.424,0,0,0,2.761,2.783,28.8,28.8,0,0,0,11.885,5.656A5.565,5.565,0,0,1,1577.418,1581.732Z" transform="translate(-1547.702 -1563.297)" fill="#204572"/>
    </g>
    <g id="Grupo_58989" data-name="Grupo 58989" transform="translate(789.423 438.807)">
      <path id="Trazado_127855" data-name="Trazado 127855" d="M1204.915,1204.164a10.713,10.713,0,0,1-3.093.994,22.058,22.058,0,0,1-3.645.354,42.78,42.78,0,0,1-5.677-.2c-.287-.044-.552-.066-.773-.111a10.252,10.252,0,0,1-1.193-.221c-14.955-47.694-5.589-49.616-10.935-53.9-4.131-3.313-15.53-4.462-15.53-4.462h-54.741c-1.679-3.181-2.43-10.846-2.717-15.066-.133-1.767-.177-2.916-.177-2.916s16.082-4.6,27.79-7.113c4.219-.928,6.223,1.1,8.343,1.036l3.348,1.07c6.936.221,44.329,5.125,50.624,11.6a13.945,13.945,0,0,1,3.89,6.708C1204.915,1160.27,1204.915,1204.164,1204.915,1204.164Z" transform="translate(-1106.435 -1121.28)" fill="#153c6b"/>
    </g>
    <g id="Grupo_58990" data-name="Grupo 58990" transform="translate(784.97 437.394)">
      <path id="Trazado_127856" data-name="Trazado 127856" d="M1178.189,1200.311a22.956,22.956,0,0,1-8.284,1.519c-3.393,0-5.9-1.685-8.01-2.256-14.955-47.694-1.459-50.734-6.805-55.02-4.131-3.313-15.53-4.462-15.53-4.462h-54.741c-1.679-3.181-2.43-10.846-2.717-15.066-.133-1.767-.177-2.916-.177-2.916s16.082-4.595,27.79-7.113a65.664,65.664,0,0,1,9.985-1.657h.6c6.937.221,46.369,8.46,52.664,14.933,1.171,1.193,3.319,3.634,2.96,7.135C1173.044,1163.469,1178.189,1200.311,1178.189,1200.311Z" transform="translate(-1081.925 -1113.34)" fill="#1c468a"/>
    </g>
    <g id="Grupo_58991" data-name="Grupo 58991" transform="translate(785.976 343.369)">
      <path id="Trazado_127857" data-name="Trazado 127857" d="M1110.09,619.3c4.528,2.048,5.44,7.186,5.44,7.186-9.874,3.978-26.223-5.425-26.223-5.425a25.278,25.278,0,0,0,7.169-15.308q.089-.759.138-1.55a30.956,30.956,0,0,0-.141-5.39l5.243,3.592,8.719,5.974a67.626,67.626,0,0,1-.123,8.044Q1110.228,617.759,1110.09,619.3Z" transform="translate(-1089.307 -598.81)" fill="#ffb27d"/>
    </g>
    <g id="Grupo_58992" data-name="Grupo 58992" transform="translate(777.409 359.503)">
      <path id="Trazado_127858" data-name="Trazado 127858" d="M1083.516,742.8c-.051,2.326.9,4.068,1.456,5.72a6.614,6.614,0,0,1,.4,1.88c.264,6.38,1.429,8.864.992,10.991,0,0-1.031-.259-5.21,1.983-1.819.972-4.01,2.047-6.553,3.121l-.4.168a101.343,101.343,0,0,1-23.56,6.4c-5.816.6-8.9-13.935-9.17-32.718-.415-29.261,2.288-43.827,12.9-55.483.669-.734.444,1.5,4.708,2.906a18.926,18.926,0,0,0,11.833-.089l3.095,2.442c6.539,7.854,8.435,17.943,9.08,26.475A251.252,251.252,0,0,1,1083.516,742.8Z" transform="translate(-1041.43 -684.719)" fill="#8c9df4"/>
    </g>
    <g id="Grupo_58993" data-name="Grupo 58993" transform="translate(793.244 347.363)">
      <path id="Trazado_127859" data-name="Trazado 127859" d="M1143.788,624.96s.358-.492.033,4.627c-8.972-1.372-12.364-5.409-13.9-8.179-.436-.782,3.049-1.685,5.148-2.423Z" transform="translate(-1129.884 -618.986)" fill="#f17781"/>
    </g>
    <g id="Grupo_58994" data-name="Grupo 58994" transform="translate(789.078 325.485)">
      <path id="Trazado_127860" data-name="Trazado 127860" d="M1128.637,525.312s-16.37,4.568-19.057-5.671-6.61-16.544,3.728-19.893,13.4.023,15.13,3.222S1132.826,523.86,1128.637,525.312Z" transform="translate(-1106.559 -498.362)" fill="#ffb27d"/>
    </g>
    <g id="Grupo_58995" data-name="Grupo 58995" transform="translate(783.086 321.456)">
      <path id="Trazado_127861" data-name="Trazado 127861" d="M1074.36,482.864c-.155-.138-.481-.225-1.18-.178a2.837,2.837,0,0,1,1.252-.524c.027-.983.331-2.754,1.941-3.372a2.1,2.1,0,0,0-.825,1.625c1.681-2.211,5.627-4.154,17.15-4.653,15.187-.656,11.41,9.582,9.6,10.968s-7.094-1.16-10.687-.427-3.641,6.06-4.783,6.93-.815-.461-2.572-1.01-1.578,2.231-.877,3.966-1.3,4.382-1.3,4.382l-2.618-2.207c-2.618-2.207-6.09-12.487-5.314-14.865C1074.223,483.291,1074.29,483.078,1074.36,482.864Z" transform="translate(-1073.18 -475.732)" fill="#2c3a64"/>
    </g>
    <g id="Grupo_58996" data-name="Grupo 58996" transform="translate(797.113 391.442)">
      <path id="Trazado_127862" data-name="Trazado 127862" d="M1177.176,907.366s-3.805,1.874-8.24,3.556c-19.2-14-17.708-47.613-17.813-48.18l24.108,21.229.8,12.258a6.608,6.608,0,0,1,.155,1.916C1175.617,904.506,1177.885,905.314,1177.176,907.366Z" transform="translate(-1151.123 -862.742)" fill="#6980e2"/>
    </g>
    <g id="Grupo_59000" data-name="Grupo 59000" transform="translate(849.834 410.524)">
      <g id="Grupo_58997" data-name="Grupo 58997" transform="translate(0 0.514)">
        <path id="Trazado_127863" data-name="Trazado 127863" d="M1443.967,976.015a18.766,18.766,0,0,0,4.156-.9c1.673-.662,7.431-2.721,8.464-2.326s4.35,2.551,5.137,2.97a10.381,10.381,0,0,1,2.1,2.4c-.632.563-2.635-.943-3.569-.975s-8.062,3.3-10.115,3.258-5.695-.344-5.695-.344Z" transform="translate(-1443.967 -972.734)" fill="#ffb27d"/>
      </g>
      <g id="Grupo_58998" data-name="Grupo 58998" transform="translate(13.432 4.284)">
        <path id="Trazado_127864" data-name="Trazado 127864" d="M1519.409,993.912c.011.113,2.339,3.057,4.3,2.292l-1.961-2.194Z" transform="translate(-1519.409 -993.912)" fill="#ffb27d"/>
      </g>
      <g id="Grupo_58999" data-name="Grupo 58999" transform="translate(4.157)">
        <path id="Trazado_127865" data-name="Trazado 127865" d="M1467.313,972.738a36.156,36.156,0,0,0,3.179-2.89s.435.232.43.612a5.019,5.019,0,0,1-.7,1.756Z" transform="translate(-1467.313 -969.848)" fill="#ffb27d"/>
      </g>
    </g>
    <g id="Grupo_59001" data-name="Grupo 59001" transform="translate(788.401 372.862)">
      <path id="Trazado_127866" data-name="Trazado 127866" d="M1120.381,761.17c-13.148-6.035-23.482,8.39-15.866,20.69,8.831,14.262,18.58,21.585,24.408,25.381,3.632,2.366,15.017,3.921,36.141-.658,0,0,1.281-2.528-1.284-6.22,0,0-21.741-3.411-26.727-8.532C1134.381,789.087,1120.483,761.217,1120.381,761.17Z" transform="translate(-1101.923 -759.752)" fill="#8c9df4"/>
    </g>
    <g id="Grupo_59007" data-name="Grupo 59007" transform="translate(842.302 486.137)">
      <g id="Grupo_59004" data-name="Grupo 59004" transform="translate(0 0.654)">
        <g id="Grupo_59002" data-name="Grupo 59002">
          <path id="Trazado_127867" data-name="Trazado 127867" d="M1402.877,1397.823a2.558,2.558,0,0,0,.493-.021,1.655,1.655,0,0,0,.944-.437,1.976,1.976,0,0,0,.6-1.194h-.021a1.323,1.323,0,0,1-1.069.479,1.305,1.305,0,0,1-1.326-1.381,1.547,1.547,0,0,1,1.541-1.6c.923,0,1.493.743,1.493,1.909a2.843,2.843,0,0,1-.777,2.11,2.255,2.255,0,0,1-1.312.6,2.844,2.844,0,0,1-.562.035Zm.222-2.589a.868.868,0,0,0,.868.958,1.009,1.009,0,0,0,.888-.472.432.432,0,0,0,.055-.229c0-.77-.284-1.36-.93-1.36C1403.467,1394.13,1403.1,1394.588,1403.1,1395.234Z" transform="translate(-1402.495 -1393.665)" fill="#1c468a"/>
        </g>
        <g id="Grupo_59003" data-name="Grupo 59003" transform="translate(3.525)">
          <path id="Trazado_127868" data-name="Trazado 127868" d="M1425.362,1395.949c0,1.534-.576,2.381-1.569,2.381-.881,0-1.485-.826-1.5-2.318,0-1.52.659-2.346,1.576-2.346C1424.813,1393.665,1425.362,1394.512,1425.362,1395.949Zm-2.45.069c0,1.173.361,1.839.916,1.839.618,0,.916-.729.916-1.881,0-1.11-.278-1.839-.916-1.839C1423.3,1394.137,1422.912,1394.789,1422.912,1396.018Z" transform="translate(-1422.294 -1393.665)" fill="#1c468a"/>
        </g>
      </g>
      <g id="Grupo_59006" data-name="Grupo 59006" transform="translate(6.835)">
        <g id="Grupo_59005" data-name="Grupo 59005">
          <path id="Trazado_127869" data-name="Trazado 127869" d="M1441.759,1391.74a.873.873,0,1,1,.873-.873A.874.874,0,0,1,1441.759,1391.74Zm0-1.223a.35.35,0,1,0,.351.35A.351.351,0,0,0,1441.759,1390.517Z" transform="translate(-1440.886 -1389.994)" fill="#1c468a"/>
        </g>
      </g>
    </g>
    <g id="Grupo_59013" data-name="Grupo 59013" transform="translate(836.351 390.799)">
      <g id="Grupo_59010" data-name="Grupo 59010" transform="translate(0 0.654)">
        <g id="Grupo_59008" data-name="Grupo 59008">
          <path id="Trazado_127870" data-name="Trazado 127870" d="M1369.817,868.172a2.545,2.545,0,0,0,.493-.021,1.658,1.658,0,0,0,.944-.437,1.978,1.978,0,0,0,.6-1.194h-.021a1.323,1.323,0,0,1-1.069.479,1.3,1.3,0,0,1-1.326-1.381,1.547,1.547,0,0,1,1.541-1.6c.923,0,1.492.742,1.492,1.909a2.843,2.843,0,0,1-.777,2.11,2.259,2.259,0,0,1-1.312.6,2.858,2.858,0,0,1-.562.035Zm.222-2.589a.868.868,0,0,0,.868.958,1.01,1.01,0,0,0,.888-.472.432.432,0,0,0,.055-.229c0-.77-.285-1.36-.93-1.36C1370.407,864.48,1370.039,864.938,1370.039,865.584Z" transform="translate(-1369.435 -864.015)" fill="#1c468a"/>
        </g>
        <g id="Grupo_59009" data-name="Grupo 59009" transform="translate(3.525)">
          <path id="Trazado_127871" data-name="Trazado 127871" d="M1392.3,866.3c0,1.534-.576,2.38-1.569,2.38-.881,0-1.485-.826-1.5-2.318,0-1.52.659-2.346,1.576-2.346C1391.753,864.015,1392.3,864.862,1392.3,866.3Zm-2.45.069c0,1.173.361,1.839.916,1.839.618,0,.916-.728.916-1.881,0-1.11-.278-1.839-.916-1.839C1390.24,864.487,1389.852,865.14,1389.852,866.368Z" transform="translate(-1389.234 -864.015)" fill="#1c468a"/>
        </g>
      </g>
      <g id="Grupo_59012" data-name="Grupo 59012" transform="translate(6.835 0)">
        <g id="Grupo_59011" data-name="Grupo 59011">
          <path id="Trazado_127872" data-name="Trazado 127872" d="M1408.7,862.089a.873.873,0,1,1,.873-.873A.874.874,0,0,1,1408.7,862.089Zm0-1.223a.35.35,0,1,0,.35.35A.351.351,0,0,0,1408.7,860.866Z" transform="translate(-1407.824 -860.344)" fill="#1c468a"/>
        </g>
      </g>
    </g>
    <g id="Grupo_59023" data-name="Grupo 59023" transform="translate(761.188 365.244)">
      <g id="Grupo_59019" data-name="Grupo 59019" transform="translate(17.369 105.504)">
        <g id="Grupo_59014" data-name="Grupo 59014" transform="translate(24.581)">
          <path id="Trazado_127873" data-name="Trazado 127873" d="M1192.508,1362.7h-4.874l-1.367-62.017h7.445Z" transform="translate(-1186.267 -1300.679)" fill="#2b478b"/>
        </g>
        <g id="Grupo_59015" data-name="Grupo 59015" transform="translate(4.605 55.557)">
          <path id="Trazado_127874" data-name="Trazado 127874" d="M1121.463,1619.184h-47.4V1614.9l24.158-2.179,23.24,2.179Z" transform="translate(-1074.064 -1612.725)" fill="#2b478b"/>
        </g>
        <g id="Grupo_59016" data-name="Grupo 59016" transform="translate(0 57.446)">
          <path id="Trazado_127875" data-name="Trazado 127875" d="M1048.2,1627.233a3.9,3.9,0,1,1,3.9,3.9A3.9,3.9,0,0,1,1048.2,1627.233Z" transform="translate(-1048.201 -1623.334)" fill="#2b478b"/>
        </g>
        <g id="Grupo_59017" data-name="Grupo 59017" transform="translate(47.398 57.446)">
          <path id="Trazado_127876" data-name="Trazado 127876" d="M1314.422,1627.233a3.9,3.9,0,1,1,3.9,3.9A3.9,3.9,0,0,1,1314.422,1627.233Z" transform="translate(-1314.422 -1623.334)" fill="#2b478b"/>
        </g>
        <g id="Grupo_59018" data-name="Grupo 59018" transform="translate(2.235 0)">
          <path id="Trazado_127877" data-name="Trazado 127877" d="M1108.823,1304.748h-44a4.069,4.069,0,0,1-4.069-4.069h52.138A4.069,4.069,0,0,1,1108.823,1304.748Z" transform="translate(-1060.754 -1300.679)" fill="#2b478b"/>
        </g>
      </g>
      <g id="Grupo_59020" data-name="Grupo 59020" transform="translate(12.117 80.919)">
        <rect id="Rectángulo_7246" data-name="Rectángulo 7246" width="2.698" height="17.336" fill="#2b478b"/>
      </g>
      <g id="Grupo_59021" data-name="Grupo 59021" transform="translate(0 0)">
        <path id="Trazado_127878" data-name="Trazado 127878" d="M963.578,791.4q-.2,0-.4-.018a4.384,4.384,0,0,1-3.974-4.758c1.579-17.6-.771-36.436-3.02-49.143a242.81,242.81,0,0,0-5.36-23.756,4.384,4.384,0,0,1,8.407-2.49,246.368,246.368,0,0,1,5.565,24.6c2.354,13.264,4.81,32.979,3.141,51.578A4.385,4.385,0,0,1,963.578,791.4Z" transform="translate(-950.645 -708.099)" fill="#f17781"/>
      </g>
      <g id="Grupo_59022" data-name="Grupo 59022" transform="translate(7.645 96.794)">
        <path id="Trazado_127879" data-name="Trazado 127879" d="M1074.962,1266.888a4.367,4.367,0,0,1-2.107-.542l-7.54-4.142a13.612,13.612,0,0,0-6.535-1.677H997.966a4.384,4.384,0,1,1,0-8.768h60.815a22.4,22.4,0,0,1,10.757,2.76l7.54,4.142a4.385,4.385,0,0,1-2.115,8.227Z" transform="translate(-993.582 -1251.759)" fill="#f17781"/>
      </g>
    </g>
    <g id="Grupo_59030" data-name="Grupo 59030" transform="translate(786.061 377.817)">
      <g id="Grupo_59024" data-name="Grupo 59024" transform="translate(0 0)">
        <path id="Trazado_127880" data-name="Trazado 127880" d="M1090.182,788.094a1.045,1.045,0,1,1,1.045,1.045A1.045,1.045,0,0,1,1090.182,788.094Z" transform="translate(-1090.182 -787.049)" fill="#f17781"/>
      </g>
      <g id="Grupo_59025" data-name="Grupo 59025" transform="translate(0 21.211)">
        <path id="Trazado_127881" data-name="Trazado 127881" d="M1090.182,907.229a1.045,1.045,0,1,1,1.045,1.045A1.045,1.045,0,0,1,1090.182,907.229Z" transform="translate(-1090.182 -906.184)" fill="#f17781"/>
      </g>
      <g id="Grupo_59026" data-name="Grupo 59026" transform="translate(0 53.028)">
        <path id="Trazado_127882" data-name="Trazado 127882" d="M1090.182,1085.934a1.045,1.045,0,1,1,1.045,1.045A1.045,1.045,0,0,1,1090.182,1085.934Z" transform="translate(-1090.182 -1084.889)" fill="#f17781"/>
      </g>
      <g id="Grupo_59027" data-name="Grupo 59027" transform="translate(0 10.605)">
        <path id="Trazado_127883" data-name="Trazado 127883" d="M1090.182,847.66a1.045,1.045,0,1,1,1.045,1.045A1.045,1.045,0,0,1,1090.182,847.66Z" transform="translate(-1090.182 -846.615)" fill="#f17781"/>
      </g>
      <g id="Grupo_59028" data-name="Grupo 59028" transform="translate(0 42.422)">
        <path id="Trazado_127884" data-name="Trazado 127884" d="M1090.182,1026.365a1.045,1.045,0,1,1,1.045,1.045A1.045,1.045,0,0,1,1090.182,1026.365Z" transform="translate(-1090.182 -1025.32)" fill="#f17781"/>
      </g>
      <g id="Grupo_59029" data-name="Grupo 59029" transform="translate(0 31.817)">
        <path id="Trazado_127885" data-name="Trazado 127885" d="M1090.182,966.8a1.045,1.045,0,1,1,1.045,1.045A1.045,1.045,0,0,1,1090.182,966.8Z" transform="translate(-1090.182 -965.752)" fill="#f17781"/>
      </g>
    </g>
  </g>
</svg>
