<svg xmlns="http://www.w3.org/2000/svg" width="66.003" height="94.342" viewBox="0 0 66.003 94.342">
  <g id="Grupo_57625" data-name="Grupo 57625" transform="translate(-1330.841 -1729.247)">
    <path id="Trazado_127165" data-name="Trazado 127165" d="M1347.439,1735.986h32.807V1749.3h-32.807Z" fill="#f9e478"/>
    <path id="Trazado_127166" data-name="Trazado 127166" d="M1395.462,1740.126h-15.216v9.173h-32.807v-9.173h-15.216v82.081h63.239Z" fill="#c595ff"/>
    <path id="Trazado_127168" data-name="Trazado 127168" d="M1389.22,1745.223h-8.974v4.076h-32.807v-4.076h-8.973v71.057h39.114l11.64-11.64Z" fill="#fff"/>
    <path id="Trazado_127170" data-name="Trazado 127170" d="M1377.58,1816.28l11.64-11.64h-11.64Z" fill="#c595ff"/>
    <path id="Trazado_127171" data-name="Trazado 127171" d="M1363.842,1765.532v-7.985a20.123,20.123,0,0,0-20.1,19.263h8A12.139,12.139,0,0,1,1363.842,1765.532Z" fill="#f9e478"/>
    <path id="Trazado_127172" data-name="Trazado 127172" d="M1363.842,1757.547v7.985a12.14,12.14,0,0,1,9.006,20.282l5.649,5.65a20.123,20.123,0,0,0-14.655-33.917Z" fill="#95f7ff"/>
    <path id="Trazado_127173" data-name="Trazado 127173" d="M1363.842,1789.812a12.14,12.14,0,0,1-12.14-12.141h0c0-.29.013-.577.034-.862h-8c-.012.286-.019.573-.019.862a20.124,20.124,0,0,0,34.78,13.792l-5.65-5.65A12.11,12.11,0,0,1,1363.842,1789.812Z" fill="#f17781"/>
    <path id="Trazado_127182" data-name="Trazado 127182" d="M1369.37,1789.812a12.07,12.07,0,0,0,5.93-1.544l-2.452-2.454a12.132,12.132,0,0,1-6.242,3.682A12.136,12.136,0,0,0,1369.37,1789.812Z" fill="#ff3f62"/>
    <path id="Trazado_127184" data-name="Trazado 127184" d="M1359.113,1774.594h-2.862v2.764h1.06v5.143l1.66,1.659h9.741l1.66-1.659v-5.143h1.062v-2.764h-2.863l-2.253-5.1-2.476,1.1-2.476-1.095Zm5.042,2.764v4.039h-.626v-4.039Zm-4.08,4v-4h.69v4.039h-.649Zm7.534,0-.041.041h-.648v-4.039h.689Zm-5.473-6.761,1.707-3.861,1.707,3.861Z" fill="#855db5"/>
    <path id="Trazado_127185" data-name="Trazado 127185" d="M1381.628,1734.6H1367.9v-1.3a4.06,4.06,0,0,0-8.121,0v1.3h-13.725v16.077h35.571Zm-19.082-1.3a1.3,1.3,0,0,1,2.593,0v1.3h-2.593Zm16.318,14.61h-30.043v-2.027h7.986v-2.764h-7.986v-5.758h30.043Z" fill="#855db5"/>
    <path id="Trazado_127186" data-name="Trazado 127186" d="M1383.931,1738.744v2.764h10.149v79.317H1333.6v-79.317h10.149v-2.764h-12.913v84.845h66v-84.845Z" fill="#855db5"/>
    <path id="Trazado_127187" data-name="Trazado 127187" d="M1387.838,1804.067l-8.877,8.877v-6.923h6.021v-2.763H1376.2v11.64h-36.351v-2.764h9.08v-2.764h-9.08V1746.6h3.906v-2.764h-6.67v73.821h41.069l12.45-12.449v-61.372h-6.671v2.764h3.907Z" fill="#855db5"/>
    <path id="Trazado_127188" data-name="Trazado 127188" d="M1360.409,1759.242l-.5-2.718a21.515,21.515,0,0,0-17.55,20.227l-.061,1.441h10.729l.091-1.286a10.829,10.829,0,0,1,7.462-9.489l-.838-2.634a13.632,13.632,0,0,0-9.227,10.644h-5.277A18.882,18.882,0,0,1,1360.409,1759.242Z" fill="#855db5"/>
    <path id="Trazado_127189" data-name="Trazado 127189" d="M1345.282,1780.3l-2.737.384a21.508,21.508,0,0,0,36.958,11.725l.919-.977-7.624-7.626-.976,1.078a10.761,10.761,0,0,1-18.446-4.712l-2.69.64a13.523,13.523,0,0,0,22.155,6.948l3.7,3.7a18.547,18.547,0,0,1-12.7,4.955A18.814,18.814,0,0,1,1345.282,1780.3Z" fill="#855db5"/>
    <path id="Trazado_127190" data-name="Trazado 127190" d="M1385.349,1777.671a21.53,21.53,0,0,0-21.507-21.506h-1.381v10.748h1.381a10.765,10.765,0,0,1,9.81,15.184l2.518,1.139a13.531,13.531,0,0,0-10.946-19.016v-5.241a18.747,18.747,0,0,1,14.4,28.813l2.325,1.494A21.423,21.423,0,0,0,1385.349,1777.671Z" fill="#855db5"/>
  </g>
</svg>
