<svg xmlns="http://www.w3.org/2000/svg" xmlns:xlink="http://www.w3.org/1999/xlink" width="109.292" height="76.505" viewBox="0 0 109.292 76.505">
  <defs>
    <clipPath id="clip-path">
      <rect id="SVGID" width="109.292" height="76.504" transform="translate(1309.196 1267.306)" fill="none"/>
    </clipPath>
  </defs>
  <g id="Grupo_57615" data-name="Grupo 57615" transform="translate(-1309.196 -1267.306)">
    <path id="Trazado_126985" data-name="Trazado 126985" d="M1376.593,1336.524a3.642,3.642,0,0,1-3.643-3.643v-54.646a3.643,3.643,0,0,1,7.286,0v54.646a3.642,3.642,0,0,1-3.643,3.643Zm0,0" fill="#c595ff"/>
    <path id="Trazado_126986" data-name="Trazado 126986" d="M1358.378,1290.986h-21.859v29.145h21.859l14.572,9.107v-47.36Zm0,0" fill="#dadcde"/>
    <rect id="Rectángulo_7182" data-name="Rectángulo 7182" width="14.572" height="29.145" transform="translate(1321.947 1290.986)" fill="#f9e478"/>
    <path id="Trazado_126987" data-name="Trazado 126987" d="M1318.3,1316.488h3.643v-21.859H1318.3a7.287,7.287,0,0,0-7.286,7.286v7.286a7.287,7.287,0,0,0,7.286,7.287Zm0,0" fill="#dadcde"/>
    <rect id="Rectángulo_7183" data-name="Rectángulo 7183" width="7.286" height="7.286" transform="translate(1329.233 1283.7)" fill="#f9e478"/>
    <path id="Trazado_126988" data-name="Trazado 126988" d="M1340.163,1335.389l-3.644-14.572H1325.59l5.465,21.858h16.394v-7.286Zm0,0" fill="#f9e478"/>
    <path id="Trazado_126989" data-name="Trazado 126989" d="M1400.273,1294.629l7.286-5.464v9.107h9.108l-5.465,7.286,5.465,7.287h-9.108v9.107l-7.286-5.464-7.286,5.464v-9.107h-9.108l5.465-7.287-5.465-7.286h9.108v-9.107Zm0,0" fill="#f17781"/>
    <rect id="Rectángulo_7184" data-name="Rectángulo 7184" width="14.572" height="7.286" transform="translate(1321.947 1301.915)" fill="#f9e478"/>
    <path id="Trazado_126990" data-name="Trazado 126990" d="M1318.3,1318.309h1.822v1.822a1.822,1.822,0,0,0,1.821,1.821h2.221l5.12,20.478a1.823,1.823,0,0,0,1.767,1.381h16.394a1.822,1.822,0,0,0,1.821-1.822V1334.7a1.822,1.822,0,0,0-1.821-1.822h-5.864l-2.733-10.929h19l13.273,8.295v2.634a5.464,5.464,0,1,0,10.929,0v-54.646a5.464,5.464,0,0,0-10.929,0v2.634l-13.273,8.3h-19.515V1283.7a1.822,1.822,0,0,0-1.822-1.822h-7.286a1.822,1.822,0,0,0-1.821,1.822v5.465h-5.465a1.822,1.822,0,0,0-1.821,1.821v1.822H1318.3a9.118,9.118,0,0,0-9.108,9.107v7.286a9.118,9.118,0,0,0,9.108,9.108Zm16.394-10.929h-10.929v-3.643H1334.7Zm-10.929,3.643H1334.7v7.286h-10.929Zm21.858,25.5v3.644h-13.15l-4.554-18.216h7.174l3.3,13.192a1.82,1.82,0,0,0,1.767,1.38Zm29.145-58.289a1.822,1.822,0,0,1,3.643,0v54.646a1.822,1.822,0,1,1-3.643,0Zm-16.394,14.573a1.819,1.819,0,0,0,.965-.277l11.786-7.367v40.788l-11.786-7.367a1.828,1.828,0,0,0-.965-.276h-20.037v-25.5Zm-27.323-7.287h3.643v3.644h-3.643Zm3.643,7.287v7.286h-10.929v-7.286Zm-21.859,9.107a5.47,5.47,0,0,1,5.465-5.464h1.822v18.215H1318.3a5.471,5.471,0,0,1-5.465-5.465Zm0,0" fill="#855db5"/>
    <g id="Grupo_57614" data-name="Grupo 57614">
      <g id="Grupo_57613" data-name="Grupo 57613" clip-path="url(#clip-path)">
        <path id="Trazado_126991" data-name="Trazado 126991" d="M1387.522,1281.878a1.81,1.81,0,0,0,1.288-.533l10.929-10.93a1.821,1.821,0,1,0-2.575-2.575l-10.929,10.929a1.821,1.821,0,0,0,1.287,3.109Zm0,0" fill="#855db5"/>
        <path id="Trazado_126992" data-name="Trazado 126992" d="M1398.452,1343.811a1.822,1.822,0,0,0,1.287-3.11l-10.929-10.929a1.821,1.821,0,0,0-2.575,2.576l10.929,10.929a1.811,1.811,0,0,0,1.288.534Zm0,0" fill="#855db5"/>
        <path id="Trazado_126993" data-name="Trazado 126993" d="M1382.25,1313.659a1.821,1.821,0,0,0,1.629,1.007h7.286v7.286a1.822,1.822,0,0,0,2.916,1.458l6.192-4.646,6.193,4.646a1.822,1.822,0,0,0,2.915-1.458v-7.286h7.286a1.823,1.823,0,0,0,1.458-2.915l-4.646-6.193,4.646-6.192a1.822,1.822,0,0,0-1.458-2.915h-7.286v-7.286a1.822,1.822,0,0,0-2.915-1.458l-6.193,4.645-6.192-4.645a1.822,1.822,0,0,0-2.916,1.458v7.286h-7.286a1.821,1.821,0,0,0-1.457,2.915l4.645,6.192-4.645,6.193a1.824,1.824,0,0,0-.172,1.908Zm8.551-9.194-3.279-4.371h5.465a1.822,1.822,0,0,0,1.822-1.822v-5.464l4.371,3.279a1.825,1.825,0,0,0,2.187,0l4.371-3.279v5.464a1.822,1.822,0,0,0,1.821,1.822h5.465l-3.279,4.371a1.826,1.826,0,0,0,0,2.187l3.279,4.371h-5.465a1.822,1.822,0,0,0-1.821,1.822v5.464l-4.371-3.279a1.825,1.825,0,0,0-2.187,0l-4.371,3.279v-5.464a1.822,1.822,0,0,0-1.822-1.822h-5.465l3.279-4.371a1.826,1.826,0,0,0,0-2.187Zm0,0" fill="#855db5"/>
      </g>
    </g>
    <path id="Trazado_126994" data-name="Trazado 126994" d="M1396.63,1311.023a1.812,1.812,0,0,0,1.288-.534l7.286-7.286a1.821,1.821,0,0,0-2.576-2.576l-7.286,7.287a1.821,1.821,0,0,0,1.288,3.109Zm0,0" fill="#855db5"/>
    <path id="Trazado_126995" data-name="Trazado 126995" d="M1398.452,1301.915a1.822,1.822,0,1,1-1.822-1.821,1.822,1.822,0,0,1,1.822,1.821Zm0,0" fill="#855db5"/>
    <path id="Trazado_126996" data-name="Trazado 126996" d="M1405.738,1309.2a1.822,1.822,0,1,1-1.822-1.821,1.822,1.822,0,0,1,1.822,1.821Zm0,0" fill="#855db5"/>
  </g>
</svg>
