<svg xmlns="http://www.w3.org/2000/svg" width="94.341" height="77.314" viewBox="0 0 94.341 77.314">
  <g id="Grupo_57621" data-name="Grupo 57621" transform="translate(-1316.672 -2086.549)">
    <path id="Trazado_127099" data-name="Trazado 127099" d="M1405.062,2114.293h-6.124l-4.57-4.569-4.57,4.569h-6.124l-4.568-4.569-4.57,4.569h-6.124l-4.57-4.569-4.569,4.569h-6.124l-4.569-4.569-4.569,4.569h-6.125l-4.568-4.569-4.57,4.569h-6.125c-1-1-1.757-1.757-2.543-2.543v44.2h87.613v-44.29Z" fill="#fff5cc"/>
    <path id="Trazado_127102" data-name="Trazado 127102" d="M1367.074,2149.132h-37.095v-34.813h37.095Z" fill="#95f7ff"/>
    <path id="Trazado_127106" data-name="Trazado 127106" d="M1339.354,2125.041l2.789,10.424h15.831l2.791-10.424Z" fill="#fff"/>
    <path id="Trazado_127107" data-name="Trazado 127107" d="M1348.742,2141.5a2.5,2.5,0,1,1-2.5-2.5h0a2.5,2.5,0,0,1,2.5,2.5Z" fill="#fff"/>
    <path id="Trazado_127108" data-name="Trazado 127108" d="M1358.875,2141.5a2.5,2.5,0,1,1-2.505-2.5h0a2.5,2.5,0,0,1,2.505,2.5Z" fill="#fff"/>
    <path id="Trazado_127109" data-name="Trazado 127109" d="M1318.054,2097.331h15.262v12.393l-4.568,4.569h-6.125l-4.569-4.569Z" fill="#f9e478"/>
    <path id="Trazado_127110" data-name="Trazado 127110" d="M1333.316,2097.331h15.263v12.393l-4.568,4.569h-6.126l-4.569-4.569Z" fill="#f17781"/>
    <path id="Trazado_127111" data-name="Trazado 127111" d="M1348.58,2097.331h15.262v12.393l-4.569,4.569h-6.125l-4.568-4.569Z" fill="#f9e478"/>
    <path id="Trazado_127112" data-name="Trazado 127112" d="M1363.842,2097.331H1379.1v12.393l-4.568,4.569h-6.125c-1.784-1.785-2.785-2.785-4.57-4.569Z" fill="#f17781"/>
    <path id="Trazado_127113" data-name="Trazado 127113" d="M1379.1,2097.331h15.263v12.393l-4.568,4.569h-6.126c-1.784-1.785-2.784-2.785-4.569-4.569Z" fill="#f9e478"/>
    <path id="Trazado_127114" data-name="Trazado 127114" d="M1394.369,2097.331h15.262v12.393l-4.569,4.569h-6.125l-4.568-4.569Z" fill="#f17781"/>
    <path id="Trazado_127115" data-name="Trazado 127115" d="M1398.219,2155.952H1375.74v-41.633h22.479Z" fill="#95f7ff"/>
    <path id="Trazado_127117" data-name="Trazado 127117" d="M1381.837,2124.306h10.285v5.6h-10.285Z" fill="#fff"/>
    <path id="Trazado_127118" data-name="Trazado 127118" d="M1405.021,2087.931h-82.357l-4.61,4.956v4.444h91.577v-4.444Z" fill="#c595ff"/>
    <path id="Trazado_127119" data-name="Trazado 127119" d="M1318.054,2155.952h91.577v6.529h-91.577Z" fill="#c595ff"/>
    <g id="Grupo_57620" data-name="Grupo 57620">
      <path id="Trazado_127123" data-name="Trazado 127123" d="M1407.693,2111.662l-2.631,2.631h2.631Z" fill="#ffc477"/>
    </g>
    <path id="Trazado_127128" data-name="Trazado 127128" d="M1339.354,2125.041l2.789,10.424h5.528l-2.789-10.424Z" fill="#e0e0e2"/>
    <path id="Trazado_127139" data-name="Trazado 127139" d="M1359.036,2136.847l2.789-10.424h.992v-2.764h-22.4l-.726-2.716h-6.643v2.764h4.52l4.455,16.672h.5a3.887,3.887,0,1,0,7.443,0h2.691a3.886,3.886,0,1,0,3.722-2.764h-12.23l-.2-.768Zm-10.51-2.764v-2.447h3.067v2.447Zm5.831,0v-2.447h3.213l-.656,2.447Zm4.606-7.659-.655,2.448h-3.951v-2.449Zm-7.37,0v2.448h-3.067v-2.449Zm-5.83,0v2.448h-3.953l-.655-2.449Zm1.6,15.077a1.122,1.122,0,1,1-1.123-1.122h0a1.124,1.124,0,0,1,1.122,1.122Zm10.133,0a1.122,1.122,0,1,1-1.123-1.122h0a1.125,1.125,0,0,1,1.123,1.122Zm-14.288-7.418-.655-2.447h3.213v2.447Z" fill="#855db5"/>
    <path id="Trazado_127140" data-name="Trazado 127140" d="M1391.2,2122.924l-3.1-5.189h-2.3l-3.161,5.189h-2.19v8.364H1393.5v-8.364Zm-4.263-1.743,1.043,1.742h-2.1Zm3.8,7.342h-7.521v-2.836h7.521Z" fill="#855db5"/>
    <path id="Trazado_127141" data-name="Trazado 127141" d="M1405.622,2086.549h-83.559l-5.391,5.794V2110.3l5.378,5.378h7.27l4-4,4,4h7.27l4-4,4,4h7.271l4-4,4,4h7.27l4-4,4,4h7.271l4-4,4,4h7.271l5.378-5.378v-17.953Zm-77.446,26.362h-4.982l-3.759-3.76v-10.438h12.5v10.438Zm15.262,0h-4.98l-3.759-3.759v-10.439h12.5v10.438Zm15.263,0h-4.98l-3.759-3.759v-10.439h12.5v10.438Zm15.264,0h-4.982l-3.759-3.759v-10.439h12.5v10.438Zm15.262,0h-4.981l-3.758-3.759v-10.439h12.5v10.438Zm19.022-3.76-3.758,3.759h-4.981l-3.759-3.759v-10.438h12.5Zm-88.814-13.2v-2.519l3.831-4.117h81.153l3.83,4.117v2.519Z" fill="#855db5"/>
    <path id="Trazado_127142" data-name="Trazado 127142" d="M1406.311,2116.874h2.764v35.393h-2.764Z" fill="#855db5"/>
    <path id="Trazado_127143" data-name="Trazado 127143" d="M1318.7,2116.962h2.764v35.305H1318.7Z" fill="#855db5"/>
    <path id="Trazado_127144" data-name="Trazado 127144" d="M1330.761,2117.978H1328l.009,32.536h39.859l-.01-32.948h-2.764l.009,30.184h-34.331Z" fill="#855db5"/>
    <path id="Trazado_127145" data-name="Trazado 127145" d="M1399.6,2117.978h-2.764v36.591h-19.715v-36.591h-2.764v36.591h-57.686v9.294h94.341v-9.294H1399.6Zm8.648,39.356v3.765h-88.814v-3.765Z" fill="#855db5"/>
  </g>
</svg>
