<svg id="Grupo_60280" data-name="Grupo 60280" xmlns="http://www.w3.org/2000/svg" xmlns:xlink="http://www.w3.org/1999/xlink" width="120.988" height="120.988" viewBox="0 0 120.988 120.988">
  <defs>
    <clipPath id="clip-path">
      <rect id="SVGID" width="120.988" height="120.988" fill="none"/>
    </clipPath>
  </defs>
  <path id="Trazado_128531" data-name="Trazado 128531" d="M861.148,924.592V847.343a1.667,1.667,0,0,0-1.666-1.668H839.737a2.281,2.281,0,0,0-2.28,2.279v76.638Zm0,0" transform="translate(-769.865 -805.543)" fill="#fbe88c"/>
  <path id="Trazado_128532" data-name="Trazado 128532" d="M843.853,869.979V855.916a4.42,4.42,0,0,1,4.419-4.42h12.875v-4.151a1.666,1.666,0,0,0-1.666-1.666H839.737a2.28,2.28,0,0,0-2.28,2.278v76.638h6.4Zm0,0" transform="translate(-769.865 -805.545)" fill="#fbe372"/>
  <path id="Trazado_128533" data-name="Trazado 128533" d="M936.34,901.818H912.649V814.093a1.668,1.668,0,0,1,1.668-1.668h20.355a1.667,1.667,0,0,1,1.668,1.668Zm0,0" transform="translate(-821.366 -782.769)" fill="#e79098"/>
  <path id="Trazado_128534" data-name="Trazado 128534" d="M919.547,820.822a3.16,3.16,0,0,1,3.16-3.159H936.34v-3.57a1.667,1.667,0,0,0-1.666-1.668H914.317a1.668,1.668,0,0,0-1.668,1.668v87.724h6.9Zm0,0" transform="translate(-821.366 -782.769)" fill="#e17983"/>
  <path id="Trazado_128535" data-name="Trazado 128535" d="M793.414,964.77V906a1.668,1.668,0,0,0-1.668-1.668H771.391A1.668,1.668,0,0,0,769.723,906V964.77Zm0,0" transform="translate(-723.473 -845.72)" fill="#e79098"/>
  <path id="Trazado_128536" data-name="Trazado 128536" d="M776.25,912.111a2.609,2.609,0,0,1,2.608-2.609h14.556V906a1.668,1.668,0,0,0-1.668-1.668H771.391A1.668,1.668,0,0,0,769.723,906v58.766h6.527Zm0,0" transform="translate(-723.473 -845.72)" fill="#e17983"/>
  <path id="Trazado_128537" data-name="Trazado 128537" d="M786.611,748.851A24.481,24.481,0,1,1,762.13,724.37a24.482,24.482,0,0,1,24.481,24.481Zm0,0" transform="translate(-701.504 -722.458)" fill="#b3e5ee"/>
  <path id="Trazado_128538" data-name="Trazado 128538" d="M772.236,770.416a24.483,24.483,0,0,1-12.026-45.807,24.481,24.481,0,1,0,13.944,45.735q-.951.074-1.919.072Zm0,0" transform="translate(-701.504 -722.621)" fill="#86d7e5"/>
  <path id="Trazado_128539" data-name="Trazado 128539" d="M683.6,845.189a3.6,3.6,0,1,1,0,7.2H670.565a1.579,1.579,0,0,0-1.182.532l-3.718,4.188a.957.957,0,0,0,.715,1.593h4.146a3.184,3.184,0,0,1,3,4.26l-4.414,12.275a.882.882,0,0,1-.831.584h-4.365a.883.883,0,0,1-.843-1.146l2.353-7.531a1.322,1.322,0,0,0-1.262-1.716H660.59a1.32,1.32,0,0,0-1.184.735l-10.858,21.951a.882.882,0,0,1-.791.492h-5.013a.883.883,0,0,1-.811-1.231l9.619-22.445v-5.625a12.5,12.5,0,0,1,3.441-8.614l6.438-6.773a5.367,5.367,0,0,1,3.888-1.668h5.889l2.435,3Zm0,0" transform="translate(-635.896 -803.199)" fill="#ede2dd"/>
  <path id="Trazado_128540" data-name="Trazado 128540" d="M728.827,995.188v-44.72a1.667,1.667,0,0,0-1.667-1.668H706.8a1.667,1.667,0,0,0-1.666,1.668v44.72Zm0,0" transform="translate(-679.236 -876.176)" fill="#fbe88c"/>
  <path id="Trazado_128541" data-name="Trazado 128541" d="M712.621,955.514a1.666,1.666,0,0,1,1.666-1.668h14.539v-3.378a1.667,1.667,0,0,0-1.667-1.668H706.8a1.667,1.667,0,0,0-1.666,1.668v44.72h7.484Zm0,0" transform="translate(-679.236 -876.176)" fill="#fbe372"/>
  <path id="Trazado_128542" data-name="Trazado 128542" d="M670.6,1027.612H646.91V995.676a1.668,1.668,0,0,1,1.668-1.668h20.356a1.667,1.667,0,0,1,1.668,1.668Zm0,0" transform="translate(-639.355 -907.14)" fill="#e79098"/>
  <path id="Trazado_128543" data-name="Trazado 128543" d="M652.562,996.244a1.666,1.666,0,0,1,1.668-1.666H670.6v-3.532a1.667,1.667,0,0,0-1.668-1.668H648.578a1.668,1.668,0,0,0-1.668,1.668v31.937h5.652Zm0,0" transform="translate(-639.355 -903.969)" fill="#e17983"/>
  <g id="Grupo_60279" data-name="Grupo 60279" transform="translate(0)">
    <g id="Grupo_60278" data-name="Grupo 60278" clip-path="url(#clip-path)">
      <path id="Trazado_128544" data-name="Trazado 128544" d="M732.266,832.587a4.447,4.447,0,1,1-4.448-4.447,4.447,4.447,0,0,1,4.448,4.447Zm0,0" transform="translate(-691.725 -793.532)" fill="#ede2dd"/>
      <path id="Trazado_128545" data-name="Trazado 128545" d="M742.147,835.754h-2.415V767.66a1.77,1.77,0,1,0-3.541,0v68.094H716.043V749.9h20.149v10.213a1.77,1.77,0,1,0,3.541,0V749.8a3.443,3.443,0,0,0-3.437-3.439H715.939A3.443,3.443,0,0,0,712.5,749.8v7.037h-5.44q.286-.555.549-1.127a26.392,26.392,0,0,0-46.152-25.327,26.618,26.618,0,0,0-4.205,15.713,1.771,1.771,0,0,0,1.768,1.677l.1,0a1.769,1.769,0,0,0,1.732-1.77,1.752,1.752,0,0,0-.082-.536,23.076,23.076,0,0,1,3.661-13.161,22.848,22.848,0,1,1,15.935,35.042,1.77,1.77,0,1,0-.507,3.5,25.962,25.962,0,0,0,3.733.268,26.483,26.483,0,0,0,5.219-.527v4.729h-17.9a3.441,3.441,0,0,0-3.438,3.437v10.572H658.51l3.771-10.49a4.954,4.954,0,0,0-4.662-6.63h-2.335l2.459-2.77h12.946a5.372,5.372,0,1,0,0-10.745h-5.5a6.217,6.217,0,0,0-12.066-2.935h-.713a7.162,7.162,0,0,0-5.17,2.219l-6.438,6.772a14.217,14.217,0,0,0-3.929,9.835v5.26L627.4,801.955a2.645,2.645,0,0,0,1.382,3.476c0,.041-.006.08-.006.121v30.2H624.7a1.77,1.77,0,1,0,0,3.541H742.147a1.77,1.77,0,1,0,0-3.541ZM691.159,778.86v10.2a1.77,1.77,0,0,0,3.541,0v-10.3a3.442,3.442,0,0,0-2.348-3.258v-5.88c.153-.054.308-.1.46-.16a26.208,26.208,0,0,0,12.056-9.08H712.5v75.376H694.7V796.6a1.77,1.77,0,0,0-3.541,0v39.154H674.351V792.767a3.441,3.441,0,0,0-3.341-3.434V778.86Zm-32.077-24.007a2.676,2.676,0,1,1-2.677,2.677,2.68,2.68,0,0,1,2.677-2.677Zm-18.811,26.052a1.758,1.758,0,0,0,.143-.7v-5.624a10.686,10.686,0,0,1,2.954-7.394l6.438-6.773a3.61,3.61,0,0,1,2.6-1.118h.713a6.209,6.209,0,0,0,10.016,2.935h7.551a1.832,1.832,0,0,1,0,3.664H657.657a3.345,3.345,0,0,0-2.5,1.126l-3.719,4.188a2.727,2.727,0,0,0,2.04,4.538h4.145a1.412,1.412,0,0,1,1.329,1.89l-4.2,11.688h-2.534l1.993-6.379a3.093,3.093,0,0,0-2.952-4.015h-3.572a3.074,3.074,0,0,0-2.771,1.722L634.3,802.114h-3.115Zm-2.023,21.208,9.713-19.637h2.682l-2.17,6.948a2.7,2.7,0,0,0-.116.7,3.433,3.433,0,0,0-1.239,2.64v9.347Zm-5.933,3.541h20.15v9.69a1.771,1.771,0,1,0,3.541,0v-9.793a3.442,3.442,0,0,0-3.438-3.437H650.66v-9.243h20.149v42.883h-14.8V822.89a1.771,1.771,0,1,0-3.541,0v12.864h-20.15Zm0,0" transform="translate(-622.93 -718.312)"/>
    </g>
  </g>
</svg>
