<svg id="Grupo_59839" data-name="Grupo 59839" xmlns="http://www.w3.org/2000/svg" width="185.578" height="166" viewBox="0 0 185.578 166">
  <path id="Trazado_108241" data-name="Trazado 108241" d="M956.159,2971.186h17.4a10.873,10.873,0,0,0,10.874-10.874v-47.845a10.873,10.873,0,0,0-10.874-10.873H816.975a10.873,10.873,0,0,0-10.874,10.873v47.845a10.874,10.874,0,0,0,10.874,10.874Z" transform="translate(-802.476 -2897.969)" fill="#f17781" opacity="0.25"/>
  <path id="Trazado_108242" data-name="Trazado 108242" d="M966.293,3050.541l30.116,30.116a8.665,8.665,0,0,0,12.256-12.254l-30.116-30.118Z" transform="translate(-829.25 -2920.815)" fill="#f17781" opacity="0.25"/>
  <path id="Trazado_108243" data-name="Trazado 108243" d="M971.428,2999.923a43.495,43.495,0,1,1-43.495-43.495A43.5,43.5,0,0,1,971.428,2999.923Z" transform="translate(-815.569 -2907.134)" fill="#fff"/>
  <path id="Trazado_108244" data-name="Trazado 108244" d="M959.259,3002.978a28.272,28.272,0,1,1-28.272-28.271A28.271,28.271,0,0,1,959.259,3002.978Z" transform="translate(-818.624 -2910.189)" fill="#f17781" opacity="0.25"/>
  <path id="Trazado_108245" data-name="Trazado 108245" d="M930.26,2970.354a31.9,31.9,0,1,0,31.9,31.9A31.932,31.932,0,0,0,930.26,2970.354Zm0,56.543a24.647,24.647,0,1,1,24.647-24.647A24.674,24.674,0,0,1,930.26,3026.9Z" transform="translate(-817.897 -2909.462)" fill="#f17781"/>
  <path id="Trazado_108246" data-name="Trazado 108246" d="M935.934,2989.069a3.625,3.625,0,1,0,0,7.249,9.071,9.071,0,0,1,9.06,9.06,3.625,3.625,0,1,0,7.249,0A16.327,16.327,0,0,0,935.934,2989.069Z" transform="translate(-823.57 -2912.59)" fill="#f17781"/>
  <path id="Trazado_108247" data-name="Trazado 108247" d="M827.2,2929.663a3.625,3.625,0,1,0-6.438,3.333l9.756,18.848a3.624,3.624,0,0,0,6.486-.1l5.907-12.3,6.416,12.4a3.626,3.626,0,0,0,3.219,1.958h.054a3.628,3.628,0,0,0,3.214-2.056l9.052-18.848a3.624,3.624,0,1,0-6.534-3.137l-5.908,12.3-6.416-12.4a3.624,3.624,0,0,0-6.486.1l-5.9,12.3Z" transform="translate(-804.859 -2902.333)" fill="#f17781"/>
  <path id="Trazado_108248" data-name="Trazado 108248" d="M855.852,2904.491a3.627,3.627,0,1,0-2.562-1.062A3.651,3.651,0,0,0,855.852,2904.491Z" transform="translate(-810.186 -2897.242)" fill="#f17781"/>
  <path id="Trazado_108249" data-name="Trazado 108249" d="M987.327,2959.585V2911.74a14.514,14.514,0,0,0-14.5-14.5H862.638a3.625,3.625,0,1,0,0,7.249H972.83a7.257,7.257,0,0,1,7.249,7.248v47.845a7.258,7.258,0,0,1-7.249,7.249h-17.4c-.1,0-.207.007-.308.016a47.372,47.372,0,0,0-25.478-21.3l5.373-11.187,6.416,12.394a3.621,3.621,0,0,0,3.218,1.958h.056a3.626,3.626,0,0,0,3.212-2.056l9.052-18.848a3.624,3.624,0,1,0-6.534-3.137l-5.906,12.3-6.416-12.4a3.626,3.626,0,0,0-6.486.1l-5.907,12.3-6.416-12.4a3.625,3.625,0,0,0-6.439,3.333l8.022,15.5a47.184,47.184,0,0,0-19.635,1.294l8.111-16.888a3.624,3.624,0,0,0-6.535-3.137l-5.907,12.3-6.416-12.4a3.625,3.625,0,0,0-6.486.1l-5.905,12.3-6.417-12.4a3.625,3.625,0,0,0-6.438,3.333l9.757,18.848a3.624,3.624,0,0,0,6.486-.1l5.907-12.3,6.415,12.394a3.612,3.612,0,0,0,.382.576,47.439,47.439,0,0,0-21.1,19.505H816.248a7.258,7.258,0,0,1-7.249-7.249V2911.74a7.257,7.257,0,0,1,7.249-7.248h14.858a3.625,3.625,0,0,0,0-7.249H816.248a14.515,14.515,0,0,0-14.5,14.5v47.845a14.515,14.515,0,0,0,14.5,14.5h53.527a47.109,47.109,0,0,0,67.8,56.8l28.768,28.767a12.291,12.291,0,1,0,17.38-17.383l-11.3-11.3a3.624,3.624,0,0,0-5.125,5.125l11.3,11.3a5.041,5.041,0,1,1-7.129,7.13l-27.814-27.816a47.074,47.074,0,0,0,14.793-52.624H972.83A14.515,14.515,0,0,0,987.327,2959.585ZM914.113,3029.9a39.87,39.87,0,1,1,39.87-39.871A39.916,39.916,0,0,1,914.113,3029.9Z" transform="translate(-801.749 -2897.242)" fill="#f17781"/>
  <path id="Trazado_108250" data-name="Trazado 108250" d="M989.984,3047.262a3.623,3.623,0,1,0,2.563-1.062A3.649,3.649,0,0,0,989.984,3047.262Z" transform="translate(-833.032 -2922.138)" fill="#f17781"/>
</svg>
